<?xml version="1.0" encoding="utf-8"?>
<!-- Generator: Adobe Illustrator 19.2.1, SVG Export Plug-In . SVG Version: 6.00 Build 0)  -->
<svg version="1.1" id="Layer_1" xmlns="http://www.w3.org/2000/svg" xmlns:xlink="http://www.w3.org/1999/xlink" x="0px" y="0px"
	 viewBox="0 0 50 50" style="enable-background:new 0 0 50 50;" xml:space="preserve">
<style type="text/css">
	.st0{fill:url(#SVGID_1_);}
</style>
<g>
	<g>
		<radialGradient id="SVGID_1_" cx="14.9842" cy="11.7681" r="38.8842" gradientUnits="userSpaceOnUse">
			<stop  offset="0" style="stop-color:#EFAE9A"/>
			<stop  offset="1" style="stop-color:#B5624C"/>
		</radialGradient>
		<path class="st0" d="M44.4,16.6c-0.1-2.1-0.4-3.5-0.9-4.7c-0.5-1.3-1.2-2.4-2.2-3.5c-1.1-1.1-2.2-1.8-3.5-2.3
			c-1.2-0.5-2.7-0.8-4.7-0.9c-2.1-0.1-2.7-0.1-8-0.1s-6,0-8,0.1c-2.1,0.1-3.5,0.4-4.7,0.9C11.1,6.6,10,7.3,8.9,8.4
			C7.7,9.5,7,10.6,6.5,11.9c-0.5,1.2-0.8,2.7-0.9,4.7c-0.1,2.1-0.1,2.7-0.1,8s0,6,0.1,8c0.1,2.1,0.4,3.5,0.9,4.7
			c0.5,1.3,1.2,2.4,2.2,3.5c1.1,1.1,2.2,1.8,3.5,2.3c1.2,0.5,2.7,0.8,4.7,0.9c2.1,0.1,2.7,0.1,8,0.1s6,0,8-0.1
			c2.1-0.1,3.5-0.4,4.7-0.9c1.3-0.5,2.4-1.2,3.5-2.3s1.8-2.2,2.2-3.5c0.5-1.2,0.8-2.7,0.9-4.7c0.1-2.1,0.1-2.7,0.1-8
			C44.5,19.4,44.5,18.7,44.4,16.6z M40.4,32.3c-0.1,1.8-0.4,2.8-0.7,3.5c-0.3,0.9-0.8,1.5-1.4,2.2c-0.7,0.7-1.3,1.1-2.2,1.4
			c-0.7,0.3-1.7,0.6-3.5,0.7c-2,0.1-2.6,0.1-7.6,0.1s-5.6,0-7.6-0.1c-1.8-0.1-2.8-0.4-3.5-0.7C13,39,12.3,38.6,11.7,38
			c-0.7-0.7-1.1-1.3-1.4-2.2c-0.3-0.7-0.6-1.7-0.7-3.5c-0.1-2-0.1-2.6-0.1-7.6s0-5.6,0.1-7.6c0.1-1.8,0.4-2.8,0.7-3.5
			c0.3-0.9,0.8-1.5,1.4-2.2c0.7-0.7,1.3-1.1,2.2-1.4c0.7-0.3,1.7-0.6,3.5-0.7c2-0.1,2.6-0.1,7.6-0.1s5.6,0,7.6,0.1
			c1.8,0.1,2.8,0.4,3.5,0.7c0.9,0.3,1.5,0.8,2.2,1.4c0.7,0.7,1.1,1.3,1.4,2.2c0.3,0.7,0.6,1.7,0.7,3.5c0.1,2,0.1,2.6,0.1,7.6
			S40.5,30.3,40.4,32.3z M25,14.2c-5.8,0-10.5,4.7-10.5,10.5S19.2,35.2,25,35.2s10.5-4.7,10.5-10.5S30.8,14.2,25,14.2z M25,31.2
			c-3.6,0-6.5-2.9-6.5-6.5s2.9-6.5,6.5-6.5s6.5,2.9,6.5,6.5S28.6,31.2,25,31.2z M36,12.2c-1.4,0-2.5,1.1-2.5,2.5s1.1,2.5,2.5,2.5
			s2.5-1.1,2.5-2.5S37.4,12.2,36,12.2z"/>
	</g>
</g>
</svg>
