<?xml version="1.0" encoding="utf-8"?>
<!-- Generator: Adobe Illustrator 19.2.1, SVG Export Plug-In . SVG Version: 6.00 Build 0)  -->
<svg version="1.1" id="Layer_1" xmlns="http://www.w3.org/2000/svg" xmlns:xlink="http://www.w3.org/1999/xlink" x="0px" y="0px"
	 viewBox="0 0 50 50" style="enable-background:new 0 0 50 50;" xml:space="preserve">
<style type="text/css">
	.st0{fill:#111111;}
</style>
<path class="st0" d="M14.6,42.3H6.9V17.6h7.7V42.3z M10.8,14.2c-2.5,0-4.4-2-4.4-4.5c0-2.5,2-4.5,4.4-4.5c2.5,0,4.4,2,4.4,4.5
	C15.2,12.2,13.2,14.2,10.8,14.2z M43.3,42.3h-7.7v-12c0-2.9,0-6.6-4-6.6c-4,0-4.6,3.1-4.6,6.3v12.2h-7.7V17.6h7.3V21h0.1
	c1-1.9,3.5-4,7.3-4c7.8,0,9.2,5.1,9.2,11.8V42.3z"/>
</svg>
