<?xml version="1.0" encoding="utf-8"?>
<!-- Generator: Adobe Illustrator 19.2.1, SVG Export Plug-In . SVG Version: 6.00 Build 0)  -->
<svg version="1.1" id="Layer_1" xmlns="http://www.w3.org/2000/svg" xmlns:xlink="http://www.w3.org/1999/xlink" x="0px" y="0px"
	 viewBox="0 0 50 50" style="enable-background:new 0 0 50 50;" xml:space="preserve">
<style type="text/css">
	.st0{fill:#111111;}
</style>
<path class="st0" d="M45,12.7c-1.5,0.7-3.1,1.1-4.6,1.3c1.8-1.1,2.9-2.6,3.5-4.5c-1.6,0.9-3.3,1.6-5.1,2C37.2,9.8,35.2,9,32.9,9
	c-2.2,0-4.2,0.8-5.7,2.4c-1.5,1.6-2.3,3.5-2.3,5.7c0,0.7,0.1,1.4,0.2,1.9c-6.6-0.4-12.5-3.4-16.6-8.3c-0.7,1.3-1.1,2.6-1.1,3.9
	c0,2.8,1.2,5.1,3.6,6.7c-1.3,0-2.5-0.4-3.6-1v0.1c0,1.9,0.6,3.7,1.8,5.2c1.2,1.5,2.8,2.4,4.6,2.8c-0.7,0.2-1.4,0.3-2.2,0.3
	c-0.5,0-1,0-1.5-0.2c0.5,1.6,1.5,2.9,2.8,4c1.4,1.1,2.9,1.6,4.7,1.6c-3.2,2.6-6.5,3.8-10,3.8c-0.7,0-1.3,0-1.9-0.1
	c3.4,2.2,7.5,3.3,12.3,3.3c5.8,0,10.9-2,14.5-5c1.8-1.5,3.3-3.3,4.6-5.3c2.6-4,3.8-8.4,3.8-12.7V17C42.6,15.8,43.9,14.4,45,12.7z"/>
</svg>
