<?xml version="1.0" encoding="utf-8"?>
<!-- Generator: Adobe Illustrator 20.1.0, SVG Export Plug-In . SVG Version: 6.00 Build 0)  -->
<svg version="1.1" id="Layer_1" xmlns="http://www.w3.org/2000/svg" xmlns:xlink="http://www.w3.org/1999/xlink" x="0px" y="0px"
	 viewBox="0 0 800 300" style="enable-background:new 0 0 800 300;" xml:space="preserve">
<style type="text/css">
	.st0{fill:#FFFFFF;}
</style>
<polygon class="st0" points="184.1,172.4 177.6,186.8 171.1,172.6 171,172.4 163.3,172.4 163.3,175.7 166.8,175.7 166.8,199.4 
	163.3,199.4 163.3,202.8 174.7,202.8 174.7,199.4 170.5,199.4 170.5,179.9 177.6,195.2 184.6,179.9 184.6,199.4 180.5,199.4 
	180.5,202.8 191.8,202.8 191.8,199.4 188.4,199.4 188.4,175.7 191.8,175.7 191.8,172.4 "/>
<path class="st0" d="M227,168.9l-11.6,30.3h-2.6v3.4h10.7v-3.4h-4.1l2.1-5.7h11.4l2.1,5.7h-4.1v3.4h10.7v-3.4h-2.6L227,168.9z
	 M231.6,190.2h-8.9l4.4-12.3L231.6,190.2z"/>
<polygon class="st0" points="279.2,175.7 283.9,175.7 283.9,195.8 270.6,172.6 270.6,172.4 262.9,172.4 262.9,175.7 266.6,175.7 
	266.6,199.4 262.9,199.4 262.9,202.8 274.9,202.8 274.9,199.4 270.3,199.4 270.3,179.4 283.9,202.8 287.6,202.8 287.6,175.7 
	290.7,175.7 290.7,172.4 279.2,172.4 "/>
<path class="st0" d="M334.4,173.4c-2-1.1-4.4-1.6-6.6-1.6c-5.8,0-12.6,4.1-12.6,15.5c0,12.7,7.8,16.1,12.5,16.1
	c3.7,0,7.3-1.6,10.4-4.6l0.1-0.1v-6.8h-3.7v0.4c0,5.1-2.2,7.8-6.6,7.8c-6.1,0-8.8-6.4-8.8-12.4c0-5.6,2.4-12.3,8.9-12.3
	c4.9,0,6,2.7,6.2,7.2v0.4l3.5-0.6l-0.3-4.1c-0.1-1.8,0.3-3.4,0.9-5l0.2-0.4l-3.4-1.1L334.4,173.4z"/>
<path class="st0" d="M434,193.7c0,5.5-0.4,5.6-3.8,5.6h-8.9V188h6.2v4.7h3.7v-12.3h-3.7v4.1h-6.2v-8.7h8c3.7,0,3.7,0.4,3.7,4.2v1.7
	h3.7v-9.3h-24.3v3.4h4.9v23.7h-4.9v3.4h25.1v-10.3h-3.7L434,193.7L434,193.7z"/>
<path class="st0" d="M476.5,185.4c-3.6-1.1-6.8-2.1-6.8-5.6c0-3.7,4.1-4.8,6.3-4.8c2.6,0,4.1,0.7,4.9,2.1c0.4,1,0.5,2.4,0.6,3.6
	c0,0.4,0,0.6,0.1,0.9v0.4l3.7-0.5l-0.1-0.4c-0.4-1.4-0.5-2.8-0.4-4.2l0.4-5.3l-3.6-0.6l-0.4,1.9c-1.5-0.7-3.5-1.1-5.4-1.1
	c-5,0-10.1,2.8-10.1,8.4c0,5.9,4.8,7.4,8.8,8.6c3.9,1.1,7.1,2.2,7.1,6.2c0,3.4-3.2,4.9-6.2,4.9c-4.2,0-6.3-1.5-6.7-5l-0.4-2.6
	l-3.6,0.5l0.2,0.6c0.3,1.3,0.5,2.6,0.4,4.1l-0.5,5.6l3.6,0.4l0.2-1.7c2.4,1.1,4.1,1.6,6.6,1.6c5.9,0,10.2-3.6,10.2-8.6
	C485.6,188.4,480.7,186.9,476.5,185.4"/>
<path class="st0" d="M512.3,183.5h3.7v-4.1c0-3.4,0.3-3.6,3.4-3.6h3.7v23.5h-6.4v3.4h16.8v-3.4h-6.4v-23.5h3.7
	c3.2,0,3.4,0.3,3.4,3.6v4.1h3.7v-11.1h-25.4L512.3,183.5L512.3,183.5z"/>
<path class="st0" d="M582.7,193.7c0,5.5-0.4,5.6-3.8,5.6H570V188h6.2v4.7h3.7v-12.3h-3.7v4.1H570v-8.7h8c3.7,0,3.7,0.4,3.7,4.2v1.7
	h3.7v-9.3h-24.3v3.4h4.9v23.7h-4.9v3.4h25.1v-10.3h-3.7L582.7,193.7L582.7,193.7z"/>
<path class="st0" d="M634.5,199.4l-7.2-10.8c4.1-1.3,6.3-4.2,6.3-8.2c0-5.9-5-8-9.8-8c-1.2,0-2.6,0.2-3.9,0.4
	c-1.2,0.2-2.6,0.4-3.8,0.4c-1.6,0-2.8-0.3-4.5-0.6l-0.4-0.1v3.4l4.1,0.4v23.3h-4.1v3.4h12.5v-3.4H619v-10.1h4.3l9.1,13.6h6v-3.4
	L634.5,199.4L634.5,199.4z M629.7,180.8c0,1.6-0.6,2.8-1.9,3.7c-1.3,1.1-3.4,1.5-6.3,1.5l-2.6-0.1v-9.8c1.5-0.2,3.2-0.4,4.9-0.4
	C625.9,175.7,629.7,176.4,629.7,180.8"/>
<polygon class="st0" points="377.7,220 381.8,220 381.8,229.7 370.5,229.7 370.5,220 374.5,220 374.5,216.7 362.5,216.7 362.5,220 
	366.7,220 366.7,243.6 362.5,243.6 362.5,247 374.5,247 374.5,243.6 370.5,243.6 370.5,233.1 381.8,233.1 381.8,243.6 377.7,243.6 
	377.7,247 389.7,247 389.7,243.6 385.5,243.6 385.5,220 389.7,220 389.7,216.7 377.7,216.7 "/>
<rect x="423.4" y="229.3" class="st0" width="5.2" height="5.2"/>
<polygon class="st0" points="377.6,175.7 381.8,175.7 381.8,185.4 370.3,185.4 370.3,175.7 374.4,175.7 374.4,172.4 362.4,172.4 
	362.4,175.7 366.6,175.7 366.6,199.4 362.4,199.4 362.4,202.8 374.4,202.8 374.4,199.4 370.3,199.4 370.3,189 381.8,189 
	381.8,199.4 377.6,199.4 377.6,202.8 389.6,202.8 389.6,199.4 385.5,199.4 385.5,175.7 389.6,175.7 389.6,172.4 377.6,172.4 "/>
<path class="st0" d="M425.8,216c-8.5,0-12.3,8.2-12.3,15.8c0,7.7,3.9,15.9,12.3,15.9c8.5,0,12.3-8.2,12.3-15.9
	C437.9,224.2,434.1,216,425.8,216 M425.8,244.2c-6.6,0-8.4-7.8-8.4-12.3c0-4.6,1.8-12.3,8.4-12.3s8.4,7.8,8.4,12.3
	C434.1,236.4,432.4,244.2,425.8,244.2"/>
<path class="st0" d="M477.6,220h3.7v17.5c0,5.6-2.4,6.6-6,6.6c-3.5,0-6-1.1-6-6.6V220h3.7v-3.4h-10.8v3.4h3.4v18
	c0,6.4,3.2,9.6,9.7,9.6s9.7-3.2,9.7-9.6v-18h3.4v-3.4h-10.8V220z"/>
<path class="st0" d="M526.1,229.7c-3.6-1.1-6.8-2.1-6.8-5.6c0-3.7,4.1-4.8,6.3-4.8c2.6,0,4.1,0.7,4.9,2.1c0.4,1,0.5,2.4,0.6,3.6
	c0,0.4,0,0.6,0.1,0.9v0.4l3.7-0.5l-0.1-0.4c-0.4-1.4-0.5-2.8-0.4-4.2l0.4-5.3l-3.6-0.6l-0.4,1.9c-1.5-0.7-3.5-1.1-5.4-1.1
	c-5,0-10.1,2.8-10.1,8.4c0,5.9,4.8,7.4,8.8,8.6c3.9,1.1,7.1,2.2,7.1,6.2c0,3.4-3.2,4.9-6.2,4.9c-4.2,0-6.3-1.5-6.7-5l-0.4-2.6
	l-3.6,0.5l0.2,0.6c0.4,1.3,0.5,2.6,0.4,4.1l-0.5,5.6l3.6,0.4l0.2-1.7c2.4,1.1,4.1,1.6,6.6,1.6c5.9,0,10.2-3.6,10.2-8.7
	C535.4,232.6,530.4,231.1,526.1,229.7"/>
<path class="st0" d="M582.8,236.7v1.2c0,5.5-0.4,5.6-3.8,5.6h-8.9v-11.4h6.2v4.7h3.7v-12.3h-3.7v4.1h-6.2v-8.7h8
	c3.7,0,3.7,0.4,3.7,4.2v1.7h3.7v-9.3h-24.3v3.4h4.9v23.5h-4.9v3.4h25.1v-10.3L582.8,236.7L582.8,236.7z"/>
<path class="st0" d="M506.4,53.6c-1.1,0-1.9,0.9-1.9,1.9s0.9,1.9,1.9,1.9c1.1,0,1.9-0.9,1.9-1.9S507.3,53.6,506.4,53.6"/>
<path class="st0" d="M515.8,53.6c-1.1,0-1.9,0.9-1.9,1.9s0.9,1.9,1.9,1.9c1.1,0,1.9-0.9,1.9-1.9C517.7,54.5,516.9,53.6,515.8,53.6"
	/>
<path class="st0" d="M506.4,63.5c-1.1,0-1.9,0.9-1.9,1.9c0,1.1,0.9,1.9,1.9,1.9c1.1,0,1.9-0.9,1.9-1.9
	C508.2,64.4,507.3,63.5,506.4,63.5"/>
<path class="st0" d="M515.8,63.5c-1.1,0-1.9,0.9-1.9,1.9c0,1.1,0.9,1.9,1.9,1.9c1.1,0,1.9-0.9,1.9-1.9
	C517.7,64.4,516.9,63.5,515.8,63.5"/>
<path class="st0" d="M487.8,53.6c-1.1,0-1.9,0.9-1.9,1.9s0.9,1.9,1.9,1.9c1.1,0,1.9-0.9,1.9-1.9C489.8,54.5,488.9,53.6,487.8,53.6"
	/>
<path class="st0" d="M497.4,53.6c-1.1,0-1.9,0.9-1.9,1.9s0.9,1.9,1.9,1.9c1.1,0,1.9-0.9,1.9-1.9C499.2,54.5,498.3,53.6,497.4,53.6"
	/>
<path class="st0" d="M487.8,63.5c-1.1,0-1.9,0.9-1.9,1.9c0,1.1,0.9,1.9,1.9,1.9c1.1,0,1.9-0.9,1.9-1.9
	C489.8,64.4,488.9,63.5,487.8,63.5"/>
<path class="st0" d="M497.4,63.5c-1.1,0-1.9,0.9-1.9,1.9c0,1.1,0.9,1.9,1.9,1.9c1.1,0,1.9-0.9,1.9-1.9
	C499.2,64.4,498.3,63.5,497.4,63.5"/>
<path class="st0" d="M575.9,53.6c-1.1,0-1.9,0.9-1.9,1.9s0.9,1.9,1.9,1.9s1.9-0.9,1.9-1.9C577.7,54.5,576.8,53.6,575.9,53.6"/>
<path class="st0" d="M585.3,57.4c1.1,0,1.9-0.9,1.9-1.9c0-1.1-0.9-1.9-1.9-1.9c-1.1,0-1.9,0.9-1.9,1.9
	C583.4,56.5,584.2,57.4,585.3,57.4"/>
<path class="st0" d="M575.9,63.5c-1.1,0-1.9,0.9-1.9,1.9c0,1.1,0.9,1.9,1.9,1.9s1.9-0.9,1.9-1.9C577.7,64.4,576.8,63.5,575.9,63.5"
	/>
<path class="st0" d="M585.3,63.5c-1.1,0-1.9,0.9-1.9,1.9c0,1.1,0.9,1.9,1.9,1.9s1.9-0.9,1.9-1.9C587.2,64.4,586.4,63.5,585.3,63.5"
	/>
<path class="st0" d="M487.8,131.1c-1.1,0-1.9,0.9-1.9,1.9s0.9,1.9,1.9,1.9c1.1,0,1.9-0.9,1.9-1.9C489.8,132,488.9,131.1,487.8,131.1
	"/>
<path class="st0" d="M497.4,131.1c-1.1,0-1.9,0.9-1.9,1.9s0.9,1.9,1.9,1.9c1.1,0,1.9-0.9,1.9-1.9C499.2,132,498.3,131.1,497.4,131.1
	"/>
<path class="st0" d="M575.9,131.1c-1.1,0-1.9,0.9-1.9,1.9s0.9,1.9,1.9,1.9s1.9-0.9,1.9-1.9C577.7,132,576.8,131.1,575.9,131.1"/>
<path class="st0" d="M585.3,131.1c-1.1,0-1.9,0.9-1.9,1.9s0.9,1.9,1.9,1.9s1.9-0.9,1.9-1.9C587.2,132,586.4,131.1,585.3,131.1"/>
<path class="st0" d="M557.3,53.6c-1.1,0-1.9,0.9-1.9,1.9s0.9,1.9,1.9,1.9c1.1,0,1.9-0.9,1.9-1.9C559.3,54.5,558.4,53.6,557.3,53.6"
	/>
<path class="st0" d="M566.9,53.6c-1.1,0-1.9,0.9-1.9,1.9s0.9,1.9,1.9,1.9s1.9-0.9,1.9-1.9S567.8,53.6,566.9,53.6"/>
<path class="st0" d="M506.4,141.2c-1.1,0-1.9,0.9-1.9,1.9c0,1.1,0.9,1.9,1.9,1.9c1.1,0,1.9-0.9,1.9-1.9S507.3,141.2,506.4,141.2"/>
<path class="st0" d="M515.8,141.2c-1.1,0-1.9,0.9-1.9,1.9c0,1.1,0.9,1.9,1.9,1.9c1.1,0,1.9-0.9,1.9-1.9S516.9,141.2,515.8,141.2"/>
<path class="st0" d="M487.8,141.2c-1.1,0-1.9,0.9-1.9,1.9c0,1.1,0.9,1.9,1.9,1.9c1.1,0,1.9-0.9,1.9-1.9
	C489.8,142.1,488.9,141.2,487.8,141.2"/>
<path class="st0" d="M497.4,141.2c-1.1,0-1.9,0.9-1.9,1.9c0,1.1,0.9,1.9,1.9,1.9c1.1,0,1.9-0.9,1.9-1.9
	C499.2,142.1,498.3,141.2,497.4,141.2"/>
<path class="st0" d="M575.9,141.2c-1.1,0-1.9,0.9-1.9,1.9c0,1.1,0.9,1.9,1.9,1.9s1.9-0.9,1.9-1.9
	C577.7,142.1,576.8,141.2,575.9,141.2"/>
<path class="st0" d="M585.3,141.2c-1.1,0-1.9,0.9-1.9,1.9c0,1.1,0.9,1.9,1.9,1.9s1.9-0.9,1.9-1.9
	C587.2,142.1,586.4,141.2,585.3,141.2"/>
<path class="st0" d="M557.3,141.2c-1.1,0-1.9,0.9-1.9,1.9c0,1.1,0.9,1.9,1.9,1.9c1.1,0,1.9-0.9,1.9-1.9S558.4,141.2,557.3,141.2"/>
<path class="st0" d="M566.9,141.2c-1.1,0-1.9,0.9-1.9,1.9c0,1.1,0.9,1.9,1.9,1.9s1.9-0.9,1.9-1.9S567.8,141.2,566.9,141.2"/>
<path class="st0" d="M557.3,63.5c-1.1,0-1.9,0.9-1.9,1.9c0,1.1,0.9,1.9,1.9,1.9c1.1,0,1.9-0.9,1.9-1.9
	C559.3,64.4,558.4,63.5,557.3,63.5"/>
<path class="st0" d="M566.9,63.5c-1.1,0-1.9,0.9-1.9,1.9c0,1.1,0.9,1.9,1.9,1.9s1.9-0.9,1.9-1.9C568.7,64.4,567.8,63.5,566.9,63.5"
	/>
<path class="st0" d="M506.4,72.6c-1.1,0-1.9,0.9-1.9,1.9s0.9,1.9,1.9,1.9c1.1,0,1.9-0.9,1.9-1.9C508.2,73.5,507.3,72.6,506.4,72.6"
	/>
<path class="st0" d="M515.8,72.6c-1.1,0-1.9,0.9-1.9,1.9s0.9,1.9,1.9,1.9c1.1,0,1.9-0.9,1.9-1.9C517.7,73.5,516.9,72.6,515.8,72.6"
	/>
<path class="st0" d="M557.3,72.6c-1.1,0-1.9,0.9-1.9,1.9s0.9,1.9,1.9,1.9c1.1,0,1.9-0.9,1.9-1.9C559.3,73.5,558.4,72.6,557.3,72.6"
	/>
<path class="st0" d="M566.9,72.6c-1.1,0-1.9,0.9-1.9,1.9s0.9,1.9,1.9,1.9s1.9-0.9,1.9-1.9C568.7,73.5,567.8,72.6,566.9,72.6"/>
<path class="st0" d="M506.4,81.8c-1.1,0-1.9,0.9-1.9,1.9c0,1.1,0.9,1.9,1.9,1.9c1.1,0,1.9-0.9,1.9-1.9
	C508.2,82.7,507.3,81.8,506.4,81.8"/>
<path class="st0" d="M515.8,81.8c-1.1,0-1.9,0.9-1.9,1.9c0,1.1,0.9,1.9,1.9,1.9c1.1,0,1.9-0.9,1.9-1.9
	C517.7,82.7,516.9,81.8,515.8,81.8"/>
<path class="st0" d="M557.3,81.8c-1.1,0-1.9,0.9-1.9,1.9c0,1.1,0.9,1.9,1.9,1.9c1.1,0,1.9-0.9,1.9-1.9
	C559.3,82.7,558.4,81.8,557.3,81.8"/>
<path class="st0" d="M566.9,81.8c-1.1,0-1.9,0.9-1.9,1.9c0,1.1,0.9,1.9,1.9,1.9s1.9-0.9,1.9-1.9C568.7,82.7,567.8,81.8,566.9,81.8"
	/>
<path class="st0" d="M506.4,91.7c-1.1,0-1.9,0.9-1.9,1.9c0,1.1,0.9,1.9,1.9,1.9c1.1,0,1.9-0.9,1.9-1.9S507.3,91.7,506.4,91.7"/>
<path class="st0" d="M515.8,91.7c-1.1,0-1.9,0.9-1.9,1.9c0,1.1,0.9,1.9,1.9,1.9c1.1,0,1.9-0.9,1.9-1.9
	C517.7,92.6,516.9,91.7,515.8,91.7"/>
<path class="st0" d="M557.3,91.7c-1.1,0-1.9,0.9-1.9,1.9c0,1.1,0.9,1.9,1.9,1.9c1.1,0,1.9-0.9,1.9-1.9
	C559.3,92.6,558.4,91.7,557.3,91.7"/>
<path class="st0" d="M566.9,91.7c-1.1,0-1.9,0.9-1.9,1.9c0,1.1,0.9,1.9,1.9,1.9s1.9-0.9,1.9-1.9S567.8,91.7,566.9,91.7"/>
<path class="st0" d="M506.4,101.6c-1.1,0-1.9,0.9-1.9,1.9c0,1.1,0.9,1.9,1.9,1.9c1.1,0,1.9-0.9,1.9-1.9
	C508.2,102.5,507.3,101.6,506.4,101.6"/>
<path class="st0" d="M515.8,101.6c-1.1,0-1.9,0.9-1.9,1.9c0,1.1,0.9,1.9,1.9,1.9c1.1,0,1.9-0.9,1.9-1.9
	C517.7,102.5,516.9,101.6,515.8,101.6"/>
<path class="st0" d="M525.9,91.7c-1.1,0-1.9,0.9-1.9,1.9c0,1.1,0.9,1.9,1.9,1.9c1,0,1.9-0.9,1.9-1.9
	C527.8,92.6,526.9,91.7,525.9,91.7"/>
<path class="st0" d="M525.9,101.6c-1.1,0-1.9,0.9-1.9,1.9c0,1.1,0.9,1.9,1.9,1.9c1,0,1.9-0.9,1.9-1.9
	C527.8,102.5,526.9,101.6,525.9,101.6"/>
<path class="st0" d="M536.5,91.7c-1.1,0-1.9,0.9-1.9,1.9c0,1.1,0.9,1.9,1.9,1.9c1.1,0,1.9-0.9,1.9-1.9
	C538.6,92.6,537.7,91.7,536.5,91.7"/>
<path class="st0" d="M536.5,101.6c-1.1,0-1.9,0.9-1.9,1.9c0,1.1,0.9,1.9,1.9,1.9c1.1,0,1.9-0.9,1.9-1.9
	C538.6,102.5,537.7,101.6,536.5,101.6"/>
<path class="st0" d="M547.3,91.7c-1.1,0-1.9,0.9-1.9,1.9c0,1.1,0.9,1.9,1.9,1.9c1.1,0,1.9-0.9,1.9-1.9S548.3,91.7,547.3,91.7"/>
<path class="st0" d="M547.3,101.6c-1.1,0-1.9,0.9-1.9,1.9c0,1.1,0.9,1.9,1.9,1.9c1.1,0,1.9-0.9,1.9-1.9
	C549.1,102.5,548.3,101.6,547.3,101.6"/>
<path class="st0" d="M557.3,101.6c-1.1,0-1.9,0.9-1.9,1.9c0,1.1,0.9,1.9,1.9,1.9c1.1,0,1.9-0.9,1.9-1.9
	C559.3,102.5,558.4,101.6,557.3,101.6"/>
<path class="st0" d="M566.9,101.6c-1.1,0-1.9,0.9-1.9,1.9c0,1.1,0.9,1.9,1.9,1.9s1.9-0.9,1.9-1.9
	C568.7,102.5,567.8,101.6,566.9,101.6"/>
<path class="st0" d="M506.4,111.5c-1.1,0-1.9,0.9-1.9,1.9c0,1.1,0.9,1.9,1.9,1.9c1.1,0,1.9-0.9,1.9-1.9
	C508.2,112.2,507.3,111.5,506.4,111.5"/>
<path class="st0" d="M515.8,111.5c-1.1,0-1.9,0.9-1.9,1.9c0,1.1,0.9,1.9,1.9,1.9c1.1,0,1.9-0.9,1.9-1.9
	C517.7,112.2,516.9,111.5,515.8,111.5"/>
<path class="st0" d="M557.3,111.5c-1.1,0-1.9,0.9-1.9,1.9c0,1.1,0.9,1.9,1.9,1.9c1.1,0,1.9-0.9,1.9-1.9
	C559.3,112.2,558.4,111.5,557.3,111.5"/>
<path class="st0" d="M566.9,111.5c-1.1,0-1.9,0.9-1.9,1.9c0,1.1,0.9,1.9,1.9,1.9s1.9-0.9,1.9-1.9
	C568.7,112.2,567.8,111.5,566.9,111.5"/>
<path class="st0" d="M506.4,121.2c-1.1,0-1.9,0.9-1.9,1.9c0,1.1,0.9,1.9,1.9,1.9c1.1,0,1.9-0.9,1.9-1.9
	C508.2,122.1,507.3,121.2,506.4,121.2"/>
<path class="st0" d="M515.8,121.2c-1.1,0-1.9,0.9-1.9,1.9c0,1.1,0.9,1.9,1.9,1.9c1.1,0,1.9-0.9,1.9-1.9
	C517.7,122.1,516.9,121.2,515.8,121.2"/>
<path class="st0" d="M557.3,121.2c-1.1,0-1.9,0.9-1.9,1.9c0,1.1,0.9,1.9,1.9,1.9c1.1,0,1.9-0.9,1.9-1.9
	C559.3,122.1,558.4,121.2,557.3,121.2"/>
<path class="st0" d="M566.9,121.2c-1.1,0-1.9,0.9-1.9,1.9c0,1.1,0.9,1.9,1.9,1.9s1.9-0.9,1.9-1.9
	C568.7,122.1,567.8,121.2,566.9,121.2"/>
<path class="st0" d="M506.4,131.1c-1.1,0-1.9,0.9-1.9,1.9s0.9,1.9,1.9,1.9c1.1,0,1.9-0.9,1.9-1.9S507.3,131.1,506.4,131.1"/>
<path class="st0" d="M515.8,131.1c-1.1,0-1.9,0.9-1.9,1.9s0.9,1.9,1.9,1.9c1.1,0,1.9-0.9,1.9-1.9C517.7,132,516.9,131.1,515.8,131.1
	"/>
<path class="st0" d="M557.3,131.1c-1.1,0-1.9,0.9-1.9,1.9s0.9,1.9,1.9,1.9c1.1,0,1.9-0.9,1.9-1.9C559.3,132,558.4,131.1,557.3,131.1
	"/>
<path class="st0" d="M566.9,131.1c-1.1,0-1.9,0.9-1.9,1.9s0.9,1.9,1.9,1.9s1.9-0.9,1.9-1.9S567.8,131.1,566.9,131.1"/>
<path class="st0" d="M384.6,53.6c-1.1,0-1.9,0.9-1.9,1.9s0.9,1.9,1.9,1.9c1.1,0,1.9-0.9,1.9-1.9C386.4,54.4,385.5,53.6,384.6,53.6"
	/>
<path class="st0" d="M394,53.6c-1.1,0-1.9,0.9-1.9,1.9s0.9,1.9,1.9,1.9c1.1,0,1.9-0.9,1.9-1.9C396,54.4,395.1,53.6,394,53.6"/>
<path class="st0" d="M384.6,63.5c-1.1,0-1.9,0.9-1.9,1.9c0,1.1,0.9,1.9,1.9,1.9c1.1,0,1.9-0.9,1.9-1.9
	C386.4,64.3,385.5,63.5,384.6,63.5"/>
<path class="st0" d="M394,63.5c-1.1,0-1.9,0.9-1.9,1.9c0,1.1,0.9,1.9,1.9,1.9c1.1,0,1.9-0.9,1.9-1.9C396,64.3,395.1,63.5,394,63.5"
	/>
<path class="st0" d="M366.1,53.6c-1.1,0-1.9,0.9-1.9,1.9s0.9,1.9,1.9,1.9c1.1,0,1.9-0.9,1.9-1.9C368,54.4,367.1,53.6,366.1,53.6"/>
<path class="st0" d="M375.6,53.6c-1.1,0-1.9,0.9-1.9,1.9s0.9,1.9,1.9,1.9s1.9-0.9,1.9-1.9C377.4,54.4,376.6,53.6,375.6,53.6"/>
<path class="st0" d="M366.1,63.5c-1.1,0-1.9,0.9-1.9,1.9c0,1.1,0.9,1.9,1.9,1.9c1.1,0,1.9-0.9,1.9-1.9
	C368,64.3,367.1,63.5,366.1,63.5"/>
<path class="st0" d="M375.6,63.5c-1.1,0-1.9,0.9-1.9,1.9c0,1.1,0.9,1.9,1.9,1.9s1.9-0.9,1.9-1.9C377.4,64.3,376.6,63.5,375.6,63.5"
	/>
<path class="st0" d="M459.7,53.6c-1.1,0-1.9,0.9-1.9,1.9s0.9,1.9,1.9,1.9c1.1,0,1.9-0.9,1.9-1.9C461.7,54.4,460.8,53.6,459.7,53.6"
	/>
<path class="st0" d="M469.2,57.4c1.1,0,1.9-0.9,1.9-1.9c0-1.1-0.9-1.9-1.9-1.9c-1.1,0-1.9,0.9-1.9,1.9
	C467.3,56.5,468.1,57.4,469.2,57.4"/>
<path class="st0" d="M459.7,63.5c-1.1,0-1.9,0.9-1.9,1.9c0,1.1,0.9,1.9,1.9,1.9c1.1,0,1.9-0.9,1.9-1.9
	C461.7,64.3,460.8,63.5,459.7,63.5"/>
<path class="st0" d="M469.2,63.5c-1.1,0-1.9,0.9-1.9,1.9c0,1.1,0.9,1.9,1.9,1.9c1.1,0,1.9-0.9,1.9-1.9
	C471.1,64.3,470.2,63.5,469.2,63.5"/>
<path class="st0" d="M366.1,131.1c-1.1,0-1.9,0.9-1.9,1.9s0.9,1.9,1.9,1.9c1.1,0,1.9-0.9,1.9-1.9S367.1,131.1,366.1,131.1"/>
<path class="st0" d="M375.6,131.1c-1.1,0-1.9,0.9-1.9,1.9s0.9,1.9,1.9,1.9s1.9-0.9,1.9-1.9C377.4,132,376.6,131.1,375.6,131.1"/>
<path class="st0" d="M459.7,131.1c-1.1,0-1.9,0.9-1.9,1.9s0.9,1.9,1.9,1.9c1.1,0,1.9-0.9,1.9-1.9C461.7,132,460.8,131.1,459.7,131.1
	"/>
<path class="st0" d="M469.2,131.1c-1.1,0-1.9,0.9-1.9,1.9s0.9,1.9,1.9,1.9c1.1,0,1.9-0.9,1.9-1.9C471.1,132,470.2,131.1,469.2,131.1
	"/>
<path class="st0" d="M441.3,53.6c-1.1,0-1.9,0.9-1.9,1.9s0.9,1.9,1.9,1.9c1.1,0,1.9-0.9,1.9-1.9C443.1,54.4,442.3,53.6,441.3,53.6"
	/>
<path class="st0" d="M450.7,53.6c-1.1,0-1.9,0.9-1.9,1.9s0.9,1.9,1.9,1.9c1.1,0,1.9-0.9,1.9-1.9C452.7,54.4,451.8,53.6,450.7,53.6"
	/>
<path class="st0" d="M384.6,141.2c-1.1,0-1.9,0.9-1.9,1.9c0,1.1,0.9,1.9,1.9,1.9c1.1,0,1.9-0.9,1.9-1.9S385.5,141.2,384.6,141.2"/>
<path class="st0" d="M394,141.2c-1.1,0-1.9,0.9-1.9,1.9c0,1.1,0.9,1.9,1.9,1.9c1.1,0,1.9-0.9,1.9-1.9S395.1,141.2,394,141.2"/>
<path class="st0" d="M366.1,141.2c-1.1,0-1.9,0.9-1.9,1.9c0,1.1,0.9,1.9,1.9,1.9c1.1,0,1.9-0.9,1.9-1.9S367.1,141.2,366.1,141.2"/>
<path class="st0" d="M375.6,141.2c-1.1,0-1.9,0.9-1.9,1.9c0,1.1,0.9,1.9,1.9,1.9s1.9-0.9,1.9-1.9
	C377.4,142.1,376.6,141.2,375.6,141.2"/>
<path class="st0" d="M459.7,141.2c-1.1,0-1.9,0.9-1.9,1.9c0,1.1,0.9,1.9,1.9,1.9c1.1,0,1.9-0.9,1.9-1.9S460.8,141.2,459.7,141.2"/>
<path class="st0" d="M469.2,141.2c-1.1,0-1.9,0.9-1.9,1.9c0,1.1,0.9,1.9,1.9,1.9c1.1,0,1.9-0.9,1.9-1.9S470.2,141.2,469.2,141.2"/>
<path class="st0" d="M441.3,141.2c-1.1,0-1.9,0.9-1.9,1.9c0,1.1,0.9,1.9,1.9,1.9c1.1,0,1.9-0.9,1.9-1.9S442.3,141.2,441.3,141.2"/>
<path class="st0" d="M450.7,141.2c-1.1,0-1.9,0.9-1.9,1.9c0,1.1,0.9,1.9,1.9,1.9c1.1,0,1.9-0.9,1.9-1.9S451.8,141.2,450.7,141.2"/>
<path class="st0" d="M441.3,63.5c-1.1,0-1.9,0.9-1.9,1.9c0,1.1,0.9,1.9,1.9,1.9c1.1,0,1.9-0.9,1.9-1.9
	C443.1,64.3,442.3,63.5,441.3,63.5"/>
<path class="st0" d="M450.7,63.5c-1.1,0-1.9,0.9-1.9,1.9c0,1.1,0.9,1.9,1.9,1.9c1.1,0,1.9-0.9,1.9-1.9
	C452.7,64.3,451.8,63.5,450.7,63.5"/>
<path class="st0" d="M384.6,72.6c-1.1,0-1.9,0.9-1.9,1.9s0.9,1.9,1.9,1.9c1.1,0,1.9-0.9,1.9-1.9C386.4,73.5,385.5,72.6,384.6,72.6"
	/>
<path class="st0" d="M394,72.6c-1.1,0-1.9,0.9-1.9,1.9s0.9,1.9,1.9,1.9c1.1,0,1.9-0.9,1.9-1.9C396,73.5,395.1,72.6,394,72.6"/>
<path class="st0" d="M441.3,72.6c-1.1,0-1.9,0.9-1.9,1.9s0.9,1.9,1.9,1.9c1.1,0,1.9-0.9,1.9-1.9C443.1,73.5,442.3,72.6,441.3,72.6"
	/>
<path class="st0" d="M450.7,72.6c-1.1,0-1.9,0.9-1.9,1.9s0.9,1.9,1.9,1.9c1.1,0,1.9-0.9,1.9-1.9C452.7,73.5,451.8,72.6,450.7,72.6"
	/>
<path class="st0" d="M384.6,81.7c-1.1,0-1.9,0.9-1.9,1.9c0,1.1,0.9,1.9,1.9,1.9c1.1,0,1.9-0.9,1.9-1.9
	C386.4,82.6,385.5,81.7,384.6,81.7"/>
<path class="st0" d="M394,81.7c-1.1,0-1.9,0.9-1.9,1.9c0,1.1,0.9,1.9,1.9,1.9c1.1,0,1.9-0.9,1.9-1.9C396,82.6,395.1,81.7,394,81.7"
	/>
<path class="st0" d="M441.3,81.7c-1.1,0-1.9,0.9-1.9,1.9c0,1.1,0.9,1.9,1.9,1.9c1.1,0,1.9-0.9,1.9-1.9
	C443.1,82.6,442.3,81.7,441.3,81.7"/>
<path class="st0" d="M450.7,81.7c-1.1,0-1.9,0.9-1.9,1.9c0,1.1,0.9,1.9,1.9,1.9c1.1,0,1.9-0.9,1.9-1.9
	C452.7,82.6,451.8,81.7,450.7,81.7"/>
<path class="st0" d="M384.6,91.7c-1.1,0-1.9,0.9-1.9,1.9c0,1.1,0.9,1.9,1.9,1.9c1.1,0,1.9-0.9,1.9-1.9
	C386.4,92.5,385.5,91.7,384.6,91.7"/>
<path class="st0" d="M394,91.7c-1.1,0-1.9,0.9-1.9,1.9c0,1.1,0.9,1.9,1.9,1.9c1.1,0,1.9-0.9,1.9-1.9C396,92.5,395.1,91.7,394,91.7"
	/>
<path class="st0" d="M441.3,91.7c-1.1,0-1.9,0.9-1.9,1.9c0,1.1,0.9,1.9,1.9,1.9c1.1,0,1.9-0.9,1.9-1.9
	C443.1,92.5,442.3,91.7,441.3,91.7"/>
<path class="st0" d="M450.7,91.7c-1.1,0-1.9,0.9-1.9,1.9c0,1.1,0.9,1.9,1.9,1.9c1.1,0,1.9-0.9,1.9-1.9
	C452.7,92.5,451.8,91.7,450.7,91.7"/>
<path class="st0" d="M384.6,101.6c-1.1,0-1.9,0.9-1.9,1.9c0,1.1,0.9,1.9,1.9,1.9c1.1,0,1.9-0.9,1.9-1.9
	C386.4,102.5,385.5,101.6,384.6,101.6"/>
<path class="st0" d="M394,101.6c-1.1,0-1.9,0.9-1.9,1.9c0,1.1,0.9,1.9,1.9,1.9c1.1,0,1.9-0.9,1.9-1.9
	C396,102.5,395.1,101.6,394,101.6"/>
<path class="st0" d="M441.3,101.6c-1.1,0-1.9,0.9-1.9,1.9c0,1.1,0.9,1.9,1.9,1.9c1.1,0,1.9-0.9,1.9-1.9
	C443.1,102.5,442.3,101.6,441.3,101.6"/>
<path class="st0" d="M450.7,101.6c-1.1,0-1.9,0.9-1.9,1.9c0,1.1,0.9,1.9,1.9,1.9c1.1,0,1.9-0.9,1.9-1.9
	C452.7,102.5,451.8,101.6,450.7,101.6"/>
<path class="st0" d="M384.6,111.5c-1.1,0-1.9,0.9-1.9,1.9c0,1.1,0.9,1.9,1.9,1.9c1.1,0,1.9-0.9,1.9-1.9
	C386.4,112.2,385.5,111.5,384.6,111.5"/>
<path class="st0" d="M394,111.5c-1.1,0-1.9,0.9-1.9,1.9c0,1.1,0.9,1.9,1.9,1.9c1.1,0,1.9-0.9,1.9-1.9
	C396,112.2,395.1,111.5,394,111.5"/>
<path class="st0" d="M441.3,111.5c-1.1,0-1.9,0.9-1.9,1.9c0,1.1,0.9,1.9,1.9,1.9c1.1,0,1.9-0.9,1.9-1.9
	C443.1,112.2,442.3,111.5,441.3,111.5"/>
<path class="st0" d="M450.7,111.5c-1.1,0-1.9,0.9-1.9,1.9c0,1.1,0.9,1.9,1.9,1.9c1.1,0,1.9-0.9,1.9-1.9
	C452.7,112.2,451.8,111.5,450.7,111.5"/>
<path class="st0" d="M384.6,121.2c-1.1,0-1.9,0.9-1.9,1.9c0,1.1,0.9,1.9,1.9,1.9c1.1,0,1.9-0.9,1.9-1.9
	C386.4,122.1,385.5,121.2,384.6,121.2"/>
<path class="st0" d="M394,121.2c-1.1,0-1.9,0.9-1.9,1.9c0,1.1,0.9,1.9,1.9,1.9c1.1,0,1.9-0.9,1.9-1.9
	C396,122.1,395.1,121.2,394,121.2"/>
<path class="st0" d="M441.3,121.2c-1.1,0-1.9,0.9-1.9,1.9c0,1.1,0.9,1.9,1.9,1.9c1.1,0,1.9-0.9,1.9-1.9
	C443.1,122.1,442.3,121.2,441.3,121.2"/>
<path class="st0" d="M450.7,121.2c-1.1,0-1.9,0.9-1.9,1.9c0,1.1,0.9,1.9,1.9,1.9c1.1,0,1.9-0.9,1.9-1.9
	C452.7,122.1,451.8,121.2,450.7,121.2"/>
<path class="st0" d="M384.6,131.1c-1.1,0-1.9,0.9-1.9,1.9s0.9,1.9,1.9,1.9c1.1,0,1.9-0.9,1.9-1.9S385.5,131.1,384.6,131.1"/>
<path class="st0" d="M394,131.1c-1.1,0-1.9,0.9-1.9,1.9s0.9,1.9,1.9,1.9c1.1,0,1.9-0.9,1.9-1.9C396,132,395.1,131.1,394,131.1"/>
<path class="st0" d="M441.3,131.1c-1.1,0-1.9,0.9-1.9,1.9s0.9,1.9,1.9,1.9c1.1,0,1.9-0.9,1.9-1.9C443.1,132,442.3,131.1,441.3,131.1
	"/>
<path class="st0" d="M450.7,131.1c-1.1,0-1.9,0.9-1.9,1.9s0.9,1.9,1.9,1.9c1.1,0,1.9-0.9,1.9-1.9C452.7,132,451.8,131.1,450.7,131.1
	"/>
<path class="st0" d="M402.2,68.6c-1.1,0-1.9,0.9-1.9,1.9c0,1,0.9,1.9,1.9,1.9s1.9-0.9,1.9-1.9C404.1,69.5,403.3,68.6,402.2,68.6"/>
<path class="st0" d="M402.2,80.1c-1.1,0-1.9,0.9-1.9,1.9c0,1.1,0.9,1.9,1.9,1.9s1.9-0.9,1.9-1.9C404.1,80.8,403.3,80.1,402.2,80.1"
	/>
<path class="st0" d="M409.7,76.2c-1.1,0-1.9,0.9-1.9,1.9s0.9,1.9,1.9,1.9c1.1,0,1.9-0.9,1.9-1.9C411.7,77,410.8,76.2,409.7,76.2"/>
<path class="st0" d="M409.7,87.6c-1.1,0-1.9,0.9-1.9,1.9c0,1.1,0.9,1.9,1.9,1.9c1.1,0,1.9-0.9,1.9-1.9
	C411.7,88.3,410.8,87.6,409.7,87.6"/>
<path class="st0" d="M424.8,76.3c-1.1,0-1.9,0.9-1.9,1.9c0,1.1,0.9,1.9,1.9,1.9c1.1,0,1.9-0.9,1.9-1.9
	C426.6,77.1,425.9,76.3,424.8,76.3"/>
<path class="st0" d="M424.8,87.6c-1.1,0-1.9,0.9-1.9,1.9c0,1.1,0.9,1.9,1.9,1.9c1.1,0,1.9-0.9,1.9-1.9
	C426.6,88.4,425.9,87.6,424.8,87.6"/>
<path class="st0" d="M432.3,68.6c-1.1,0-1.9,0.9-1.9,1.9c0,1,0.9,1.9,1.9,1.9c1.1,0,1.9-0.9,1.9-1.9
	C434.1,69.4,433.3,68.6,432.3,68.6"/>
<path class="st0" d="M432.3,80c-1.1,0-1.9,0.9-1.9,1.9c0,1.1,0.9,1.9,1.9,1.9c1.1,0,1.9-0.9,1.9-1.9C434.1,80.8,433.3,80,432.3,80"
	/>
<path class="st0" d="M417.2,83.8c-1.1,0-1.9,0.9-1.9,1.9c0,1.1,0.9,1.9,1.9,1.9c1.1,0,1.9-0.9,1.9-1.9
	C419.1,84.6,418.3,83.8,417.2,83.8"/>
<path class="st0" d="M417.2,95.1c-1.1,0-1.9,0.9-1.9,1.9c0,1.1,0.9,1.9,1.9,1.9c1.1,0,1.9-0.9,1.9-1.9
	C419.1,95.9,418.3,95.1,417.2,95.1"/>
</svg>
