<?xml version="1.0" encoding="utf-8"?>
<!-- Generator: Adobe Illustrator 20.1.0, SVG Export Plug-In . SVG Version: 6.00 Build 0)  -->
<svg version="1.1" id="Layer_1" xmlns="http://www.w3.org/2000/svg" xmlns:xlink="http://www.w3.org/1999/xlink" x="0px" y="0px"
	 viewBox="0 0 800 300" style="enable-background:new 0 0 800 300;" xml:space="preserve">
<style type="text/css">
	.st0{fill:#FFFFFF;}
</style>
<g>
	<path class="st0" d="M461.4,161.1c0,1.7,0,3.4,0,5.1c-0.1,0-0.1,0.1-0.1,0.2c-0.1,0.6,0.1,1.2-0.1,1.8c-0.1,0.2,0,0.4,0,0.6
		s-0.1,0.4-0.1,0.7c-0.1,0.5-0.1,1-0.1,1.5v0.1c-0.1,0.1-0.1,0.3-0.1,0.6s-0.1,0.3-0.1,0.6c-0.1,0.3,0,0.7-0.1,1
		c-0.1,0.2,0,0.5-0.1,0.7c-0.1,0.2,0,0.4-0.1,0.6c-0.1,0.2-0.1,0.5-0.1,0.7s-0.1,0.5-0.1,0.7s-0.1,0.5-0.1,0.7s-0.1,0.5-0.1,0.7
		c0,0.1-0.1,0.1-0.1,0.1c-0.1,0.4-0.3,0.8-0.3,1.2c-0.1,0.5-0.3,0.9-0.3,1.4c-0.1,0.4-0.2,0.8-0.3,1.2c-0.1,0.4-0.2,0.8-0.3,1.2
		c-0.3,1-0.6,1.9-1,2.9c-0.1,0.4-0.3,0.8-0.5,1.2c-0.1,0.4-0.3,0.8-0.5,1.2c-0.1,0.3-0.3,0.7-0.4,1c-0.1,0.3-0.3,0.7-0.5,1
		c-0.8,1.5-1.5,3.1-2.4,4.5c0,0.1-0.1,0.1-0.1,0.1c-0.3,0.5-0.6,1-1,1.5c-0.2,0.4-0.4,0.8-0.8,1.2c-0.3,0.5-0.6,1-1,1.5
		c-0.1,0.4-0.5,0.8-0.8,1.1c-0.3,0.5-0.7,1-1,1.4c-0.4,0.5-0.8,1-1.2,1.5c-0.4,0.4-0.8,0.9-1.2,1.3c-0.6,0.6-1.1,1.2-1.7,1.8
		c-0.9,0.9-1.8,1.8-2.7,2.7c-0.1,0.1-0.1,0.2-0.2,0.2c-0.3,0.1-0.4,0.3-0.6,0.6s-0.4,0.3-0.6,0.6c-0.3,0.3-0.7,0.7-1.1,1
		c-0.1,0.1-0.3,0.3-0.6,0.4c-0.4,0.3-0.8,0.6-1.2,0.9c-0.3,0.3-0.8,0.5-1,0.8c-0.6,0.3-1,0.8-1.5,1.1c-0.2,0.1-0.4,0.3-0.6,0.4
		c-0.2,0.1-0.3,0.3-0.6,0.4c-0.2,0.1-0.4,0.2-0.6,0.4c-0.3,0.3-0.7,0.5-1,0.7c-0.8,0.6-1.6,1-2.4,1.5c-0.3,0.3-0.8,0.5-1.2,0.7
		c-0.4,0.2-0.8,0.6-1.2,0.7c-0.3,0.3-0.6,0.3-1,0.6c-0.3,0.2-0.6,0.3-1,0.5c-0.4,0.2-0.8,0.5-1.3,0.7c-0.5,0.2-1,0.5-1.6,0.7
		c-0.4,0.1-0.8,0.5-1.3,0.6c-0.3,0.1-0.6,0.3-1,0.4c-0.3,0.1-0.6,0.3-1,0.4c-0.3,0.1-0.6,0.2-0.8,0.3c-0.5,0.2-0.9,0.3-1.4,0.6
		c-0.6,0.2-1.2,0.5-1.8,0.7c-0.5,0.2-1,0.4-1.5,0.6c-0.3,0.1-0.6,0.2-1,0.3s-0.7,0.3-1,0.3c-0.6,0.1-1.1,0.3-1.7,0.5
		c-0.3,0.1-0.7,0.2-1,0.3c-0.3,0.1-0.6,0.1-0.8,0.2c-0.6,0.2-1.1,0.3-1.7,0.4c-0.3,0.1-0.6,0.1-1,0.2c-0.5,0.1-0.9,0.2-1.4,0.3
		c-0.4,0.1-0.8,0.2-1.2,0.2c-0.1,0.2-0.4,0-0.6,0.2c-0.2-0.1-0.4,0.1-0.6,0.1c-0.2,0.1-0.4,0.1-0.6,0.1s-0.5,0.1-0.7,0.1
		c-0.2,0.2-0.5,0.1-0.8,0.1c-0.3,0.1-0.6,0.1-1,0.1c-0.1,0-0.2,0.1-0.3,0.1c-0.1,0-0.3-0.1-0.3,0c-0.2,0.1-0.3,0.1-0.6,0.1
		s-0.3,0.1-0.6,0.1c-0.3,0.1-0.8,0-1.1,0.1c-0.2,0.1-0.4,0.1-0.6,0.1c-0.2,0-0.4,0.1-0.6,0.1c-0.3,0-0.6,0-1,0.1
		c-0.4,0.1-0.9,0-1.3,0.1s-0.8,0-1.2,0.1c-0.4,0.1-0.8,0.1-1.2,0c-0.4,0-0.8,0.1-1.2,0.1c-1,0-1.9,0-2.8,0c-1,0-1.9,0.1-2.8-0.1
		c-0.8-0.1-1.5,0.1-2.4-0.1c-0.5-0.1-1,0-1.6-0.1c-0.5-0.1-0.9,0-1.4-0.1c-0.3-0.1-0.7,0-1.1-0.1c-0.3-0.1-0.6,0-1-0.1
		c-0.3-0.1-0.6,0-0.9-0.1s-0.6,0-0.8-0.1c-0.3-0.1-0.6,0-0.8-0.1c-0.2-0.1-0.4,0-0.7-0.1c-0.2-0.1-0.5,0-0.7-0.1s-0.4,0-0.7-0.1
		c-0.2-0.1-0.4,0-0.7-0.1c-0.1-0.1-0.3,0-0.5-0.1c-0.1-0.1-0.3-0.1-0.6-0.1c-0.4-0.1-0.9-0.1-1.3-0.2c-0.2,0-0.4-0.1-0.7-0.1
		c-0.1-0.2-0.4-0.1-0.6-0.1c-0.1-0.1-0.4-0.1-0.6-0.1s-0.4-0.1-0.6-0.1c-0.3-0.1-0.7-0.2-1-0.2c-0.5-0.1-1-0.2-1.4-0.3
		c-0.6-0.1-1.2-0.3-1.7-0.4c-0.3-0.1-0.6-0.1-1-0.3c-0.4-0.1-0.8-0.3-1.3-0.3c-0.4-0.1-0.8-0.2-1.2-0.3c-1-0.3-2-0.7-3.1-1
		c-0.8-0.3-1.5-0.6-2.2-0.8c-0.8-0.3-1.5-0.6-2.3-1c-0.6-0.3-1.2-0.5-1.7-0.8c-1.2-0.6-2.5-1.2-3.7-1.9c-0.7-0.4-1.4-0.8-2.1-1.2
		c-0.6-0.3-1.1-0.6-1.7-1c-1.4-0.9-2.8-1.9-4.2-2.8c-0.6-0.5-1.2-1-1.8-1.4c-0.2-0.1-0.4-0.3-0.6-0.6c-0.2-0.2-0.4-0.3-0.6-0.6
		c-0.5-0.4-1-0.9-1.5-1.4c-0.2-0.2-0.4-0.4-0.6-0.6c-0.1-0.1-0.3-0.2-0.4-0.3s-0.1-0.3-0.3-0.3c-0.3-0.2-0.5-0.4-0.6-0.6
		c-0.3-0.4-0.8-0.7-1-1.1c-0.3-0.3-0.7-0.7-1-1c-0.2-0.3-0.5-0.5-0.6-0.8c-0.3-0.5-0.7-0.8-1-1.2c-0.2-0.3-0.4-0.6-0.6-0.8
		c-0.3-0.4-0.6-0.9-0.9-1.4c-0.4-0.6-0.8-1.2-1.2-1.8c-0.1-0.3-0.3-0.6-0.6-0.9c-0.5-0.7-0.8-1.4-1.2-2.2c-0.6-0.9-1-1.9-1.4-2.8
		c-0.2-0.6-0.4-1-0.6-1.6c-0.1-0.3-0.3-0.7-0.4-1.1c-0.2-0.5-0.3-1-0.5-1.5c-0.1-0.6-0.3-1-0.5-1.6c-0.1-0.6-0.3-1.1-0.4-1.7
		c-0.1-0.7-0.3-1.3-0.4-2c0-0.1-0.1-0.2-0.1-0.3c0-0.1,0-0.3,0-0.3c-0.2-0.5-0.1-1-0.3-1.5c-0.1-0.1,0.1-0.4,0-0.6
		c-0.1-0.2-0.1-0.3-0.1-0.6s-0.1-0.3-0.1-0.5c0-0.6-0.1-1.2-0.1-1.9c0-0.1,0-0.3,0-0.3l-0.1-0.1c0-1.1,0-2.2,0-3.3
		c0.1,0,0.1-0.1,0.1-0.2c0-0.3-0.1-0.8,0-1.1c0.1-0.3,0.1-0.5,0.1-0.8c0-0.3,0.1-0.5,0.1-0.8c0-0.1,0.1-0.3,0.1-0.3
		c0-0.1-0.1-0.3,0-0.4c0.1-0.4,0.1-0.8,0.3-1.2c0.1-0.4,0.2-0.9,0.3-1.4c0.1-0.8,0.4-1.5,0.6-2.3c0.1-0.4,0.3-0.8,0.4-1.2
		c0.1-0.4,0.3-0.8,0.4-1.2c0.4-0.8,0.7-1.5,1-2.3c0.3-0.6,0.6-1.1,0.8-1.7c0.3-0.6,0.7-1.2,1-1.8c0.2-0.3,0.4-0.6,0.6-1
		c0.2-0.3,0.5-0.6,0.7-0.9c0.3-0.6,0.8-1.1,1.2-1.7c0.4-0.6,0.8-1,1.3-1.5c0.8-0.8,1.7-1.6,2.4-2.4l0.1-0.1c0.4-0.3,0.8-0.7,1.2-1
		c0.5-0.3,0.9-0.7,1.3-1c0.6-0.4,1.2-0.8,1.9-1.2c0.6-0.3,1.2-0.7,1.9-1c0.5-0.3,1-0.5,1.5-0.7c0.2-0.1,0.5-0.3,0.7-0.3
		c0.3-0.1,0.6-0.3,0.8-0.3c0.3-0.1,0.6-0.2,0.9-0.3c0.6-0.2,1.2-0.4,1.8-0.6c0.8-0.2,1.5-0.5,2.3-0.5c0.6-0.2,1.2-0.2,1.8-0.3
		c0.2-0.1,0.5-0.1,0.8-0.1c0.3,0,0.5-0.1,0.8-0.1c0.6-0.1,1.2-0.1,1.9-0.1c1.1,0,2.3,0,3.4,0c0.6,0,1.3,0.1,1.9,0.1h0.1
		c0.1,0.1,0.3,0.1,0.6,0.1c0.2,0,0.3,0.1,0.6,0.1c0.2,0,0.4,0,0.7,0.1c0.2,0.1,0.4,0,0.6,0.1c0.4,0,0.8,0.2,1.2,0.2
		c0.1,0.1,0.3,0.1,0.6,0.1c0.3,0.1,0.6,0.2,0.9,0.3c0.6,0.1,1.1,0.2,1.6,0.4c0.6,0.2,1.3,0.4,1.9,0.7c0.6,0.3,1.3,0.5,1.9,0.8
		c0.9,0.4,1.7,0.8,2.6,1.4c0.5,0.3,1,0.6,1.5,1c0.6,0.4,1.2,0.9,1.7,1.3c0.6,0.4,1.1,1,1.6,1.5c0.2,0.2,0.5,0.4,0.6,0.7
		c0.3,0.5,0.8,1,1.2,1.5c0.3,0.3,0.5,0.7,0.8,1c0.3,0.5,0.8,1,1,1.5c0.3,0.3,0.3,0.7,0.6,1c0.1,0.6,0.6,1.1,0.8,1.7
		c0.2,0.5,0.3,1,0.6,1.5c0.2,0.5,0.3,1,0.5,1.5c0.1,0.4,0.2,0.9,0.3,1.3c0,0.2,0,0.4,0.1,0.6s0.1,0.3,0.1,0.4c0,0.1,0.1,0.3,0.1,0.5
		s0.1,0.3,0.1,0.4c0,0.3-0.1,0.6,0.1,0.8c-0.1,0.5,0.1,1,0.1,1.5c0,0.8,0,1.7,0,2.5c0,0.3,0.1,0.6-0.1,0.8c0,0.4,0,0.9-0.1,1.3
		c0,0.1,0,0.3,0.1,0.3s0.2,0.1,0.3,0.1c0.1,0,0.1,0,0.2,0c0.3,0,0.6-0.1,0.9-0.1c0.3-0.1,0.6,0,0.9,0c0.4,0,0.8-0.1,1.3-0.1
		c0.2-0.1,0.5-0.1,0.7-0.1c0.2-0.2,0.5,0.1,0.7-0.2c0.3,0.1,0.5-0.1,0.7-0.1s0.4-0.1,0.6-0.1c0.5-0.2,1-0.3,1.5-0.4
		c0.8-0.3,1.5-0.6,2.3-0.9s1.4-0.8,2.2-1.1c0.3-0.1,0.6-0.3,0.9-0.6c0.4-0.4,1-0.7,1.4-1.1c0.3-0.3,0.7-0.6,1-0.9
		c0.6-0.6,1-1,1.6-1.6c0.1-0.1,0.1-0.1,0.2-0.2c0.2-0.3,0.4-0.5,0.6-0.8c0.2-0.3,0.4-0.6,0.6-0.8c0.6-0.8,1-1.6,1.5-2.4
		c0.3-0.5,0.5-1,0.7-1.5c0.1-0.3,0.2-0.6,0.3-0.9c0.1-0.3,0.2-0.6,0.3-1c0.1-0.3,0.1-0.6,0.3-0.9c0.1-0.3,0.2-0.6,0.2-0.9
		c0.1-0.1,0-0.3,0.1-0.5s0-0.3,0.1-0.5c0.1-0.1,0-0.3,0.1-0.5c0-0.1,0.1-0.2,0.1-0.3s-0.1-0.3,0-0.4c0.1-0.3,0.1-0.5,0.1-0.8
		c0-0.3,0.1-0.5,0.1-0.8c0-0.3,0-0.7,0-1c-0.1-0.7,0.1-1.4-0.1-2.1c-0.1-0.3-0.1-0.7-0.2-1.1c-0.1-0.5-0.3-1-0.5-1.5
		c-0.1-0.3-0.3-0.6-0.6-0.9c-0.3-0.5-0.6-0.9-1-1.3c-0.2-0.2-0.6-0.4-0.8-0.6c-0.5-0.3-1-0.7-1.5-1c-0.6-0.3-1.2-0.6-1.8-0.8
		c-0.3-0.1-0.6-0.3-1-0.3s-0.7-0.2-1-0.3c-0.3-0.1-0.7-0.1-1-0.2c-0.5-0.1-1-0.1-1.4-0.3c-0.2-0.1-0.5,0-0.6-0.1
		c-0.3-0.1-0.6-0.1-0.8-0.1c-0.3-0.1-0.6,0-0.9-0.1c-0.4-0.1-0.9-0.2-1.3-0.3c-0.5-0.1-1-0.2-1.5-0.2c-0.2,0-0.5,0-0.7-0.1
		c-0.6-0.2-1.2-0.2-1.8-0.3c-0.5-0.1-0.9-0.2-1.4-0.2c-0.2,0-0.4,0-0.6-0.1c-0.2-0.1-0.3,0-0.5-0.1s-0.3,0-0.6-0.1
		c-0.1-0.1-0.3-0.1-0.5-0.1c-0.6-0.1-1.1-0.3-1.7-0.3c-0.1-0.2-0.5,0-0.6-0.2c-0.4-0.1-0.8-0.1-1.2-0.3c-0.2-0.1-0.4,0-0.6-0.1
		c-0.2-0.1-0.4,0-0.6-0.1c-0.3-0.1-0.7-0.2-1.1-0.3c-0.8-0.1-1.7-0.5-2.5-0.7c-0.8-0.2-1.5-0.5-2.2-0.8c-0.8-0.3-1.7-0.7-2.5-1
		c-0.8-0.3-1.6-0.8-2.3-1.2c-0.8-0.4-1.5-1-2.1-1.5c-0.6-0.6-1.1-1.1-1.6-1.7c-0.3-0.4-0.6-0.8-0.7-1.2c-0.2-0.4-0.5-0.8-0.5-1.3
		c-0.2-0.3-0.2-0.7-0.3-1c-0.1-0.3-0.1-0.8-0.1-1.1c0-0.1,0-0.3,0-0.3c0-0.1,0.1-0.3,0.1-0.3c-0.1-0.5,0.1-1,0.3-1.5
		c0.2-0.6,0.5-1.2,0.8-1.7c0.5-0.8,1.1-1.6,1.7-2.3c0.8-0.9,1.7-1.7,2.6-2.6l0,0c0.5-0.3,0.9-0.8,1.3-1.1c0.3-0.3,0.8-0.5,1-0.8
		c0.2,0,0.3-0.3,0.5-0.3c0.3-0.1,0.6-0.3,0.8-0.6c0.4-0.3,0.8-0.6,1.3-0.9c0.5-0.3,1-0.7,1.5-1c0.4-0.3,0.8-0.6,1.2-0.8
		c0.3-0.2,0.6-0.4,0.9-0.6c0.3-0.2,0.5-0.3,0.8-0.6c0.5-0.3,0.9-0.6,1.4-0.8c0.8-0.5,1.5-1,2.2-1.5c0.8-0.5,1.5-1,2.3-1.5
		c0.7-0.4,1.3-0.8,1.9-1.3c0.6-0.4,1.1-0.8,1.6-1.2c0.3-0.2,0.5-0.5,0.8-0.6c0.1-0.1,0.3-0.2,0.4-0.3c0.1-0.1,0.3-0.3,0.3-0.4
		s0.2-0.3,0.3-0.5c0.3-0.5,0.3-1,0-1.4c-0.3-0.4-0.7-0.7-1.1-1c-0.3-0.1-0.6-0.3-1-0.4c-0.3-0.1-0.7-0.2-1-0.3
		c-0.4-0.1-0.8-0.3-1.3-0.3c-0.6-0.3-1.1-0.2-1.7-0.3c-0.2-0.1-0.3,0-0.6-0.1s-0.4,0-0.6-0.1c-0.3-0.1-0.6-0.1-0.8-0.1
		c-0.3-0.1-0.6-0.1-0.8-0.1c-0.3-0.1-0.6,0-0.9-0.1c-0.3-0.1-0.7,0-1-0.1c-0.4-0.1-0.8,0-1.2-0.1c-0.4-0.1-0.9,0-1.3-0.1
		c-0.6-0.1-1.1,0-1.7-0.1c-0.7-0.1-1.4,0-2.1-0.1c-0.9-0.1-1.8,0-2.7-0.1c-0.6-0.1-1.2,0-1.7,0s-1.1,0-1.7,0s-1.1-0.1-1.7-0.1
		c-3.9,0-7.8,0-11.7,0c-0.8,0-1.6,0-2.4,0s-1.6,0-2.4-0.1c-0.7-0.1-1.5-0.1-2.2,0c-0.7,0-1.5-0.1-2.2-0.1c-0.5,0-1,0.1-1.5-0.1
		c-0.3-0.1-0.6,0-0.9,0s-0.6-0.1-0.9-0.1c-0.6-0.1-1.2-0.1-1.9-0.1H334c-0.1-0.1-0.3-0.1-0.6-0.1s-0.3-0.1-0.6-0.1s-0.5,0-0.7-0.1
		c-0.2-0.1-0.5,0.1-0.8-0.1c-0.5,0-0.9-0.1-1.4-0.2c-0.2-0.1-0.4-0.1-0.7-0.1c-0.2,0-0.5,0-0.6-0.1c-0.2-0.1-0.5,0-0.6-0.1
		c-0.3,0-0.6-0.1-0.8-0.1c-0.2,0-0.3-0.1-0.5-0.1c-0.1,0-0.3-0.1-0.5-0.1c-0.4-0.1-0.8-0.3-1.2-0.4c-0.6-0.2-1.2-0.5-1.7-0.7
		c-0.3-0.1-0.6-0.3-1-0.6c-0.4-0.3-0.9-0.6-1.2-0.9c-0.1-0.1-0.3-0.3-0.4-0.3s-0.2-0.3-0.3-0.4c-0.4-0.4-0.7-0.9-1-1.4
		c-0.3-0.6-0.5-1-0.6-1.7c-0.1-0.3-0.1-0.6-0.1-0.9c-0.1-0.2,0-0.5,0-0.8c0-0.2-0.1-0.5,0.1-0.7c0.1-0.2-0.1-0.5,0.1-0.7
		c-0.1-0.4,0.2-0.8,0.2-1.1c0.3-0.8,0.6-1.7,1-2.5c0.3-0.7,0.7-1.3,1.1-1.9c0.2-0.3,0.5-0.7,0.7-1.1c0.2-0.3,0.5-0.6,0.7-0.9
		c0.3-0.5,0.8-0.9,1-1.4c0.1-0.1,0.3-0.2,0.3-0.3c0.1-0.1,0.2-0.3,0.3-0.3c0.1-0.1,0.1-0.3,0.3-0.3c0.1-0.3,0.3-0.3,0.5-0.6
		c0.1-0.2,0.3-0.3,0.5-0.6c0.1-0.2,0.3-0.3,0.6-0.6c1.1-1.1,2.2-2.3,3.5-3.3c0.4-0.3,0.8-0.8,1.2-1.1c0.4-0.3,0.9-0.8,1.3-1.1
		c0.2-0.2,0.4-0.4,0.7-0.6c0.4-0.3,0.8-0.6,1.1-0.9c0.1-0.1,0.2-0.1,0.3-0.2c0.1-0.1,0.2-0.1,0.3-0.1c0.3-0.3,0.6-0.5,1-0.7
		c0.3-0.3,0.7-0.5,1-0.8c0.6-0.5,1.2-0.8,1.8-1.2c0.8-0.6,1.7-1.1,2.5-1.7c0.5-0.3,0.9-0.6,1.4-0.8c0.3-0.2,0.7-0.4,1-0.6
		c0.4-0.3,0.8-0.5,1.2-0.8c0.3-0.2,0.6-0.3,1-0.5c0.5-0.3,1-0.6,1.5-0.9s1-0.5,1.5-0.8c0.3-0.1,0.6-0.3,0.8-0.4
		c0.3-0.1,0.6-0.3,0.8-0.3c0.3-0.1,0.6-0.3,0.8-0.5c0.3-0.1,0.6-0.3,0.8-0.4c1.1-0.6,2.2-1,3.3-1.6c0.6-0.2,1-0.5,1.6-0.7
		c0.6-0.2,1.1-0.5,1.7-0.7c0.3-0.1,0.5-0.3,0.8-0.3c0.6-0.2,1-0.4,1.6-0.6c0.4-0.1,0.8-0.3,1.2-0.5c0.5-0.1,0.9-0.3,1.4-0.5
		c0.5-0.1,0.9-0.3,1.4-0.5c0.8-0.3,1.6-0.6,2.4-0.8c0.5-0.1,0.9-0.3,1.4-0.4c0.3-0.1,0.7-0.2,1-0.3c0.3-0.1,0.6-0.2,1-0.3
		c0.4-0.1,0.9-0.3,1.4-0.3c0.2-0.1,0.5-0.1,0.7-0.2c0.4-0.1,0.8-0.1,1.2-0.3s0.9-0.2,1.3-0.3c0.3-0.1,0.7-0.1,1-0.3
		c0.3-0.1,0.6-0.2,0.8-0.2c0.4,0,0.8-0.1,1.1-0.2c0.4-0.1,0.8-0.2,1.2-0.3c0.2-0.1,0.4,0,0.6-0.1c0.2-0.1,0.4,0,0.6-0.1
		c0.1-0.1,0.4-0.1,0.6-0.1c0.3-0.1,0.5-0.1,0.8-0.1c0.4-0.1,0.8-0.1,1.2-0.3c0.4-0.1,0.8-0.1,1.2-0.2c0.2-0.1,0.3,0,0.6-0.1
		c0.2-0.1,0.4,0,0.6-0.1c0.2-0.1,0.5-0.1,0.7-0.1c0.2-0.1,0.5,0,0.8-0.1c0.2-0.1,0.5,0,0.8-0.1c0.2-0.1,0.6,0,0.8-0.1
		c0.3-0.1,0.6,0,1-0.1c0.3-0.1,0.6,0,1-0.1c0.3-0.1,0.8,0,1.2-0.1c1,0,2.1-0.1,3.1-0.1c0.1,0,0.2,0,0.3,0l0.1-0.1c1.7,0,3.5,0,5.3,0
		c0,0.1,0.1,0.1,0.2,0.1c0.8,0.1,1.5-0.1,2.2,0.1c0.3,0.1,0.6,0,0.9,0c0.3,0,0.6,0.1,0.8,0.1c0.3,0,0.6-0.1,0.8,0.1
		c0.2,0.1,0.4,0,0.6,0s0.4,0.1,0.6,0.1c0.4,0.1,0.8,0.1,1.2,0.1h0.1c0.1,0.1,0.3,0.1,0.6,0.1s0.3,0.1,0.6,0.1c0.3,0.1,0.7,0,1,0.1
		c0.2,0.1,0.5,0,0.6,0.1c0.2,0.1,0.5-0.1,0.7,0.1c0.3-0.1,0.5,0.1,0.7,0.1c0.3,0.1,0.8,0.1,1.1,0.2c0.3,0.1,0.8,0.1,1.2,0.2
		c0.3,0.1,0.7,0.1,1,0.2c0.6,0.1,1.1,0.3,1.7,0.4c0.4,0.1,0.8,0.2,1.2,0.3c0.6,0.1,1.1,0.3,1.7,0.6c0.9,0.3,1.8,0.6,2.7,1
		c0.6,0.3,1.2,0.5,1.8,0.8c0.6,0.3,1.2,0.6,1.8,0.8c0.4,0.1,0.8,0.4,1.1,0.6c0.7,0.3,1.3,0.7,1.9,1.1c0.5,0.3,1,0.6,1.5,0.9
		c0.7,0.5,1.4,0.9,2,1.5c0.4,0.3,0.9,0.7,1.4,1c0.4,0.3,0.8,0.7,1.2,1c0.2,0.1,0.3,0.3,0.5,0.5c0.1,0.1,0.3,0.2,0.4,0.4
		c0.1,0.2,0.3,0.3,0.5,0.4c0.3,0.3,0.5,0.6,0.8,0.8c0.6,0.6,1.1,1.2,1.6,1.8c0.2,0.3,0.5,0.5,0.6,0.8c0.4,0.6,0.8,1.1,1.2,1.7
		c0.3,0.5,0.7,1,1,1.5c0.2,0.3,0.3,0.7,0.6,1c0.2,0.3,0.3,0.6,0.6,1c0.4,0.8,0.8,1.7,1.2,2.5c0.1,0.2,0.2,0.4,0.3,0.7
		c0.2,0.7,0.6,1.2,0.7,1.9c0.1,0.2,0.1,0.3,0.2,0.6c0.1,0.2,0.1,0.4,0.2,0.6c0.3,0.6,0.4,1.3,0.6,2c0.1,0.3,0.2,0.8,0.3,1.1
		c0.1,0.4,0.1,0.8,0.3,1.2c0.1,0.2,0.1,0.4,0.1,0.6c0.1,0.2,0.1,0.4,0.1,0.6c0.1,0.5,0.1,1,0.2,1.5c0.1,0.3,0,0.6,0.1,1
		c0.1,0.3,0.1,0.6,0,1c-0.1,0.3,0.1,0.6,0.1,1c-0.1,0.8,0.1,1.6-0.1,2.4c0.1,0.9-0.1,1.8-0.1,2.7c0,0.1,0,0.1,0,0.1
		c-0.1,0.1-0.1,0.3-0.1,0.6s-0.1,0.3-0.1,0.6c-0.1,0.3-0.1,0.8-0.1,1.1v0.1c-0.1,0.3-0.1,0.6-0.1,0.8c-0.1,0.3-0.1,0.5-0.1,0.8
		c-0.2,0.5-0.2,1.1-0.3,1.6c-0.1,0.3-0.1,0.8-0.2,1.1c-0.1,0.5-0.3,1-0.4,1.5c-0.1,0.4-0.2,0.8-0.3,1.2s-0.3,0.8-0.4,1.2
		c-0.1,0.4-0.3,0.8-0.5,1.3c-0.1,0.4-0.2,0.8-0.4,1.2c-0.1,0.3-0.3,0.8-0.5,1.1c-0.2,0.3-0.3,0.8-0.5,1.1c-0.3,0.6-0.5,1.2-0.8,1.7
		c-0.3,0.6-0.6,1.2-1,1.9c-0.4,0.7-0.8,1.5-1.2,2.2c-0.3,0.4-0.5,0.9-0.8,1.3c-0.5,0.8-1,1.5-1.5,2.3c-0.3,0.6-0.7,1.2-1.2,1.7
		c-0.6,0.7-1,1.4-1.5,2.1c-0.3,0.5-0.7,1-1,1.5c-0.2,0.3-0.1,0.4,0.1,0.6c0.1,0.1,0.1,0.1,0.1,0.1c0.2,0.2,0.3,0.4,0.6,0.6
		c0.5,0.3,0.9,0.7,1.4,1c0.4,0.3,1,0.6,1.3,1c0.7,0.3,1.3,0.9,1.9,1.4c0.4,0.3,1,0.6,1.3,1c0.2,0,0.3,0.2,0.4,0.3
		c0.6,0.3,1,0.8,1.5,1.2c0.3,0.2,0.5,0.4,0.7,0.6c0.2,0.1,0.4,0.3,0.6,0.6c0.3,0.2,0.6,0.5,0.9,0.8c0.1,0.1,0.1,0.2,0.3,0.3
		c0.1,0.1,0.2,0.1,0.2,0.2c0.3,0.1,0.5,0.4,0.8,0.7c0.3,0.2,0.5,0.4,0.8,0.7c1.3,1.3,2.6,2.6,3.8,4c0.3,0.3,0.6,0.6,0.9,1
		c0.1,0.2,0.3,0.3,0.5,0.6c0.3,0.5,0.7,0.9,1,1.4c0.2,0.3,0.5,0.6,0.7,0.9c0.3,0.5,0.7,1,1,1.5c0.5,0.7,0.9,1.5,1.3,2.2
		c0.1,0.1,0.1,0.4,0.3,0.6c0.1,0.1,0.1,0.4,0.3,0.6c0.3,0.8,0.8,1.6,1.2,2.4c0.3,0.7,0.6,1.4,0.9,2.2c0.1,0.3,0.3,0.6,0.3,1
		c0.1,0.5,0.3,1,0.5,1.5c0.1,0.3,0.3,0.7,0.3,1s0.2,0.7,0.3,1.1c0.1,0.3,0.1,0.6,0.2,0.9c0.1,0.4,0.2,0.9,0.3,1.3
		c0.1,0.2,0.1,0.4,0.1,0.6c0,0.2,0,0.4,0.1,0.6c0.1,0.2,0,0.4,0.1,0.6c0.1,0.5,0.1,1,0.3,1.5c0.1,0.1-0.1,0.4,0,0.6
		c0.1,0.2,0.1,0.3,0.1,0.6s0.1,0.3,0.1,0.5c0.1,0.6,0.1,1.3,0.1,1.9c0,0.1,0,0.3,0,0.4C461.4,161.1,461.4,161.1,461.4,161.1z
		 M386.1,209.4c0.3,0,0.6-0.1,1-0.3c0.3-0.1,0.6-0.2,0.9-0.3c0.4-0.1,0.8-0.2,1.2-0.4c0.6-0.3,1.2-0.3,1.7-0.7
		c0.3,0,0.5-0.2,0.8-0.3c0.3-0.1,0.6-0.2,0.8-0.3c0.9-0.4,1.9-0.9,2.7-1.4c0.7-0.4,1.4-0.8,2.1-1.2c0.3-0.3,0.8-0.5,1.1-0.8
		c0.6-0.4,1.1-0.7,1.6-1.2c0.8-0.4,1.3-1,1.9-1.6c0.5-0.4,1-0.8,1.3-1.3c0.1-0.1,0.1-0.1,0.3-0.2c0.1,0,0.1-0.1,0.2-0.2
		c0.1-0.2,0.3-0.3,0.4-0.5c0.2-0.2,0.4-0.5,0.6-0.8c0.3-0.3,0.6-0.8,1-1.1c0.4-0.5,0.7-1,1.1-1.5c0.2-0.5,0.6-0.9,0.9-1.3
		c0.4-0.7,0.9-1.4,1.4-2.2c0.4-0.6,0.8-1.3,1.1-1.9c0.4-0.7,0.8-1.4,1.2-2.2c0.1-0.3,0.3-0.5,0.4-0.7s0.3-0.4,0.3-0.6
		c0.1-0.2,0.3-0.4,0.5-0.6c0.3-0.4,0.6-0.8,1-1.1c0.2-0.2,0.6-0.4,0.8-0.6c0.6-0.5,1.4-0.6,2.2-0.7c0.2,0,0.5-0.1,0.7,0.1
		c0.4-0.1,0.8,0.2,1.1,0.3c0.3,0.3,0.8,0.5,1,0.8c0.3,0.3,0.7,0.6,1,1c0.2,0.3,0.3,0.6,0.6,0.8c0.3,0.7,0.7,1.5,1,2.2
		c0.1,0.2,0.2,0.5,0.2,0.7c0.1,0.4,0.3,0.8,0.3,1.3c0,0.2,0.1,0.3,0.1,0.6s0.1,0.3,0.1,0.6s0.1,0.3,0.1,0.6c0.1,0.2,0.1,0.4,0.1,0.6
		c0.1,0.5,0.1,1,0.1,1.5c0,0.2,0,0.3,0,0.6c0,0.1,0,0.1,0.1,0.1l0.1-0.1c0.2-0.4,0.5-0.8,0.7-1.2c0.6-1.2,1.2-2.4,1.7-3.6
		c0.1-0.3,0.3-0.7,0.3-1c0.2-0.6,0.4-1.2,0.6-1.8c0-0.1,0.1-0.3,0.1-0.4c0.1-0.5,0.3-1,0.3-1.5c0.2-0.4,0.1-0.8,0.3-1.2
		c0.1-0.2,0.1-0.4,0.1-0.6c0.1-0.2,0-0.5,0.1-0.7s0-0.5,0-0.7s0.1-0.5,0.1-0.7c0-0.5,0-0.9,0-1.4s0-0.9-0.1-1.4
		c-0.1-0.4,0-0.8-0.1-1.2c-0.1-0.3-0.1-0.7-0.1-1v-0.1c-0.2-0.2,0-0.5-0.2-0.7c0.1-0.3-0.1-0.5-0.1-0.7c-0.1-0.3-0.1-0.5-0.1-0.8
		c-0.1-0.4-0.2-0.8-0.3-1.2c-0.1-0.5-0.2-0.9-0.3-1.4c-0.1-0.6-0.4-1.3-0.6-1.9c-0.2-0.6-0.3-1.1-0.6-1.7c-0.1-0.3-0.3-0.8-0.3-1.2
		c-0.1-0.5-0.3-0.9-0.3-1.4c0-0.3-0.1-0.6-0.1-0.8c-0.1-0.3-0.1-0.6-0.1-0.8c0-0.2,0-0.3,0-0.6s0.1-0.3,0.1-0.6
		c0-0.3,0.1-0.5,0.1-0.7c0.1-0.5,0.3-0.9,0.6-1.3c0.2-0.4,0.6-0.8,0.8-1c0.3-0.3,0.7-0.6,1.1-0.7c0.3-0.1,0.6-0.2,0.9-0.2
		c0.3,0,0.6,0,0.8,0c0.6,0,1.1-0.1,1.7,0.1c0.2,0.1,0.5-0.1,0.8,0.1c0.2,0.1,0.5,0.1,0.8,0.1c0.6,0.1,1,0.2,1.5,0.3
		c0.3,0.1,0.7,0.2,1,0.3c0.3,0.1,0.7,0.2,1.1,0.3c0,0,0-0.1-0.1-0.1c0,0,0,0-0.1,0.1c0,0,0.1,0,0.1,0.1c0,0,0,0-0.1-0.1
		s-0.1-0.2-0.1-0.3c-0.4-0.5-0.8-1-1.2-1.5c-0.3-0.4-0.8-0.8-1.1-1.2c-0.8-0.8-1.7-1.7-2.6-2.4c-0.6-0.5-1-0.9-1.7-1.3
		c-0.5-0.4-1-0.8-1.5-1.2c-0.8-0.6-1.5-1-2.2-1.5c-0.4-0.3-0.8-0.6-1.3-0.8c-0.6-0.3-1-0.6-1.6-1c-0.3-0.2-0.6-0.3-1-0.5
		c-0.2-0.1-0.4-0.2-0.6-0.3c-0.6-0.4-1.2-0.6-1.9-1c-0.6-0.3-1-0.5-1.6-0.8c-0.8-0.3-1.7-0.8-2.6-1.1c-0.8-0.3-1.5-0.6-2.2-0.9
		c-1.3-0.5-2.7-0.9-4.1-1.3c-0.3-0.1-0.6-0.2-0.9-0.3c-0.5-0.1-1-0.3-1.5-0.4c-0.3-0.1-0.6-0.1-0.9-0.3c0,0-0.1,0-0.1,0
		c0,0,0,0.1,0.1,0.1c0.2,0.3,0.4,0.6,0.6,0.8c0.3,0.3,0.5,0.7,0.7,1.1c0.6,1,1,2.1,1.3,3.2c0.1,0.3,0.1,0.7,0.2,1
		c0.1,0.2,0,0.5,0.1,0.6c0.1,0.2,0.1,0.4,0.1,0.6c0,0.2,0.1,0.4,0.1,0.6c0,0.6,0,1.2,0,1.9c0,0.6,0.1,1.2-0.1,1.9
		c-0.1,0.3,0,0.7-0.1,1.1c-0.1,0.2,0,0.4-0.1,0.7c-0.1,0.2,0,0.5-0.1,0.7c-0.1,0.1,0,0.3-0.1,0.6c-0.1,0.1-0.1,0.3-0.1,0.6
		c-0.1,0.6-0.2,1.1-0.3,1.7c-0.1,0.6-0.3,1.1-0.5,1.7c-0.1,0.3-0.2,0.6-0.3,0.8c-0.3,0.9-0.7,1.7-1.1,2.6c-0.1,0.3-0.3,0.8-0.5,1
		c-0.3,0.3-0.4,0.7-0.6,1c-0.4,0.7-0.9,1.4-1.4,2.1c-0.6,0.8-1.1,1.5-1.7,2.2c-0.6,0.6-1.2,1.2-1.9,1.8c-0.5,0.4-0.9,0.8-1.4,1.2
		c-0.3,0.2-0.6,0.5-1,0.7c-0.4,0.3-0.8,0.6-1.2,0.8c-0.6,0.3-1.1,0.7-1.7,1c-0.8,0.4-1.5,0.8-2.4,1.1c-0.3,0.1-0.7,0.3-1.1,0.4
		c-0.8,0.3-1.6,0.6-2.4,0.8c-0.2,0.1-0.4,0.1-0.7,0.2c-0.4,0-0.8,0.1-1.1,0.2c-0.5,0.1-1,0.2-1.5,0.3c-0.1,0-0.2,0-0.2,0
		c-0.1,0.1-0.3,0.1-0.4,0.1s-0.3,0.1-0.5,0.1c-0.3,0-0.5-0.1-0.8,0.1c-0.5-0.1-1,0.1-1.5,0.1c-1.2,0-2.4,0-3.5,0
		c-0.2,0-0.3,0.1-0.4,0.3c-0.2,0.5-0.5,1-0.8,1.4c-0.5,0.7-0.9,1.3-1.4,2c-0.3,0.4-0.7,0.8-1.1,1.2c-0.5,0.5-1,1-1.6,1.5
		c-0.4,0.3-0.9,0.6-1.2,1c0,0-0.1,0.1-0.1,0.1s-0.1,0-0.1,0c0,0-0.1-0.1,0-0.1c0.2-0.4,0.4-0.8,0.6-1.3c0.2-0.6,0.5-1.3,0.6-2
		c0-0.1,0.1-0.2,0.1-0.3c0-0.1-0.1-0.3,0-0.3c0.1-0.2,0.1-0.4,0.1-0.7c0-0.2,0.1-0.5,0.1-0.7c-0.1-0.7,0.1-1.5-0.1-2.2
		c0.1-0.4-0.1-0.8-0.1-1.2c-0.2-0.2-0.1-0.4-0.1-0.6c-0.1-0.2-0.1-0.4-0.1-0.6c-0.1-0.3-0.2-0.7-0.3-1c-0.1-0.3-0.2-0.5-0.3-0.8
		c-0.2-0.4-0.3-0.9-0.6-1.3c-0.1-0.1-0.2-0.2-0.1-0.3c0-0.2-0.2-0.3-0.2-0.4c0-0.1-0.1-0.3-0.3-0.4c-0.4-0.6-0.8-1.2-1.4-1.7
		c-0.3-0.3-0.6-0.6-0.9-0.8c-0.6-0.4-1.6-0.9-2.6-1c-0.2-0.1-0.4-0.1-0.6-0.1c-0.2-0.1-0.5-0.1-0.7-0.1s-0.3,0.1-0.6,0.1
		c-0.3,0-0.6,0.2-0.8,0.2c0,0-0.1,0.1-0.1,0.1c-0.6,0.2-1.1,0.6-1.5,1c-0.4,0.3-0.7,0.8-1,1.3c-0.3,0.6-0.3,1.2-0.4,1.8
		c-0.1,0.7,0.1,1.4-0.1,2.1c-0.1,0.4-0.2,0.9-0.3,1.3c-0.2,0.6-0.7,1-1.2,1.4c-0.5,0.3-1,0.5-1.5,0.6c-0.6,0.1-1.2,0.1-1.8-0.1
		c-0.3-0.1-0.7-0.2-1-0.3c-0.4-0.1-0.8-0.3-1.1-0.6s-0.7-0.4-1-0.7c-0.6-0.6-1.2-1.1-1.7-1.9c-0.3-0.4-0.6-0.8-0.8-1.2
		c-0.2-0.4-0.4-0.9-0.6-1.3c-0.1-0.1-0.1-0.2-0.1-0.2c-0.1,0,0,0.1-0.1,0.2c-0.2,0.3-0.2,0.8-0.3,1.2c-0.1,0.2,0,0.6-0.1,0.8
		c-0.1,0.3,0,0.6-0.1,0.8c0.1,0.5-0.1,1-0.1,1.5c0,0.4,0.1,0.9,0.1,1.3v0.1c0.1,0.2,0.1,0.5,0.1,0.7c0.1,0.2,0.1,0.4,0.1,0.6
		c0.2,0.7,0.5,1.3,0.8,1.9c0.3,0.6,0.6,1.1,1.1,1.7c0.1,0.1,0.3,0.3,0.4,0.5c0.3,0.5,0.8,0.8,1.1,1.2c0.1,0.1,0.3,0.1,0.3,0.2
		c0,0.2,0.3,0.1,0.3,0.3c0,0.2,0.2,0.1,0.3,0.3c0.6,0.6,1.3,1.2,1.9,1.9c0.5,0.4,0.9,0.9,1.2,1.5c0.5,0.7,0.8,1.4,0.8,2.3
		c0,0.2,0,0.4,0,0.6c-0.1,0.4-0.3,0.8-0.5,1.2c-0.3,0.6-0.8,1.1-1.2,1.5c-0.3,0.3-0.8,0.6-1.2,0.8c-0.2,0.1-0.4,0.3-0.6,0.3
		s-0.4,0.2-0.7,0.3c-0.3,0.1-0.7,0.2-1,0.3c-0.4,0.1-0.8,0.2-1.2,0.2c-0.1,0-0.1,0-0.1,0l0.1,0.1c0.6,0.3,1.1,0.8,1.7,1.1
		c0.6,0.4,1.2,0.8,1.9,1.1c0.8,0.5,1.7,0.9,2.6,1.3c0.3,0.1,0.7,0.3,1,0.4c0.3,0.1,0.7,0.3,1,0.3c0.5,0.1,1,0.3,1.4,0.4
		c0.3,0.1,0.6,0.1,0.9,0.2c0.5,0.1,1,0.2,1.6,0.3c0.2,0.1,0.5,0.1,0.8,0.1c0.3,0,0.5,0,0.8,0.1c0.6-0.1,1.2,0.1,1.9,0.1
		c0.6,0,1.1,0,1.7,0c0.3,0,0.8,0.1,1.1-0.1c0.2-0.1,0.5,0,0.7,0s0.4-0.1,0.7-0.1c0.3,0,0.8-0.1,1.1-0.1h0.1c0.1-0.1,0.3-0.1,0.5-0.1
		c0.1-0.1,0.3-0.1,0.6-0.1s0.5-0.1,0.7-0.1c0.3-0.1,0.8-0.1,1.2-0.3c0.3-0.1,0.8-0.1,1.1-0.2c0.8-0.3,1.6-0.4,2.4-0.6
		c0.7-0.2,1.5-0.3,2.2-0.6c0.3-0.1,0.6-0.1,0.8-0.2c0.5-0.1,1-0.3,1.5-0.4c0.5-0.1,1-0.2,1.5-0.3c0.3-0.1,0.6-0.1,0.9-0.2
		c0.3-0.1,0.7-0.1,1.1-0.1c0.1,0,0.1,0,0.1,0c0.2-0.2,0.5-0.1,0.7-0.1c0.3,0,0.5,0.1,0.8,0.1c0.7,0.1,1.2,0.6,1.6,1.1
		c0.5,0.7,0.8,1.5,0.8,2.4c0,0.4,0,0.8,0,1.2c0.1,0.4-0.1,0.8-0.1,1.2c-0.1,0.1-0.1,0.3-0.1,0.5c-0.1,0.5-0.3,1-0.5,1.5
		c-0.2,0.6-0.5,1.3-0.8,1.9c-0.2,0.4-0.4,0.8-0.6,1.2C386.1,209.3,386.1,209.4,386.1,209.4L386.1,209.4L386.1,209.4L386.1,209.4
		C386.1,209.4,386.1,209.4,386.1,209.4z M413.7,113.6c0-0.3,0-0.7,0-1s0.1-0.7,0-1c-0.1-0.3,0-0.7-0.1-1c-0.1-0.2-0.1-0.5-0.1-0.8
		c0-0.2-0.1-0.4-0.1-0.6c-0.1-0.3-0.2-0.7-0.3-1c-0.2-0.5-0.5-1-1-1.2c-0.1-0.1-0.3-0.2-0.6-0.1c-0.4,0.2-0.8,0.3-1.2,0.6
		c-0.8,0.5-1.5,1.1-2.2,1.7c-0.2,0.2-0.4,0.4-0.7,0.6c-0.3,0.2-0.5,0.4-0.8,0.6c-0.3,0.2-0.5,0.5-0.8,0.7c-0.2,0.1-0.3,0.3-0.6,0.5
		c-0.5,0.3-0.9,0.8-1.4,1.1c-0.3,0.3-0.7,0.6-1,0.8c-0.4,0.3-0.8,0.7-1.3,1c-0.5,0.3-1,0.8-1.5,1.1c-0.6,0.3-1.2,0.8-1.8,1.2
		s-1.2,0.8-1.7,1.1c-0.5,0.3-1,0.6-1.5,0.9c-0.4,0.3-0.8,0.5-1.2,0.8c-0.3,0.2-0.8,0.5-1.1,0.7c-0.4,0.2-0.8,0.5-1.2,0.7
		c-0.3,0.1-0.6,0.4-1,0.6c-0.2,0.1-0.5,0.2-0.7,0.3c-0.8,0.6-1.7,1-2.5,1.5c-0.1,0.1-0.3,0.1-0.4,0.2c-0.5,0.3-1.1,0.6-1.6,0.9
		c-1.2,0.6-2.6,1.3-3.9,1.9c-0.5,0.2-1,0.5-1.5,0.7c-0.2,0.1-0.5,0.2-0.7,0.3c-0.4,0.1-0.8,0.3-1.3,0.5c-0.3,0.1-0.7,0.3-1,0.4
		c-0.6,0.2-1.2,0.4-1.9,0.6c-0.5,0.1-1,0.3-1.5,0.4c-0.2,0.1-0.5,0.1-0.7,0.2c-0.2,0.1-0.5,0.1-0.7,0.2c-0.2,0.1-0.5,0.1-0.7,0.1
		c-0.1,0.1-0.4,0.1-0.6,0.1c-0.2,0.1-0.4,0-0.6,0.1c-0.1,0.1-0.3,0.1-0.4,0.1s-0.3,0.1-0.4,0.1c-0.1,0-0.1,0.1-0.2,0.1
		c0.1,0,0.1,0.1,0.2,0.1c0.3,0.1,0.7,0.3,1,0.4c0.4,0.2,0.8,0.3,1.2,0.4c0.6,0.1,1.2,0.3,1.8,0.5c0.4,0.1,0.8,0.2,1.2,0.3
		c0.5,0.1,1,0.2,1.5,0.3c0.2,0.1,0.5,0.1,0.7,0.1c0.2,0.1,0.4,0.1,0.6,0.1c0.1,0,0.2,0.1,0.3,0.1c0.1,0,0.3-0.1,0.3,0
		c0.2,0.1,0.5,0.1,0.7,0.1c0.2,0.1,0.5,0,0.7,0.1c0.2,0.1,0.5,0,0.6,0.1c0.2,0.1,0.5,0,0.7,0.1s0.5,0.1,0.8,0.1
		c0.2,0.1,0.5,0.1,0.7,0.1c0.1,0.2,0.4,0.1,0.6,0.1s0.4,0.1,0.6,0.1c0.5,0,0.9,0.2,1.4,0.2c0.2,0.1,0.4,0.1,0.6,0.1
		c0.1,0.1,0.3,0.1,0.4,0.1s0.3,0.1,0.4,0.1c0.3,0.1,0.6,0,0.8,0.1c0.2,0.1,0.6-0.1,0.7,0.1c0.3-0.1,0.6,0.1,0.8,0.1
		c0.2,0.1,0.5,0,0.6,0.1c0.3,0.1,0.6,0.1,0.8,0.1c0.3,0.1,0.5,0.1,0.8,0.1c0.5,0.2,1,0.1,1.4,0.3c0.2,0.1,0.5,0,0.6,0.1
		c0.1,0.1,0.2,0.1,0.3,0.1s0.2,0.1,0.3,0.1c0.4,0,0.8,0.2,1.2,0.2c0.1,0.2,0.4,0.1,0.6,0.1c0.1,0.1,0.4,0.1,0.6,0.1
		c0.1,0,0.2,0.1,0.3,0.1s0.3,0,0.3,0c0.3,0.1,0.7,0.1,1,0.3c0.1,0.1,0.3,0.1,0.4,0.1c0.1,0.1,0.3,0,0.4,0.1c0.5,0,1,0.2,1.5,0.3
		c0.2,0.1,0.4,0.1,0.6,0.1c0.4,0.1,0.8,0.2,1.2,0.3c0.2,0.1,0.3,0.1,0.6,0.1c0.2,0.1,0.3,0.1,0.6,0.1c0.6,0.1,1,0.3,1.6,0.4
		c0.4,0.1,0.8,0.2,1.2,0.3c0.1,0,0.3,0.1,0.4,0.2c0.2,0.1,0.4,0.1,0.6,0.1c0.2,0.1,0.4,0.1,0.6,0.1c0.3,0.1,0.6,0.2,0.9,0.3
		c0.3,0.1,0.6,0.2,1,0.3c0.3,0.1,0.6,0.1,0.8,0.3c0.3,0.1,0.6,0.1,0.8,0.3c0.3,0.1,0.6,0.2,0.8,0.3c0.7,0.2,1.3,0.5,2,0.7
		c0.6,0.2,1.2,0.5,1.7,0.7c0.9,0.3,1.7,0.7,2.6,1c0.6,0.3,1.2,0.5,1.7,0.8c1,0.5,2.1,1,3.1,1.6c0.6,0.3,1.1,0.6,1.7,0.9
		c0.1,0.2,0.3,0.1,0.4,0.2c0.3,0.3,0.8,0.6,1.2,0.8c0.5,0.3,1,0.6,1.5,1c0.5,0.3,1,0.8,1.5,1.1c0.3,0,0.3,0.3,0.6,0.3
		c0.3,0.3,0.8,0.6,1.1,0.9c0.3,0.2,0.6,0.5,0.8,0.7c0.3,0.1,0.4,0.4,0.6,0.6c0.2,0.2,0.5,0.4,0.7,0.6c0.9,0.9,1.8,1.7,2.6,2.7
		c0.1,0.1,0.1,0.3,0.3,0.3c0.2,0.3,0.5,0.7,0.8,1c0.1,0.1,0.1,0.1,0.1,0.1c0.2,0.5,0.7,0.8,0.9,1.3c0.2,0.4,0.6,0.8,0.8,1.1
		c0.3,0.4,0.6,0.8,0.8,1.2c0.3,0.6,0.7,1.1,1,1.7c0.3,0.5,0.5,1,0.8,1.5c0.5,0.8,0.8,1.7,1.2,2.6c0.1,0.3,0.3,0.6,0.4,0.9v0.1
		c0,0.1,0,0.1,0,0.1c-0.1,0-0.1,0-0.1,0c-0.8-0.3-1.5-0.8-2.2-1.1c-0.1-0.1-0.3-0.2-0.5-0.3c-0.8-0.3-1.7-0.7-2.5-1
		c-0.3-0.1-0.6-0.2-0.9-0.3c-0.6-0.2-1.2-0.4-1.9-0.6c-0.3-0.1-0.7-0.1-1-0.3c-0.4,0.1-0.7-0.3-1.1-0.2c-0.6-0.2-1.2-0.3-1.8-0.3
		c-0.5-0.1-1-0.2-1.5-0.1c-0.1,0-0.2,0-0.3,0c-0.6-0.2-1.5,0.2-1.5,1c0,0.5,0.1,1,0.2,1.5c0.2,0.9,0.5,1.7,0.8,2.6
		c0.1,0.4,0.3,0.9,0.4,1.3c0.1,0.3,0.2,0.8,0.3,1.2c0.1,0.5,0.2,1,0.4,1.5c0.1,0.5,0.2,1,0.3,1.5c0.1,0.3,0.1,0.6,0.2,0.9
		c0,0.5,0.2,0.9,0.2,1.4c0.1,0.2,0.1,0.4,0.1,0.6s0.1,0.4,0.1,0.7c0,0.1,0,0.1,0,0.1c0.1,0.2,0.1,0.3,0.1,0.6s0.1,0.3,0.1,0.6
		c0,0.5,0,0.9,0.1,1.4c0.1,0.6,0.1,1.1,0,1.6c0,0.6,0.1,1-0.1,1.6c-0.1,0.2,0,0.5,0,0.8c0,0.2-0.1,0.5-0.1,0.7
		c-0.1,0.4-0.1,0.8-0.1,1.2v0.1c-0.1,0.1-0.1,0.3-0.1,0.4c0,0.1-0.1,0.3-0.1,0.4c-0.1,0.3,0,0.6-0.1,0.8c-0.2,0.4-0.2,0.9-0.3,1.4
		c-0.1,0.6-0.3,1-0.5,1.6c-0.1,0.4-0.3,0.8-0.4,1.1s-0.2,0.8-0.5,1.1c-0.2,0.8-0.7,1.5-1,2.2c-0.1,0.2-0.2,0.3-0.3,0.6
		s-0.2,0.3-0.3,0.6c-0.3,0.5-0.6,0.9-0.8,1.4c-0.2,0.3-0.4,0.6-0.6,0.9c-0.2,0.3-0.4,0.6-0.6,1c-0.6,0.8-1.1,1.5-1.7,2.2
		c-0.4,0.5-0.9,1-1.3,1.5c-0.3,0.3-0.6,0.6-0.8,0.8c-0.3,0.3-0.6,0.6-0.8,0.8c-0.3,0.3-0.6,0.6-0.8,0.8c-0.2,0.2-0.5,0.4-0.7,0.6
		c0,0-0.1,0.1-0.1,0.1h-0.1c0,0-0.1-0.1,0-0.1c0.1-0.3,0.1-0.6,0.2-0.8c0.2-0.5,0.1-1,0.3-1.6c0.1-0.2,0.1-0.4,0.1-0.6
		c0.1-0.2,0.1-0.5,0.1-0.7c0.1-0.3,0-0.6,0.1-1s0.1-0.7,0-1c-0.1-0.3,0.1-0.7,0.1-1c0-0.1,0-0.3,0-0.5c0-0.2-0.1-0.3-0.1-0.6
		c-0.1-0.6,0.1-1.2-0.1-1.8c-0.1-0.3,0.1-0.6-0.1-0.8c-0.1-0.2-0.1-0.6-0.1-0.8c-0.1-0.3-0.1-0.6-0.1-0.8c0-0.3-0.1-0.6-0.1-0.8
		c-0.1-0.7-0.3-1.3-0.5-2c-0.1-0.3-0.2-0.6-0.3-0.8c-0.1-0.3-0.3-0.6-0.3-0.8c-0.1-0.3-0.3-0.5-0.5-0.8c-0.1-0.3-0.3-0.4-0.6-0.6
		c-0.1-0.1-0.3-0.1-0.4,0.1c-0.1,0.1-0.3,0.3-0.5,0.4c-0.6,0.6-0.8,1.2-1.2,1.8c-0.2,0.3-0.4,0.8-0.6,1.1c-0.4,0.6-0.7,1.3-1.1,1.9
		c-0.3,0.6-0.7,1.2-1,1.7c-0.3,0.4-0.6,0.9-0.8,1.3c-0.6,0.9-1.2,1.7-1.8,2.6c-0.5,0.7-1,1.3-1.5,1.9c-0.4,0.5-0.9,1-1.3,1.5
		c-0.2,0.2-0.4,0.4-0.6,0.7c-0.1,0.1-0.1,0.3-0.3,0.3c-0.2,0-0.1,0.2-0.3,0.3c-0.1,0.1-0.2,0.1-0.3,0.2c-0.5,0.4-0.9,0.8-1.4,1.2
		l-0.1,0.1c-0.5,0.3-0.8,0.7-1.2,1c-0.3,0.2-0.6,0.4-0.8,0.6c-0.3,0.2-0.6,0.4-0.9,0.6c-0.9,0.6-1.8,1.2-2.8,1.8
		c-0.3,0.2-0.7,0.3-1,0.6c-0.3,0.2-0.7,0.4-1,0.6c-0.6,0.3-1.2,0.6-1.7,0.8c-0.1,0.1-0.2,0.1-0.3,0.2c-0.6,0.1-1,0.4-1.5,0.6
		c-0.5,0.2-1,0.3-1.4,0.6c-0.4,0.1-0.8,0.3-1.2,0.4s-0.8,0.3-1.2,0.4c-0.4,0.1-0.8,0.3-1.2,0.3c-0.8,0.3-1.6,0.4-2.4,0.6
		c-0.3,0.1-0.7,0.2-1.1,0.2c-0.5,0.3-1,0.3-1.6,0.3c-0.5,0.1-1,0.2-1.5,0.2c-0.2,0-0.4,0-0.6,0.1s-0.3,0.1-0.6,0.1
		c-0.2,0-0.3,0.1-0.6,0.1s-0.4,0-0.6,0.1c-0.1,0.1-0.2,0-0.3,0c0,0-0.1-0.1-0.1-0.1c0-0.1,0.1-0.1,0.1-0.1c0.3-0.3,0.7-0.8,1.1-1
		c0.1-0.1,0.2-0.3,0.3-0.3c0.1-0.1,0.2-0.3,0.3-0.4c0.1-0.1,0.3-0.2,0.3-0.3c0.1-0.3,0.4-0.4,0.5-0.6s0.3-0.3,0.4-0.5
		c0.1-0.2,0.2-0.3,0.3-0.5c0.3-0.3,0.6-0.8,0.8-1.1c0.3-0.5,0.6-0.9,0.8-1.5c0.1-0.3,0.3-0.6,0.5-0.9c0.2-0.6,0.5-1,0.7-1.6
		c0.2-0.5,0.3-1,0.5-1.6c0-0.1,0.1-0.2,0.1-0.3s0-0.3,0-0.3c0.1-0.4,0.1-0.7,0-1c-0.1-0.2-0.2-0.3-0.4-0.3c-0.8-0.1-1.4,0.1-2.1,0.3
		c-0.5,0.1-0.9,0.3-1.4,0.4c-0.4,0.1-0.9,0.2-1.3,0.4c-0.4,0.1-0.8,0.3-1.2,0.3c-0.7,0.1-1.3,0.3-2,0.5c-0.6,0.1-1.2,0.3-1.7,0.4
		c-0.3,0.1-0.6,0.1-0.9,0.2c-0.3,0.1-0.6,0.1-1,0.2c-0.5,0.1-1,0.2-1.5,0.2c-0.1,0-0.3,0.1-0.3,0.1c-0.1,0-0.3-0.1-0.4,0
		c-0.2,0.1-0.4,0.1-0.6,0.1c-0.2,0-0.3,0.1-0.6,0.1c-0.3,0-0.6,0-1,0.1c-0.3,0.1-0.6,0-0.9,0c-0.3,0-0.6,0.1-1,0.1c-0.5,0-1,0-1.5,0
		s-1-0.1-1.5-0.1c-0.5,0.1-0.9-0.1-1.4-0.1h-0.1c-0.1-0.1-0.3-0.1-0.5-0.1c-0.2,0-0.3-0.1-0.6-0.1c-0.3,0-0.6,0-0.8-0.1
		c-0.2-0.1-0.4,0-0.6-0.1c-0.5-0.2-1-0.2-1.5-0.3c-0.4-0.1-0.8-0.2-1.2-0.3c-0.6-0.2-1.3-0.4-1.9-0.6c-0.7-0.3-1.5-0.6-2.2-0.9
		c-0.6-0.3-1.2-0.6-1.7-0.9c-0.5-0.3-1-0.6-1.4-0.8c-0.5-0.3-1-0.6-1.5-1c-0.2-0.1-0.3-0.2-0.6-0.3c-0.4-0.3-0.9-0.7-1.3-1
		c-0.6-0.5-1.1-0.9-1.6-1.5c-0.8-0.8-1.5-1.5-2.3-2.3c-0.6-0.6-1-1.2-1.6-1.9c0,0-0.1-0.1-0.1-0.1c-0.1-0.1,0-0.2,0.1-0.2
		c0.3,0,0.5,0.1,0.8,0.1c0.6,0.1,1.2,0.1,1.9,0.1c0.9,0,1.9,0,2.8,0c0.4,0,0.9-0.1,1.3-0.1h0.1c0.1-0.1,0.3-0.1,0.5-0.1
		c0.1,0,0.3-0.1,0.5-0.1c0.3-0.1,0.7-0.1,1-0.2c0.6-0.2,1.2-0.4,1.7-0.7c0.3-0.2,0.6-0.4,0.8-0.6c0.1-0.1,0.1-0.2,0-0.3
		c-0.1-0.1-0.3-0.3-0.4-0.5c-0.6-0.6-1.1-1.1-1.7-1.6c-0.8-0.8-1.6-1.6-2.4-2.5c-0.4-0.6-0.8-1-1.2-1.7c-0.6-0.8-1-1.5-1.5-2.5
		c-0.1-0.3-0.3-0.6-0.4-1s-0.2-0.7-0.3-1c-0.2-0.6-0.3-1.2-0.4-1.7c-0.1-0.4-0.1-0.8-0.1-1.3s0-0.9,0-1.4c0-0.3-0.1-0.6,0-0.8
		c0.1-0.3-0.1-0.6,0.1-0.8c0.1-0.7,0.3-1.3,0.5-2c0.3-0.8,0.6-1.6,0.9-2.4c0.1-0.3,0.3-0.6,0.5-0.8c0.3-0.6,0.6-1.2,1-1.7
		c0.3-0.4,0.6-0.8,0.8-1.2c0.3-0.3,0.6-0.8,1-1.2c0.3-0.2,0.5-0.5,0.6-0.8c0.2-0.4,0.7-0.6,0.8-1c0,0,0.1,0,0.1-0.1
		c0.1,0,0.1-0.1,0.1,0c0,0.2,0.1,0.5,0,0.7s-0.1,0.4-0.1,0.7c-0.1,0.2-0.1,0.5-0.1,0.7c0,0.8-0.1,1.5,0.1,2.4
		c0.1,0.3,0.1,0.8,0.1,1.1c0.2,0.2,0.1,0.4,0.1,0.7c0.1,0.2,0.1,0.5,0.2,0.7c0.1,0.4,0.2,0.8,0.4,1.1c0.3,0.7,0.7,1.3,1.2,1.9
		s0.9,1,1.5,1.3c0.3,0.2,0.7,0.3,1,0.4c0.1,0,0.3,0.1,0.3,0c0.1-0.1,0.2-0.2,0.2-0.3c0.1-0.3,0.1-0.7,0.1-1.1c0-0.3,0-0.6,0-0.9
		c0.2-0.2,0-0.6,0.2-0.8c0-0.6,0.2-1,0.4-1.5c0.3-0.8,0.8-1.5,1.3-2.2c0.4-0.5,1-0.9,1.5-1.4c0.1-0.1,0.3-0.2,0.5-0.3
		c0.4-0.2,0.8-0.4,1.2-0.6c0.4-0.2,0.9-0.3,1.3-0.4c0.5-0.1,1-0.2,1.5-0.2c0.5,0,0.9-0.1,1.4,0.1c0.3,0.1,0.6,0,1,0.1
		c0.2,0.1,0.5,0,0.7,0.1c0.2,0.1,0.5,0.1,0.7,0.2c0.8,0.3,1.5,0.6,2.2,1c0.8,0.5,1.5,1,2.1,1.7c0.3,0.3,0.6,0.6,0.8,0.8
		c0.2,0.3,0.5,0.6,0.7,1c0.3,0.5,0.6,1,0.8,1.5l0.1,0.1c0-0.1,0-0.1,0.1-0.1c0-0.4,0-0.8,0-1.2c0-0.4,0.1-0.8-0.1-1.2
		c-0.1-0.3,0.1-0.6-0.1-0.8c-0.1-0.3,0-0.6-0.1-0.8c-0.1-0.2-0.1-0.5-0.1-0.7s0-0.5-0.2-0.7c0-0.5-0.3-0.9-0.3-1.4
		c-0.3-0.8-0.6-1.7-1-2.6c-0.5-1-1.1-2.1-1.8-3.1c-0.3-0.4-0.6-0.8-1-1.2c-0.6-0.6-1.2-1.3-1.9-1.9c-0.6-0.5-1.3-1-2-1.4
		c-0.3-0.2-0.8-0.4-1.1-0.6c-0.6-0.3-1.2-0.6-1.9-1c-0.6-0.2-1.1-0.4-1.7-0.6c-0.3-0.1-0.6-0.2-1-0.3c-0.3-0.1-0.6-0.2-1-0.3
		c-0.6-0.2-1.2-0.3-1.7-0.4c-0.5-0.1-1-0.1-1.6-0.3c-0.2-0.1-0.5,0-0.7-0.1s-0.5,0-0.7-0.1c-0.6,0.1-1-0.1-1.6-0.1
		c-1.1,0-2.2,0-3.3,0c-0.5,0-0.9,0.1-1.4,0.1h-0.1c-0.1,0.1-0.3,0.1-0.4,0.1c-0.1,0-0.3,0.1-0.5,0.1c-0.5,0-0.9,0.2-1.4,0.2
		c-0.1,0.1-0.3,0.1-0.5,0.1c-0.3,0.1-0.8,0.2-1.1,0.3c-0.3,0.1-0.8,0.2-1.1,0.3c-1,0.3-2.1,0.8-3.1,1.2c-0.9,0.4-1.7,0.9-2.5,1.4
		c-0.3,0.2-0.8,0.4-1.1,0.7c-0.5,0.3-1,0.6-1.4,1.1c-0.8,0.5-1.3,1.1-2,1.7c-0.5,0.4-0.9,1-1.4,1.5l-0.1,0.1
		c-0.1,0.3-0.3,0.6-0.6,0.8c-0.3,0.3-0.6,0.7-0.8,1c-0.4,0.6-0.8,1.1-1.1,1.7c-0.3,0.4-0.6,0.8-0.8,1.3c-0.1,0.2-0.2,0.4-0.3,0.6
		c-0.2,0.3-0.2,0.7-0.5,0.9c-0.1,0.6-0.5,1.2-0.7,1.7c-0.2,0.6-0.4,1.1-0.6,1.7c-0.2,0.5-0.3,1-0.4,1.5c-0.1,0.3-0.2,0.6-0.2,0.8
		c0,0.4-0.2,0.8-0.2,1.1c-0.1,0.3-0.1,0.6-0.1,0.8c-0.1,0.3-0.1,0.7-0.1,1c-0.1,0.2-0.1,0.3-0.1,0.6c0,0.2-0.1,0.3-0.1,0.6
		c0,0.6,0.1,1.2-0.1,1.9c-0.1,0.4,0.1,0.8,0.1,1.2c0.1,0.6-0.1,1.2,0.1,1.8c0.1,0.3,0,0.7,0.1,1c0.1,0.2-0.1,0.5,0.1,0.8
		c0,0.5,0.1,1,0.2,1.5c0,0.1,0.1,0.3,0.1,0.4c0.1,0.3,0,0.6,0.1,0.8c0.1,0.2,0.1,0.3,0.1,0.5c0.1,0.4,0.2,0.8,0.3,1.3
		c0.1,0.3,0.2,0.7,0.3,1c0.1,0.3,0.3,0.7,0.3,1.1c0.3,0.8,0.6,1.6,0.9,2.4c0.2,0.4,0.4,0.9,0.6,1.3c0.2,0.6,0.6,1.1,0.8,1.7
		c0.2,0.1,0.2,0.4,0.3,0.6c0.1,0.1,0.2,0.4,0.3,0.6c0.1,0.2,0.2,0.4,0.3,0.6c0.6,0.8,1,1.6,1.5,2.4c0.3,0.6,0.8,1,1.1,1.6
		c0.2,0.3,0.5,0.6,0.6,0.8c0.1,0.2,0.3,0.3,0.4,0.5c0.4,0.6,1,1.2,1.5,1.8c0.2,0.3,0.4,0.5,0.6,0.7c0.1,0.2,0.4,0.4,0.6,0.6
		c0.2,0.2,0.3,0.4,0.6,0.6c0.3,0.3,0.5,0.6,0.8,0.7c0.1,0.3,0.4,0.4,0.6,0.6c0.3,0.3,0.7,0.7,1,1c0.4,0.3,0.8,0.7,1.2,1l0.1,0.1
		c0.1,0,0.2,0.2,0.3,0.3c0.1,0.1,0.3,0.2,0.4,0.3c0.3,0.3,0.7,0.6,1,0.8c0.5,0.3,1,0.7,1.5,1.1c0.6,0.4,1,0.8,1.7,1.1
		c0.6,0.3,1.2,0.8,1.8,1.1s1.2,0.7,1.8,1c0.3,0.2,0.8,0.3,1.1,0.6c0.3,0.3,0.8,0.4,1.2,0.6c0.3,0.2,0.8,0.3,1.2,0.6s0.8,0.3,1.2,0.6
		c0.6,0.3,1.3,0.6,1.9,0.8c0.7,0.3,1.4,0.6,2.2,0.8c0.7,0.3,1.4,0.5,2.2,0.8c0.3,0.1,0.7,0.2,1,0.3s0.7,0.2,1.1,0.3
		c0.3,0.1,0.7,0.3,1,0.3c0.6,0.1,1,0.3,1.6,0.4c0.4,0.1,0.8,0.3,1.2,0.3c0.3,0.1,0.7,0.2,1,0.3c0.1,0,0.3,0,0.4,0.1
		c0.4,0.1,0.9,0.2,1.3,0.3c0.2,0.1,0.5,0.1,0.8,0.1c0.2,0.1,0.5,0.1,0.7,0.1c0.5,0.1,1,0.1,1.5,0.3c0.4,0.1,0.8,0.1,1.2,0.2
		c0.2,0,0.4,0.1,0.6,0.1s0.4,0,0.7,0.1c0.2,0.1,0.4,0.1,0.6,0.1c0.2,0,0.4,0,0.7,0.1c0.4,0.1,0.8,0.1,1.2,0.1c0.1,0,0.1,0,0.2,0
		c0.3,0.2,0.8,0.1,1.1,0.1c0.3,0.1,0.7,0,1,0.1s0.8,0,1.1,0.1c0.5,0.1,1,0,1.5,0.1s1.1-0.1,1.7,0.1c1.2,0,2.4,0,3.6,0.1
		c0.8,0.1,1.5,0.1,2.4-0.1c0.3-0.1,0.6,0,1,0s0.7,0,1,0s0.6-0.1,1-0.1c0.7-0.1,1.4,0,2.1-0.1c0.3-0.1,0.7-0.1,1-0.1h0.1
		c0.1-0.1,0.3-0.1,0.6-0.1s0.3-0.1,0.6-0.1c0.2,0,0.5,0,0.7-0.1c0.2-0.1,0.5,0.1,0.8-0.1c0.5,0,0.9-0.1,1.4-0.2c0.2,0,0.3,0,0.6-0.1
		c0.1-0.1,0.4,0.1,0.6-0.1c0.6,0,1-0.2,1.6-0.3c0.3-0.1,0.8-0.1,1.1-0.2c0.1,0,0.3-0.1,0.3-0.1c0.4,0,0.8-0.2,1.2-0.2
		c0.3-0.1,0.6-0.2,0.9-0.2c0.5-0.1,1-0.3,1.5-0.3c0.4-0.1,0.8-0.2,1.2-0.3c0.4-0.1,0.8-0.2,1.2-0.3c0.3-0.1,0.6-0.2,1-0.3
		c0.2-0.1,0.5-0.1,0.7-0.2s0.5-0.1,0.7-0.2c0.2-0.1,0.4-0.2,0.6-0.2c0.3-0.1,0.6-0.1,0.8-0.3c0.6-0.2,1.3-0.4,1.9-0.7
		c0.6-0.2,1.1-0.4,1.7-0.6c0.6-0.3,1.4-0.5,1.9-0.8c0.4-0.1,0.8-0.3,1.1-0.5c0.4-0.1,0.8-0.3,1.1-0.5c1.7-0.8,3.3-1.6,4.9-2.6
		c0.3-0.2,0.7-0.3,1-0.6c0.6-0.3,1-0.6,1.6-1s1.1-0.7,1.6-1c0.3-0.2,0.7-0.5,1-0.8c0.6-0.4,1.1-0.8,1.7-1.2c0.7-0.5,1.3-1,2-1.5
		c0.5-0.4,1-0.8,1.5-1.2c0.5-0.4,1-0.8,1.5-1.2c0.3-0.3,0.7-0.6,1-1c0.8-0.8,1.7-1.6,2.4-2.5c0.6-0.7,1.2-1.3,1.8-2
		c0.2-0.3,0.5-0.6,0.7-0.8c0.3-0.4,0.6-0.8,0.9-1.2c0.2-0.3,0.6-0.6,0.8-1c0.4-0.7,1-1.4,1.5-2.1c0.4-0.6,0.8-1.2,1.2-1.9
		c0.2-0.3,0.3-0.6,0.5-0.9c0.2-0.3,0.3-0.6,0.6-0.9c0.4-0.6,0.7-1.3,1-1.9c0.3-0.5,0.5-1,0.7-1.5c0.2-0.4,0.4-0.8,0.6-1.2
		c0.2-0.5,0.3-0.9,0.6-1.4c0.1-0.3,0.3-0.6,0.4-1c0.2-0.7,0.6-1.3,0.7-2.1c0-0.1,0.1-0.3,0.1-0.4c0-0.2,0.1-0.4,0.2-0.6
		c0.1-0.2,0.1-0.4,0.1-0.6c0.1-0.5,0.3-1,0.4-1.5c0.1-0.3,0.2-0.6,0.3-0.9c0.1-0.4,0.2-0.9,0.3-1.3c0.1-0.4,0.1-0.8,0.2-1.2
		c0.1-0.6,0.2-1.2,0.3-1.8c0.1-0.2,0.1-0.3,0.1-0.6c0.1-0.2,0-0.4,0.1-0.6s0-0.5,0.1-0.8c0.1-0.3,0.1-0.6,0.1-0.8
		c0.1-0.3,0-0.6,0.1-1c0.1-0.3,0-0.7,0.1-1c0.1-0.5,0-0.9,0.1-1.4c0.1-0.3,0-0.7,0-1s0-0.7,0-1s0.1-0.6,0.1-1
		c0.1-0.3-0.1-0.7-0.1-1.1c0-1-0.1-2-0.1-3c0-0.3-0.1-0.6-0.1-1v-0.1c-0.1-0.1-0.1-0.3-0.1-0.6c0-0.1-0.1-0.3-0.1-0.5
		c-0.1-0.3,0-0.6-0.1-0.9c-0.1-0.4-0.1-0.8-0.3-1.2c-0.1-0.3-0.3-0.8-0.2-1.1c-0.1-0.3-0.2-0.6-0.3-0.9c-0.1-0.6-0.3-1-0.5-1.6
		c-0.3-0.9-0.6-1.8-0.9-2.6c-0.3-0.8-0.7-1.6-1-2.4c-0.3-0.7-0.7-1.4-1-2.1c-0.3-0.6-0.6-1.2-1-1.7c-0.4-0.6-0.8-1.3-1.3-1.9
		c-0.4-0.5-0.7-1-1.1-1.5c-0.2-0.2-0.4-0.4-0.6-0.6c-0.2-0.3-0.4-0.6-0.7-0.8c-0.1-0.1-0.2-0.3-0.4-0.4c-0.1-0.3-0.4-0.5-0.6-0.7
		c-0.2-0.2-0.4-0.5-0.6-0.7c-0.6-0.6-1.2-1.2-1.9-1.8c-0.5-0.4-1-0.9-1.4-1.3l-0.1-0.1c-0.4-0.2-0.7-0.6-1-0.8
		c-0.3-0.2-0.6-0.5-0.8-0.7c-0.2-0.1-0.3-0.3-0.6-0.5c-0.3-0.2-0.7-0.5-1-0.8c-0.3-0.3-0.8-0.5-1-0.8c-0.7-0.3-1.2-1-1.9-1.4
		c-0.5-0.3-0.8-0.7-1.3-1c-0.6-0.4-1.2-1-1.9-1.4c-0.2-0.2-0.4-0.4-0.6-0.6c-0.3-0.2-0.6-0.4-0.8-0.7c-0.1-0.1-0.3-0.3-0.5-0.5
		c-0.6-0.6-1.1-1.1-1.5-1.8c-0.3-0.5-0.4-1-0.6-1.5c0-0.1,0-0.2,0-0.3c-0.2-0.4,0-0.8-0.1-1.2c0.2-0.5,0.1-1,0.5-1.5
		c0.2-0.7,0.6-1.2,1-1.9c0.2-0.3,0.4-0.6,0.6-1c0.3-0.5,0.6-1,1-1.5c0.3-0.4,0.6-0.8,0.8-1.2c0.5-0.6,0.8-1.4,1.3-1.9
		c0.3-0.8,0.9-1.3,1.2-2.1c0.6-0.9,1.1-1.9,1.7-2.8c0.6-1.2,1.2-2.4,1.8-3.7c0,0,0-0.1,0.1-0.1c0.2-0.7,0.6-1.4,0.8-2
		c0.3-0.7,0.4-1.5,0.8-2.2c0.1-0.6,0.3-1.1,0.5-1.7c0-0.1,0.1-0.1,0.1-0.2c0-0.3,0.2-0.7,0.2-1s0.2-0.7,0.3-1
		c0.1-0.3,0.1-0.7,0.2-1.1c0.1-0.3,0.1-0.5,0.1-0.8s0-0.6,0.1-0.8c0.1-0.3,0-0.5,0.1-0.8c0.1-0.1,0.1-0.3,0.1-0.5
		c0-0.2,0.1-0.3,0.1-0.6c0-0.3-0.1-0.7,0.1-1c-0.1-0.6,0.1-1.2,0.1-1.8s0-1.3,0-1.9s0.1-1.2-0.1-1.9c-0.1-0.3,0-0.6-0.1-1
		s0-0.7-0.1-1c-0.1-0.3,0-0.6-0.1-0.9c-0.1-0.2-0.1-0.5-0.1-0.7c-0.1-0.2-0.1-0.5-0.1-0.7c-0.1-0.3-0.1-0.5-0.2-0.8
		c-0.1-0.3-0.2-0.7-0.3-1c-0.1-0.3-0.2-0.8-0.3-1.1c-0.1-0.3-0.2-0.6-0.3-0.9c-0.3-0.7-0.6-1.4-0.8-2.1c-0.3-0.6-0.6-1.2-0.9-1.8
		c-0.3-0.6-0.6-1.2-1-1.7c-0.6-0.9-1.2-1.8-1.9-2.6c-0.3-0.5-0.8-1-1.2-1.4c-0.8-0.8-1.7-1.7-2.5-2.4l-0.1-0.1
		c-0.4-0.3-0.8-0.7-1.2-1c-0.3-0.2-0.6-0.5-1-0.7c-0.6-0.4-1.3-0.8-1.9-1.2s-1.2-0.8-1.9-1.1c-1.1-0.6-2.2-1.1-3.3-1.6
		c-0.8-0.3-1.6-0.6-2.4-0.9c-0.3-0.1-0.8-0.3-1.1-0.3c-0.3-0.1-0.6-0.2-0.8-0.3c-0.3-0.1-0.6-0.2-0.9-0.3c-0.3-0.1-0.8-0.2-1.1-0.3
		c-0.4-0.1-0.8-0.3-1.3-0.3c-0.3-0.1-0.7-0.2-1-0.2c-0.2,0-0.4-0.1-0.6-0.1c-0.2-0.1-0.4-0.1-0.6-0.1c-0.2,0-0.3-0.1-0.6-0.1
		c-0.2-0.1-0.4-0.1-0.6-0.1c-0.2-0.1-0.5,0-0.6-0.1c-0.2-0.1-0.3,0-0.6-0.1c-0.2-0.1-0.3-0.1-0.6-0.1c-0.1,0-0.1,0-0.2,0
		c-0.1-0.1-0.3-0.1-0.5-0.1c-0.1,0-0.3-0.1-0.5-0.1c-0.3-0.1-0.8,0-1.1-0.1s-0.8-0.1-1.1-0.1c-0.3-0.1-0.7-0.1-1-0.1
		c-0.4-0.1-0.8,0-1.2-0.1c-0.5-0.1-1,0-1.5-0.1c-0.6-0.1-1.2,0-1.7,0s-1.2-0.1-1.7-0.1c-0.3,0-0.7,0-1,0s-0.7,0.1-1,0.1
		c-0.8,0-1.7-0.1-2.5,0.1c-0.6,0.1-1.1-0.1-1.7,0.1c-0.3,0.1-0.7,0-1.1,0.1c-0.3,0.1-0.8,0-1.2,0.1c-0.4,0.1-0.9,0.1-1.3,0.1H387
		c-0.3,0.2-0.7,0.1-1,0.1c-0.3,0.1-0.7,0.1-1,0.1c-0.3,0.1-0.6,0-0.8,0.1c-0.5,0.1-1,0.1-1.5,0.3c-0.2-0.1-0.4,0.1-0.7,0.1
		c-0.2,0-0.5,0-0.6,0.1c-0.2,0.1-0.4,0.1-0.6,0.1c-0.4,0.1-0.9,0.2-1.3,0.3c-0.2,0.1-0.4,0.1-0.6,0.1c-0.3,0.1-0.5,0.1-0.8,0.1
		c-0.3,0.1-0.5,0.1-0.8,0.2c-0.3,0.1-0.8,0.2-1.1,0.3s-0.7,0.2-1,0.2c-0.3,0.2-0.6,0.1-0.9,0.3c-0.5,0.1-0.9,0.3-1.4,0.3
		c-0.4,0.1-0.8,0.2-1.3,0.3c-0.3,0.1-0.7,0.2-1,0.3c-0.5,0.1-1,0.3-1.5,0.5c-0.7,0.2-1.4,0.4-2.1,0.7c-0.4,0.1-0.8,0.3-1.2,0.4
		c-0.4,0.1-0.9,0.3-1.3,0.5c-0.3,0.1-0.6,0.2-1,0.3c-0.3,0.1-0.7,0.3-1,0.4c-0.3,0.1-0.8,0.2-1.1,0.4c-0.4,0.2-0.9,0.3-1.3,0.6
		c-0.5,0.2-0.9,0.4-1.4,0.6c-0.7,0.3-1.5,0.6-2.2,1c-0.6,0.3-1.2,0.6-1.7,0.8c-0.8,0.3-1.6,0.8-2.4,1.2s-1.7,0.8-2.4,1.2
		c-0.6,0.3-1.1,0.6-1.7,0.8c-0.2,0.1-0.5,0.3-0.7,0.4c-0.3,0.2-0.7,0.4-1,0.6c-0.4,0.3-0.8,0.5-1.2,0.8c-0.5,0.3-0.9,0.6-1.4,0.8
		s-0.9,0.6-1.4,0.8c-0.4,0.3-0.8,0.6-1.2,0.8c-0.4,0.3-0.8,0.6-1.2,0.8c-0.4,0.3-0.8,0.6-1.2,0.8c-0.8,0.5-1.5,1.1-2.3,1.7
		c-0.3,0.2-0.6,0.5-1,0.8c-0.4,0.3-0.8,0.7-1.2,1c-0.3,0.2-0.6,0.5-0.8,0.7c-0.5,0.3-1,0.8-1.4,1.2c-0.1,0.1-0.3,0.1-0.3,0.3
		c-0.4,0.2-0.6,0.6-1,0.8s-0.7,0.6-1,0.8c-0.4,0.5-0.9,0.9-1.3,1.4c-0.1,0.1-0.1,0.1-0.1,0.1c-0.3,0.5-0.8,0.9-1.1,1.4
		c-0.3,0.5-0.8,0.9-1.1,1.4c-0.4,0.6-0.8,1.3-1.2,2s-0.7,1.3-0.8,2.1c-0.1,0.1-0.1,0.3-0.1,0.5c-0.1,0.5-0.1,1,0.2,1.4
		c0.2,0.3,0.5,0.6,0.8,0.8c0.2,0.1,0.4,0.3,0.7,0.4c0.5,0.1,1,0.3,1.5,0.3c0.1,0,0.1,0,0.2,0c0.3,0.1,0.5,0,0.8,0.1
		c0.3-0.2,0.8,0,1.2-0.2c0.3,0.1,0.6-0.1,0.8-0.1c0.2-0.1,0.4-0.1,0.6-0.1c0.3-0.1,0.6-0.1,0.8-0.2c0.6-0.1,1-0.3,1.5-0.4
		c0.5-0.1,1-0.3,1.5-0.5c0.4-0.2,0.9-0.3,1.4-0.5c0.3-0.1,0.7-0.3,1-0.4c0.7-0.3,1.4-0.6,2.1-0.8c0.3-0.1,0.6-0.3,0.8-0.4
		c0.3-0.1,0.6-0.2,0.8-0.4c0.5-0.1,1-0.4,1.4-0.6c0.1-0.1,0.3-0.1,0.5-0.2s0.3-0.1,0.4-0.2s0.3-0.2,0.5-0.3c0.2,0,0.3-0.3,0.5-0.2
		c0.1-0.3,0.4-0.2,0.6-0.3s0.4-0.2,0.6-0.3c0.2-0.1,0.3-0.3,0.6-0.3c0.9-0.4,1.7-0.9,2.6-1.3c0.6-0.3,1.2-0.6,1.8-1
		c0.4-0.2,0.9-0.5,1.3-0.7c0.6-0.3,1.1-0.6,1.7-0.9c0.7-0.4,1.4-0.7,2.1-1c0.8-0.4,1.7-0.8,2.4-1.2c0.6-0.3,1.1-0.6,1.7-0.8
		c0.3-0.2,0.7-0.4,1-0.6s0.7-0.4,1.1-0.6c0.3-0.1,0.4-0.3,0.7-0.4c0.3-0.2,0.7-0.3,1-0.5c0.3-0.1,0.7-0.3,1-0.6s0.7-0.3,1-0.6
		s0.8-0.3,1-0.6c0.3,0.1,0.3-0.3,0.6-0.2c0.1-0.2,0.4-0.2,0.6-0.3c1.2-0.6,2.4-1.2,3.7-1.8c0.3-0.1,0.7-0.3,1.1-0.5
		c0.8-0.3,1.6-0.8,2.4-1.1c0.3-0.1,0.6-0.3,0.9-0.4c0.3-0.1,0.6-0.3,0.9-0.3c0.3-0.1,0.6-0.3,0.9-0.4c0.3-0.1,0.8-0.3,1.1-0.5
		c0.5-0.2,1-0.3,1.5-0.6s0.9-0.4,1.4-0.6c0.6-0.2,1.2-0.4,1.7-0.6c0.3-0.1,0.8-0.3,1.1-0.4c0.3-0.1,0.7-0.2,1.1-0.3
		c0.3-0.1,0.8-0.2,1.1-0.3c0.3-0.1,0.8-0.2,1.1-0.3c0.3-0.1,0.6-0.1,0.9-0.3c0.4-0.1,0.8-0.3,1.2-0.3c0.4-0.1,0.8-0.2,1.1-0.2
		c0.3,0,0.6-0.1,0.8-0.1c0.3-0.1,0.6-0.1,0.8-0.2c0.2-0.1,0.4,0,0.7-0.1c0.2-0.1,0.4-0.1,0.6-0.1c0.3-0.1,0.6,0,0.8-0.1
		c0.3-0.1,0.6,0,0.8-0.1c0.3-0.1,0.6,0,1,0s0.6-0.1,1-0.1c0.3,0,0.6,0,0.9,0s0.6,0.1,0.9,0.1c0.6,0,1.1,0.1,1.7,0.1l0.1,0.1v0.1
		c-0.1,0.1-0.1,0.1-0.2,0.1c-0.4,0.3-0.8,0.6-1.3,0.8c-0.3,0.2-0.6,0.4-1,0.6c-0.3,0.2-0.6,0.4-0.9,0.6c-0.3,0.2-0.6,0.4-0.8,0.6
		c-0.5,0.3-0.9,0.7-1.3,1.1c-0.7,0.7-1.4,1.4-2.1,2.1c-0.5,0.6-0.9,1.1-1.3,1.7c-0.5,0.6-0.8,1.3-1.2,2c-0.1,0.1-0.1,0.3-0.2,0.5
		c-0.1,0.1-0.2,0.3-0.2,0.5c-0.1,0.3-0.3,0.6-0.3,1c-0.2,0.2,0,0.5-0.2,0.7l0.1,0.1c0.3-0.1,0.7,0.1,1.1-0.1
		c0.4-0.1,0.8-0.2,1.2-0.3c0.4-0.1,0.8-0.2,1.2-0.3c0.6-0.1,1-0.3,1.5-0.5c0.3-0.1,0.7-0.2,1-0.3c0.5-0.1,1-0.3,1.5-0.5
		c0.8-0.2,1.6-0.4,2.4-0.6c0.4-0.1,0.9-0.2,1.3-0.3s0.8-0.3,1.2-0.2c0.3-0.2,0.8-0.1,1.2-0.3c0.3,0.1,0.5-0.1,0.7-0.1
		c0.2,0,0.5-0.1,0.7-0.1c0.3-0.1,0.6,0,0.9-0.1c0.6,0.1,1.3-0.1,1.9-0.1c0.8,0.1,1.5-0.1,2.4,0.1c0.2,0.1,0.4,0,0.6,0
		s0.4,0.1,0.7,0.1c0.3,0.1,0.7,0,1,0.1c0.2,0.1,0.4,0,0.6,0.1c0.3,0.1,0.5,0.1,0.8,0.1c0.3,0.1,0.5,0.1,0.8,0.2
		c0.4,0.1,0.8,0.2,1.2,0.3c0.5,0.1,0.9,0.3,1.3,0.5c0.4,0.1,0.9,0.3,1.2,0.5c0.6,0.3,1.3,0.6,1.9,1c0.8,0.5,1.5,0.9,2.2,1.4
		c0.6,0.4,1.1,0.8,1.7,1.2c0.5,0.3,0.9,0.8,1.3,1.2c0.8,0.8,1.7,1.7,2.5,2.6c0.2,0.2,0.4,0.5,0.6,0.7c0.3,0.3,0.6,0.8,0.9,1.1
		c0.1,0.1,0.1,0.2,0.2,0.3c0.1,0.1,0,0.1-0.1,0.1c-0.3,0-0.6,0-0.8-0.1c-0.6-0.2-1.2-0.3-1.9-0.4c-0.2-0.1-0.5-0.1-0.8-0.1
		c-0.3-0.1-0.6,0-0.8-0.1c-0.6,0.1-1.3-0.1-1.9-0.1c-0.3,0-0.6,0.1-0.8,0.1c-0.4,0-0.8-0.1-1.2,0.1c-0.6,0-1.2,0.1-1.9,0.3
		c-0.4,0.1-0.8,0.2-1.2,0.3c-0.6,0.2-1.2,0.4-1.7,0.8c-0.3,0.2-0.7,0.5-1,0.8c-0.1,0.2-0.2,0.3-0.1,0.6l0.1,0.1
		c0.2,0.4,0.6,0.8,0.9,1.2c0.5,0.6,0.9,1,1.4,1.6c0.6,0.6,1,1.2,1.5,1.7c0.4,0.5,0.8,1,1.1,1.5c0.3,0.5,0.7,1.1,1,1.7
		c0.3,0.6,0.6,1.1,0.8,1.7c0.1,0.2,0.1,0.4,0.2,0.6c0.2,0.6,0.3,1.2,0.6,1.7c0.1,0.3,0.1,0.6,0.2,0.9c0,0.3,0,0.6,0.1,0.8
		c0.1,0.3,0.1,0.5,0.1,0.8s0.1,0.6,0.1,0.8c-0.1,0.9,0.1,1.9-0.1,2.8c0.1,0.4-0.1,0.8-0.1,1.2c0,0.2,0,0.5-0.1,0.6
		c-0.1,0.2-0.1,0.5-0.1,0.7c-0.1,0.3-0.1,0.5-0.2,0.8c-0.1,0.3-0.1,0.6-0.3,1c-0.1,0.3-0.3,0.7-0.3,1c-0.2,0.7-0.6,1.3-0.8,1.9
		c-0.3,0.6-0.6,1.2-1,1.7c-0.3,0.6-0.7,1-1,1.6c-0.3,0.5-0.6,0.8-1,1.2s-0.8,0.9-1.2,1.2c-0.8,0.8-1.7,1.7-2.6,2.4
		c-0.6,0.5-1.3,1-1.9,1.5c-0.4,0.3-0.9,0.5-1.3,0.8c0,0-0.1,0-0.1,0l-0.1-0.1c0.2-0.1,0.1-0.3,0.1-0.5c0.2-0.5,0.3-1,0.4-1.5
		c0.1-0.4,0.3-0.8,0.2-1.2c0.2-0.5,0.2-1,0.3-1.6c0.1-0.7,0.2-1.5,0.1-2.2C413.7,114.1,413.7,113.9,413.7,113.6z M367.9,91.6
		c0.3,0,0.6,0,0.9,0s0.6,0.1,0.9,0.1c0.6,0.1,1.2-0.1,1.7,0.1c0.3,0.1,0.6,0,0.8,0c0.3,0,0.6,0.1,0.8,0.1c0.6,0.1,1.2,0.1,1.7,0.1
		h0.1c0.2,0.1,0.4,0.1,0.6,0.1c0.2,0,0.4,0.1,0.7,0.1c0.4,0,0.8,0.1,1.2,0.1h0.1c0.1,0.1,0.3,0.1,0.4,0.1s0.3,0.1,0.5,0.1
		c0.3,0.1,0.6,0,0.8,0.1c0.2,0.1,0.4,0,0.6,0.1c0.3,0.1,0.8,0.1,1.1,0.3c0.3,0.1,0.8,0.3,1.1,0.2c0.3,0.1,0.6,0.1,0.8,0.3
		c0.3,0.1,0.6,0.1,0.9,0.2c1,0.3,1.9,0.7,2.8,1.1c0.2,0.1,0.3,0.3,0.6,0.3c0.5,0.2,0.8,0.6,1.3,0.8c0.4,0.3,0.8,0.7,1.2,1.1
		c0.2,0.2,0.4,0.4,0.6,0.7c0.4,0.6,0.8,1.2,1,1.9c0.1,0.5,0.3,0.9,0.3,1.4c0.1,0.3-0.1,0.5,0.1,0.8c0.1,0.1,0.1,0.3,0,0.4
		s-0.1,0.3-0.1,0.4c0,0.3,0,0.6-0.1,0.9c-0.1,0.5-0.3,1-0.6,1.5v0.1c-0.3,0.4-0.5,0.8-0.8,1.2c-0.3,0.4-0.6,0.8-1,1.2
		c-0.6,0.6-1,1.2-1.7,1.6c-0.3,0.2-0.5,0.4-0.7,0.6c-0.2,0.1-0.4,0.3-0.6,0.5c-0.4,0.3-0.9,0.6-1.3,1c-0.4,0.3-0.8,0.6-1.2,0.9
		c-0.5,0.3-1,0.7-1.5,1c-0.5,0.3-1,0.7-1.5,1c-0.6,0.3-1,0.7-1.6,1c-0.4,0.2-0.8,0.6-1.3,0.8c-0.4,0.3-0.8,0.6-1.3,0.8
		c-0.1,0-0.1,0.1-0.1,0.1c-0.5,0.3-1,0.7-1.6,1c-0.6,0.3-1,0.8-1.6,1.1c-0.5,0.3-0.9,0.6-1.4,1c-0.4,0.3-0.8,0.6-1.2,0.9
		c-0.5,0.3-0.9,0.8-1.4,1c-0.4,0.3-0.8,0.7-1.2,1c-0.1,0.1-0.2,0.3-0.3,0.3c-0.2,0.1-0.3,0.3-0.5,0.4c-0.2,0.1-0.4,0.3-0.6,0.5
		c-0.3,0.3-0.5,0.6-0.7,0.8c-0.2,0.3-0.3,0.6-0.3,0.9c0,0.1,0,0.1,0.1,0.2c0.1,0.1,0.3,0.3,0.5,0.3c0.3,0.1,0.7,0.2,1,0.2s0.7,0,1,0
		s0.7-0.1,1-0.1c0.2,0,0.4,0,0.6-0.1c0.2-0.1,0.4,0.1,0.6-0.1c0.6-0.1,1.1-0.2,1.7-0.3c0.6-0.1,1.2-0.3,1.8-0.5s1-0.3,1.5-0.6
		c0.9-0.3,1.9-0.8,2.8-1.2c0.3-0.1,0.6-0.3,0.8-0.4c0.3-0.1,0.6-0.3,0.9-0.4c1-0.5,1.9-1,2.9-1.5c0.4-0.2,0.9-0.4,1.2-0.6
		c0.4-0.2,0.8-0.5,1.2-0.7c0.3-0.2,0.8-0.4,1.1-0.6c0.3-0.1,0.5-0.3,0.8-0.4c0.5-0.3,1-0.6,1.4-0.8s0.8-0.5,1.2-0.7
		c0.6-0.3,1.1-0.7,1.7-1c0.6-0.3,1-0.6,1.6-0.9c0.8-0.6,1.8-1.1,2.6-1.7c0.8-0.5,1.6-1,2.4-1.6c0.3-0.2,0.7-0.5,1-0.7
		s0.6-0.4,0.9-0.7c0.3-0.3,0.7-0.6,1.1-0.9c0.4-0.3,0.8-0.6,1.2-0.9c0.4-0.3,0.8-0.7,1.2-1c0.5-0.3,0.9-0.8,1.4-1.1
		c0.3-0.2,0.6-0.6,0.8-0.8c0.6-0.4,1.2-0.9,1.8-1.3c0.6-0.4,1.2-0.8,1.9-1.2c0.3-0.1,0.7-0.3,1-0.4c0.3-0.1,0.7-0.1,1-0.2
		c0.5-0.1,0.9,0.1,1.4,0.1c0.5,0.2,1,0.3,1.4,0.6c0.1,0.1,0.2,0.2,0.3,0.3c0.6,0.4,1.1,1,1.5,1.7c0.1,0.3,0.3,0.6,0.5,1
		s0.3,0.7,0.3,1c0.1,0.4,0.3,0.8,0.3,1.2c0,0.2,0,0.4,0.1,0.6s0.1,0.3,0.1,0.6s0.1,0.3,0.1,0.6c0.1,0.7,0.1,1.4,0.1,2.1
		c0,0.1,0,0.1,0.1,0.1l0.1-0.1c0.5-0.7,0.9-1.5,1.2-2.2c0.3-0.5,0.5-1,0.7-1.5c0.1-0.1,0.1-0.3,0.2-0.5c0.1-0.6,0.4-1.2,0.6-1.9
		c0.2-0.7,0.3-1.4,0.5-2.1c0.1-0.2,0.1-0.3,0.1-0.6s0-0.4,0.1-0.6c0-0.5,0.1-0.9,0.1-1.4c0-0.5,0.1-1-0.1-1.5
		c-0.1-0.3,0-0.6-0.1-0.9c-0.1-0.5-0.2-1-0.3-1.5c-0.1-0.7-0.3-1.3-0.6-1.9c-0.3-0.8-0.8-1.7-1.2-2.4c-0.2-0.3-0.4-0.7-0.7-1
		c-0.3-0.3-0.5-0.6-0.7-0.9c-0.3-0.5-0.8-0.9-1.1-1.3c-0.4-0.5-0.8-1-1.2-1.5c-0.4-0.5-0.8-1-1.2-1.6c-0.4-0.6-0.6-1.2-0.6-1.9
		c0-0.3,0-0.6,0.1-1c0.1-0.3,0.1-0.6,0.3-0.9c0.2-0.6,0.6-1,1-1.4c0.2-0.3,0.5-0.5,0.8-0.7c0.3-0.2,0.6-0.4,0.9-0.6s0.7-0.4,1-0.6
		s0.7-0.3,1.1-0.4s0.8-0.2,1.2-0.3c0.4-0.1,0.8-0.1,1.2-0.3c0.4-0.1,0.8-0.1,1.2-0.1c0.1,0,0.1,0,0.2,0c0,0,0.1,0,0.1-0.1
		c0,0-0.1,0-0.1-0.1c-0.3-0.1-0.6-0.3-0.8-0.5c-0.6-0.3-1.1-0.7-1.7-1c-0.4-0.2-0.8-0.4-1.3-0.6c-0.2-0.1-0.3-0.1-0.6-0.2
		c-0.3-0.1-0.6-0.2-0.9-0.3c-0.3-0.1-0.6-0.1-0.9-0.3c-0.4-0.1-0.9-0.3-1.4-0.3c-0.5-0.1-1-0.2-1.4-0.3c-0.5-0.1-1-0.1-1.5-0.2
		c-0.6-0.1-1,0-1.6-0.1c-0.3-0.1-0.8,0-1.2,0.1c-0.6,0.1-1.1,0-1.7,0.1c-0.3,0.1-0.8,0.1-1.1,0.1H406c-0.1,0.1-0.3,0.1-0.4,0.1
		c-0.1,0-0.3,0.1-0.4,0.1c-0.3,0.1-0.6,0-0.8,0.1c-0.2,0.1-0.3,0-0.6,0.1c-0.3,0.1-0.6,0.2-0.9,0.2c-0.3,0-0.5,0.1-0.7,0.2
		c-0.3,0.1-0.7,0.2-1,0.3c-0.6,0.1-1.2,0.3-1.9,0.6c-0.3,0.1-0.6,0.2-1,0.3c-0.8,0.3-1.7,0.6-2.5,0.8c-0.7,0.2-1.4,0.4-2.1,0.6
		c-0.3,0.1-0.6,0.1-0.9,0.2c-0.5,0.1-0.9,0.2-1.4,0.2c-0.5,0.1-0.9,0-1.4,0c-0.4,0-0.8-0.1-1.1-0.3c-0.4-0.1-0.8-0.4-1-0.8
		c-0.4-0.4-0.6-0.9-0.7-1.5c-0.1-0.3,0-1.8,0.1-2.2c0.1-0.2,0.1-0.5,0.1-0.7c0.1-0.2,0.2-0.4,0.2-0.7c0.3-0.5,0.4-1,0.7-1.6
		s0.6-1.1,0.9-1.6c0.2-0.3,0.5-0.8,0.7-1.1c0.2-0.3,0.5-0.6,0.8-1c0.1-0.2,0.3-0.4,0.5-0.6c0,0,0-0.1,0-0.1c0,0-0.1-0.1-0.1-0.1
		s-0.1,0-0.1,0c-0.3,0.1-0.6,0.1-0.9,0.3c-0.4,0.1-0.8,0.2-1.2,0.3c-0.6,0.2-1.3,0.4-1.9,0.6c-0.5,0.1-1,0.3-1.5,0.5
		c-0.2,0.2-0.6,0.3-0.9,0.3c-0.3,0.1-0.6,0.2-0.9,0.3c-0.6,0.1-1.1,0.4-1.7,0.6c-0.5,0.2-1,0.3-1.5,0.6c-0.2,0-0.3,0.1-0.5,0.2
		c-0.3,0.1-0.6,0.3-0.8,0.3c-0.3,0.1-0.6,0.2-0.8,0.3c-0.3,0.1-0.6,0.3-0.9,0.4c-0.3,0.1-0.6,0.3-0.9,0.4c-0.3,0.1-0.7,0.2-0.9,0.4
		c-0.6,0.1-1,0.4-1.5,0.6c-0.8,0.3-1.4,0.7-2.2,1c-1,0.4-1.9,1-2.9,1.5c-0.3,0.1-0.7,0.3-1,0.5c-0.3,0.2-0.7,0.3-1,0.6
		c-0.3,0.1-0.6,0.4-1,0.5c-0.1,0.2-0.4,0.1-0.5,0.3c-0.2,0-0.3,0.2-0.6,0.3c-0.6,0.3-1.1,0.6-1.7,0.8c-0.6,0.3-1.1,0.6-1.7,0.9
		c-0.5,0.3-1,0.6-1.5,0.8c-0.9,0.5-1.7,0.9-2.6,1.4c-0.8,0.5-1.7,0.9-2.6,1.4c-0.6,0.3-1.2,0.6-1.8,1c-0.6,0.3-1.2,0.6-1.8,1
		c-1.2,0.6-2.4,1.1-3.5,1.8c-0.3,0.2-0.6,0.3-1,0.5c-0.3,0.1-0.6,0.3-1,0.5c-0.8,0.3-1.5,0.8-2.3,1c-0.1,0.1-0.3,0.2-0.5,0.3
		c-0.3,0.1-0.6,0.3-1,0.4c-0.3,0.1-0.7,0.3-1,0.4c-0.4,0.2-0.9,0.4-1.4,0.6c0,0-0.1,0-0.1,0.1l0.1,0.1c0.4,0,0.8,0.1,1.2,0.1
		c1.2,0.1,2.4,0,3.5,0.1c0.9,0.1,1.8,0,2.7,0c0.9,0,1.8,0,2.8,0c0.9,0,1.8-0.1,2.6,0.1c1.6,0,3.3,0,4.9,0c1.6,0,3.3,0,4.9,0
		c1.6,0,3.2-0.1,4.8,0.1C367.4,91.6,367.7,91.6,367.9,91.6z M391.4,67.4C391.4,67.4,391.4,67.4,391.4,67.4
		C391.4,67.4,391.3,67.4,391.4,67.4C391.3,67.4,391.4,67.4,391.4,67.4L391.4,67.4z"/>
	<path class="st0" d="M367.4,254.7L367.4,254.7c-0.2-0.1-0.4-0.1-0.6-0.1c-0.6-0.1-1.2-0.1-1.7-0.4c-0.4-0.2-0.8-0.3-1.2-0.6
		c-0.5-0.3-0.9-0.8-1.3-1.2c-0.3-0.3-0.5-0.8-0.8-1.2c-0.1-0.4-0.3-0.8-0.4-1.2c-0.1-0.3-0.1-0.8-0.2-1.1c-0.1-0.5-0.1-1-0.1-1.5
		c0.1-0.6,0.1-1.2,0.3-1.9c0.3-0.8,0.7-1.7,1.4-2.3c0.1-0.1,0.3-0.3,0.5-0.5c0.8-0.7,1.6-1.2,2.6-1.4c0.1-0.2,0.4-0.1,0.6-0.1
		c0.1-0.1,0.4-0.1,0.6-0.1c0.1,0,0.2-0.1,0.3,0c0.1,0.1,0.3,0,0.4,0s0.3,0,0.3,0c0.1,0,0.3,0,0.4,0c0.5,0.1,1,0.2,1.5,0.4
		c0.6,0.2,1,0.6,1.5,0.9c0.8,0.6,1.3,1.5,1.7,2.4c0.1,0.2,0.1,0.5,0.2,0.8c0.1,0.3,0.1,0.5,0.2,0.8c0.1,0.3,0,0.6,0.1,0.8
		c0.1,0.4,0.1,0.8,0.1,1.2c0,0.3,0,0.3-0.3,0.3c-2.5,0-5.1,0-7.6,0c-0.2,0-0.5,0-0.7,0c-0.2,0-0.3,0-0.6,0c0,0.2-0.1,0.3,0,0.6
		s0.1,0.4,0.1,0.6c0.1,0.6,0.5,1,1,1.5c0.2,0.2,0.5,0.2,0.8,0.3c0.2,0.1,0.4,0.1,0.6,0.1s0.4,0.1,0.6,0.1c0.6-0.1,1.1-0.1,1.5-0.4
		c0.4-0.3,0.8-0.5,1-1c0.1-0.1,0.2-0.3,0.4-0.3c0.9,0,1.8,0,2.7,0c0.1,0,0.1,0,0.1,0.2c-0.1,0.5-0.3,0.9-0.6,1.3
		c-0.1,0.3-0.3,0.6-0.6,0.8c-0.2,0.2-0.4,0.4-0.6,0.7c-0.1,0.1-0.3,0.3-0.6,0.4c-0.4,0.3-0.9,0.5-1.4,0.6c-0.2,0.1-0.4,0.1-0.6,0.1
		c-0.5,0.1-1,0.1-1.5,0.1c-0.1,0-0.1-0.1-0.1,0.1C367.5,254.7,367.5,254.7,367.4,254.7z M367.6,246.5c0.9,0,1.7,0,2.6,0
		c0.1,0,0.1-0.1,0.1-0.1c-0.2-0.6-0.3-1.1-0.6-1.5c-0.3-0.6-1-0.9-1.7-0.9c-0.1,0-0.3,0.1-0.4-0.1c-0.1,0.1-0.3,0.1-0.4,0.1
		c-0.3,0-0.6,0.1-1,0.3c-0.4,0.1-0.7,0.5-0.9,0.8c-0.3,0.3-0.5,0.8-0.5,1.3c0,0.3,0,0.3,0.2,0.3
		C365.9,246.5,366.8,246.5,367.6,246.5z"/>
	<path class="st0" d="M381.8,254.7c-0.1,0-0.1-0.1-0.1-0.1c-0.2,0-0.5,0-0.7,0c-0.8,0.1-1.5-0.2-2.2-0.4c-0.6-0.2-1-0.6-1.5-0.9
		c-0.8-0.6-1.2-1.3-1.7-2.2c-0.2-0.3-0.3-0.8-0.4-1.2c-0.3-0.8-0.1-1.7-0.2-2.5c0-0.6,0-1.1,0.3-1.7c0.1-0.8,0.6-1.5,1-2.3
		c0.4-0.3,0.7-0.8,1.1-1s0.8-0.6,1.2-0.8c0.5-0.2,1-0.3,1.5-0.5c0.4-0.1,0.9-0.1,1.3-0.1c0.1,0,0.3,0.1,0.4-0.1
		c0.1,0.1,0.2,0.1,0.3,0.1c0.6,0,1,0.1,1.6,0.3c0.9,0.3,1.7,0.9,2.4,1.6c0.3,0.4,0.7,0.9,0.9,1.5c0.2,0.6,0.5,1.2,0.6,1.8
		c0.1,0.3,0.1,0.7,0.1,1c0.1,0.3,0,0.7,0,1c0,0.3,0,0.4-0.4,0.4c-2.6,0-5.3,0-8,0c-0.1,0-0.3,0-0.4,0s-0.3,0-0.4,0.1
		c0,0.1,0,0.3,0,0.5c0,0.1,0.1,0.1,0.1,0.3c0,0.2,0.1,0.4,0.1,0.6c0.1,0.3,0.3,0.7,0.6,1c0.4,0.4,1,0.6,1.5,0.6
		c0.2,0,0.5,0.1,0.7,0.1c0.3-0.1,0.8-0.1,1.1-0.2c0.4-0.2,0.8-0.4,1.2-0.8c0.1-0.2,0.3-0.3,0.3-0.6c0,0,0.1-0.1,0.1-0.1
		c1,0,1.9,0,2.9,0c0.1,0,0.2,0.1,0.1,0.2c-0.2,0.6-0.4,1.2-0.8,1.7c-0.1,0.2-0.3,0.5-0.5,0.7c-0.3,0.3-0.7,0.6-1.1,0.9
		s-0.9,0.5-1.4,0.6c-0.2,0.1-0.3,0.1-0.6,0.1c-0.1,0.1-0.3,0.1-0.5,0.1s-0.3,0-0.5,0l-0.1,0.1C381.9,254.7,381.8,254.7,381.8,254.7z
		 M381.3,246.5c0.8,0,1.7,0,2.6,0c0.2,0,0.3-0.1,0.2-0.2c-0.1-0.2-0.1-0.4-0.2-0.6c-0.2-0.5-0.5-1.1-1-1.4c-0.3-0.2-0.7-0.3-1.1-0.3
		c-0.3,0-0.6,0-0.8,0c-0.4,0-0.8,0.1-1.1,0.3c-0.3,0.1-0.7,0.5-0.9,0.8c-0.3,0.4-0.4,0.8-0.5,1.3c-0.1,0.2,0,0.2,0.2,0.2
		C379.5,246.5,380.4,246.5,381.3,246.5z"/>
	<path class="st0" d="M401,254.7c-0.1-0.2-0.3-0.1-0.4-0.1c-0.6-0.1-1.3-0.2-1.9-0.5c-0.3-0.1-0.6-0.2-0.8-0.3
		c-0.3-0.2-0.6-0.3-0.8-0.6c-0.2-0.2-0.3-0.3-0.6-0.6c-0.6-0.6-1-1.3-1.2-2.2c-0.1-0.4-0.2-0.8-0.3-1.2s-0.1-0.8-0.1-1.1
		c0-0.4-0.1-0.8,0-1.2c0.1-0.8,0.3-1.5,0.6-2.2c0.4-0.8,0.8-1.5,1.5-2.1c0.6-0.5,1.2-0.9,1.9-1.2c0.3-0.1,0.6-0.2,1-0.3
		c0.8-0.2,1.7-0.1,2.6-0.1c0.3,0,0.7,0.1,1,0.2c0.4,0.1,0.8,0.3,1.2,0.5c0.6,0.3,1.2,0.8,1.7,1.4c0.1,0.2,0.3,0.3,0.4,0.6
		c0.2,0.3,0.3,0.7,0.4,1c0.1,0.3,0.1,0.6,0.2,0.9c0.1,0.2,0,0.3-0.2,0.3c-1,0-2.1,0-3.2,0c-0.1,0-0.1-0.1-0.2-0.2
		c-0.1-0.5-0.3-0.9-0.6-1.2c-0.2-0.3-0.7-0.5-1.1-0.6c-0.5-0.1-1-0.1-1.5-0.1c-0.6,0.1-1,0.4-1.4,0.9c-0.1,0.2-0.3,0.3-0.3,0.6
		c-0.3,0.6-0.4,1.1-0.5,1.7c-0.1,0.4-0.1,0.8-0.1,1.2c0.1,0.8,0.2,1.5,0.6,2.2c0.2,0.5,0.6,0.8,1,1.1c0.3,0.1,0.6,0.3,0.8,0.3
		c0.1,0,0.3,0.1,0.3,0.1c0.4,0.1,0.8-0.1,1.2-0.2c0.4-0.1,0.8-0.5,1.1-0.8c0.2-0.2,0.4-1,0.5-1.3c0-0.2,0.1-0.3,0.3-0.3
		c0.6,0,1.2,0,1.9,0c0.4,0,0.8,0,1.2,0c0.1,0,0.2,0.1,0.1,0.1c-0.1,0.2,0.1,0.4-0.1,0.6c-0.1,0.5-0.2,0.8-0.4,1.2
		c-0.3,0.8-0.9,1.5-1.6,2c-0.5,0.4-1,0.7-1.7,0.9c-0.6,0.1-1.2,0.4-1.8,0.3c-0.3,0-0.6,0-0.8,0c-0.1,0-0.1,0.1-0.1,0.1
		C401.1,254.7,401,254.7,401,254.7z"/>
	<path class="st0" d="M339,245.4c0-2.8,0-5.6,0-8.4c0-0.1,0-0.1,0-0.2c0-0.2,0-0.2,0.2-0.2c0.9,0,1.8,0,2.8,0c0.1,0,0.3,0,0.5,0
		c0.1,0,0.1,0.1,0.1,0.1c0,0.1,0,0.2,0,0.3c0,1.9,0,3.7,0,5.6c0,0.1,0,0.3,0,0.3l0.1,0.1h0.1c0.1-0.2,0.3-0.5,0.5-0.6
		c0.5-0.4,1-0.8,1.6-1c0.6-0.2,1.1-0.3,1.7-0.3c0.1,0,0.2,0.1,0.3-0.1c0.1-0.1,0.2,0.1,0.3,0.1c0.5,0,1,0.1,1.5,0.3
		c0.4,0.1,0.8,0.3,1,0.6c0.6,0.5,1,1.1,1.2,1.8c0.1,0.3,0.1,0.6,0.2,0.9c0.1,0.5,0.1,1,0.1,1.5c0,2.5,0,5,0,7.4c0,0.1,0,0.2,0,0.3
		c0,0.1,0.1,0.2,0.1,0.3c-0.1,0-0.2,0.1-0.3,0.1c-1,0-2,0-3.1,0c-0.3,0-0.3,0.1-0.3-0.3c0-2.5,0-5,0-7.4c0-0.6-0.1-1-0.3-1.5
		c-0.1-0.4-0.5-0.8-1-0.9c-0.7-0.3-1-0.2-1.7-0.1c-0.4,0.1-0.8,0.2-1,0.5c-0.3,0.3-0.6,0.7-0.6,1.2c-0.1,0.4-0.1,0.8-0.2,1.2
		c-0.1,0.8-0.1,1.5-0.1,2.2s0,1.5,0,2.3c0,0.8,0,1.5,0,2.2c0,0.2-0.1,0.3,0.1,0.6c0,0,0,0.1-0.1,0.1s-0.1,0-0.2,0c-1,0-2,0-3.1,0
		c-0.3,0-0.3,0-0.3-0.3c0-2.3,0-4.6,0-6.9C339,246.5,339,246,339,245.4z"/>
	<path class="st0" d="M443.1,245.4c0-2.8,0-5.6,0-8.4c0-0.1,0-0.2,0-0.3c0-0.1,0.1-0.1,0.1-0.1c1,0,2.2,0,3.2,0c0.1,0,0.1,0,0.1,0
		c0.1,0,0.1,0.1,0.1,0.1c-0.1,0.2-0.1,0.5-0.1,0.7c0,2.4,0,4.7,0,7.1c0,0.1-0.1,0.3,0.1,0.5c-0.1,0.1-0.1,0.3,0,0.4v0.1
		c-0.1,0.1-0.1,0.2,0,0.3c0.1,0,0.1-0.1,0.2-0.1c1-1,2-2,3-3.1c0.3-0.3,0.7-0.8,1-1.1c0.1-0.1,0.1-0.1,0.3-0.1c1.3,0,2.6,0,3.9,0
		c0.1,0,0.1,0,0.1,0c0,0.1,0,0.1-0.1,0.1c-0.2,0.2-0.3,0.5-0.6,0.6c-0.1,0.1-0.2,0.1-0.3,0.3c-0.9,0.9-1.9,1.9-2.8,2.8
		c-0.3,0.3-0.6,0.6-0.9,0.8c-0.1,0.1-0.1,0.2,0,0.3c0.3,0.4,0.6,0.8,0.8,1.2c0.7,1.1,1.5,2.2,2.2,3.3c0.6,0.9,1.2,1.7,1.7,2.6
		c0.1,0.2,0.3,0.4,0.4,0.6c0,0.1,0.1,0.1,0.1,0.1c-0.1,0-0.1,0.1-0.1,0.1c-0.3,0-0.5,0-0.8,0c-1,0-2.1,0-3.1,0
		c-0.3,0-0.4-0.1-0.5-0.3c-0.3-0.6-0.7-1.2-1-1.7c-0.2-0.4-0.5-0.8-0.7-1.2c-0.3-0.6-0.8-1.2-1.1-1.8c-0.1-0.2-0.3-0.4-0.4-0.6
		c-0.1-0.1-0.1-0.1-0.1,0c-0.4,0.4-0.8,0.8-1.2,1.2c-0.1,0.1,0,0.1,0,0.1s-0.1,0.1-0.1,0.1c0,0.1,0,0.3,0,0.3c0,1.1,0,2.2,0,3.3
		c0,0.1,0,0.2,0.1,0.3c-0.1,0-0.3,0.1-0.4,0.1c-1,0-2,0-3,0c-0.2,0-0.2,0-0.2-0.3c0-2.7,0-5.3,0-8
		C443.1,245.9,443.1,245.6,443.1,245.4z"/>
	<path class="st0" d="M330.7,236.6c2.3,0,4.5,0,6.8,0c0.1,0,0.2,0,0.3,0s0.1,0.1,0.1,0.1c0,1,0,2.1,0,3.1c0,0.1,0,0.1-0.1,0.1
		s-0.2,0-0.3,0c-1.5,0-3.1,0-4.6,0c-0.3,0-0.3,0-0.3,0.2c0,0.7,0,1.3,0,2c0,3.9,0,7.8,0,11.7c0,0.1,0,0.1,0,0.2c0,0.3,0,0.3-0.3,0.3
		c-0.4,0-0.9,0-1.3,0c-0.7,0-1.4,0-2.1,0c-0.3,0-0.3,0-0.3-0.3c0-0.7,0-1.4,0-2.1c0-3.8,0-7.7,0-11.5c0-0.1,0-0.2,0-0.3
		c0-0.1,0-0.2-0.1-0.2c-0.1,0-0.2,0-0.3,0c-1.5,0-3,0-4.5,0c-0.3,0-0.3,0-0.3-0.3c0-0.9,0-1.9,0-2.8c0-0.3,0-0.3,0.3-0.3
		c1,0,2.1,0,3.2,0C328.1,236.6,329.4,236.6,330.7,236.6z"/>
	<path class="st0" d="M415.3,254.6c-0.2,0-0.3,0-0.6,0c-0.8,0-1.5-0.2-2.2-0.4c-1-0.3-1.8-1-2.4-1.7c-0.3-0.3-0.5-0.6-0.7-1
		c-0.1-0.3-0.3-0.8-0.4-1.1c-0.1-0.4-0.2-0.8-0.3-1.2c-0.1-0.6-0.1-1.2-0.1-1.8c0-0.2,0.1-0.3,0.1-0.5c0-0.2-0.1-0.3,0.1-0.6
		c0-0.4,0.1-0.8,0.3-1.1c0.2-0.6,0.5-1.2,1-1.8c0.1-0.1,0.3-0.3,0.4-0.5c0.1-0.1,0.1-0.1,0.1-0.1c0.3-0.2,0.6-0.4,0.8-0.6
		c0.3-0.2,0.7-0.4,1-0.6c0.2-0.1,0.4-0.1,0.6-0.2c0.2-0.1,0.5-0.1,0.7-0.1c0.8-0.2,1.6-0.1,2.4-0.1c0.5,0,0.9,0.1,1.4,0.3
		c0.3,0.1,0.6,0.2,0.9,0.3c0.4,0.1,0.8,0.4,1,0.7c0.5,0.4,0.9,0.8,1.2,1.4c0.3,0.5,0.5,1,0.7,1.6c0.1,0.3,0.1,0.6,0.2,1
		c0.1,0.3,0.1,0.6,0.1,0.9c0,0.1,0,0.2,0.1,0.3c0.1,0.1,0.1,0.3,0,0.5c-0.1,0.1-0.1,0.2-0.1,0.3c0.1,0.7-0.1,1.3-0.3,1.9
		c-0.2,0.6-0.4,1.2-0.8,1.7c-0.2,0.2-0.3,0.6-0.6,0.8c-0.4,0.3-0.8,0.8-1.3,1c-0.4,0.2-0.8,0.4-1.3,0.6c-0.2,0.1-0.4,0.1-0.6,0.1
		c-0.3,0-0.5,0.1-0.8,0.1C415.8,254.6,415.6,254.6,415.3,254.6z M418.3,247.9c0-0.2,0-0.4,0-0.6c0-0.3-0.1-0.8-0.2-1.1
		c-0.1-0.3-0.1-0.6-0.3-0.8c-0.2-0.3-0.5-0.8-0.9-1c-0.4-0.2-0.8-0.5-1.2-0.4c-0.3,0-0.5,0-0.8,0c-0.6,0-1.1,0.3-1.6,0.6
		c-0.3,0.2-0.5,0.6-0.6,0.8c-0.1,0.2-0.2,0.5-0.3,0.8c0,0.2-0.1,0.4-0.1,0.7s-0.1,0.5-0.1,0.8c0,0.5,0.1,1,0.1,1.5
		c0.1,0.1,0.1,0.3,0.1,0.6c0.1,0.4,0.3,0.8,0.6,1.1c0.1,0.1,0.2,0.3,0.3,0.5c0.2,0.1,0.4,0.3,0.6,0.5c0.1,0.1,0.3,0.1,0.4,0.1
		c0.1,0.1,0.3,0,0.5,0.1c0.5,0.2,0.9-0.1,1.4,0c0.7-0.3,1.2-0.6,1.6-1.3c0.3-0.6,0.4-1.3,0.6-1.9
		C418.4,248.3,418.3,248.1,418.3,247.9z"/>
	<path class="st0" d="M441.4,247.9c0,2.1,0,4.1,0,6.2c0,0.2,0,0.2-0.2,0.2c-1,0-1.9,0-2.9,0c-0.1,0-0.2,0-0.2-0.2c0-0.5,0-1,0-1.5
		c0,0,0-0.1-0.1-0.1l-0.1,0.1c-0.3,0.5-0.7,1-1.2,1.2c-0.5,0.3-1,0.5-1.5,0.6c-0.3,0.1-0.6,0.1-1,0.1c-0.4,0-0.8,0-1.2,0
		c-1-0.1-1.8-0.3-2.5-1c-0.5-0.5-0.8-1.1-1-1.8c-0.1-0.4-0.1-0.8-0.2-1.2c-0.1-0.4-0.1-0.8-0.1-1.2c0-2.6,0-5.1,0-7.6
		c0-0.2,0-0.2,0.3-0.2c1,0,2.1,0,3.1,0c0.2,0,0.2,0,0.2,0.2c0,2.4,0,4.7,0,7.1c0,0.1-0.1,0.3,0.1,0.5c-0.1,0.1,0.1,0.3,0,0.4
		c-0.1,0.1,0,0.3,0.1,0.5c0.1,0.1,0.1,0.3,0.1,0.4c0.2,0.6,0.5,1,1.2,1.2c0.1,0,0.3,0.1,0.4,0.1c0.3,0,0.6,0,0.9,0
		c0.6,0,1.5-0.5,1.7-1c0.2-0.4,0.3-0.9,0.4-1.4c0.1-0.8,0.1-1.7,0.1-2.5s0-1.7,0-2.5s0-1.7,0-2.6c0-0.3,0-0.3,0.3-0.3
		c0.8,0,1.7,0,2.5,0c0.2,0,0.3,0,0.6,0c0.3,0,0.3,0,0.3,0.2c0,0.4,0,0.8,0,1.2C441.4,244.5,441.4,246.2,441.4,247.9z"/>
	<path class="st0" d="M352.7,248c0-1.9,0-3.9,0-5.8c0-0.1,0.1-0.3-0.1-0.5c-0.1-0.1,0.1-0.3,0.2-0.3c0.6,0,1.2,0,1.9,0
		c0.3,0,0.7,0,1,0c0.2,0,0.2,0,0.2,0.3c0,0.6,0,1.3,0,1.9c0,0.1,0,0.1,0.1,0.1c0-0.1,0-0.1,0.1-0.1c0.2-0.3,0.3-0.6,0.6-1
		c0.6-0.8,1.4-1.2,2.4-1.5c0.1-0.1,0.3-0.1,0.5-0.1c0.1,0,0.3,0,0.3,0s0.2-0.1,0.3-0.1c0.1,0,0.2,0,0.3,0.1c0.1,0,0.2,0.1,0.3,0.1
		c0.1,0,0.1,0.1,0.1,0.1c0,1,0,2,0,3c0,0.1,0,0.1-0.1,0.1c-0.2,0-0.5,0.1-0.7-0.1c-0.3,0.1-0.7-0.1-1.1,0.1
		c-0.1,0.1-0.4-0.1-0.6,0.1c-1.2,0.3-1.7,1-2.1,2.1c-0.1,0.2-0.1,0.5-0.1,0.7c-0.2,1.1-0.1,2.2-0.1,3.3c0,1.1,0,2.2,0,3.3
		c0,0.1,0,0.1,0,0.2c0,0.1-0.1,0.1-0.1,0.1c-0.2,0-0.3,0-0.6,0c-0.9,0-1.7,0-2.6,0c-0.2,0-0.2,0-0.2-0.2
		C352.7,252.1,352.7,250.1,352.7,248z"/>
	<path class="st0" d="M391.3,254.3c-0.6,0-1.1,0-1.7,0c-0.2,0-0.2,0-0.2-0.2c0-0.4,0-0.9,0-1.3c0-0.7,0-1.4,0-2.1
		c0-0.2,0-0.2,0.2-0.2c1,0,2.2,0,3.2,0c0.1,0,0.3,0.1,0.4-0.1c0,0.1,0.1,0.3,0.1,0.5c0,1,0,2.1,0,3.2c0,0.3,0,0.3-0.2,0.3
		C392.4,254.3,391.9,254.3,391.3,254.3z"/>
	<path class="st0" d="M427.3,252.4c0,0.6,0,1.2,0,1.7c0,0.1,0,0.2-0.1,0.2c-0.7,0-1.4,0-2.1,0c-0.5,0-1,0-1.5,0
		c-0.1,0-0.1,0-0.1-0.1c0-1.2,0-2.4,0-3.5c0-0.1,0.1-0.1,0.1-0.1c0.6,0,1.1,0,1.6,0c0.6,0,1.2,0,1.7,0c0.1,0,0.2,0,0.2,0
		c0.2-0.1,0.1-0.1,0.1,0.1C427.3,251.2,427.3,251.7,427.3,252.4z"/>
</g>
</svg>
