<?xml version="1.0" encoding="utf-8"?>
<!-- Generator: Adobe Illustrator 19.2.1, SVG Export Plug-In . SVG Version: 6.00 Build 0)  -->
<svg version="1.1" id="Layer_1" xmlns="http://www.w3.org/2000/svg" xmlns:xlink="http://www.w3.org/1999/xlink" x="0px" y="0px"
	 viewBox="0 0 800 300" style="enable-background:new 0 0 800 300;" xml:space="preserve">
<style type="text/css">
	.st0{fill:#FFFFFF;}
</style>
<g>
	<path class="st0" d="M721.1,149.4c-14.8,0-29.5,0-44.3,0c-0.4,0-0.7,0-1.1,0c-0.5,0-0.5,0.2-0.5,0.6c0,0.4,0,0.7,0,1.1
		c0,14.2,0,28.4,0,42.5c0,0.4,0,0.8,0,1.3c0,0.4-0.2,0.4-0.5,0.4c-1.3,0-2.6,0-3.9,0c-0.5,0-1.1-0.3-1.6-0.3c-0.6,0-1.2-0.2-1.8-0.3
		c-0.5-0.1-1.1,0.2-1.6-0.3c-2.1-0.1-4.1-0.9-6.1-1.6c-0.7-0.2-1.5-0.5-2.2-0.8c-2.3-1-4.5-2.2-6.7-3.5c-2.1-1.3-4-2.8-5.9-4.3
		c-1.2-1-2.4-2-3.4-3.2c-2.2-2.5-4.3-5.1-6-8c-0.9-1.5-1.7-3.1-2.4-4.7c-1.1-2.4-2.2-4.9-2.6-7.6c-0.6-1-0.5-2.3-0.9-3.4
		c-0.2-0.6,0.1-1.3-0.3-1.9c-0.1-1.8-0.2-3.7-0.3-5.5c0-0.3,0-0.5,0.4-0.5c0.4,0,0.8,0,1.3,0c14.2,0,28.4,0,42.5,0
		c0.3,0,0.6,0,0.9,0c0.7,0,0.7,0,0.7-0.8c0-0.3,0-0.5,0-0.8c0-14.2,0-28.5,0-42.7c0-0.4,0-0.7,0-1.1c0-0.3,0-0.5,0.4-0.5
		c1.4,0,2.7-0.2,4.1,0c2,0.3,4,0.4,5.9,1c1.8,0.5,3.6,1,5.4,1.7c1.5,0.6,3,1.3,4.6,1.9c1.6,0.7,3.1,1.7,4.6,2.6
		c1.9,1.2,3.8,2.7,5.5,4.2c1.1,1,2.3,1.9,3.2,3.1c2.2,2.5,4.5,5,5.9,8.1c1,1,1.3,2.4,2,3.6c0.6,1.2,1,2.4,1.5,3.6
		c0.9,2,1.3,4.1,1.9,6.1c0.2,0.6,0,1.3,0.3,1.7c0.4,0.6,0.1,1.2,0.3,1.8c0.4,1.1,0.3,2.3,0.3,3.5c0,0.1,0.2,0.2,0.3,0.3
		C721.1,147.5,721.1,148.5,721.1,149.4z"/>
	<path class="st0" d="M85,112.4c0.4-0.2,0.7-0.3,1.1-0.3c4.1,0,8.2,0,12.2,0c0.7,0,0.8,0,0.8,0.7c0,5.2,0,10.4,0,15.5
		c0,3,0,6.1,0,9.1c0,0.6,0.1,0.7,0.7,0.7c4.6,0,9.1,0,13.7,0c0.7,0,0.7,0,0.7-0.8c0-7.6,0-15.3,0-22.9c0-0.4,0-0.7,0-1.1
		c0-1.2,0.1-1.3,1.4-1.3c2.3,0,4.6,0,6.9,0c1.8,0,3.6,0,5.3,0c0.4,0,0.6,0.1,0.5,0.5c0,0.3,0,0.6,0,0.9c0,20.9,0,41.8,0,62.6
		c0,0.3,0,0.6,0,0.9c0,0.5-0.1,0.6-0.6,0.6c-2.5,0-4.9,0-7.4,0c-1.9,0-3.8,0-5.7,0c-0.4,0-0.6-0.1-0.5-0.5c0-0.4,0-0.8,0-1.3
		c0-8.6,0-17.2,0-25.7c0-0.3,0-0.5,0-0.8c0.1-0.5-0.2-0.6-0.6-0.6c-2.8,0-5.5,0-8.3,0c-1.8,0-3.6,0-5.3,0c-0.8,0-0.8,0-0.8,0.9
		c0,8.7,0,17.5,0,26.2c0,0.6,0,1.1,0,1.7c-0.6,0-1.2,0.1-1.8,0.1c-4.1,0-8.2,0-12.2,0C85,155.9,85,134.1,85,112.4z"/>
	<path class="st0" d="M326.1,144.9c0-10.3,0-20.6,0-30.9c0-0.4,0-0.7,0-1.1c0-0.5,0.3-0.7,0.7-0.8c0.4,0,0.7,0,1.1,0
		c6.2,0,12.3,0,18.5,0c0.9,0,1.9,0,2.8,0c1,0,1.9,0,2.9,0.3c0.9,0.2,1.8,0.1,2.7,0.3c1.8,0.4,4.2,1,5.8,1.9c2.2,1.3,4,2.9,5.4,5
		c1.4,2.2,2.3,4.5,2.9,7c0.3,1.5,0.6,3,1,4.5c0.3,1.2,0.1,2.5,0.5,3.7c0.3,1.2-0.1,2.6,0.1,3.9c0.4,1.9,0.2,3.7,0.3,5.5
		c0,1.9,0,3.8,0,5.6c-0.1,2.2,0,4.4-0.4,6.6c-0.2,1.6-0.5,3.2-0.8,4.8c-0.4,1.6-0.8,3.2-1.4,4.6c-0.8,2-1.9,3.9-3.5,5.5
		c-0.6,0.5-1.1,1.1-1.7,1.7c-1.3,1.3-2.9,2.1-4.6,2.9c-1.5,0.7-3.1,0.8-4.6,1.5c0,0-0.1,0-0.2,0c-1.5,0.1-2.9,0.3-4.4,0.3
		c-7.1,0-14.2,0-21.3,0c-0.3,0-0.6,0-0.9,0c-0.6,0-0.8-0.3-0.9-0.8c0-0.4,0-0.7,0-1.1C326.1,165.5,326.1,155.2,326.1,144.9z
		 M340.2,144.8c0,4.2,0,8.4,0,12.5c0,3,0,6,0,8.9c0,0.8,0.2,1,1,1c1.2,0,2.4-0.1,3.6,0c1.5,0.1,3-0.2,4.4-0.4
		c1.9-0.3,3.4-1.4,4.5-3.2c1.3-2.2,1.9-4.6,2.1-7.1c0.2-2,0.5-4,0.4-6c-0.1-2.8,0-5.6,0-8.5c-0.1-2.8,0.3-5.6-0.3-8.3
		c-0.2-0.8,0.2-1.6-0.3-2.4c0-1.8-0.8-3.4-1.6-5c-0.5-1.2-1.4-2-2.4-2.7c-0.7-0.6-1.7-1-2.7-1c-2.8,0-5.5,0-8.3,0
		c-0.3,0-0.5,0.1-0.4,0.4c0,0.4,0,0.7,0,1.1C340.2,131.1,340.2,138,340.2,144.8z"/>
	<path class="st0" d="M500.3,157.1c0,7.5,0,15.1,0,22.6c0,1.9-0.2,3.7-0.7,5.5c-0.5,1.9-1.4,3.6-2.7,5.1c-1.7,1.9-4.4,3.6-7.9,4.3
		c-1.4,0.3-2.7,0.6-4.1,0.6c-1.5,0-2.9-0.1-4.4,0c-1.5,0.1-2.8-0.5-4.3-0.3c-2.1-0.7-4.5-1.1-6.3-2.5c-2.4-1.8-4.1-4-4.7-7.1
		c-0.2-0.8-0.2-1.6-0.3-2.4c0-0.3,0.1-0.7-0.2-1c-0.3-0.3,0-0.5,0.4-0.5c4.1,0,8.2,0,12.2,0c0.3,0,0.5,0,0.5,0.4c0,0.3,0,0.6,0,0.9
		c-0.1,1,0.3,1.8,0.6,2.7c0.6,1.6,2.3,2.1,3.4,2.2c0.3,0,0.6,0,0.9,0c1.6,0.3,3.4-1.3,3.8-2.8c0.3-1.1,0.7-2.3,0.7-3.5
		c0-2.9,0-5.8,0-8.6c0-0.1-0.1-0.3-0.1-0.4c-0.1,0.1-0.2,0.2-0.3,0.3c-0.3,0.4-0.6,0.9-1,1.3c-1.2,1.1-2.5,2-4.2,2.5
		c-1.9,0.5-3.9,0.7-5.9,0.6c-0.8-0.6-1.8-0.1-2.7-0.6c-0.8-0.4-1.6-0.6-2.4-1c-0.6-0.3-1.1-0.7-1.6-1.1c-1.4-1.3-2.6-2.7-3.2-4.5
		c-0.5-1.4-1-2.9-1.2-4.4c-0.2-1.2-0.1-2.4-0.3-3.5c-0.4-2-0.2-3.9-0.3-5.8c-0.1-1.9-0.1-3.9,0-5.8c0.1-1.9,0.2-3.8,0.3-5.7
		c0-0.7,0.4-1.2,0.3-1.9c-0.1-0.6,0.3-1.2,0.3-1.9c0-0.5,0.4-1.1,0.6-1.6c0.2-0.6,0.4-1.2,0.6-1.8c1.3-2.7,3.3-4.7,6-5.8
		c1.1-0.4,2.3-0.7,3.5-0.7c1,0,2.1,0,3.1,0c2.9,0,5.3,1.3,7.3,3.2c0.5,0.5,0.9,1.2,1.4,1.8c0.1,0.1,0.1,0.3,0.2,0.4
		c0.1-0.1,0.1-0.3,0.1-0.4c0-1.2,0-2.3,0-3.5c0-0.4,0.1-0.5,0.5-0.5c3.9,0,7.7,0,11.6,0c0.3,0,0.5,0.1,0.5,0.4c0,0.4,0,0.7,0,1.1
		C500.3,141.3,500.3,149.2,500.3,157.1z M487.2,154c0-1.3-0.1-2.5,0-3.8c0.1-1.2-0.4-2.4-0.3-3.6c0-0.8-0.1-1.5-0.3-2.2
		c-0.2-0.8-0.4-1.5-0.6-2.3c-0.4-1.3-1.1-2.2-2.4-2.8c-0.7-0.3-1.4-0.2-2.1-0.2c-0.8,0-1.6,0.3-2.2,0.8c-0.6,0.5-1,1.2-1.3,2
		c-0.5,1.3-0.4,2.7-0.9,4c0.2,2.3-0.4,4.5-0.3,6.8c0.1,3.1-0.2,6.3,0.2,9.5c0.2,1.5,0.4,2.9,1.1,4.2c0.8,1.4,1.8,2.4,3.6,2.2
		c0.3,0,0.5,0,0.8,0c1.6,0.1,2.7-0.8,3.3-2.1c0.5-1.1,0.8-2.4,1-3.7c0.2-1.9,0.3-3.8,0.3-5.7C487.2,156,487.2,155,487.2,154z"/>
	<path class="st0" d="M564.4,155.4c0,3.1,0,6.2,0,9.3c0.1,3,0.1,6,0.4,9c0.1,1.2,0.2,2.4,0.3,3.6c0,0.3-0.1,0.4-0.4,0.4
		c-3.6,0-7.2,0-10.8,0c-0.7,0-1-0.2-1-0.9c0-1.1,0.1-2.2-0.3-3.3c-0.2-0.5,0.2-1-0.2-1.4c-0.3,0.4-0.7,0.8-0.9,1.2
		c-0.3,0.7-0.9,1.1-1.3,1.6c-1.4,1.6-3.2,2.5-5.2,3.1c-1.7,0.5-3.6,0.9-5.4,0.6c-1.8-0.3-3.7-0.5-5.3-1.5c-0.8-0.4-1.3-1.1-2-1.6
		c-1.3-1.1-2.2-2.5-2.8-4c-0.4-1.1-0.6-2.2-0.9-3.3c-0.4-2.1-0.3-4.2-0.3-6.3c0.1-2.3,0.6-4.5,1.7-6.5c1.2-2.2,4-4.9,6.9-5.7
		c1.8-0.5,3.6-0.9,5.5-1.2c2.8-0.5,5.7-0.1,8.5-0.3c0.6,0,0.7-0.1,0.7-0.7c0-1.7,0-3.3,0-5c0-1.5-0.7-2.7-1.9-3.6
		c-0.4-0.3-1-0.4-1.5-0.4c-0.7-0.1-1.4,0-2,0c-2,0-3.2,1.4-3.6,3.4c-0.2,1-0.2,2.1-0.3,3.2c0,0.1-0.2,0.3-0.4,0.3
		c-0.1,0-0.2,0-0.3,0c-3.8,0-7.6,0-11.5,0c-0.7,0-0.7,0-0.7-0.8c0-0.8,0.1-1.5,0.3-2.2c0.2-0.8,0.1-1.6,0.4-2.4
		c0.2-0.7,0.4-1.4,0.7-2.1c0.4-0.7,0.9-1.3,1.3-2c0.1-0.2,0.4-0.4,0.5-0.6c1.3-1.6,3-2.6,4.9-3.3c0.6-0.2,1.2-0.4,1.8-0.5
		c2.1-0.6,4.3-0.7,6.5-0.6c0.1,0,0.1,0,0.2,0c2.6,0,5.2-0.1,7.8,0.6c1.7,0.4,3.3,0.8,4.8,1.6c1,0.5,2,1.1,2.8,2
		c0.7,0.8,1.5,1.6,1.8,2.5c0.4,1.1,0.9,2.2,1.1,3.5c0.2,1.3,0.2,2.6,0.2,4C564.4,148.5,564.4,151.9,564.4,155.4z M541.2,163.2
		c-0.1,2.5,0.1,3.6,1.2,5.5c0.3,0.5,0.6,0.8,1,1c1.9,0.9,3.7,0.7,5.4-0.3c0.3-0.2,0.7-0.4,0.9-0.7c1.1-1.3,1.7-2.9,1.8-4.5
		c0.1-1.6,0.4-3.1,0.4-4.7c0-1-0.5-2-0.3-3c0-0.4-0.1-0.6-0.6-0.6c-2.1-0.1-4.3,0.2-6.3,0.7c-1.3,0.3-2.4,1.3-2.9,2.7
		C541.3,160.5,541.1,161.9,541.2,163.2z"/>
	<path class="st0" d="M181.7,154.5c0-7.3,0-14.5,0-21.8c0-0.9-0.1-0.8,0.8-0.8c3.9,0,7.8,0,11.8,0c0.5,0,0.6,0.2,0.6,0.6
		c0,1,0,2.1,0,3.1c0,0.1,0.1,0.2,0.1,0.3c0.1-0.1,0.2-0.2,0.2-0.3c1.7-2.3,3.9-3.7,6.7-4.4c2-0.5,4-0.4,6-0.2c1.9,0.2,3.6,0.9,5.3,2
		c1.7,1.1,2.8,2.7,3.5,4.5c0.3,0.7,0.5,1.5,0.5,2.3c0,12.3,0,24.6,0,36.9c0,0.2,0,0.3,0,0.5c0,0.4-0.1,0.5-0.5,0.5
		c-4.1,0-8.2,0-12.2,0c-0.3,0-0.5-0.1-0.4-0.4c0-0.4,0-0.7,0-1.1c0-10.7,0-21.3,0-32c0-0.7-0.3-1.3-0.3-1.9c0-0.7-0.5-1.1-0.9-1.7
		c-0.5-0.8-1.3-1.2-2.1-1.4c-1.7-0.3-3.3-0.1-4.6,1.3c-0.6,0.6-0.8,1.4-0.9,2.1c-0.3,1.2-0.3,2.4-0.3,3.6c0,9.9,0,19.9,0,29.8
		c0,0.4,0,0.8,0,1.3c0,0.4-0.2,0.4-0.5,0.4c-3.9,0-7.8,0-11.8,0c-0.7,0-0.9-0.2-0.9-0.9c0-0.3,0-0.6,0-0.9
		C181.7,168.7,181.7,161.6,181.7,154.5z"/>
	<path class="st0" d="M456.4,151.4c0,6,0,11.9,0,17.9c0,1.1,0.2,2.2,0.3,3.3c0.1,1.1,0,2.2,0,3.3c0,0.1,0,0.1,0,0.2
		c0.2,0.5,0.6,1.2,0.2,1.5c-0.4,0.3-1.1,0.1-1.7,0.1c-3.5,0-6.9,0-10.4,0c-0.3,0-0.6,0-0.9,0c-0.4-0.1-0.7-0.3-0.7-0.8
		c0-0.9,0-1.9,0-2.8c0-0.1-0.1-0.3-0.1-0.4c-0.1,0.1-0.1,0.3-0.2,0.4c-1.6,1.8-3.4,3.3-5.7,3.9c-1.7,0.4-4.3,0.9-5.7,0.6
		c-0.8-0.2-1.7-0.1-2.5-0.5c-0.7-0.4-1.6-0.4-2.3-0.8c-2.5-1.4-4.5-3.3-5.3-6.2c0-0.1-0.1-0.2-0.1-0.3c-0.1-1.2-0.3-2.4-0.3-3.6
		c0-11.3,0-22.6,0-33.9c0-0.3,0-0.6,0-0.9c-0.1-0.5,0.2-0.5,0.6-0.5c1,0,2.1,0,3.1,0c2.9,0,5.8,0,8.6,0c0.9,0,0.9,0,0.9,0.9
		c0,7.9,0,15.9,0,23.8c0,1.6,0.1,3.1,0,4.7c-0.1,1.8,0.3,3.5,0.4,5.2c0.1,1.4,0.9,2.5,2.1,3.3c0.3,0.2,0.7,0.3,1.1,0.3
		c0.7,0,1.4,0,2,0c1.3,0,2.9-1.3,3.2-2.6c0.2-0.9,0.3-1.9,0.3-2.8c0-10.4,0-20.8,0-31.2c0-0.4,0-0.8,0-1.3c0-0.4,0.2-0.4,0.5-0.4
		c4.1,0,8.2,0,12.2,0c0.3,0,0.5,0,0.5,0.4c0,0.4,0,0.7,0,1.1C456.4,139.4,456.4,145.4,456.4,151.4z"/>
	<path class="st0" d="M173.2,152.4c0,6.3,0,12.7,0,19c0,0.9,0.4,1.8,0.4,2.7c0,0.9,0,1.9,0,2.8c0,0.8,0,0.8-0.7,0.8
		c-4,0-8.1,0-12.1,0c-0.5,0-0.7-0.1-0.7-0.7c0.1-1,0-2.1,0-3.1c0-0.1-0.1-0.2-0.1-0.3c-0.1,0.1-0.2,0.1-0.2,0.2
		c-0.3,0.8-1,1.3-1.6,1.9c-0.8,0.8-1.7,1.4-2.9,1.7c-0.6,0.2-1.1,0.5-1.8,0.7c-0.6,0.2-1.2,0.1-1.8,0.3c-0.9,0.3-1.8,0.3-2.7,0.3
		c-2.3-0.1-4.6-0.6-6.6-1.9c-2.1-1.4-3.3-2.6-4.2-5.4c-0.3-0.8-0.4-1.7-0.4-2.5c0-12.1,0-24.2,0-36.3c0-0.8,0-0.8,0.7-0.8
		c3.9,0,7.7,0,11.6,0c0.9,0,0.8-0.1,0.8,0.8c0,7.1,0,14.2,0,21.3c0,3.4,0,6.8,0,10.2c0,1.2,0.2,2.4,0.6,3.5c0.5,1.5,1.7,2.4,3.1,2.4
		c0.4,0,0.8,0,1.3,0c1.9,0.1,3.4-1.2,3.8-3.2c0.2-1,0.3-1.9,0.3-2.9c0-10.2,0-20.4,0-30.6c0-0.4,0-0.8,0-1.3c0-0.1,0.2-0.3,0.4-0.3
		c0.1,0,0.2,0,0.3,0c3.9,0,7.8,0,11.8,0c0.7,0,0.7,0,0.7,0.8C173.2,139.2,173.2,145.8,173.2,152.4z"/>
	<path class="st0" d="M276.2,157c-3.9,0-7.7,0-11.6,0c-0.6,0-0.7,0.2-0.7,0.7c0.1,1.8,0.1,3.7,0.4,5.5c0.2,1.2,0.4,2.5,1,3.7
		c0.5,1.2,1.2,2.5,2.7,2.8c0.2,0,0.5,0.2,0.7,0.2c0.7,0,1.5,0,2.2,0c0.4,0,0.8-0.1,1.1-0.3c1.2-0.9,2.1-2,2.4-3.6
		c0.1-0.5,0.2-1.1,0.3-1.6c0.1-0.5,0-1,0-1.6c0-0.8,0-0.8,0.7-0.8c4,0,8.1,0,12.1,0c0.7,0,0.8,0,0.7,0.8c-0.1,1.4-0.4,2.8-0.8,4.2
		c-0.5,1.9-1.3,3.7-2.5,5.2c-1.3,1.6-2.8,3.1-4.8,4c-1.4,0.6-2.8,1.3-4.3,1.7c-0.6,0.2-1.3-0.1-1.9,0.4c-2.1,0-4.1,0.6-6.1,0.3
		c-0.8-0.1-1.6-0.3-2.4-0.3c-0.8,0-1.6,0-2.4-0.3c-1.9-0.7-4-1.2-5.7-2.6c-1.3-1-2.4-2.2-3.3-3.5c-0.8-1.1-1.3-2.4-1.7-3.7
		c-0.4-1.6-1.1-3.1-0.9-4.8c-0.5-1-0.1-2-0.4-3c-0.4-1.8-0.2-3.6-0.3-5.4c0-1.8,0-3.6,0-5.3c0-0.7,0.2-1.5,0.3-2.2
		c0.1-0.7-0.2-1.4,0.3-2.1c-0.1-1.8,0.7-3.5,1.3-5.1c0.5-1.5,1.2-2.8,2.2-3.9c1-1.2,2.1-2.2,3.3-3c1.4-0.9,2.9-1.4,4.4-1.8
		c2.7-0.8,5.5-0.5,8.2-0.7c2.4-0.1,4.7,0.4,7,1c1.8,0.5,3.5,1.3,4.8,2.7c0.9,1,1.9,1.8,2.7,3c0.9,1.4,1.3,2.9,1.9,4.4
		c0.3,0.7,0.3,1.4,0.5,2.1c0.2,0.7-0.2,1.5,0.4,2.2c-0.2,1.4,0.3,2.7,0.3,4.1c0,2,0,4,0,6c0,0.5-0.2,0.6-0.6,0.6
		C283.9,156.9,280.1,157,276.2,157z M269.4,149.4c1.8,0,3.5,0,5.3,0c0.4,0,0.5-0.2,0.5-0.5c0.1-1.5-0.2-2.9-0.3-4.4
		c-0.1-1-0.7-1.9-0.7-2.8c-0.6-0.4-0.7-1.3-1.5-1.7c-1.2-0.5-2.3-1.1-3.7-0.9c-1.8,0.2-3.6,1.5-4.2,3.3c-0.4,1.1-0.5,2.2-0.7,3.3
		c-0.1,1-0.2,2-0.2,3c0,0.7,0,0.7,0.8,0.7C266.3,149.4,267.9,149.4,269.4,149.4z"/>
	<path class="st0" d="M413.7,153.9c0,1.9,0,3.3,0,4.8c-0.1,1.4-0.1,2.9-0.3,4.3c-0.4,2.1-0.6,4.3-1.6,6.2c-0.6,1.2-1.1,2.4-1.9,3.5
		c-1.5,2-3.4,3.6-5.8,4.4c-0.7,0.2-1.3,0.9-2.1,0.7c-0.6,0.6-1.5,0-2.1,0.6c0,0-0.1,0-0.2,0c-2.3,0.1-4.5,0.6-6.8,0.3
		c-2.1-0.3-4.3-0.4-6.4-1.2c-1.8-0.7-3.5-1.4-4.9-2.9c-1.3-1.4-2.6-2.8-3.3-4.6c-0.7-1.7-1.2-3.4-1.5-5.2c-0.2-0.9-0.1-1.9-0.3-2.7
		c-0.3-0.9-0.2-1.8-0.3-2.7c0-0.9,0-1.9,0-2.8c0-0.5,0.1-1.1-0.3-1.6c-0.2-0.4-0.2-1.1,0-1.5c0.3-0.5,0.2-1,0.2-1.5
		c0-0.8,0-1.7,0-2.5c0-3.1,0.6-6.2,1.6-9.1c0.6-1.6,1.5-3.2,2.7-4.5c1.4-1.5,3.1-2.7,5-3.4c1.4-0.5,2.9-0.9,4.4-1.2
		c2.5-0.5,4.9-0.2,7.4-0.2c3.2,0,6.2,0.8,9,2.5c1.2,0.7,2.4,1.6,3.2,2.9c0.5,0.8,1.1,1.5,1.6,2.4c0.5,0.9,0.9,1.9,1.2,2.9
		c0.5,1.8,0.8,3.7,1,5.6C413.8,149.6,413.5,151.9,413.7,153.9z M400.5,154c0-1.4,0-2.8,0-4.2c0-1.4,0.2-2.8-0.3-4.1
		c0.2-0.9-0.1-1.7-0.4-2.5c-0.5-1.7-1.2-3.1-3.2-3.4c-0.6-0.6-1.4-0.3-2.1-0.3c-1.7-0.1-2.9,0.7-3.8,2.2c-0.8,1.3-0.9,2.8-1.2,4.2
		c-0.2,1.1-0.1,2.3,0,3.4c0.1,1.1-0.4,2.2-0.3,3.3c0,1.3,0.1,2.5,0.3,3.8c0.3,2.3-0.1,4.7,0.3,7.1c0.2,1.2,0.4,2.4,0.7,3.5
		c0.2,0.8,0.7,1.7,1.4,2.2c0.7,0.4,1.5,0.8,2.4,0.7c0.5-0.1,0.9,0,1.4,0c1.6,0,2.3-0.6,3.2-2c0.8-1.2,1-2.6,1.2-3.9
		c0.1-1.2,0.4-2.3,0.4-3.5c0-1.2,0-2.4,0-3.6C400.5,155.9,400.5,154.9,400.5,154z"/>
	<path class="st0" d="M577.5,162.6c1.9,0,3.8,0,5.6,0c0.5,0,0.8,0,0.7,0.7c-0.2,1.2,0.2,2.4,0.4,3.6c0.3,2,1.2,3.2,3.7,3.3
		c0.4,0,0.8-0.1,1.3,0c1.2,0.2,2.1-0.3,2.9-1c0.6-0.5,1.2-1.2,1.2-1.9c0-0.7,0.7-1.5,0.1-2.2c0.1-1.8-1.1-2.9-2.3-3.9
		c-1.5-1.2-3.2-2-5-2.8c-1.6-0.7-3.2-1.2-4.7-2c-1.5-0.8-3.2-1.4-4.6-2.5c-0.9-0.6-1.5-1.4-2.3-2.1c-1.5-1.3-2.4-2.9-2.9-4.8
		c0-0.1-0.2-0.2-0.2-0.4c-0.1-1.1-0.4-2.1-0.3-3.2c0.1-1.6,0.4-3.2,1.1-4.7c0.9-2,2.4-3.5,4.2-4.7c1.7-1.1,3.6-1.7,5.4-2.4
		c0.6-0.2,1.3-0.2,1.9-0.3c1.5-0.3,3-0.5,4.6-0.4c0.9,0.1,1.8,0,2.7,0c3.2,0,6.2,0.9,9,2.6c1,0.6,2,1.2,2.6,2.4
		c0.4,0.8,1.2,1.3,1.5,2.2c0.7,1.5,1.2,3,1.2,4.7c0,0.9-0.1,1.7-0.1,2.6c-0.8,0-1.7,0-2.5,0c-3,0-6,0-8.9,0c-1.2,0-1.4-0.1-1.3-1.3
		c0.1-1.1-0.2-2.2-0.4-3.3c-0.2-0.9-0.7-1.7-1.8-2c-1.4-0.3-2.3-0.3-3.7,0c-1.4,0.3-1.8,1.3-2.3,2.4c-0.2,0.5,0.1,1.1-0.3,1.6
		c-0.3,0.3,0.2,0.9,0.3,1.4c0.1,0.9,0.9,1.7,1.6,2.1c1.3,0.7,2.3,1.8,3.9,2c3,1.4,5.9,2.9,8.9,4.4c1.1,0.6,2.3,1.3,3.1,2.3
		c0.9,1,2,1.9,2.8,3.1c0.7,1.1,1.5,3.1,1.6,4.7c0.1,0.7,0.4,1.3,0.3,2.1c-0.1,1-0.7,4.9-1.3,5.6c-1.1,1.4-1.7,3.1-3.3,4.1
		c-1.1,0.7-2.1,1.7-3.3,2.2c-1.4,0.6-2.9,1.1-4.5,1.4c-2.2,0.4-4.3,0.7-6.5,0.6c-0.8,0-1.7-0.2-2.5-0.3c-0.8-0.1-1.6,0.2-2.4-0.3
		c-1.2,0.1-2.3-0.3-3.3-0.6c-2.9-0.9-5.1-2.7-6.7-5.2c-0.5-0.8-0.8-1.8-1-2.7c-0.4-1.9-0.8-3.8-0.7-5.7c0.1-1.1,0-1.1,1-1.1
		C573.8,162.6,575.7,162.6,577.5,162.6z"/>
	<path class="st0" d="M629.4,145c0.2-0.6-0.2-1.3,0.3-2c0.4-0.5-0.3-1.3,0.4-1.9c0-1.6,0.6-3,1-4.5c0.2-0.8,0.4-1.7,0.7-2.5
		c1-2.2,1.8-4.4,3-6.5c1-1.8,2.1-3.6,3.3-5.2c1.5-2.1,3.1-4.1,5-5.9c1.9-1.7,3.8-3.4,6-4.8c1.9-1.3,3.8-2.4,5.8-3.5
		c1.4-0.7,2.9-1.3,4.4-1.9c1.4-0.5,2.8-0.9,4.1-1.4c0.6-0.2,1.3-0.3,2-0.5c0.6-0.1,1.2-0.2,1.8-0.3c0.5-0.1,1.1-0.2,1.6-0.3
		c0.6-0.1,1.2,0.2,1.8-0.3c0.1-0.1,0.4,0,0.6,0c0.5,0,1.1-0.1,1.3,0.2c0.2,0.2,0.2,0.9-0.3,1.2c0.1,1.1-0.4,2.1-0.6,3.2
		c-0.5,2.2-1.3,4.3-2,6.4c-0.9,2.5-2.1,4.9-3.3,7.2c-0.9,1.7-1.9,3.3-3.1,4.8c-1,1.3-2.1,2.6-3.2,3.9c-0.8,1-1.6,1.9-2.5,2.7
		c-2.3,2.1-4.8,4.1-7.5,5.8c-1.8,1.1-3.6,2.1-5.5,3.1c-1.3,0.7-2.8,1.1-4.2,1.7c-1.3,0.6-2.8,0.8-4.1,1.5c-1-0.2-1.9,0.5-2.9,0.7
		c-1,0.1-1.9,0.5-2.9,0.6c-0.2,0-0.3,0.3-0.5,0.3c-0.1,0-0.4-0.1-0.4-0.2C629.4,146.1,629.4,145.6,629.4,145z"/>
	<path class="st0" d="M720.7,153.6c-0.2,2.3-0.5,4.6-1.2,6.9c-0.3,1-0.4,2-0.7,3c-0.4,0.9-0.7,1.9-1.1,2.9c-0.8,1.7-1.5,3.5-2.4,5.1
		c-1,1.7-2,3.4-3.2,5c-1.6,2.1-3.1,4.1-5,5.9c-2.4,2.2-4.9,4.3-7.7,6c-1.2,0.7-2.4,1.6-3.7,2.2c-2.2,0.9-4.4,2-6.7,2.7
		c-0.7,0.2-1.5,0.5-2.2,0.7c-0.8,0.1-1.5,0.4-2.3,0.5c-1.4,0.2-2.7,0.5-4.1,0.6c-0.7,0.1-1.5,0.3-2.2,0.2c-0.1,0-0.4-0.2-0.3-0.3
		c0.1-0.7,0.1-1.5,0.3-2.2c0.6-1.4,0.7-2.8,1.2-4.2c0.4-1.4,0.9-2.8,1.3-4.2c0.6-1.9,1.6-3.6,2.5-5.4c1-2.1,2.2-4.2,3.5-6.1
		c0.9-1.3,1.9-2.6,3-3.8c1-1.1,1.9-2.3,3-3.3c2.9-2.6,5.9-5.1,9.3-7c1.2-0.7,2.5-1.4,3.7-2c2.7-1.3,5.5-2.3,8.4-3.3
		c0.6-0.2,1.3-0.2,1.9-0.4c0.7-0.2,1.3-0.4,2-0.5c0.6-0.1,1.3-0.2,1.9-0.3c0.1,0,0.2-0.2,0.4-0.2c0.4-0.2,0.6-0.1,0.6,0.4
		C720.7,152.8,720.7,153.2,720.7,153.6z"/>
	<path class="st0" d="M240.4,153.4c0,4,0,7.9,0,11.9c0,0.9,0.2,1.7,0.4,2.5c0.1,0.6,0.7,1.1,1.3,1.3c0.6,0.2,1.1,0.4,1.8,0.3
		c0.9-0.1,1.7,0.2,2.6-0.2c0.1,0,0.2,0.1,0.3,0.1c0,0.1,0,0.2,0,0.3c0,2.4,0,4.8,0,7.2c0,0.5-0.1,0.6-0.7,0.7
		c-2.7,0.4-5.4,0.2-8,0.3c-0.9,0-3.7-0.6-4.9-1.1c-2.7-1.2-4.6-3.3-5.5-6.1c-0.3-0.9-0.5-1.9-0.5-2.9c0-8.7,0-17.5,0-26.2
		c0-0.4,0-0.7,0-1.1c0-0.5-0.2-0.5-0.5-0.5c-1.3,0-2.6,0-3.9,0c-0.3,0-0.6,0-0.6-0.5c0-2.4,0-4.8,0-7.2c0-0.5,0.2-0.5,0.6-0.5
		c1.2,0,2.4,0,3.6,0c0.8,0,0.9,0,0.9-0.8c0-1.9,0-3.8,0-5.6c0-0.6,0.1-0.9,0.8-1.1c1.5-0.6,2.8-1.4,4.4-1.9c0.3-0.1,0.5-0.3,0.8-0.4
		c0.9-0.4,1.8-1,2.8-1.3c1-0.3,1.7-1,2.8-1.2c0.6-0.1,1.1-0.5,1.6-0.8c0,0.6,0.1,1.2,0.1,1.9c0,3.5,0,7,0,10.5c0,0.7,0,0.7,0.8,0.7
		c1.7,0,3.5,0,5.2,0c0.4,0,0.7,0,0.7,0.6c0,2.4,0,4.7,0,7.1c0,0.5-0.2,0.6-0.6,0.6c-1.8,0-3.6,0-5.3,0c-0.4,0-0.7,0-0.6,0.6
		c0,0.7,0,1.5,0,2.2C240.4,146.3,240.4,149.9,240.4,153.4z"/>
	<path class="st0" d="M508.8,144.9c0-10.4,0-20.8,0-31.2c0-0.3,0-0.6,0-0.9c-0.1-0.7,0.2-0.7,0.7-0.7c0.9,0,1.9,0,2.8,0
		c2.8,0,5.5,0,8.3,0c1.3,0,1.3,0,1.3,1.3c0,0.1,0,0.1,0,0.2c0,20.9,0,41.8,0,62.8c0,1.4,0,1.4-1.5,1.4c-3.4,0-6.8,0-10.2,0
		c-0.5,0-1.2,0.1-1.3-0.1c-0.2-0.4-0.2-1-0.2-1.5C508.8,165.7,508.8,155.3,508.8,144.9z"/>
	<path class="st0" d="M295.6,154.6c0-7.3,0-14.7,0-22c0-0.8,0-0.8,0.7-0.8c3.6,0,7.2,0,10.8,0c0.5,0,0.7,0.1,0.7,0.7
		c-0.1,1.3,0,2.6,0,3.9c0,0.1,0.1,0.3,0.1,0.4c0.1-0.1,0.3-0.2,0.3-0.3c0.5-0.9,1.1-1.8,1.9-2.5c1.1-1.1,2.4-1.9,3.7-2.4
		c1.4-0.5,3-1,4.6-0.8c0.5,0.1,1.2-0.1,1.5,0.1c0.3,0.3,0.1,1,0.1,1.5c0,3.1,0,6.3,0,9.4c0,0.5-0.1,0.6-0.6,0.6c-0.7,0-1.4,0-2,0
		c-0.7,0-1.3,0.1-1.9,0.3c-0.6,0.1-1.3,0.1-1.9,0.4c-2.4,1-3.8,2.1-4.6,4.9c-0.2,0.8-0.2,1.5-0.3,2.2c-0.6,4.4-0.2,8.9-0.3,13.4
		c-0.1,4.4,0,8.9,0,13.3c0,0.4,0,0.7-0.5,0.7c-3.9,0-7.8,0-11.8,0c-0.5,0-0.6-0.2-0.6-0.6C295.7,169.6,295.6,162.1,295.6,154.6z"/>
</g>
</svg>
