<?xml version="1.0" encoding="utf-8"?>
<!-- Generator: Adobe Illustrator 19.2.1, SVG Export Plug-In . SVG Version: 6.00 Build 0)  -->
<svg version="1.1" id="Layer_1" xmlns="http://www.w3.org/2000/svg" xmlns:xlink="http://www.w3.org/1999/xlink" x="0px" y="0px"
	 viewBox="0 0 800 300" style="enable-background:new 0 0 800 300;" xml:space="preserve">
<style type="text/css">
	.st0{fill:#FFFFFF;}
</style>
<g>
	<path class="st0" d="M163.8,93.1c0.4,1.2,1,2.5,1.3,3.8c0.4,1.2,0.7,2.5,1.2,3.7c0.8,2.5,1.6,4.9,2.4,7.3c0.9,2.6,1.7,5.2,2.6,7.8
		c0.5,1.7,1.2,3.3,1.7,5.1c0.3,1.1,0.6,2,0.9,3c0.4,1,0.5,2,1.1,2.9c0.1,0.1,0,0.3-0.1,0.4c-0.1-0.1-0.3-0.1-0.3-0.2
		c-0.3-0.6-0.5-1.2-0.7-1.9c-0.6-1.9-1.2-3.6-1.8-5.5c-0.9-3.3-2.1-6.5-3.1-9.8c-1.1-3.4-2.2-6.8-3.3-10.1c-0.6-1.9-1.2-3.7-1.9-5.7
		c-0.1-0.4-0.2-0.6-0.3-1C163.6,93.1,163.7,93.1,163.8,93.1z"/>
	<path class="st0" d="M130.6,187.6c-0.1-1,0.4-1.9,0.7-2.8c0.5-1.7,1.2-3.3,1.7-5.1c0.6-2.6,1.7-5.1,2.4-7.6
		c0.7-2.6,1.7-5.2,2.5-7.7c0.4-1.3,0.8-2.6,1.2-3.9c0.4-1.2,0.9-2.5,1.2-3.7c0.4-1.5,0.9-3,1.4-4.4c0.1-0.2,0.3-0.7-0.4-0.7
		c-1.6-1.2-3.1-2.4-4.7-3.6c-1.8-1.2-3.5-2.6-5.3-3.8c-1.2-0.9-2.4-1.8-3.6-2.7c-1.2-0.8-2.3-1.8-3.6-2.6c-0.9-0.6-1.8-1.3-2.6-2
		c-1.4-1.1-2.8-2.1-4.3-3.2c-0.9-0.6-1.8-1.2-2.7-1.9c-0.5-0.4-0.9-1-1.4-1.1c-0.6-0.2-0.7-1-1.4-0.9c0,0-0.2-0.3-0.1-0.4
		c0-0.1,0.2-0.2,0.3-0.2c0.4,0,0.7,0,1.1,0c11.6,0,23.1,0,34.7,0c0.4,0,0.6,0,1,0c0.3,0,0.3-0.2,0.4-0.4c0.4-1,0.7-2,1.1-2.9
		c0.7-2,1.2-4.3,2-6.3c0.7-2,1.3-4.1,2.1-6.1c0.4-1.2,0.9-2.6,1.2-3.8c0.4-1.2,0.9-2.5,1.2-3.7c0.4-1.2,1-2.5,1.2-3.8
		c0.6-2.8,1.8-5.3,2.6-8.1c0-0.1,0.2-0.2,0.4-0.3c0.1,0.1,0.2,0.2,0.2,0.3c0.4,1.5,1,2.9,1.4,4.4c0.2,0.7,0.3,1.5,0.7,2.1
		c0.4,0.7,0.4,1.5,0.7,2.3c0.3,0.7,0.5,1.4,0.7,2.1c0.9,2.6,1.7,5.2,2.6,7.7c0.7,2.2,1.7,4.4,2.3,6.7c0.8,3,2,6,2.8,8.9
		c0.2,0.8,0.3,0.8,1.2,0.8c11.7,0,23.4,0,35.2,0c0.3,0,0.5,0,0.8,0c0.2,0,0.5,0.1,0.5,0.2c0.1,0.3-0.2,0.3-0.4,0.4
		c-2.1,1.8-4.5,3.2-6.7,5c-0.7,0.5-1.5,1.2-2.3,1.6c-0.8,0.4-1.5,1.1-2.2,1.6c-1.2,1-2.4,1.8-3.6,2.7c-1.8,1.3-3.5,2.6-5.3,3.8
		c-1,0.7-1.9,1.4-2.8,2c-1.4,1.1-2.8,2.1-4.3,3.1c-0.8,0.5-1.6,1.1-2.4,1.7c-0.1,0.1-0.2,0.4-0.1,0.6c0.5,1,0.7,2,1.1,3.1
		c0.8,2.4,1.7,4.8,2.3,7.2c0.6,2.5,1.7,4.9,2.3,7.4c0.4,1.3,0.9,2.7,1.3,3.9c0.4,1.3,1,2.7,1.2,4c0.6,2.6,1.7,5.1,2.4,7.6
		c0.2,0.6,0.4,1.2,0.4,1.9c-0.2,0-0.4,0-0.5-0.1c-1.5-1.2-3.1-2.3-4.7-3.5c-1.2-0.8-2.3-1.7-3.5-2.5c-1.1-0.8-2.1-1.6-3.3-2.4
		c-1.2-0.9-2.4-1.7-3.6-2.6c-1.4-1.1-2.8-2.2-4.3-3.2c-1.2-0.7-2.2-1.6-3.4-2.3c-1.5-1-2.8-2.1-4.3-3.2c-0.7-0.5-1.5-0.9-2.1-1.5
		c-0.4-0.4-1.1-0.4-1.5,0c-0.5,0.5-1.3,0.9-1.9,1.3c-1.4,1.2-3,2.1-4.4,3.2c-1.3,1.1-2.8,2-4.2,2.9c-1.1,0.8-2.1,1.6-3.3,2.4
		c-1.1,0.7-2,1.4-3,2.2c-1,0.7-2,1.5-3,2.2c-2,1.5-4.1,3-6.2,4.5C133,186.1,132,187.1,130.6,187.6z"/>
	<path class="st0" d="M241.8,178.4c-4.3,0-8.5,0-12.8,0c-0.3,0-0.5,0-0.8,0c-0.6,0-1.1-0.4-1.2-1c-0.2-0.6-0.3-1.3-0.3-2
		c-0.1-0.8,0-1.6,0-2.5c0-0.3,0-0.6,0.1-0.8c0.3-0.4,0.6-0.7,1-0.9c0.5-0.3,1.2-0.4,1.8-0.6c1.6-0.8,2.9-1.9,3.1-3.8
		c0.4-0.4,0.2-1,0.3-1.5c0.5-3.5,0.2-7,0.3-10.5c0.1-3.6,0-7.2,0-10.8s0-7.1,0-10.7s0-7.1,0-10.7c0-0.6-0.3-1.1-0.3-1.7
		c-0.1-0.5,0.3-1.1-0.3-1.5c-0.3-1.7-1.4-2.3-2.8-2.8c-0.6-0.2-1.2-0.4-1.8-0.5c-0.4-0.1-0.6-0.3-0.9-0.5c-0.3-0.2-0.4-0.4-0.4-0.9
		c0.1-0.9,0-1.7,0-2.6c0.1-0.6,0.3-1.2,0.4-1.8c0.2-0.5,0.4-0.8,1.2-0.8c8.6,0,17.2,0,25.8,0c0.3,0,0.6,0,0.7,0.2
		c0.3,0.4,0.4,0.8,0.5,1.2c0.1,0.3,0,0.5,0,0.8c0.1,0.7-0.1,1.4,0.2,2.1c0.2,0.4-0.1,1.1-0.3,1.5c-0.1,0.3-0.5,0.4-0.8,0.6
		c-0.8,0.4-1.5,0.9-2.4,1.2c-0.4,0.2-0.7,0.4-0.9,0.9c-0.5,1-0.8,2-0.8,3.1c0,4.2,0,8.4,0,12.5c0,1.5,0.3,1.8,1.9,1.8
		c4.6,0,9.2,0,13.8,0c0.3,0,0.4,0,0.7,0c1.1,0,1.7-0.6,1.7-1.6c0-4.1,0-8.2,0-12.3c0-0.3,0-0.5-0.1-0.8c-0.4-0.8-0.1-1.7-0.7-2.5
		c-0.4-0.5-0.8-1.1-1.5-1.4c-0.7-0.4-1.3-0.8-2-1.1c-0.6-0.3-1-0.7-0.9-1.4c0-0.7,0-1.4,0-2.2c0.1-0.8,0.3-1.6,0.5-2.4
		c0.1-0.3,0.2-0.4,0.4-0.4c0.2,0,0.4,0,0.5,0c8.5,0,16.8,0,25.3,0c0.4,0,0.7-0.1,1.2,0.2c0.5,0.4,0.3,1,0.7,1.3
		c0.1,1.1,0.2,2.1,0.3,3.2c0.1,0.8-0.4,1.3-1,1.6c-1,0.4-2,0.6-2.9,1.2c-0.6,0.4-1.2,0.6-1.7,1.3c-0.4,0.7-1,2-1,2.8
		c0,4.1,0,8.1,0,12.2c0,10.5,0,21,0,31.6c0,1.3,0.3,2.7,1,3.8c0.4,0.6,0.7,1.1,1.3,1.3c1.2,0.5,2.2,1.1,3.3,1.6
		c0.6,0.3,0.8,0.7,0.8,1.2c0.1,0.8,0.1,1.6-0.2,2.4c-0.2,0.7,0.1,1.4-0.4,2.2c-0.4,0.9-0.4,1.1-1.3,1.1c-2.1,0-4.3,0-6.4,0
		c-6.6,0-13.1,0-19.7,0c-0.4,0-0.6,0-1,0c-0.6-0.1-0.9-0.5-1.2-1.2c-0.3-0.8-0.3-1.6-0.3-2.3c0-0.3-0.1-0.6-0.2-0.9
		c-0.4-1.1,0.1-2.2,1.2-2.7c0.9-0.4,1.7-0.7,2.6-1.1c1.4-0.6,2.2-1.7,2.5-3.2c0.2-0.7,0-1.5,0.3-2c0.3-0.7,0.2-1.3,0.2-2
		c0-5.1,0-10.1,0-15.1c0-0.8-0.2-1.4-1.1-1.8c-0.3-0.1-0.5-0.2-0.7-0.2c-4.8,0-9.6,0-14.5,0c-0.4,0-0.9,0.1-1.2,0.3
		c-0.3,0.1-0.4,0.5-0.5,0.8c-0.1,0.3,0,0.5,0,0.8c0,5.7,0,11.5,0,17.2c0,1.2,0.2,2.3,1.1,3.8c0.3,0.5,0.6,0.9,1.2,1.2
		c1.2,0.5,2.1,1.2,3.3,1.6c0.7,0.3,1,0.7,1,1.5c0.1,1.3-0.3,2.7-0.4,4c0,0.4-0.4,0.9-0.7,1.2c-0.3,0.3-0.6,0.2-0.9,0.2
		C250.6,178.4,246.2,178.4,241.8,178.4z"/>
	<path class="st0" d="M509.1,127.9c0,5.4,0,10.9,0,16.3c0,0.4,0,0.6,0,1c-0.1,0.5,0.3,0.5,0.6,0.4c0.4-0.1,0.7-0.2,1.1-0.4
		c0.4-0.3,0.8-0.5,1.2-0.9c2.3-1.9,4.4-4.1,6.4-6.2c0.6-0.6,1.1-1.3,1.5-2c0.3-0.4,0.2-1.2-0.2-1.6c-0.4-0.6-1.2-0.8-1.9-1.2
		c-0.3-0.2-0.6-0.3-0.9-0.4c-0.4-0.3-0.5-0.5-0.5-1c0.1-0.9,0-1.8,0-2.8c0-0.4,0.1-1,0.3-1.3c0.3-0.4,0.6-0.7,1.2-0.7
		c7.2,0,14.4,0,21.6,0c0.7,0,1.2,0.4,1.2,1.1c0,1.2,0.4,2.2,0.4,3.5c-0.1,1-0.7,1.9-1.7,2c-1.6,0.2-2.8,1.1-3.9,2
		c-2.6,2.1-5.1,4.4-7.4,6.9c-0.6,0.7-1.2,1.3-1.9,2.1c-0.4,0.6-0.6,1.4-0.4,2.1c0.3,0.8,0.6,1.5,1.1,2.3c0.6,1.1,1.2,2.1,1.8,3.2
		c0.9,1.5,1.6,2.9,2.6,4.4c0.4,0.7,0.8,1.6,1.2,2.3c0.7,1.2,1.6,2.4,2.3,3.6c0.7,1.2,1.3,2.4,2,3.6c0.6,1.1,1.3,2.1,2,3.3
		c0.4,0.7,1.2,1,2,1.2c0.8,0.3,1.7,0.5,2.5,0.9c0.6,0.3,0.9,0.7,0.9,1.3c-0.1,0.7,0.1,1.3-0.2,2c-0.3,0.6,0,1.4-0.3,2
		c-0.1,0.2,0.1,0.5-0.2,0.7c-0.4,0.2-0.7,0.4-1.1,0.4c-0.3,0.1-0.5,0-0.8,0c-4.8,0-9.6,0-14.5,0c-1.5,0-1.6,0-2.3-1.5
		c-1.8-3.4-3.5-6.9-5.2-10.2c-1.1-2.1-2.1-4.2-3.3-6.3c-0.5-1-1.2-1.9-1.7-2.8c-0.2-0.4-0.7-0.6-1.2-0.9c-0.1-0.1-0.4,0-0.4,0.1
		c-0.5,0.3-1.1,0.6-1.5,1c-0.7,0.6-1.3,1.3-2,2c-0.4,0.4-0.5,0.9-0.5,1.4c0,1.6-0.1,3.3,0,4.9c0.1,1.7,0.5,3.2,2.2,4.1
		c0.8,0.4,1.5,1.1,2.3,1.4c0.7,0.4,1,0.7,1,1.5c0.1,1.2-0.4,2.5-0.3,3.7c-0.4,0.4-0.1,1-0.5,1.2s-0.8,0.4-1.3,0.4
		c-7.7,0-15.5,0-23.2,0c-0.3,0-0.6,0.1-0.9-0.2c-0.4-0.4-0.7-0.7-0.7-1.2c-0.2-1.2-0.2-2.6-0.3-3.8c-0.1-0.9,0.4-1.4,1.2-1.8
		c1.2-0.5,2.3-1.1,3.1-2c0.5-0.6,0.8-1.2,1-2c0.3-1.2,0-2.4,0.3-3.6c0.3-1.4,0.2-2.8,0.3-4.1c0-1.4,0-2.8,0-4.3
		c0-10.4,0-20.8,0-31.3c0-1.7-0.4-3.4-0.3-5.1c-0.4-1-0.4-2-1.1-2.8c-0.4-0.4-0.7-0.6-1.2-0.9c-0.8-0.4-1.6-0.8-2.4-1.2
		c-0.4-0.3-0.8-0.5-0.8-1.2c0-0.7,0-1.3,0-2c0-0.6,0.2-1.3,0.3-2c0.2-0.7,0.5-1.1,1.4-1.1c6,0,11.9,0,17.9,0c0.4,0,0.7-0.2,1,0.2
		c0.4,0.5,0.9,0.7,1.1,1.5c0.2,0.8,0.2,1.7,0.2,2.5C509.1,117.3,509.1,122.6,509.1,127.9z"/>
	<path class="st0" d="M646.1,154.7c0,4.7,0,9.3,0,14.1c0,0.4,0,0.8,0.4,1.1c0.4,0.3,0.4,0.3,0.9,0.1c0.5-0.2,1-0.4,1.5-0.7
		c0.4-0.4,1.1-0.5,1.6-0.7c0.5-0.2,1.1,0.1,1.4,0.4c0.5,0.5,1.1,1.1,1.4,1.7c0.3,0.5,0.3,1.2,0.1,1.8s-0.6,1-0.9,1.5
		c-0.2,0.4-0.4,0.7-0.7,1c-1.3,1.1-2.5,2.3-4.2,2.8c-0.4,0.2-0.8,0.4-1.2,0.5c-1.1,0.3-2.1,0.6-3.3,0.5c-1,0-2,0-3,0
		c-1.9,0-4.5-1.2-6.2-2.2c-1.2-0.8-1.8-2-2.7-3c-0.2-1.1-0.8-2-1-3.2c-0.4-2.5-0.2-5.1-0.2-7.6c-0.1-6.8,0-13.4,0-20.2
		c0-0.5,0-1-0.3-1.5c-0.2-0.4-0.2-0.9-0.3-1.4c-0.5-1.7-1.5-2.8-3.3-3c-0.7-0.7-1.5,0-2.2,0c-0.8,0-1.4,0.5-2,0.9
		c-1.8,1.1-2.8,3.6-3.1,5.3c-0.2,1.2-0.2,2.3-0.2,3.5c0,6.3,0,12.6,0,19c0,1.1,0.4,2,0.6,3c0.3,1,1.2,1.5,2.1,2
		c0.5,0.3,1.1,0.5,1.6,0.8c0.8,0.4,1.2,0.9,1.2,1.9c0,1.3-0.3,2.6-0.4,3.8c0,0.4-0.4,0.9-0.7,1.2c-0.3,0.3-0.6,0.2-0.9,0.2
		c-7.7,0-15.5,0-23.2,0c-0.4,0-0.8,0.1-1.2-0.2c-0.5-0.4-0.6-1-0.7-1.5c-0.3-1.2-0.2-2.3-0.4-3.5c-0.1-1,0.4-1.6,1.2-2
		c1.1-0.5,2.1-1.1,3-2c0.4-0.4,0.6-1,0.8-1.4c0.3-0.7,0.4-1.5,0.4-2.3c0-9.2,0-18.3,0-27.5c0-0.7-0.3-1.4-0.4-2.1
		c-0.3-1.1-1.1-1.6-2-2.1c-0.2-0.1-0.4-0.2-0.5-0.3c-1.6-0.8-2-1.6-1.5-3.4c0.1-0.4,0-0.7,0.1-1.1s0.2-0.6,0.3-1
		c0.2-0.9,0.4-1.2,1.4-1.2c2.5,0,5,0,7.5,0c2.8,0,5.6,0,8.5,0c1.2,0,1.6,0.3,2,1.5c0.2,0.5,0.4,1.1,0.5,1.5c0.3,0.5,0.5,0.6,1.1,0.3
		c1-0.4,2-0.9,2.8-1.5c0.7-0.5,1.5-0.9,2.4-1.2s1.8-0.8,2.7-1.1c0.6-0.2,1.2-0.3,1.9-0.4c0.4-0.1,0.7-0.2,1.2-0.3
		c0.4-0.1,0.9,0.2,1.2,0c0.6-0.4,1.2-0.2,1.8-0.3c0.5,0,1.2-0.1,1.7,0.3c0.4,0.3,1.1-0.2,1.5,0.3c1.3-0.2,2.4,0.5,3.5,1.2
		c1.2,0.7,2.4,1.5,3.3,2.8c0.6,0.9,1.2,1.9,1.7,2.8c0.5,0.9,0.7,1.9,1,2.8c0.3,1.1,0.2,2.2,0.4,3.3c0.4,2.6,0.2,5.3,0.2,7.8
		C646.1,149.4,646.1,152.1,646.1,154.7z"/>
	<path class="st0" d="M426.4,154c0,4.9,0,9.8,0,14.6c0,0.3,0,0.6,0.1,0.9c0.3,0.6,0.7,0.6,1.4,0.4c0.5-0.3,1.2-0.6,1.7-0.9
		c0.4-0.2,0.9-0.4,1.3-0.4c0.4-0.1,1-0.1,1.3,0.4c0.4,0.6,1.2,1.1,1.5,1.9c0.4,0.6,0.4,1.5-0.1,2c-0.7,0.9-1.2,1.9-2,2.6
		c-1.3,1.2-4,2.8-5.7,3.2c-0.8,0.2-1.5,0.3-2.3,0.3c-1,0.1-1.9,0-2.8,0c-2.6-0.1-5-0.8-7-2.6c-1.5-1.3-2.4-2.6-3-4.6
		c-0.2-0.5-0.2-1.2-0.3-1.7c-0.1-0.5-0.3-1.1-0.3-1.7c0-8.8,0-17.6,0-26.3c0-1.7-0.6-3.2-1.8-4.4c-0.4-0.4-0.7-0.4-1.2-0.5
		c-2-1-4.6,0.2-5.7,1.2c-0.4,0.4-0.9,0.9-1.3,1.5c-0.7,1.1-1,2.2-1.3,3.5s-0.3,2.5-0.3,3.7c0,6,0,11.8,0,17.8c0,1.1,0.3,2.1,0.5,3.2
		c0.3,0.8,0.5,1.6,1.4,2c0.7,0.4,1.3,0.9,2,1.2c0.4,0.2,0.8,0.5,1.2,0.9c0.3,0.2,0.3,0.4,0.3,0.7c0,1,0,2,0,2.8
		c0,0.6-0.3,1.2-0.4,1.9c-0.3,0.7-0.7,1-1.5,1c-7.7,0-15.4,0-23,0c-0.4,0-0.9-0.2-1.2-0.3c-0.2-0.1-0.4-0.3-0.4-0.4
		c-0.2-0.5-0.3-1-0.3-1.5c0-1.2,0-2.6,0-3.8c0-0.4,0.3-0.4,0.4-0.5c0.8-0.7,1.9-0.9,2.7-1.6c0.6-0.5,1.3-1,1.7-1.9
		c0.3-0.6,0.4-1.2,0.4-2c0-9.5,0-19.1,0-28.7c0-0.8-0.3-1.7-0.6-2.3c-0.4-0.6-1.1-1.2-1.8-1.5c-0.6-0.3-1.2-0.6-1.7-1
		c-0.4-0.4-0.3-1-0.5-1.4c0.5-0.4,0.2-1.1,0.3-1.5c0.1-0.7,0.2-1.4,0.4-2c0.2-0.7,0.5-0.9,1.3-0.9c3.7,0,7.6,0,11.3,0
		c1.7,0,3.4,0,5.1,0c0.6,0,1.1,0.3,1.2,0.8c0.3,0.5,0.6,1,0.6,1.7c0,0.3,0.2,0.5,0.4,0.8c0.2,0.4,0.5,0.4,0.9,0.3
		c0.5-0.3,1.1-0.4,1.6-0.8c2-1.3,4.1-2.3,6.4-3.1c0.5-0.2,1.2-0.4,1.7-0.4c0.8-0.1,1.6-0.2,2.3-0.4c0.9-0.2,1.7-0.4,2.5-0.2
		c1.3,0.3,2.8,0.3,4.1,0.7c1.2,0.4,2.5,1,3.5,1.8c1.1,0.7,1.9,1.8,2.6,2.8c0.9,1.3,1.4,2.8,1.9,4.3c0.2,0.8,0.2,1.7,0.4,2.5
		c0.5,2.7,0.2,5.4,0.3,8.1C426.4,148.5,426.4,151.3,426.4,154z"/>
	<path class="st0" d="M461.6,179.7c-1,0-1.7,0-2.3,0c-1.1-0.1-2.2-0.1-3.3-0.3c-1-0.3-2-0.4-2.9-0.7c-2-0.4-3.7-1.2-5.4-2
		c-1.2-0.7-2.5-1.4-3.6-2.4c-1.1-0.9-2.1-1.8-3-2.8c-2-2.4-3.7-5-4.7-8c-0.4-1.1-0.7-2-1-3.1c-0.2-0.6-0.3-1.2-0.4-1.9
		c-0.1-1.2-0.3-2.4-0.3-3.6c-0.1-1.2-0.1-2.5,0-3.6c0-1.2,0.1-2.4,0.3-3.6c0.2-0.8,0.4-1.6,0.4-2.4c0.1-0.8,0.7-1.5,0.6-2.4
		c1-2,1.6-4.1,2.8-6c1.2-1.6,2.3-3.3,3.7-4.5c1.4-1.2,2.9-2.4,4.5-3.4c1.7-1,3.4-1.7,5.3-2.3c1.1-0.4,2.1-0.5,3.3-0.7
		c1.9-0.4,3.7-0.2,5.6-0.2c0.6,0,1.2-0.2,1.9,0.2c0.5,0.4,1.2-0.2,1.8,0.4c0.6-0.2,1.2,0,1.6,0.3c0.5,0.4,1.1,0.3,1.6,0.4
		c0.9,0.4,1.8,0.6,2.7,1.1c0.8,0.4,1.7,0.9,2.5,1.3c2.2,1.2,4.2,2.8,5.9,4.6c1.5,1.6,2.8,3.5,3.8,5.5c0.9,1.7,1.3,4,1.1,6
		c-0.2,1.1-0.7,2-1.5,2.9c-1.2,1.2-2.5,2.1-3.9,3c-1.1,0.6-2,1.2-3.1,1.6c-1.5,0.7-3,1.2-4.5,2c-1.4,0.6-2.9,1.2-4.4,1.7
		c-1.2,0.5-2.5,0.8-3.7,1.2c-2.8,1-5.6,1.9-8.5,2.8c-1.2,0.4-1.6,1.5-1.1,2.8c0.5,1.2,1.3,2.2,2.5,3.1c1.2,1,2.6,1.4,4,2l0.1,0.1
		c0.9,0.2,4.2,0.4,4.9,0.3c1.1-0.3,2.2-0.2,3.3-0.5c1-0.4,2-0.5,2.8-1c0.9-0.4,1.8-0.8,2.6-1.2c1.8-1,3.2-2.4,4.7-3.7
		c0.4-0.4,0.9-0.6,1.5-0.6c0.2,0,0.3,0,0.4,0c1.8-0.4,3.6,1.2,4.3,2.9c0.4,1.1,0.5,2.1,0,3.2c-0.4,0.7-0.7,1.3-1.2,2
		c-0.5,0.7-1.2,1.3-1.8,2c-0.8,1-2,1.7-2.9,2.4c-1.5,1.2-3.1,2.1-4.8,2.9s-3.5,1.4-5.3,1.8c-1,0.2-2,0.4-3,0.6
		C464.2,179.9,462.8,179.5,461.6,179.7z M450.7,147.8c0,0.6,0.1,1.2,0,1.8c-0.1,0.7,0.2,1.3,0.5,2c0.3,0.5,0.6,1,1.2,1.1
		c1.2,0.2,2.3-0.1,3.4-0.4c1.1-0.3,2.1-0.6,3.1-1c2.4-0.7,4.8-1.6,7-2.8c1.6-0.8,2.1-2.1,2.4-3.7c0.2-1-0.3-1.8-0.4-2.8
		c0-0.4-0.3-1-0.4-1.4c-0.4-0.7-0.7-1.3-1.1-2c-0.8-1.5-2-2.7-3.5-3.5c-0.9-0.5-1.8-0.8-2.8-0.8c-0.5-0.5-1.2-0.1-1.8-0.3
		c-0.5,0.5-1.2,0.2-1.9,0.5c-1.1,0.6-2,1.2-2.8,2.1c-1,1.2-1.6,2.5-2.1,3.9c-0.3,0.9-0.6,1.7-0.5,2.7c-0.5,0.4,0,1.1-0.3,1.5
		c-0.3,0.5-0.2,1.1-0.3,1.5C450.7,146.8,450.7,147.3,450.7,147.8z"/>
	<path class="st0" d="M543.6,153c0-0.6,0.1-1.2,0-1.9c-0.2-1.2,0.2-2.4,0.4-3.6c0.2-1.1,0.2-2.2,0.8-3.2c0.3-2.6,1.7-4.8,2.8-7
		c0.4-0.9,1.3-1.6,1.9-2.5c0.7-1.1,1.6-1.9,2.4-2.7c2-1.8,4.2-3.3,6.6-4.4c1.2-0.5,2.7-0.9,3.9-1.4c0.4-0.2,0.9-0.1,1.4-0.3
		c0.8-0.3,1.7-0.3,2.6-0.4c1.3,0,2.8,0,4.1,0c1.5,0,3,0.4,4.4,0.7c2.1,0.5,4.2,1.2,6.1,2.3c1.2,0.6,2.4,1.5,3.6,2.3
		c0.5,0.4,1,0.7,1.4,1.2c0.4,0.4,0.9,0.7,1.3,1.1c0.8,0.7,1.5,1.6,2.1,2.5c0.7,0.9,1.2,1.9,1.9,2.8c0.6,1,1,2.1,1.4,3.3
		c0.3,0.8,0.4,1.7,0.4,2.6c-0.1,1.6-0.7,3-1.8,4.2c-1.2,1.2-2.6,2.2-4.1,3c-0.7,0.4-1.4,0.8-2.1,1.2c-1.8,0.8-3.6,1.6-5.4,2.3
		c-2.3,0.9-4.6,1.9-6.9,2.6c-2.6,0.8-5.2,1.8-7.8,2.6c-0.6,0.2-1.2,0.4-1.8,0.6c-0.7,0.3-1.1,0.9-1.2,1.4c-0.1,0.4,0.3,1,0.4,1.4
		c0.5,1.2,1.5,2.1,2.6,2.9c1.2,0.9,2.5,1.3,3.7,1.8c0.1,0,0.2,0.1,0.3,0.1c0.8-0.2,1.5,0.4,2.3,0.3c0.8,0,1.5,0,2.3,0
		c0.6-0.1,1.2-0.4,1.8-0.3s1.2-0.4,1.8-0.3c0.5,0,1.2-0.3,1.7-0.5c0.5-0.2,1.1-0.5,1.6-0.7c0.4-0.2,0.9-0.3,1.3-0.5
		c1.4-1,2.9-1.8,4.2-3.1c0.4-0.5,1.1-1,1.6-1.3c0.4-0.2,0.7-0.4,1.2-0.4c0.4,0.1,0.9,0,1.3,0c0.3,0,0.6,0.1,0.8,0.3
		c1,0.5,1.8,1.3,2.3,2.3c0.6,1.2,0.7,2.4,0.1,3.7c-0.4,1-1,1.8-1.8,2.6c-0.8,0.8-1.5,1.5-2.3,2.3c-1.2,1.2-2.6,2-4,2.9
		c-1.9,1.2-3.9,2-6,2.7c-1,0.4-2,0.4-2.9,0.7c-0.7,0.2-1.4,0.2-2,0.4c-0.7,0.2-1.4,0.2-2,0.3c-0.7,0-1.4,0-2.2,0c-0.7,0-1.4,0-2.2,0
		c-0.6,0-1.2,0.2-1.8-0.3c-0.4-0.3-1.2,0.2-1.6-0.3c-1.6,0-3-0.5-4.4-1.1c-2-0.7-3.8-1.6-5.6-2.8c-2-1.2-3.6-2.8-5.1-4.5
		c-1-1.1-1.7-2.3-2.4-3.5c-1.1-1.8-1.8-3.7-2.4-5.7c-0.2-0.5-0.3-1.1-0.4-1.6c-0.1-0.5-0.2-1-0.3-1.5c-0.1-0.4-0.1-0.9-0.3-1.4
		c-0.2-0.8-0.1-1.6-0.1-2.4C543.6,154.1,543.6,153.5,543.6,153z M562.3,152.6c0.4,0,0.8,0.1,1.1,0c0.9-0.4,1.9-0.4,2.8-0.8
		c1-0.4,2-0.4,2.9-0.9c2-0.8,4-1.3,5.9-2.4c0.9-0.5,1.7-1.1,2.1-2.1c0.2-0.5,0-1,0.3-1.4c0.3-0.4,0.3-0.8,0-1.2
		c-0.1-0.2-0.1-0.4-0.1-0.6c0.1-0.7-0.2-1.3-0.4-2c-0.4-1.3-1.1-2.6-2-3.7c-0.8-1.2-1.8-1.9-2.9-2.5c-0.7-0.4-1.6-0.7-2.5-0.6
		c-1.1-0.8-2.2,0.2-3.3,0c-1.9,0.9-3.5,2-4.4,3.9c-0.4,0.7-0.5,1.5-0.8,2.2c-0.3,0.8-0.5,1.5-0.7,2.3s-0.3,1.6-0.4,2.4
		c-0.2,1.6-0.1,3.3,0,4.9c0,0.8,0.4,1.4,1.1,2C561.3,152.7,561.7,152.6,562.3,152.6z"/>
	<path class="st0" d="M319.1,179.7c-0.8,0-1.3-0.1-1.8,0c-1.2,0.2-2.4-0.2-3.6-0.4c-1.1-0.2-2.1-0.4-3.2-0.7
		c-1.2-0.3-2.4-0.7-3.5-1.2c-0.9-0.4-1.7-0.7-2.5-1.2c-0.8-0.5-1.7-0.9-2.4-1.5c-1.4-1.2-2.8-2.2-3.9-3.7c-0.6-0.9-1.4-1.8-2-2.7
		c-1.3-2.1-2.5-4.4-2.9-6.9c-0.5-0.4-0.1-1.1-0.5-1.6c-0.3-0.4,0-1-0.2-1.5c-0.2-0.5,0-1.2-0.2-1.7c-0.5-2-0.1-4-0.3-6.1
		c0.4-1.5,0.1-3.2,0.8-4.7c0-1.5,0.7-2.8,1.1-4.4c0-0.1,0-0.2,0-0.3c0.4-0.8,0.8-1.7,1.2-2.5c0.4-0.9,1-1.6,1.5-2.4
		c0.6-1,1.5-1.9,2.1-2.8c0.8-1.2,2.2-1.8,3-2.9c1.3-0.7,2.5-1.7,3.9-2.3c1.3-0.5,2.5-1.3,3.9-1.7c1.1-0.3,2.1-0.5,3.2-0.7
		c2-0.4,3.9-0.2,5.9-0.2c0.5,0,1.1-0.2,1.7,0.2c0.4,0.3,1.2-0.3,1.6,0.4c1.2-0.1,2.5,0.4,3.6,0.9c2,0.8,4.1,1.7,5.9,2.9
		c1.9,1.2,3.6,2.6,5.1,4.3c2.1,2.3,3.6,5,4.6,7.9c0.2,0.4,0,1,0.2,1.4c0.2,0.5,0.3,0.8-0.1,1.3c-0.3,0.4,0.1,0.9-0.3,1.4
		c-0.3,0.4-0.3,0.9-0.6,1.2c-0.7,0.9-1.5,1.7-2.4,2.4c-1.9,1.5-4.1,2.6-6.3,3.6c-1.6,0.7-3.2,1.4-4.9,2c-1.3,0.4-2.6,1.1-3.9,1.5
		c-2.1,0.7-4.2,1.6-6.3,2.2c-1.6,0.4-3.1,1.1-4.7,1.5c-1.5,0.4-1.9,1.3-1.3,2.8c0.6,1.5,1.6,2.7,3,3.5c1.5,0.9,2.8,1.2,4.6,1.7
		c1.2,0.3,2.4,0.3,3.6,0.2c1.8-0.2,3.6-0.4,5.3-1.1c2.3-0.9,4.4-1.9,6.3-3.5c0.7-0.6,1.5-1.2,2.2-2c0.4-0.4,0.9-0.6,1.5-0.6
		c0.9,0.1,1.8-0.1,2.7,0.5c1.3,0.9,2.1,2,2.2,3.7c0.1,1.6-0.6,2.8-1.6,4c-0.6,0.7-1.2,1.5-2,2.2c-2.4,2.2-5.1,4-8,5.3
		c-1.5,0.6-3.1,1.2-4.8,1.5c-0.9,0.2-1.9,0.4-2.8,0.5C321.8,179.8,320.4,179.6,319.1,179.7z M308.2,147.9L308.2,147.9
		c0.1,0.5,0.1,1,0.1,1.5c0,0.7,0.2,1.3,0.5,2c0.4,0.8,1,1.2,1.8,1.2c0.6,0,1.2-0.1,1.8-0.2c0.7-0.2,1.4-0.3,2.1-0.5
		c0.7-0.3,1.4-0.4,2-0.6c0.8-0.3,1.6-0.6,2.4-0.9c1.7-0.5,3.3-1.2,4.9-2c1.4-0.8,2.1-2,2.1-3.6c0-0.7-0.1-1.5-0.3-2.2
		c-0.2-0.9-0.4-1.7-0.8-2.6c-0.5-1.4-1.5-2.6-2.6-3.7c-1.6-1.6-3.6-2-5.6-2.2c-0.4,0-0.8,0.2-1.2,0.3c-0.5,0-1.1,0.3-1.6,0.4
		c-1.8,0.7-2.8,2.1-3.7,3.7c-1,1.7-1.3,3.6-1.7,5.4C308.4,145.2,308.4,146.6,308.2,147.9z"/>
	<path class="st0" d="M367,147.1c0,6,0,11.9,0,17.9c0,1.1,0.3,2.1,0.5,3.2c0.3,0.9,0.9,1.5,1.6,2c0.8,0.5,1.6,1,2.4,1.3
		c0.5,0.3,0.8,0.6,0.9,1.3c0.1,1.4-0.3,2.8-0.4,4.1c0,0.4-0.4,0.9-0.7,1.2c-0.3,0.3-0.6,0.2-0.9,0.2c-7.8,0-15.7,0-23.5,0
		c-0.4,0-0.9,0.1-1.2-0.3c-0.4-0.4-0.4-1-0.7-1.3c0.1-1.3-0.4-2.6-0.3-3.8c0.1-0.7,0.3-1.1,0.8-1.3c0.4-0.2,0.7-0.4,1.2-0.5
		c0.9-0.4,1.6-1,2.4-1.5c0.2-0.1,0.3-0.3,0.3-0.4c0.4-0.9,0.7-1.7,0.9-2.7c0.4-2.8,0.2-5.6,0.2-8.4c0.1-6.3,0-12.6,0-19
		c0-0.9-0.1-1.9-0.4-2.8c-0.3-1.1-0.9-1.9-2-2.3c-0.6-0.3-1.2-0.5-1.7-1.2c-0.4-0.4-0.6-0.9-0.6-1.5c0-1.2,0.2-2.4,0.5-3.6
		c0.3-0.8,0.3-0.8,1.1-0.8c3.7,0,7.6,0,11.3,0c2.1,0,4.3,0,6.4,0c1.2,0,1.7,0.4,1.7,1.7C367.1,134.8,367,141,367,147.1z"/>
	<path class="st0" d="M357.7,123.4c-0.5,0-1,0-1.5,0c-0.4,0-0.8-0.2-1.2-0.3c-0.2,0-0.3-0.2-0.4-0.2c-2.5-1-4.2-2.7-5.2-5.2
		c-0.2-0.5-0.4-1.2-0.4-1.7c-0.1-1.2-0.1-2.3,0.2-3.5c0.4-1.2,0.9-2.3,1.7-3.3c1.1-1.3,2.5-2.3,4.1-2.8c1.5-0.4,3.1-0.4,4.8-0.2
		c1.9,0.4,3.4,1.2,4.7,2.6c1,1,1.6,2.2,2,3.6c0.6,2.3,0.4,4.8-1.2,7c-1.2,1.8-2.8,2.8-4.8,3.6c-0.3,0.1-0.5,0.3-0.8,0.3
		C358.8,123.4,358.2,123.4,357.7,123.4z"/>
	<path class="st0" d="M637.3,114.4c-0.2-1.6,0.4-3,1.2-4.4c0.9-1.6,2.3-2.8,4-3.5c1.6-0.6,3.3-1,4.9-0.6c1.4,0.4,2.8,0.9,4,1.9
		c1.6,1.2,2.3,2.9,3,4.7c-0.2,0.9,0.5,1.7,0.1,2.7c-0.3,0.5-0.1,1.2-0.3,2c-0.7,2.1-2,3.9-3.9,5c-0.9,0.5-1.9,1-3,1
		c-0.5,0-1,0.4-1.5,0.3c-2.4-0.3-4.5-1-6.2-2.8c-1.1-1.2-2-2.4-2-4c0-0.3-0.3-0.4-0.3-0.7C637.3,115.4,637.3,114.9,637.3,114.4z
		 M645.9,121.5c1.4,0.3,2.8-0.3,4-1.1c0.7-0.4,1.4-1.2,1.9-1.9c0.6-1.1,1.2-2.1,1.2-3.5c0-1.5-0.4-2.9-1.2-4.2
		c-0.5-0.9-1.3-1.6-2.2-2.2c-1.2-0.7-2.4-0.8-3.6-1.1c-1.9,0.3-3.6,0.8-5.1,2.3c-1.2,1.4-1.9,3-1.9,4.8c0,1.8,0.6,3.5,2,4.7
		C642.3,120.7,643.9,121.8,645.9,121.5z"/>
	<path class="st0" d="M183.1,153.2c0-0.4,0.2-0.5,0.5-0.6c0.3-0.1,0.4-0.4,0.6-0.4c0.1,0,0.2,0,0.3,0v0.1c-0.2,0.2-0.3,0.4-0.4,0.4
		c-0.4,0.3-0.7,0.4-0.4,1c0.5,1.2,0.9,2.6,1.2,3.8c0.7,2.3,1.4,4.7,2.3,6.9c0,1.2,0.6,2.3,1,3.4c0.4,1.1,0.7,2.1,1.1,3.3
		c0.7,2.4,1.6,4.7,2.3,7.1c0.6,2.2,1.4,4.4,2.1,6.7c0.3,0.7,0.4,1.4,0.6,2.2l-0.1,0.3l-0.1-0.1c-0.1-0.2-0.3-0.3-0.4-0.4
		c-0.1-1.3-0.8-2.5-1.2-3.7c-0.4-1.2-0.8-2.4-1.2-3.6c-0.5-1.6-1.1-3.1-1.5-4.7c-0.5-1.5-1-3-1.4-4.6c-0.7-2.1-1.4-4.4-2.1-6.5
		c-1.1-3.2-2-6.4-3.1-9.6C183.2,153.8,183.2,153.5,183.1,153.2z"/>
	<path class="st0" d="M189.7,148.3c0.4-0.8,1.2-1.2,1.9-1.3C191.2,147.7,190.4,148,189.7,148.3z"/>
	<path class="st0" d="M186.7,150.5c0.4-0.8,1.2-1.2,1.9-1.3C188.2,149.9,187.5,150.2,186.7,150.5z"/>
	<path class="st0" d="M192.7,146c0.3-0.4,0.5-0.9,1.1-0.8C193.6,145.7,193.3,146.1,192.7,146z"/>
	<path class="st0" d="M195.7,143.9c-0.3,0.4-0.5,0.9-1.1,0.8C194.9,144.3,195.1,143.8,195.7,143.9z"/>
	<path class="st0" d="M195.7,143.9c0.3-0.4,0.5-0.9,1.1-0.8C196.6,143.6,196.3,143.9,195.7,143.9z"/>
	<path class="st0" d="M191.6,146.9c0.3-0.4,0.5-0.9,1.1-0.8C192.5,146.5,192.2,146.9,191.6,146.9z"/>
	<path class="st0" d="M198.7,141.7c0.3-0.4,0.5-0.9,1.1-0.8C199.5,141.3,199.3,141.8,198.7,141.7z"/>
	<path class="st0" d="M188.6,149.1c0.3-0.4,0.5-0.9,1.1-0.8C189.5,148.7,189.2,149.2,188.6,149.1z"/>
	<path class="st0" d="M186.7,150.5c-0.3,0.4-0.5,0.9-1.1,0.8C185.8,150.9,186.1,150.4,186.7,150.5z"/>
	<path class="st0" d="M201.7,139.6c0.3-0.4,0.5-0.9,1.1-0.8C202.6,139.1,202.3,139.6,201.7,139.6z"/>
	<path class="st0" d="M202.8,138.7c0.3-0.4,0.5-0.9,1.1-0.8C203.7,138.3,203.4,138.8,202.8,138.7z"/>
	<path class="st0" d="M185.6,151.3c-0.3,0.4-0.5,0.9-1.1,0.8C184.8,151.7,185,151.2,185.6,151.3z"/>
	<path class="st0" d="M134.7,188.1c0.3-0.4,0.5-0.9,1.1-0.8C135.6,187.8,135.4,188.2,134.7,188.1z"/>
	<path class="st0" d="M206.9,135.7c-0.3,0.4-0.5,0.9-1.1,0.8C206,136.1,206.3,135.6,206.9,135.7z"/>
	<path class="st0" d="M132.9,189.6c0.3-0.4,0.5-0.9,1.1-0.8C133.7,189.1,133.5,189.6,132.9,189.6z"/>
	<path class="st0" d="M138.8,185.2c-0.3,0.4-0.5,0.9-1.1,0.8C138,185.6,138.3,185.1,138.8,185.2z"/>
	<path class="st0" d="M133.9,188.7c0.1-0.4,0.4-0.6,0.8-0.5C134.7,188.6,134.4,188.8,133.9,188.7z"/>
	<path class="st0" d="M133,189.7c-0.3,0.2-0.4,0.3-0.7,0.4l-0.2-0.2c0.2-0.2,0.4-0.4,0.6-0.4C132.8,189.6,132.8,189.7,133,189.7z"/>
	<path class="st0" d="M136.7,186.8c-0.1,0.4-0.4,0.6-0.8,0.5C136,186.9,136.3,186.7,136.7,186.8z"/>
	<path class="st0" d="M137.8,186c-0.1,0.4-0.4,0.6-0.8,0.5C137.1,186.1,137.3,185.9,137.8,186z"/>
	<path class="st0" d="M155.6,173.1c-0.1,0.4-0.4,0.6-0.8,0.5C154.9,173.3,155.1,173.1,155.6,173.1z"/>
	<path class="st0" d="M150.6,176.7c-0.1,0.4-0.4,0.6-0.8,0.5C149.9,176.8,150.2,176.7,150.6,176.7z"/>
	<path class="st0" d="M146.8,179.4c0.1-0.4,0.4-0.6,0.8-0.5C147.5,179.3,147.2,179.5,146.8,179.4z"/>
	<path class="st0" d="M144.9,180.8c0.1-0.4,0.4-0.6,0.8-0.5C145.6,180.7,145.3,180.8,144.9,180.8z"/>
	<path class="st0" d="M143.8,181.6c0.1-0.4,0.4-0.6,0.8-0.5C144.5,181.5,144.2,181.6,143.8,181.6z"/>
	<path class="st0" d="M141.9,183c0.1-0.4,0.4-0.6,0.8-0.5C142.6,182.9,142.3,183,141.9,183z"/>
	<path class="st0" d="M140.8,183.8c0.1-0.4,0.4-0.6,0.8-0.5C141.5,183.7,141.2,183.9,140.8,183.8z"/>
	<path class="st0" d="M140,184.3c0.1-0.4,0.4-0.6,0.8-0.5C140.7,184.2,140.3,184.4,140,184.3z"/>
	<path class="st0" d="M138.8,185.2c0.1-0.4,0.4-0.6,0.8-0.5C139.5,185,139.3,185.2,138.8,185.2z"/>
	<path class="st0" d="M198.7,141.7c-0.1,0.4-0.4,0.6-0.8,0.5C198,141.9,198.3,141.7,198.7,141.7z"/>
	<path class="st0" d="M206.9,135.7c0.1-0.4,0.4-0.6,0.8-0.5C207.6,135.5,207.4,135.7,206.9,135.7z"/>
	<path class="st0" d="M205.8,136.5c-0.1,0.4-0.4,0.6-0.8,0.5C205.1,136.6,205.4,136.4,205.8,136.5z"/>
	<path class="st0" d="M208.9,134.3c-0.1,0.4-0.4,0.6-0.8,0.5C208.2,134.5,208.4,134.3,208.9,134.3z"/>
	<path class="st0" d="M209.1,134c0.1-0.4,0.4-0.6,0.8-0.5C209.8,133.9,209.5,134.1,209.1,134z"/>
	<path class="st0" d="M209.9,133.5c0.1-0.4,0.4-0.6,0.8-0.5C210.6,133.4,210.4,133.6,209.9,133.5z"/>
	<path class="st0" d="M199.8,140.9c0.1-0.4,0.4-0.6,0.8-0.5C200.5,140.8,200.2,141,199.8,140.9z"/>
	<path class="st0" d="M203.9,137.9c0.1-0.4,0.4-0.6,0.8-0.5C204.6,137.8,204.3,138,203.9,137.9z"/>
	<path class="st0" d="M200.9,140.1c0.1-0.4,0.4-0.6,0.8-0.5C201.6,140,201.3,140.1,200.9,140.1z"/>
	<path class="st0" d="M211.8,132.2c-0.1,0.4-0.4,0.6-0.8,0.5C211.1,132.3,211.4,132.1,211.8,132.2z"/>
	<path class="st0" d="M196.8,143.1c0.1-0.4,0.4-0.6,0.8-0.5C197.5,142.9,197.2,143.1,196.8,143.1z"/>
	<path class="st0" d="M193.8,145.2c0.1-0.4,0.4-0.6,0.8-0.5C194.5,145.2,194.2,145.3,193.8,145.2z"/>
	<path class="st0" d="M149.5,177.6c0,0.4-0.4,0.3-0.5,0.3C149,177.4,149.3,177.6,149.5,177.6z"/>
	<path class="st0" d="M148.4,178.4c0,0.4-0.4,0.3-0.5,0.3C147.9,178.2,148.3,178.4,148.4,178.4z"/>
	<path class="st0" d="M143.5,181.9c0,0.4-0.4,0.3-0.5,0.3C143,181.7,143.3,181.9,143.5,181.9z"/>
	<path class="st0" d="M150.9,176.4c0-0.4,0.4-0.3,0.5-0.3C151.4,176.6,151.1,176.4,150.9,176.4z"/>
	<path class="st0" d="M152,175.6c0-0.4,0.4-0.3,0.5-0.3C152.5,175.8,152.2,175.6,152,175.6z"/>
	<path class="st0" d="M152.8,175.1c0-0.4,0.4-0.3,0.5-0.3C153.3,175.1,153,175,152.8,175.1z"/>
	<path class="st0" d="M146,180c0-0.4,0.4-0.3,0.5-0.3C146.5,180.1,146.2,180,146,180z"/>
	<path class="st0" d="M154.4,174c0,0.4-0.4,0.3-0.5,0.3C154,173.8,154.2,174,154.4,174z"/>
	<path class="st0" d="M155.8,172.8c0-0.4,0.4-0.3,0.5-0.3C156.4,173,156,172.8,155.8,172.8z"/>
	<path class="st0" d="M160.5,169.5c0,0.4-0.4,0.3-0.5,0.3C159.9,169.5,160.3,169.6,160.5,169.5z"/>
	<path class="st0" d="M157.4,171.8c0,0.4-0.4,0.3-0.5,0.3C156.9,171.7,157.3,171.9,157.4,171.8z"/>
	<path class="st0" d="M157.7,171.5c0-0.4,0.4-0.3,0.5-0.3C158.2,171.7,158,171.5,157.7,171.5z"/>
	<path class="st0" d="M158.9,170.7c0-0.4,0.4-0.3,0.5-0.3C159.3,170.8,159,170.6,158.9,170.7z"/>
	<polygon class="st0" points="212,131.9 212.1,132 212,132.2 211.8,132 	"/>
	<path class="st0" d="M146,180c-0.1,0.1-0.2,0.2-0.3,0.3C145.8,180.1,145.9,180,146,180z"/>
	<path class="st0" d="M210.7,133c0.1-0.1,0.2-0.2,0.3-0.3C210.9,132.8,210.8,132.9,210.7,133z"/>
	<path class="st0" d="M144.6,181c0.1-0.1,0.2-0.2,0.3-0.3C144.8,180.8,144.7,180.9,144.6,181z"/>
	<polygon class="st0" points="191.6,187.8 191.5,187.9 191.3,187.8 191.4,187.6 	"/>
	<polygon class="st0" points="130.6,187.8 130.5,187.9 130.5,187.7 130.6,187.6 	"/>
	<path class="st0" d="M143.8,181.6c-0.1,0.1-0.2,0.2-0.3,0.3C143.6,181.8,143.7,181.7,143.8,181.6z"/>
	<path class="st0" d="M136.7,186.8c0.1-0.1,0.2-0.2,0.3-0.3C136.9,186.6,136.8,186.7,136.7,186.8z"/>
	<path class="st0" d="M142.9,182.2c-0.1,0.1-0.2,0.2-0.3,0.3C142.7,182.4,142.8,182.3,142.9,182.2z"/>
	<path class="st0" d="M204.7,137.3c0.1-0.1,0.2-0.2,0.3-0.3C204.9,137.2,204.8,137.2,204.7,137.3z"/>
	<path class="st0" d="M141.9,183c-0.1,0.1-0.2,0.2-0.3,0.3C141.7,183.2,141.8,183.1,141.9,183z"/>
	<path class="st0" d="M209.1,134c-0.1,0.1-0.2,0.2-0.3,0.3C209,134.2,209,134.1,209.1,134z"/>
	<path class="st0" d="M207.7,135.2c0.1-0.1,0.2-0.2,0.3-0.3C207.9,135,207.8,135.1,207.7,135.2z"/>
	<path class="st0" d="M140,184.3c-0.1,0.1-0.2,0.2-0.3,0.3C139.8,184.5,139.9,184.4,140,184.3z"/>
	<path class="st0" d="M197.7,142.5c0.1-0.1,0.2-0.2,0.3-0.3C197.8,142.3,197.7,142.4,197.7,142.5z"/>
	<polygon class="st0" points="160.9,169.1 161,169.2 160.8,169.3 160.7,169.2 	"/>
	<path class="st0" d="M160.5,169.5c0.1-0.1,0.2-0.2,0.3-0.3C160.6,169.4,160.5,169.5,160.5,169.5z"/>
	<path class="st0" d="M159.9,169.9c-0.1,0.1-0.2,0.2-0.3,0.3C159.7,170.1,159.8,170,159.9,169.9z"/>
	<path class="st0" d="M159.4,170.4c0.1-0.1,0.2-0.2,0.3-0.3C159.6,170.3,159.5,170.3,159.4,170.4z"/>
	<path class="st0" d="M158.5,171c0.1-0.1,0.2-0.2,0.3-0.3C158.8,170.8,158.7,170.9,158.5,171z"/>
	<path class="st0" d="M158.2,171.2c0.1-0.1,0.2-0.2,0.3-0.3C158.4,171.1,158.3,171.1,158.2,171.2z"/>
	<path class="st0" d="M157.4,171.8c0.1-0.1,0.2-0.2,0.3-0.3C157.6,171.6,157.5,171.7,157.4,171.8z"/>
	<path class="st0" d="M156.6,172.3c0.1-0.1,0.2-0.2,0.3-0.3C156.8,172.1,156.7,172.2,156.6,172.3z"/>
	<path class="st0" d="M156.6,172.3c-0.1,0.1-0.2,0.2-0.3,0.3C156.5,172.5,156.5,172.4,156.6,172.3z"/>
	<path class="st0" d="M155.6,173.1c0.1-0.1,0.2-0.2,0.3-0.3C155.7,172.9,155.7,173,155.6,173.1z"/>
	<path class="st0" d="M154.4,174c0.1-0.1,0.2-0.2,0.3-0.3C154.6,173.8,154.5,173.9,154.4,174z"/>
	<path class="st0" d="M153.6,174.5c0.1-0.1,0.2-0.2,0.3-0.3C153.8,174.3,153.7,174.4,153.6,174.5z"/>
	<path class="st0" d="M153.6,174.5c-0.1,0.1-0.2,0.2-0.3,0.3C153.4,174.7,153.5,174.6,153.6,174.5z"/>
	<path class="st0" d="M152.8,175.1c-0.1,0.1-0.2,0.2-0.3,0.3C152.6,175.2,152.7,175.1,152.8,175.1z"/>
	<path class="st0" d="M152,175.6c-0.1,0.1-0.2,0.2-0.3,0.3C151.8,175.8,151.9,175.7,152,175.6z"/>
	<path class="st0" d="M151.7,175.9c-0.1,0.1-0.2,0.2-0.3,0.3C151.6,176,151.6,176,151.7,175.9z"/>
	<path class="st0" d="M150.9,176.4c-0.1,0.1-0.2,0.2-0.3,0.3C150.7,176.6,150.8,176.5,150.9,176.4z"/>
	<path class="st0" d="M149.5,177.6c0.1-0.1,0.2-0.2,0.3-0.3C149.7,177.3,149.6,177.5,149.5,177.6z"/>
	<path class="st0" d="M149,177.8c-0.1,0.1-0.2,0.2-0.3,0.3C148.8,178,148.9,177.9,149,177.8z"/>
	<path class="st0" d="M148.7,178.1c-0.1,0.1-0.2,0.2-0.3,0.3C148.5,178.3,148.6,178.2,148.7,178.1z"/>
	<path class="st0" d="M147.9,178.6c-0.1,0.1-0.2,0.2-0.3,0.3C147.7,178.8,147.8,178.7,147.9,178.6z"/>
	<path class="st0" d="M200.9,140.1c-0.1,0.1-0.2,0.2-0.3,0.3C200.7,140.3,200.8,140.2,200.9,140.1z"/>
	<path class="st0" d="M146.8,179.4c-0.1,0.1-0.2,0.2-0.3,0.3C146.6,179.6,146.7,179.5,146.8,179.4z"/>
	<path class="st0" d="M642.1,114.5c0-1.5,0-2.9,0-4.4c1.5,0,3,0,4.4-0.1c0.6,0,1.2,0.1,1.8,0.4c0.9,0.4,1.3,1.3,1.2,2.1
		c0,0.9-0.3,1.8-1.2,2.1c-0.2,0.1-0.4,0.2-0.5,0.3c-0.1,0.1-0.4,0.2-0.2,0.4c1,0.9,1.6,2,2.1,3.2c0.3,0.4,0.2,0.5-0.3,0.5
		c-1.8,0.1-1.8,0.1-2.6-1.5c-0.3-0.5-0.5-1.2-0.9-1.7c-0.4-0.6-1.2-0.7-1.9-0.6c-0.1,0-0.2,0.3-0.2,0.4c0,1,0,2,0,3
		c0,0.1-0.1,0.4-0.1,0.4c-0.5,0-1.2,0-1.7,0c0,0-0.1-0.3-0.1-0.4c0-1.4,0-2.9,0-4.4V114.5z M643.9,112.6c0,0.3,0,0.5,0,0.8
		c0,0.5,0.5,0.9,0.9,0.6c0.5-0.4,1-0.2,1.5-0.3c0.6,0,1.1-0.5,1.2-1.1c0-0.6-0.4-1.2-1.2-1.2c-0.5,0-1,0-1.5,0
		C643.9,111.7,643.9,111.7,643.9,112.6z"/>
</g>
</svg>
