<?xml version="1.0" encoding="utf-8"?>
<!-- Generator: Adobe Illustrator 19.2.1, SVG Export Plug-In . SVG Version: 6.00 Build 0)  -->
<svg version="1.1" id="Layer_1" xmlns="http://www.w3.org/2000/svg" xmlns:xlink="http://www.w3.org/1999/xlink" x="0px" y="0px"
	 viewBox="0 0 800 300" style="enable-background:new 0 0 800 300;" xml:space="preserve">
<style type="text/css">
	.st0{fill:#FFFFFF;}
</style>
<g id="_x37_j2Mec.tif">
	<g>
		<path class="st0" d="M732.1,175.9c-0.5,0.6-0.5,0.6-1.3,0.6c-7.3,0-14.5,0-21.8,0c-0.1,0-0.2,0-0.3,0c-0.4,0.1-0.6-0.1-0.7-0.5
			c-0.2-0.4,0-0.8,0.2-1.1c0-0.1,0.2-0.1,0.4-0.1c0.7,0,1.3-0.1,2,0c0.6,0.1,1.1-0.1,1.6-0.3c0.6-0.2,1.2-0.6,1.5-1.3
			c0.4-0.8,0.7-1.7,0.9-2.6c0.2-1,0.1-1.9,0.1-2.9c0-4.9,0-9.8,0-14.6c0-1.5-0.3-3-0.2-4.5c0-0.4-0.2-0.8-0.2-1.2
			c0-0.4-0.1-0.9-0.2-1.3c-0.2-0.4-0.1-0.8-0.2-1.2c-0.3-0.8-0.6-1.7-0.9-2.6c-0.3-0.8-0.8-1.6-1.2-2.5c-0.4-0.9-1-1.6-1.6-2.4
			c-0.4-0.5-0.9-0.8-1.2-1.3c-0.4-0.5-1-0.6-1.4-0.9c-0.4-0.3-1-0.4-1.4-0.6c-1-0.3-2-0.2-3-0.2c-0.6,0.4-1.4,0.5-2.1,0.9
			c-1.1,0.6-1.9,1.5-2.7,2.3c-1.1,1.3-1.8,2.8-2.2,4.4c-0.2,0.6-0.2,1.3-0.2,1.9c0,8.9,0,17.9,0,26.8c0,0.8,0.2,1.6,0.6,2.3
			c0.4,0.6,1.4,1.3,2.1,1.3c0.3,0,0.6,0.2,0.8,0.1c0.4-0.2,0.7-0.1,1-0.1c0.3,0,0.6,0,0.9,0c0.5,0,0.6,0.2,0.6,0.6
			c0,1,0.3,1.3-1.2,1.3c-6.8,0-13.7,0-20.5,0c-0.1,0-0.1,0-0.2,0c-1,0-1.1-0.1-1-1.1c0-0.4,0.2-0.6,0.6-0.6c0.6,0.1,1.1-0.2,1.6-0.2
			c0.5,0,1.1,0,1.6,0c0.7-0.1,1.3-0.4,1.8-0.9c0.5-0.4,0.5-1,0.7-1.6c0-0.2,0-0.4,0-0.6c0-12.9,0-25.8,0-38.6c0-0.4-0.1-0.7,0.2-1.1
			c0.2-0.2,0.1-0.7,0.4-0.7c0.5,0,1-0.2,1.3,0.3c0.1,0.2,0.3,0.4,0.5,0.5c1,1,2.1,1.9,3.1,2.9c0.4,0.4,0.8,0.2,1.2,0.1
			c1.4-0.3,2.7-0.9,4.1-1.1c0.5-0.1,0.9-0.4,1.5-0.5c0.9-0.1,1.7-0.7,2.7-0.6c1-0.4,2-0.2,3-0.2c1,0,2.1-0.2,3,0
			c0.9,0.2,2-0.1,2.8,0.6c1.1,0,2,0.6,3,0.8c0.7,0.2,1.4,0.6,2.1,0.9c0.5,0.2,0.9,0.7,1.4,0.9c0.6,0.3,1.1,0.8,1.6,1.2
			c0.5,0.4,1,0.8,1.5,1.3c1.2,1.3,2.2,2.7,3.1,4.3c0.8,1.4,1.4,2.9,1.8,4.5c0.4,0.4,0.1,1,0.4,1.4c0.2,0.4,0.2,0.9,0.3,1.4
			c0.1,0.6,0,1.2,0.2,1.7c0.3,0.6,0,1.2,0.2,1.7c0.3,0.9,0.2,1.8,0.2,2.7c0,4.6,0,9.3,0,13.9c0,0.8,0.2,1.6,0.4,2.3
			c0.4,1.1,1,1.9,2.1,2.3c0.5,0.2,1.1,0.3,1.7,0.3c0.7,0.1,1.4,0,2.1,0c0.5,0,0.5,0,0.9,0.4C732.1,175.5,732.1,175.7,732.1,175.9z"
			/>
		<path class="st0" d="M59.7,160.1c0.9-0.1,1.8-0.2,2.8-0.2c0.9,0,1.9,0.1,2.7,0c1.6-0.3,3.2-0.1,4.9-0.2c0.7,0,1.3-0.4,2-0.2
			c0.3,0.1,0.6,0.3,0.8,0.1c0.3-0.2,0.5-0.1,0.8-0.1c2.7-0.4,5.4,0,8-0.3c1.5-0.1,3,0,4.5-0.2c1-0.2,2.1,0,3.1-0.2
			c1.8-0.3,3.5,0,5.3-0.2c2.2-0.3,4.4-0.1,6.6-0.2c0.2,0,0.4,0,0.6,0c0.1,0,0.2,0.1,0.2,0.1c0,0.1,0,0.2-0.1,0.3
			c-0.1,0.1-0.3,0.2-0.4,0.2c-0.4,0-0.8,0.1-1.2,0.2c-0.6,0.2-1.3,0.2-1.9,0.2c-0.4,0-0.7,0.2-1.1,0.2c-0.4,0-0.8,0.1-1.2,0.2
			c-0.3,0.1-0.7-0.1-1.1,0.2c-0.1,0.1-0.3,0-0.4,0c-0.8,0.1-1.7,0.1-2.5,0.2c-0.4,0.1-0.9,0.3-1.3,0.4c-0.5,0.1-1-0.2-1.4,0.2
			c-0.1,0.1-0.3,0-0.4,0c-0.6,0.1-1.2,0.2-1.8,0.2c-0.6,0-1.1,0.4-1.7,0.2c-0.4,0.3-0.9,0.1-1.3,0.2c-0.6,0.2-1.3,0.1-1.9,0.4
			c-0.4,0.2-1-0.1-1.4,0.2c-0.8-0.2-1.5,0.3-2.2,0.2c-0.4,0-0.7,0.2-1.1,0.2c-0.3,0-0.8-0.1-1,0c-0.8,0.4-1.6,0.4-2.5,0.4
			c-0.4,0.4-0.9,0.1-1.3,0.2c-0.4,0.1-0.8,0.1-1.2,0.2c-0.5,0.1-1.1,0.2-1.6,0.2c-0.5,0-1,0.2-1.5,0.4c-0.5,0.2-1-0.2-1.5,0.2
			c-1,0.1-2,0.1-3,0.2c-0.3,0-0.5-0.1-0.6-0.3c-0.4-0.5-0.9-0.9-0.9-1.6c0-0.1,0-0.1-0.1-0.2c-0.3-0.3-0.7-0.6-0.8-1
			c-0.8-0.1-1.2-0.9-2.1-0.9C59.7,160.4,59.7,160.2,59.7,160.1z"/>
		<path class="st0" d="M222.8,131.5c4.4,0,8.7,0,13.1,0c1,0,1.9,0.2,2.9,0.3c0.9,0.1,1.8,0.3,2.7,0.6c0.8,0.3,1.7,0.6,2.4,1
			c0.6,0.4,1.2,0.7,1.7,1.2c0.6,0.7,1.4,1.2,1.7,2.1c0.5,0.3,0.4,0.9,0.7,1.4c0.2,0.4,0.3,0.9,0.3,1.5c0,0.3,0.2,0.6,0.2,1
			c0,0.3,0,0.7,0,1.1c0.1,1.6-0.7,2.9-1.3,4.3c-0.8,0.6-1.1,1.7-2.1,2.1c-0.9,1-2.1,1.6-3.3,2.2c-1,0.6-2.1,1-3.2,1.4
			c-1.2,0.4-2.4,0.8-3.6,1.2c-0.1,0-0.1,0.1-0.2,0.1c0.1,0,0.1,0.1,0.2,0.1c0.9,0.1,1.8,0.1,2.8,0.2c0.7,0.1,1.3,0.3,2,0.5
			c0.4,0.1,0.9,0.2,1.2,0.4c0.4,0.2,0.8,0.2,1.1,0.4c0.5,0.3,1,0.4,1.5,0.7c0.5,0.3,0.9,0.6,1.4,1c0.5,0.4,1.1,0.8,1.5,1.3
			c1.3,1.5,2.3,3.1,2.8,5.1c0.2,0.7,0.3,1.5,0.5,2.2c0.4,1.9,0.1,3.9,0.2,5.8c0,0.9,0.1,1.7,0.2,2.5c0.1,0.5,0.3,0.9,0.9,1.1
			c0.5,0.2,1,0.3,1.5,0.4c0.7,0.1,1.4,0.1,2,0.4c0.4,0.2,0.4,0.5,0.6,0.8c0.1,0.2-0.3,0.7-0.6,0.7c-0.6,0-1.2,0-1.8,0
			c-1.8,0-3.6,0-5.5,0c-1.2,0-2.5-0.5-3.7-0.2c-1.3,0.3-2.5,0.1-3.8,0.2c-1.3,0-2.5,0-3.8,0c-0.2,0-0.4,0-0.7-0.1
			c-0.5-0.3-0.7-0.6-0.6-1.1c0.1-0.3,0.5-0.6,0.9-0.6c1,0,2-0.7,2.7-1.5c0.6-0.8,0.8-1.7,0.8-2.6c0.1-2,0-4,0-6c0-0.5-0.2-1-0.2-1.5
			c0-0.5,0.2-1.1,0-1.6c-0.3-0.6,0-1.1-0.3-1.7c-0.3-0.5-0.3-1.1-0.5-1.6c-0.1-0.3-0.4-0.6-0.6-0.9c-0.2-0.2-0.6-0.4-0.6-0.7
			c0-0.4-0.4-0.3-0.6-0.5c-0.5-0.7-1.4-0.8-2.1-1c-1.1-0.3-2.3-0.6-3.5-0.5c-0.6,0.1-1.2-0.3-1.9-0.2c-0.6,0.1-1.3,0-1.9,0
			c-0.4,0-0.6,0.1-0.9,0.3c-0.1,0.1-0.3,0.3-0.3,0.4c0,0.6-0.2,1.1-0.2,1.7c0,5.3,0,10.5,0,15.8c0,0.4,0,0.8,0.3,1.1
			c0.3,0.4,0.7,0.6,1.1,0.9c0.2,0.1,0.5,0,0.7,0c0.5,0,0.9,0,1.4,0.2c0.5,0.2,0.5,0.2,0.5,0.7c0,0.8-0.5,1.2-1.1,1.2
			c-0.6,0-1.1,0.2-1.7,0.2c-0.8,0-1.6-0.2-2.3-0.2c-0.8,0-1.7,0-2.5,0c-0.8,0-1.6,0-2.4,0c-0.5,0-0.9-0.3-1.4-0.2
			c-2.4,0.4-4.8,0.1-7.2,0.2c-0.3,0-0.6,0.2-1,0.2c-0.6,0-1.2,0-1.8-0.2c-0.6-0.2-0.9-0.4-0.9-1c0-0.5,0.3-0.8,0.9-0.9
			c0.8-0.1,1.6-0.1,2.4-0.2c0.8-0.1,1.5-0.1,2.3-0.4c0.1-0.1,0.4,0,0.5,0c0.6,0.1,0.8-0.2,1-0.7c0.1-0.4,0.3-0.9,0.3-1.3
			c0.4-3,0.1-5.9,0.2-8.9c0-3,0-6,0-8.9s0-6,0-8.9s0-6,0-8.9c0-0.3,0-0.7-0.1-1c-0.2-0.9-1.2-1.5-2.2-1.7c-1.3-0.3-2.7-0.2-4-0.2
			c-0.3,0-0.5,0-0.8-0.2c-0.2-0.1-0.5-0.2-0.5-0.5c0-0.3-0.1-0.7,0.3-0.9c0.4-0.3,0.8-0.5,1.3-0.5c3.8,0,7.5,0,11.3,0
			C220.9,131.5,221.8,131.5,222.8,131.5z M225.4,143.9c0,2.6,0,5.3,0,7.9c0,0.5,0,0.5,0.5,0.5c1.3,0,2.7,0,4,0c1,0,1.8-0.2,2.7-0.6
			c0.7-0.4,1.2-1,1.8-1.5c0.8-0.8,1.2-1.8,1.5-2.7c0.4-1.1,0.6-2.3,0.6-3.4c0.1-0.9,0.1-1.8-0.1-2.8c-0.3-1-0.2-2.2-0.9-3.1
			c-0.4-1.6-1.6-2.7-2.9-3.5c-0.4-0.3-0.9-0.5-1.3-0.6c-1.2-0.3-2.4-0.6-3.7-0.4c-0.9,0.1-1.9,0.7-1.9,1.7c-0.3,0.4-0.2,0.9-0.2,1.4
			C225.4,139,225.4,141.5,225.4,143.9z"/>
		<path class="st0" d="M646.7,177.4c-0.5,0-0.7,0-1,0c-1.2-0.1-2.5-0.1-3.7-0.2c-0.7-0.1-1.5-0.4-2.2-0.5c-1-0.1-1.8-0.6-2.7-0.8
			c-0.8-0.2-1.5-0.7-2.3-1c-1.3-0.6-2.6-1.4-3.7-2.2c-1.4-1-2.6-2.2-3.7-3.5c-1.3-1.6-2.4-3.4-3.2-5.3c-0.4-1-0.7-2-1-3.1
			c-0.3-0.9-0.2-1.8-0.6-2.6c0,0,0-0.1,0-0.1c0.1-1.3-0.3-2.6-0.2-3.9c0-0.5,0.2-1,0.2-1.5c0-0.5-0.1-1.1,0-1.6
			c0.3-1.1,0.3-2.3,0.8-3.4c0.1-0.2,0.1-0.5,0.2-0.8c0.5-1.2,0.9-2.5,1.6-3.6c0.7-1.1,1.4-2.3,2.3-3.3c0.5-0.6,1-1.2,1.5-1.7
			c0.8-0.7,1.6-1.4,2.4-2c0.7-0.5,1.4-1,2.2-1.4c0.8-0.3,1.5-0.8,2.3-1.1c1-0.4,2.1-0.8,3.1-1.1c1-0.2,1.9-0.4,2.9-0.6
			c0.7-0.2,1.5,0,2.1-0.2c1.1-0.3,2.1-0.1,3.2-0.2c0.8-0.1,1.6,0.2,2.4,0.2c0.8,0,1.5,0.4,2.2,0.4c1.4,0,2.6,0.6,3.8,0.9
			c1,0.2,2,0.9,2.9,1.3c1.3,0.6,2.5,1.4,3.6,2.3c0.5,0.4,1.2,0.7,1.5,1.1c0.4,0.6,1.2,0.8,1.4,1.6c0.8,0.8,1.5,1.8,2.1,2.7
			c0.7,1.1,1.2,2.3,1.7,3.5c0.4,0.8,0.6,1.7,0.8,2.6c0.2,0.7,0.4,1.4,0.4,2.1c0,0.5,0.1,1.1,0.2,1.6c0.1,0.5,0,1,0.2,1.5
			c0.1,0.5,0.3,1.2-0.1,1.8c-0.1,0.1,0,0.3,0,0.5c0.1,1-0.2,1.9-0.2,2.9c-0.1,1-0.5,1.9-0.7,2.9c-0.1,0.8-0.6,1.4-0.8,2.1
			c-0.2,0.7-0.6,1.3-1,1.9c-0.8,1.3-1.5,2.6-2.6,3.7c-0.3,0.3-0.4,0.6-0.7,0.9c-1.6,1.4-3.1,2.8-5,3.8c-1.3,0.7-2.7,1.3-4.1,1.8
			c-0.5,0.2-0.9,0.2-1.4,0.5c-0.4,0.2-0.9,0.2-1.3,0.3c-1,0.2-2.1,0.3-3.1,0.5C648.5,177.4,647.5,177.3,646.7,177.4z M634.8,154.5
			c0,0.9,0.1,1.8,0,2.6c-0.1,0.9,0.2,1.7,0.2,2.5c0,0.7,0,1.5,0.2,2.1c0.1,0.4,0.1,0.8,0.2,1.2c0.2,0.7,0.4,1.4,0.6,2.1
			c0.2,0.9,0.5,1.7,0.8,2.5c0.6,1.3,1.2,2.4,2.1,3.6c1.1,1.5,2.9,3,5.2,3.5c0.4,0.4,0.9,0,1.3,0.2c0.2,0.2,0.4-0.1,0.6,0.1
			c0.2,0.1,0.5,0.1,0.8,0.1c0.3,0,0.6-0.2,0.9-0.2c0.3,0,0.7,0.1,0.8,0c0.3-0.3,0.7-0.1,1-0.2c1.9-0.8,3.4-2.1,4.6-3.7
			c0.9-1.1,1.5-2.4,2-3.8c0.2-0.6,0.4-1.2,0.7-1.7c0.3-0.6,0.3-1.3,0.5-1.9c0.2-0.5,0-1.2,0.3-1.7c0.3-0.6-0.1-1.2,0.4-1.7
			c0-1,0-1.9,0.2-2.9c0.1-1,0.1-2,0-3c0-1,0-2-0.2-3.1c-0.2-1.2-0.2-2.5-0.4-3.7c-0.1-0.7-0.3-1.5-0.4-2.2c-0.3-1.3-0.6-2.5-1.2-3.7
			c-0.8-1.7-1.7-3.3-3.1-4.6c-0.9-0.9-1.9-1.4-3-1.9c-0.8-0.4-1.6-0.4-2.4-0.6c-0.6-0.1-1.3,0-1.9,0c-0.5,0-0.9,0.2-1.4,0.2
			c-0.4,0-0.8,0.2-1.2,0.4c-1.9,0.8-3.3,2.1-4.5,3.8c-0.4,0.6-0.8,1.1-1.1,1.8c-0.3,0.8-0.7,1.7-1.1,2.5c-0.3,0.8-0.3,1.6-0.7,2.3
			c0.1,0.4-0.3,0.8-0.2,1.2c0.1,0.5-0.2,0.8-0.2,1.3c0,0.4-0.2,0.8-0.2,1.2c0,1.4-0.4,2.8-0.2,4.2
			C634.9,153.6,634.8,154.1,634.8,154.5z"/>
		<path class="st0" d="M416,154.6c0,0.6,0,1.2,0,1.8c0,0.6,0,1.3-0.2,1.9c-0.1,0.6-0.3,1.2-0.4,1.8c-0.1,1.1-0.6,2.1-0.9,3.1
			c-0.3,1.1-0.9,2-1.4,3c-0.5,0.8-1,1.6-1.5,2.3c-0.1,0.2-0.3,0.4-0.5,0.5c-0.7,0.7-1.4,1.3-2,2c-1.7,1.8-4,3-6.2,4.1
			c-0.7,0.1-1.3,0.6-2,0.8c-1.1,0.2-2,0.8-3.2,0.8c-0.4,0-0.9,0.3-1.3,0.4c-0.4,0.1-0.9-0.1-1.4,0c-1.4,0.4-2.8,0.1-4.2,0.2
			c-1.1,0-2.1,0-3.2-0.2c-0.7-0.1-1.4-0.3-2.1-0.5c-0.5-0.1-1,0-1.4-0.3c-0.4-0.3-0.9-0.3-1.4-0.4c-1-0.3-1.9-0.8-2.8-1.3
			c-1.4-0.7-2.6-1.6-3.8-2.5c-1.1-0.9-2.1-1.9-3.1-2.9c-1.2-1.4-2.1-3-2.9-4.7c-0.6-1.3-0.9-2.6-1.4-3.9c-0.2-0.6-0.2-1.2-0.2-1.8
			c0-0.3-0.2-0.6-0.2-0.9c0-0.3,0-0.6-0.2-0.9c-0.1-0.1,0-0.3,0-0.5c0-1.2,0-2.5,0-3.7c0-0.7,0.2-1.4,0.4-2.1c0.1-0.4-0.1-1,0.2-1.4
			c-0.1-0.7,0.3-1.3,0.4-1.9c0.1-0.4,0.2-0.9,0.4-1.3c0.2-0.4,0.3-0.8,0.5-1.2c0.7-1.3,1.3-2.7,2.3-3.8c0.7-0.9,1.4-1.9,2.3-2.6
			c1.5-1.3,3-2.6,4.8-3.5c1.1-0.6,2.3-1.2,3.6-1.6c1.2-0.4,2.5-1,3.8-1c0.5,0,1-0.2,1.4-0.3c0.1,0,0.1-0.1,0.2-0.1
			c1,0.1,1.9-0.3,2.9-0.2c0.9,0,1.9-0.1,2.8,0c0.7,0.1,1.4,0.1,2.1,0.2c0.3,0,0.5,0.1,0.8,0.2c0.6,0.3,1.3,0.2,1.9,0.4
			c0.6,0.1,1.2,0.4,1.9,0.6c1.7,0.4,3.2,1.2,4.6,2c0.8,0.5,1.6,1.1,2.4,1.6c0.6,0.5,1.2,0.9,1.8,1.4c0.3,0.3,0.6,0.7,0.9,1
			c0.2,0.2,0.4,0.4,0.6,0.6c0.8,0.8,1.4,1.7,2,2.7c0.5,0.8,0.8,1.6,1.3,2.4c0.3,0.6,0.5,1.3,0.8,1.9c0.3,0.6,0.5,1.3,0.5,2
			c0.3,0.3,0.1,0.8,0.4,1.2c0.2,0.3-0.1,0.9,0.2,1.3c0.1,0.1,0,0.4,0,0.6C416,152.9,416,153.8,416,154.6z M392,134.2
			c-0.9-0.1-1.7,0.1-2.6,0.4c-1.5,0.4-2.8,1.2-3.8,2.3c-0.5,0.5-1.1,1-1.5,1.6c-0.6,1-1.2,1.9-1.7,3c-0.3,0.6-0.5,1.3-0.7,1.9
			c-0.2,0.6-0.3,1.3-0.6,2c-0.1,0.2,0.1,0.5,0,0.7c-0.4,0.8-0.3,1.7-0.6,2.5c-0.1,0.5,0,1,0,1.6c0,0.5-0.2,1.1-0.2,1.6
			c0,0.9,0,1.8,0,2.6s0,1.8,0,2.6c0,0.8,0.1,1.7,0.2,2.5c0.1,0.8,0,1.6,0.2,2.4c0.2,0.7,0.3,1.3,0.4,2c0.1,0.7,0.4,1.4,0.6,2.1
			c0.3,0.9,0.6,1.9,1.1,2.7c0.5,0.8,1,1.6,1.5,2.3c0.9,1.2,2,2.1,3.2,2.9c1.2,0.7,2.7,0.9,4.1,1.1c0.5,0.1,1,0.1,1.5-0.2
			c1.3,0.1,2.3-0.5,3.3-1.1c0.3-0.2,0.6-0.4,0.9-0.6c0.3-0.2,0.6-0.5,0.8-0.7c0.2-0.2,0.6-0.5,0.7-0.8c0.1-0.3,0.6-0.4,0.7-0.9
			c1-1.2,1.7-2.7,2.2-4.1c0.3-0.8,0.5-1.5,0.7-2.3c0.1-0.5,0.2-1.1,0.4-1.6c0.1-0.4-0.1-0.8,0.1-1.1c0.2-0.3,0.1-0.7,0.2-1
			c0-0.4,0.2-0.7,0.2-1.1c0-0.5,0-0.9,0-1.4c0-0.4,0.2-0.9,0.2-1.3c-0.1-1.8,0.2-3.7-0.2-5.5c-0.2-0.8-0.1-1.6-0.2-2.4
			c-0.1-0.9-0.2-1.9-0.5-2.8c-0.3-1.2-0.5-2.5-1-3.7c-0.5-1.1-0.9-2.1-1.5-3.2c-0.7-1.2-1.6-2.2-2.6-3.1c-0.5-0.4-1.2-0.7-1.7-1.1
			c-0.5,0.2-0.6-0.4-1-0.4C394.1,134.5,393.1,134.1,392,134.2z"/>
		<path class="st0" d="M508.9,154.1c0-4.3,0-8.6,0-13c0-1.3-0.1-2.5-0.4-3.7c-0.1-0.3-0.3-0.7-0.5-0.9c-0.4-0.4-0.9-0.9-1.4-1.2
			c-0.3-0.2-0.7-0.2-1.1-0.3c-0.4-0.1-0.8,0.1-1.1-0.2c-0.6,0.4-1.4-0.4-2.1,0.2c-0.2,0.1-0.7-0.4-0.7-0.7c0-0.1,0-0.3,0-0.4
			c0-0.5,0.3-0.7,0.8-0.8c0.1,0,0.3,0,0.4,0c7.1,0,14.2,0,21.4,0c0.2,0,0.5,0,0.7,0c0.5,0.1,0.7,0.3,0.7,0.8c0,0.2,0,0.4,0,0.5
			c0,0.1-0.1,0.2-0.2,0.2c-0.8,0-1.6,0.4-2.5,0.5c-0.8,0.1-1.8,0.2-2.5,0.8c-0.1,0.1-0.5,0.2-0.5,0.3c0,0.4-0.4,0.6-0.5,1
			c-0.1,0.8-0.2,1.5-0.2,2.2c0,12.4,0,24.8,0,37.3c0,0.4,0,0.9-0.3,1.3c-0.1,0.1-0.3,0.3-0.5,0.3c-0.5,0-0.9,0-1.3-0.4
			c-1-1-2.1-2-3.1-2.9c-0.3-0.3-0.8-0.4-0.9-0.9c0-0.2-0.4-0.3-0.6-0.4c-0.1,0-0.3,0.1-0.4,0.2c-0.4,0.2-0.9,0.4-1.3,0.6
			c-0.4,0.2-0.8,0.4-1.2,0.6c-0.9,0.4-1.8,0.7-2.7,1.1c-0.4,0.1-0.7,0.7-1.3,0.4c-0.4,0.3-0.9,0.3-1.3,0.5c-0.6,0.2-1.2,0.4-1.8,0.4
			c-1.5,0-3.1,0-4.6,0c-0.5,0-1.1-0.2-1.6-0.2c-0.6,0-1-0.1-1.5-0.4c-0.3-0.2-0.8,0.1-1.1-0.2c-1.7-0.3-3.3-1.1-4.8-2
			c-1-0.6-1.9-1.2-2.8-2c-0.9-0.9-1.8-1.8-2.5-2.8c-0.7-0.9-1.3-2-1.8-3c-0.7-1.5-1.1-3-1.8-4.5c0.1-0.9-0.3-1.8-0.4-2.7
			c-0.1-0.5-0.2-1-0.2-1.5c0-0.5-0.3-1-0.2-1.6c0.1-0.5,0.1-1.1,0-1.6c-0.4-2.1-0.1-4.2-0.2-6.2c0-2.1,0-4.1,0-6.2
			c0-1.3,0-2.5,0-3.8c0-0.6-0.1-1.2-0.3-1.8c-0.2-0.8-1.2-1.6-1.9-1.7c-1.2-0.2-2.5-0.2-3.7-0.2c-0.7,0-1-0.3-1.1-1
			c0-0.5,0.4-0.9,1-0.9c0.2,0,0.4,0,0.5,0c4.2,0,8.4,0,12.6,0c0.8,0,1.5,0.2,2.2,0.2c0.6,0,0.9,0.4,0.9,1.1c0,7.2,0,14.5,0,21.7
			c0,1.3,0.4,2.7,0.2,4c0.3,0.7,0.3,1.5,0.4,2.2c0.2,0.7,0.2,1.5,0.4,2.2c0.4,1.3,0.8,2.6,1.3,3.9c0.5,0.3,0.4,0.9,0.8,1.3
			c0.3,0.4,0.6,0.8,0.8,1.2c0.3,0.4,0.6,0.7,0.9,1.1c0.4,0.4,0.7,0.8,1.1,1.1c1.2,0.8,2.5,1.4,4,1.3c0.4,0,0.8,0,1.3,0
			c1.6,0.1,3.1-0.3,4.6-0.9c1.3-0.5,2.5-1.4,3.2-2.7c0.4-0.8,0.6-1.6,0.6-2.5C508.9,163.7,508.9,158.9,508.9,154.1z"/>
		<path class="st0" d="M125.3,176.5c-0.4,0-0.8,0-1.3,0c-0.4,0-0.9,0.1-1.3-0.2c-0.3-0.2-0.9,0.2-1.3-0.2c-0.8,0.2-1.4-0.4-2.1-0.4
			c-0.4,0-0.9-0.3-1.3-0.5c-1.3-0.6-2.6-1.2-3.8-2.1c-0.9-0.6-1.5-1.3-2.4-1.9c-0.8-0.6-1.4-1.4-2-2.1c-1-1.2-1.8-2.5-2.4-3.9
			c-0.6-1.2-0.9-2.5-1.3-3.8c-0.3-1-0.3-1.9-0.4-2.9c-0.1-0.8-0.3-1.6-0.1-2.3c0.3-1.5,0.3-2.9,0.8-4.4c0.4-1.4,0.9-2.7,1.5-4
			c0.6-1.1,1.3-2.2,2.1-3.2c0.7-0.9,1.5-1.7,2.3-2.4c1.5-1.3,3.1-2.4,4.9-3.2c0.6-0.3,1.3-0.5,1.9-0.7c0.6-0.2,1.3-0.4,2-0.6
			c0.6-0.2,1.2-0.2,1.8-0.2c0.5-0.1,1.1-0.2,1.6-0.2c0.5,0,1.1,0,1.6,0c2,0.1,4,0.4,5.8,1.1c1.9,0.7,3.6,1.5,5.2,2.7
			c1.3,1,2.5,2.2,3.6,3.5c1.2,1.4,2,3,2.8,4.6c0.5,1,0.8,2.1,1.1,3.2c0.3,1.1,0.5,2.2,0.4,3.4c0,0.2,0.1,0.4,0.1,0.6
			c0,0.3,0.2,0.6,0.1,0.8c-0.3,0.5-0.2,1.1-0.2,1.6c0,1-0.2,2-0.5,3c-0.4,1.5-0.9,2.9-1.6,4.3c-0.5,0.9-1.1,1.8-1.7,2.7
			c-0.9,1.3-2,2.3-3.1,3.3c-0.9,0.8-1.9,1.5-3,2.1c-1.5,0.8-3,1.5-4.7,1.9c-0.1,0-0.2,0.2-0.2,0.2c-0.5-0.1-0.9,0.1-1.3,0.2
			C127.6,176.5,126.5,176.6,125.3,176.5z M114.5,151.7c-2.1,0-4.2,0-6.3,0c-0.1,0-0.2,0-0.3,0.1c0.1,0.1,0.1,0.2,0.2,0.2
			c0.2,0.2,0.4,0.3,0.7,0.5c0.3,0.2,0.7,0.4,0.9,0.7c0.3,0.4,0.8,0,1.1,0.4c0.1,0.1,0.3,0,0.3,0.3c0,0.1,0.1,0.3,0.2,0.3
			c0.8,0.4,1.5,1,2.2,1.6c0.7,0.6,1.5,1,2.2,1.6c0.7,0.6,1.5,1,2.2,1.7c0.2,0.2,0.3,0.3,0.5,0.2c0.1,0,0.2,0.2,0.2,0.2
			c0,0.2-0.1,0.4-0.1,0.6c-0.1,0.6-0.3,1-0.5,1.6c-0.3,1-0.6,1.9-0.8,2.9c-0.2,0.8-0.8,1.5-0.7,2.4c0,0.1-0.1,0.3-0.2,0.4
			c-0.1,0.1-0.1,0.3-0.2,0.4c-0.2,0.7-0.4,1.3-0.6,2c-0.2,0.6-0.5,1.3-0.7,1.9c0,0.1,0,0.3,0.1,0.4c0,0,0.2,0,0.3-0.1
			c0.5-0.2,0.8-0.7,1.2-1c1.6-1,3-2.3,4.6-3.4c1.3-1,2.6-2,3.9-3c0.2-0.2,0.4-0.2,0.6,0c0.9,0.6,1.6,1.3,2.6,1.7
			c1.5,1.4,3.3,2.4,4.9,3.6c1,0.8,2.1,1.5,3.1,2.2c0,0,0.1,0.1,0.1,0.1c0-0.1,0.1-0.1,0.1-0.2c0-0.2,0.1-0.4,0-0.5
			c-0.4-0.8-0.6-1.7-0.9-2.6c-0.3-0.6-0.5-1.3-0.7-1.9c-0.3-0.6-0.4-1.3-0.7-1.9c-0.3-0.7-0.4-1.4-0.6-2.1c-0.2-0.5-0.6-0.9-0.4-1.5
			c0-0.1-0.1-0.3-0.2-0.3c-0.2-0.1-0.2-0.3-0.2-0.5c0-0.2-0.1-0.4-0.2-0.6c-0.2-0.5-0.2-0.5,0.2-0.8c0.1-0.1,0.2-0.1,0.3-0.2
			c1.1-0.9,2.3-1.6,3.2-2.6c0.5-0.5,1.1-0.9,1.7-1.3c0.6-0.4,1.3-0.7,1.8-1.1c0.8-0.7,1.6-1.2,2.4-1.8c0.1-0.1,0.2-0.3,0.3-0.4
			c-0.2,0-0.3-0.1-0.5-0.1c-2.9,0-5.9,0-8.8,0c-1,0-2,0-2.9,0c-0.4,0-0.7-0.1-0.7-0.5c0-0.2-0.2-0.3-0.2-0.4
			c-0.3-0.9-0.8-1.8-0.9-2.8c-0.1-0.4-0.4-0.8-0.5-1.2c-0.1-0.4-0.3-0.8-0.5-1.2c-0.2-0.4-0.2-0.8-0.3-1.3c-0.6-0.2-0.4-0.8-0.5-1.2
			c-0.2-0.6-0.6-1.1-0.6-1.8c0-0.5-0.3-0.9-0.5-1.4c0-0.1-0.1-0.1-0.1-0.1c0,0-0.1,0.1-0.1,0.1c0,0.2-0.1,0.3-0.1,0.5
			c-0.4,1-0.7,2-1,2.9c-0.3,1-0.9,2-1,3.1c-0.5,0.7-0.6,1.6-1,2.4c-0.3,0.6-0.5,1.3-0.7,1.9c-0.3,0.8-0.2,0.8-1,0.8
			C118.5,151.7,116.5,151.7,114.5,151.7z"/>
		<path class="st0" d="M281.1,132.1c0.4,0,0.7,0,1.1,0c1.2,0,2.4,0.1,3.5,0.4c0.4,0.1,0.9,0.1,1.3,0.2c0.6,0.1,1.2,0.4,1.8,0.5
			c1.2,0.3,2.4,0.8,3.5,1.4c1.3,0.7,2.4,1.5,3.5,2.4c0.6,0.5,1.3,1,1.8,1.7c1,1.2,2,2.4,2.8,3.8c0.6,1,1,2,1.6,3
			c0.3,0.5,0.5,1.1,0.7,1.7c0.2,0.6,0.4,1.2,0.5,1.8c0.2,0.6,0.1,1.3,0.5,1.8c0,0,0,0.1,0,0.1c0.1,1.1,0.2,2.1,0.2,3.2
			c0,1.1,0.2,2.1,0,3.1c-0.2,1.1,0,2.3-0.6,3.3c-0.1,0.2,0,0.5-0.1,0.8c-0.2,0.9-0.6,1.7-0.9,2.6c-0.3,0.8-0.7,1.6-1.1,2.4
			c-0.6,1.1-1.3,2.1-2.1,3.1c-0.7,0.9-1.4,1.7-2.3,2.4c-1.2,1.1-2.4,2-3.8,2.8c-1,0.6-2,1.1-3,1.6c-1,0.5-2.2,0.9-3.3,1.1
			c-0.6,0.1-1,0.5-1.6,0.4c-0.5,0.4-1.2,0-1.7,0.4c-1,0.1-2,0.2-3,0.2c-1,0-2,0.2-2.9,0c-0.8-0.2-1.7,0-2.5-0.3
			c-0.5-0.2-1.1-0.1-1.6-0.2c-0.4-0.1-1-0.1-1.4-0.2c-0.7-0.3-1.4-0.3-2.1-0.5c-0.6-0.2-1.3-0.4-2-0.5c-0.5-0.1-1-0.4-1.6-0.5
			c-0.7-0.2-1.4-0.4-2.1-0.7c-0.7-0.3-1.1-0.7-1.3-1.4c-0.1-0.8-0.3-1.5-0.4-2.2c-0.2-0.9-0.1-1.9-0.6-2.8c-0.3-0.6-0.2-1.3-0.2-1.9
			c0-0.4-0.1-0.7-0.2-1.1c-0.2-1-0.4-1.9-0.4-2.9c0-0.1,0-0.2-0.1-0.3c-0.2-0.3-0.1-0.4,0-0.7c0.1-0.3,0.3-0.3,0.6-0.4
			c1.1-0.3,1.4-0.3,1.9,0.5c0.6,0.9,1.2,1.7,1.7,2.6c1,1.7,2.1,3.4,3.2,5c1,1.4,2.3,2.7,3.7,3.8c0.9,0.7,1.8,1.2,2.8,1.7
			c0.6,0.3,1.3,0.5,2,0.7c1.2,0.3,2.5,0.1,3.7,0.1c0.4,0,1-0.1,1.4-0.4c0.2-0.1,0.5-0.2,0.7-0.2c0.8-0.4,1.5-0.8,2.2-1.3
			c1.7-1.2,2.7-2.9,3.6-4.7c0.3-0.7,0.7-1.4,0.9-2.1c0.3-0.7,0.6-1.5,0.7-2.2c0.1-0.9,0.4-1.7,0.5-2.5c0.1-1.1,0.4-2.2,0.4-3.3
			c0.5-0.8,0.1-1.6,0.4-2.5c0.2-0.8,0.1-1.8,0.1-2.7c0-0.9,0-1.8,0-2.6c0-0.6-0.3-1.1-0.5-1.6c-0.2-0.3-0.5-0.4-0.8-0.5
			c-0.3-0.1-0.5-0.2-0.8,0c-0.1,0.1-0.4,0.1-0.6,0.1c-8.3,0-16.6,0-24.9,0c-0.7,0-1.4-0.2-2-0.5c-0.4-0.1-0.9-0.5-0.8-1.2
			c0-0.2,0-0.4,0-0.5c-0.1-1.4,0.3-2.6,0.7-3.9c0.3-1,0.9-1.9,1.5-2.7c0.7-1,1.5-2.1,2.5-2.9c1.1-0.9,2.1-1.9,3.4-2.4
			c1.6-1.3,3.6-1.8,5.5-2.5c0.5-0.2,1.1-0.2,1.6-0.2c0.3,0,0.5-0.1,0.8-0.2c0.3-0.1,0.5,0.1,0.8-0.2c0.1-0.1,0.4-0.1,0.6-0.1
			C279.4,132.1,280.2,132.1,281.1,132.1z M283.5,146.4c2.3,0,4.6,0,6.8,0c0.2,0,0.5,0,0.7,0c0.2,0,0.4-0.1,0.3-0.3
			c-0.3-0.5-0.1-1-0.2-1.5c-0.2-0.7-0.4-1.4-0.6-2.1c-0.2-1-0.8-1.8-0.9-2.8c-0.8-1.2-1.5-2.5-2.7-3.5c-1.2-1.1-2.9-1.7-4.2-1.8
			c-0.8-0.1-1.6,0-2.4,0.1c-0.8,0.2-1.5,0.5-2.2,0.9c-0.7,0.4-1.4,1-1.9,1.7c-0.6,0.6-1,1.3-1.4,2.1c-0.5,1.1-1,2.2-1,3.5
			c0,0.1,0,0.2-0.1,0.3c-0.3,0.8-0.1,1.6,0.2,2.4c0.2,0.5,0.6,0.7,1,0.8c0.6,0.1,1.2,0.3,1.9,0.2
			C279.1,146.4,281.3,146.4,283.5,146.4z"/>
		<path class="st0" d="M313,133.1c0.6,0,1.2-0.1,1.8,0c2.2,0.4,4.4,0.1,6.5,0.2c2.2,0,4.4,0,6.6,0c0.9,0,1.8-0.4,2.8-0.2
			c0.3,0,0.5,0.1,0.8,0.2c0.3,0.1,0.7,0.1,0.7,0.5c0.1,0.4,0,0.8-0.4,1.1c-0.3,0.2-0.6,0.3-0.9,0.3c-0.4,0-0.8,0-1.3,0
			c-0.6-0.1-1.2,0.1-1.7,0.5c-0.6,0.4-1.2,0.8-1.5,1.4c-0.5,0.9-0.8,1.8-0.7,2.8c0,0.5-0.1,1.1,0,1.6c0.3,1.3,0.1,2.5,0.2,3.8
			c0,0.4,0.2,0.9,0.2,1.3c0,0.4-0.1,0.9,0.2,1.3c0,0,0,0.1,0,0.2c0.1,1.1,0.1,2.1,0.2,3.2c0,0.1,0,0.2,0,0.2
			c0.3,0.4,0.1,0.9,0.3,1.3c0.1,0.1,0.1,0.2,0.1,0.4c0.1,0.7,0.1,1.5,0.2,2.2c0,0.2,0.1,0.3,0.2,0.4c0.2,0.8,0.3,1.6,0.4,2.5
			c0.1,0.4,0.1,0.8,0.2,1.2c0.2,0.5,0.3,1.1,0.4,1.6c0.2,1.1,0.6,2.1,0.8,3.1c0.3,1.3,0.8,2.5,1.3,3.8c0.3,0.8,0.6,1.6,1.1,2.3
			c0.5,0.7,0.9,1.4,1.5,2.1c0.6,0.8,1.1,1.4,2,1.8c0.2,0.1,0.3,0.2,0.4,0c0.1-0.1,0.3-0.1,0.3-0.2c1-1.1,2.2-2,2.8-3.4
			c0.4-0.8,0.8-1.5,1.1-2.3c0.3-0.8,0.7-1.5,0.9-2.3c0.2-0.5,0.4-1,0.5-1.6c0.1-0.5,0.1-1,0.5-1.5c0.2-0.2-0.1-0.6,0.2-0.8
			c-0.2-0.8,0.3-1.4,0.4-2.1c0.1-0.7,0.3-1.4,0.4-2.1c0.3-1.2,0.4-2.5,0.7-3.7c0.2-1,0.2-2,0.6-3c0-0.1,0-0.2,0-0.3c0.1-1,0-2,0.2-3
			c0.2-0.9,0-1.8,0.2-2.7c0.3-1.1,0.1-2.1,0.2-3.2c0-1.1,0.1-2.2,0-3.3c-0.1-1-0.4-1.8-1.3-2.4c-0.4-0.3-0.8-0.7-1.3-0.9
			c-0.7-0.2-1.4-0.2-2.1-0.2c-0.6,0-1-0.2-1.3-0.6c-0.4-0.5-0.2-1.1,0.4-1.3c0.9-0.3,1.6-0.3,2.7,0c0.2,0,0.4,0,0.6,0
			c4.1,0,8.2,0,12.3,0c1.7-0.4,3.4-0.2,5.1-0.2c0.4,0,0.7,0.5,0.5,0.9c-0.3,0.7-0.8,1-1.6,1c-0.6,0-1.3,0.1-1.9,0.2
			c-0.2,0.1-0.6,0.4-0.6,0.6c-0.1,0.6-0.4,1.2-0.5,1.9c-0.1,0.8-0.1,1.6-0.2,2.3c0,0.4-0.1,0.9-0.2,1.3c-0.1,0.4,0.1,0.9-0.2,1.3
			c-0.2,0.3,0.2,0.9-0.2,1.3c0,0,0,0.1,0,0.2c0.1,0.7-0.2,1.3-0.2,1.9c0,0.6-0.2,1.2-0.4,1.7c-0.1,0.4,0.2,0.8-0.2,1.2
			c0.1,1.1-0.6,2.1-0.7,3.2c0,0.5-0.4,1-0.5,1.6c-0.3,1.6-1,3.1-1.6,4.6c-0.5,1.3-1.1,2.5-1.8,3.7c-0.6,1-1.1,1.9-1.8,2.9
			c-0.5,0.8-1.1,1.5-1.6,2.3c-0.5,0.6-0.9,1.3-1.4,1.8c-0.5,0.5-1.1,1-1.4,1.6c-0.2,0.3-0.6,0.5-0.9,0.8c-0.9,0.8-1.7,1.6-2.6,2.4
			c-0.9,0.7-1.8,1.6-2.9,2.2c-0.4,0.2-0.8,0.5-1.1,0.8c-0.2,0.2-0.3,0.3-0.6,0c-0.4-0.3-0.8-0.5-1.2-0.8c-0.7-0.5-1.5-1-2.2-1.6
			c-0.4-0.3-0.8-0.7-1.2-1c-0.6-0.6-1.2-1.3-1.9-1.8c-0.7-0.5-1.3-1-1.7-1.7c-0.2-0.3-0.5-0.6-0.8-0.8c-0.9-0.9-1.6-2-2.3-2.9
			c-0.7-0.9-1.3-1.9-2-2.9c-0.2-0.3-0.3-0.7-0.5-1c-0.2-0.4-0.4-0.9-0.7-1.3c-0.3-0.4-0.3-0.9-0.7-1.3c-0.1-0.1-0.1-0.4-0.2-0.6
			c-0.3-0.7-0.6-1.4-0.9-2.2c-0.4-1.2-0.9-2.3-1.1-3.5c-0.1-0.4-0.3-0.7-0.4-1.1c-0.2-0.9-0.4-1.8-0.6-2.7c-0.2-1.1-0.6-2.3-0.6-3.4
			c-0.4-0.5,0-1-0.2-1.5c-0.2-0.5-0.1-0.9-0.2-1.4c-0.1-0.4-0.2-0.9-0.2-1.3c0-0.4,0.1-0.9-0.2-1.3c0,0,0-0.1,0-0.1
			c0.2-1-0.3-1.9-0.2-2.9c0-0.7-0.2-1.3-0.5-2c-0.2-0.3-0.4-0.5-0.6-0.5c-0.5-0.2-1.1-0.2-1.7-0.2c-0.7,0-1.2-0.4-1.6-0.9
			c-0.1-0.2-0.1-0.5,0-0.8c0-0.1,0.3-0.2,0.5-0.3C311.6,133.1,312.3,133.1,313,133.1z"/>
		<path class="st0" d="M562,152.9c0,5.8,0,11.7,0,17.5c0,0.2-0.1,0.6,0,0.7c0.4,0.6,0.1,1.3,0.5,1.9c0.5,0.8,1.1,1.2,2,1.4
			c0.9,0.3,1.8,0.2,2.8,0.2c0.5,0,0.9,0,1.4,0c0.4,0,0.8,0.2,0.9,0.5c0.1,0.3,0,0.7-0.1,1.1c0,0.1-0.2,0.2-0.3,0.2
			c-0.2,0-0.4,0-0.6,0c-7.9,0-15.7,0-23.6,0c-0.1,0-0.1,0-0.2,0c-0.8,0-0.8-0.1-0.9-0.7c0-0.6,0.3-1,0.9-1c0.7-0.1,1.5,0,2.2-0.2
			c0.7-0.2,1.4-0.3,2.1-0.6c1.1-0.5,1.6-0.8,1.9-1.9c0.1-0.4,0.2-0.8,0.2-1.3c0-11.5,0-23,0-34.5c0-0.6-0.2-1-0.4-1.5
			c-0.3-0.5-0.7-0.9-1.4-0.8c-1.7,0.1-3.4,0-5.2,0c-1.2,0-2.4,0.2-3.5,0.6c-0.7,0.2-1.1,0.7-1.5,1.2c-0.9,1.2-1.7,2.4-2.5,3.7
			c-0.6,0.9-1.2,1.8-1.8,2.7c-0.8,1.2-1.6,2.4-2.4,3.5c-0.2,0.3-0.5,0.5-0.8,0.6c-0.7,0.2-1.1-0.2-1.2-0.9c0-0.5-0.2-1,0.2-1.5
			c0.1-0.2,0-0.5,0-0.8c0-0.3,0.2-0.5,0.2-0.8c0.1-0.7,0.1-1.4,0.2-2c0.2-0.6,0.1-1.2,0.2-1.8c0.2-0.7,0.1-1.4,0.2-2.1
			c0.1-0.7,0.3-1.5,0.5-2.2c0.1-0.2,0.1-0.4,0.1-0.6c0.4-1.9,1.8-2.5,3.4-2.1c0.2,0,0.3,0.1,0.5,0.1c2.7,0.1,5.4,0.1,8.1,0.2
			c0.9,0,1.8-0.1,2.6,0c1.9,0.3,3.9,0.1,5.8,0.2c2,0,3.9,0,5.9,0c0.9,0,1.7-0.3,2.7-0.2c0.9,0.1,1.8,0.2,2.6,0
			c1.2-0.3,2.4,0,3.6-0.2c1.1-0.2,2.3,0,3.4-0.2c1.3-0.3,2.6-0.1,3.9-0.2c1.3,0,2.7,0,4,0c0.4,0,1.1,0.5,1.1,0.9
			c0,0.7,0.5,1.2,0.4,1.9c-0.1,0.7,0.3,1.3,0.2,2c0,0.3,0.1,0.6,0.2,0.9c0.1,0.3-0.1,0.6,0.2,0.9c0.1,0.1,0,0.3,0,0.4
			c0.1,0.7,0,1.5,0.2,2.2c0.2,0.7,0.2,1.4,0.6,2.1c0.2,0.4,0.3,0.9,0.3,1.5c0,0.3,0,0.7,0,1.1c0,0.4,0,0.7-0.5,1
			c-0.6,0.3-0.8-0.2-1.2-0.2c-0.1,0-0.3-0.4-0.4-0.5c-0.5-0.7-0.7-1.6-1.3-2.3c-0.5-0.6-1-1.3-1.4-1.9c-1.2-1.6-2.2-3.3-3.4-4.9
			c-0.6-0.8-1.4-1.5-2.3-2.1c-0.1-0.1-0.3-0.1-0.4-0.1c-0.3,0-0.6-0.1-0.9-0.2c-0.2-0.1-0.6,0.1-0.8,0.2c-0.3,0-0.6,0-0.9,0
			c-1.9-0.1-3.7,0.2-5.6,0.2c-0.4,0-0.8,0.4-0.8,0.9c0,0.2,0,0.4,0,0.6C562,141.4,562,147.2,562,152.9z"/>
		<path class="st0" d="M444.1,176.5c-5.9,0-11.8,0-17.7,0c-0.3,0-0.7,0.1-0.9-0.3c-0.1-0.2-0.5-0.2-0.3-0.5c0.2-0.4,0.3-0.8,0.9-0.9
			c0.6,0,1.2-0.1,1.8,0c0.9,0.1,1.8-0.2,2.7-0.2c0.8,0,1.7-0.9,1.9-1.9c0.1-0.4,0.2-0.8,0.3-1.2c0.3-1.3,0-2.6,0.2-3.8
			c0.2-1.2,0.1-2.4,0.2-3.6c0-1.2,0-2.5,0-3.7c0-7.9,0-15.8,0-23.7c0-0.6-0.2-1.1-0.2-1.7c0-0.1-0.1-0.2-0.1-0.3
			c-0.8-1-1.8-1.4-3-1.4c-0.9,0-1.9,0-2.8,0c-0.4,0-0.8-0.1-1.1-0.4c-0.1-0.1-0.3-0.3-0.3-0.5c0-0.2,0.1-0.6,0.3-0.7
			c0.4-0.2,0.8-0.5,1.3-0.5c3,0,6,0,8.9,0c1.2,0.4,2.5,0.2,3.7,0.2c1.2,0,2.5,0.2,3.7,0c1.2-0.2,2.5-0.1,3.7-0.2c1.2,0,2.5,0,3.7,0
			c0.4,0,0.7,0.1,0.9,0.4c0.2,0.2,0.5,0.5,0.3,0.8c-0.2,0.4-0.5,0.7-0.9,0.7c-1,0.1-1.9,0.1-2.9,0.2c-1.1,0.1-2.1,0.3-3.2,0.4
			c-0.6,0.1-1.1,0.8-1.2,1.6c0,0.2,0,0.4,0,0.6c0,11.9,0,23.9,0,35.8c0,0.8,0.2,1.5,0.7,2.1c0.3,0.4,0.9,0.7,1.5,0.7
			c1.6,0,3.3,0.1,4.9,0c0.7,0,1.4-0.3,2.1-0.5c0.5-0.1,1.1-0.3,1.6-0.6c0.5-0.3,1-0.6,1.4-0.8c0.1,0,0.1,0,0.2-0.1
			c0.7-0.6,1.5-1.2,2.1-1.9c1.2-1.3,2.4-2.7,3.4-4.2c0.4-0.6,0.8-1.2,1.2-1.8c0.4-0.6,0.9-1.1,1.2-1.7c0.4-0.6,0.8-1.2,1.3-1.7
			c0.6-0.6,1.3-0.9,2-1.2c0.1-0.1,0.8,0.2,0.8,0.3c0.1,0.6,0.2,1.1,0.2,1.7c-0.1,0.9-0.2,1.7-0.5,2.5c-0.2,0.5,0.1,1.1-0.3,1.5
			c0.1,1-0.3,1.9-0.4,2.8c-0.2,1.1-0.3,2.2-0.7,3.2c-0.2,0.4,0.2,0.9-0.3,1.1c-0.2,0.9-0.6,1.7-1,2.4c-0.2,0.3-0.3,0.4-0.6,0.4
			c-0.5,0-0.9,0.3-1.4,0.2c-0.5-0.1-0.9,0.3-1.4,0.2c-0.5-0.1-1,0-1.5,0C454.9,176.5,449.5,176.5,444.1,176.5z"/>
		<path class="st0" d="M605.5,153.9c0,5.4,0,10.8,0,16.2c0,1.1,0.2,2,0.8,3c0.5,0.8,1.3,1.3,2.3,1.5c1.1,0.2,2.2,0.1,3.3,0.2
			c0.5,0,0.8,0.3,0.8,0.9c0,0.6-0.2,0.8-0.8,0.8c-7.8,0-15.6,0-23.5,0c-0.3,0-0.6,0.1-0.7-0.2c-0.1-0.4-0.1-0.8,0-1.2
			c0-0.1,0.3-0.2,0.5-0.2c0.6,0,1.1-0.1,1.7,0c0.7,0.1,1.5-0.1,2.1-0.3c0.6-0.2,1.3-0.5,1.6-1.1c0.5-0.7,0.8-1.6,0.9-2.5
			c0.3-1.2,0.2-2.5,0.2-3.7c0-9.8,0-19.5,0-29.3c0-1.1-0.3-2.1-0.7-3.1c-0.3-0.9-1-1.4-2-1.7c-0.4-0.1-0.8-0.2-1.3-0.2
			c-0.9,0-1.8,0-2.6,0c-0.6,0-1-0.7-0.8-1.2c0.2-0.4,0.4-0.7,1-0.7c7.8,0,15.6,0,23.4,0c0.1,0,0.3,0,0.4,0c0.3,0,0.4,0.2,0.4,0.5
			c0,0.2,0,0.5,0,0.7c-0.1,0.5-0.2,0.7-0.8,0.7c-1,0-2,0-2.9,0c-0.7,0-1.2,0.3-1.7,0.6c-0.6,0.4-1,0.8-1.1,1.5
			c-0.1,0.4-0.3,0.7-0.4,1.1c-0.2,0.7-0.2,1.3-0.2,2C605.5,143.5,605.5,148.7,605.5,153.9z"/>
		<path class="st0" d="M123.8,181.5c-0.1,0.9-0.2,1.8-0.3,2.7c0,0.9,0.1,1.9,0,2.8c-0.3,1.3-0.1,2.6-0.2,3.9
			c-0.1,1.8-0.3,3.6-0.2,5.4c0,0.2-0.2,0.4-0.1,0.5c0.3,0.3-0.2,0.4-0.1,0.6c0.1,0.2,0,0.4,0,0.6c0,0.3-0.1,0.6,0.2,0.8
			c0.1,0,0.1,0.2,0,0.3c-0.4,0.5-0.1,1-0.2,1.5c-0.1,0.5-0.2,1-0.2,1.5c0,0.3-0.1,0.7,0.2,1c0.1,0.2,0.1,0.6,0,0.8
			c-0.5,0.6,0.1,1.4-0.4,1.9c0.6,0.9-0.2,1.7,0,2.6c0.1,0.9,0.2,1.8,0,2.7c-0.3,1.7,0,3.5-0.2,5.2c-0.2,1.5-0.1,2.9-0.2,4.3
			c0,0.5-0.3,1-0.2,1.6c0,0-0.1,0.1-0.1,0.1c-0.1,0-0.2,0-0.3-0.1c-0.2-0.4-0.4-0.9-0.6-1.3c-0.5-1.1-0.8-1.2-1.9-1.8
			c-0.5-0.2-1-0.6-1.4-1c-0.1-0.1-0.1-0.2-0.1-0.3c0.1-0.7-0.2-1.4,0.2-2.1c0-0.1,0-0.2,0-0.3c0.1-0.7,0.1-1.5,0.2-2.2
			c0-0.3,0.1-0.5,0.2-0.8c0.1-0.3,0.2-0.6,0.2-1c0-0.3,0.1-0.6,0.1-0.9c0-0.3,0-0.7,0.1-1c0.2-0.4,0.2-0.8,0.2-1.2
			c0-0.3,0.3-0.6,0.1-1c0.3-0.4,0-0.8,0.2-1.2c0.4-1,0.2-2.2,0.6-3.2c0.2-0.7,0.1-1.4,0.3-2.1c0.2-0.7,0.1-1.5,0.4-2.3
			c0-0.1,0-0.2,0-0.3c-0.2-0.6,0.3-1.2,0.2-1.8c0-0.6,0.2-1.2,0.4-1.7c0.1-0.5,0.1-1.1,0.2-1.6c0.2-0.8,0.2-1.7,0.2-2.5
			c0-0.4,0.1-0.7,0.2-1.1c0.1-0.4,0-0.7,0.2-1.1c0.2-0.4,0.1-1,0.2-1.5c0.1-0.7,0.2-1.4,0.4-2.1c0.1-0.3,0-0.6,0-0.8
			c0-0.4-0.1-0.9,0.2-1.3c0.2-0.3-0.1-0.8,0.2-1.2c0.2-0.2,0-0.6,0-0.9c0-0.4,0.2-0.7,0.4-1c0.1-0.1,0.3-0.1,0.5-0.1
			c0.1,0,0.1,0.2,0.1,0.3C123.7,180.5,123.7,181,123.8,181.5C123.7,181.5,123.7,181.5,123.8,181.5z"/>
		<path class="st0" d="M122.9,95.2c0,0.5-0.1,1.1,0,1.6c0.3,1.6,0,3.2,0.2,4.7c0.2,1.5,0.1,2.9,0.2,4.3c0,0.3,0.1,0.6,0.2,1
			c0.1,0.3-0.2,0.6-0.2,0.9c0,0.2,0.2,0.5,0.2,0.8c-0.2,2.7,0.3,5.4,0.2,8.1c0.4,1.5,0,3,0.2,4.5c0.2,1.3,0.1,2.6,0.2,3.9
			c0.1,0.8,0.2,1.7,0.2,2.5c0,0.8-0.1,1.7,0,2.5c0.3,1.2,0.1,2.3,0.2,3.5c0,0.1,0.1,0.4-0.2,0.4c-0.2,0-0.4,0-0.5-0.2
			c-0.2-0.3-0.4-0.6-0.3-1c0-0.4,0-0.8-0.2-1.2c-0.1-0.3,0.1-0.7-0.2-1.1c-0.1-0.1,0-0.3,0-0.5c0-0.5,0.1-1-0.1-1.4
			c-0.2-0.4,0-0.8-0.3-1.3c-0.2-0.3-0.1-0.9-0.2-1.4c-0.2-0.6-0.1-1.3-0.3-2c-0.1-0.6-0.1-1.3-0.2-1.8c-0.2-0.6,0-1.2-0.2-1.8
			c-0.3-0.9-0.3-1.9-0.6-2.8c-0.2-0.7-0.1-1.5-0.3-2.2c-0.2-1-0.2-2-0.6-2.9c-0.1-0.2,0.3-0.4,0-0.7c0.1-0.7-0.2-1.4-0.2-2.1
			c0-0.3-0.1-0.6-0.2-1c-0.1-0.3,0.1-0.6-0.2-0.9c0,0,0-0.1,0-0.1c0.2-0.7-0.2-1.4-0.2-2.1c0-0.5,0-0.9-0.2-1.4
			c-0.2-0.4,0-0.8-0.2-1.3c-0.2-0.5-0.1-1.1-0.2-1.7c-0.3-1-0.3-2.1-0.5-3.1c-0.1-0.8-0.1-1.5-0.2-2.2c0-0.2,0-0.4,0.2-0.5
			c0.4-0.4,0.6-0.5,1.5-0.9c0.8-0.4,1.3-0.9,1.7-1.8c0.2-0.4,0.4-0.8,0.6-1.2c0-0.1,0.1-0.2,0.2-0.2c0.1,0,0.2,0.1,0.2,0.2
			c0.1,1,0.2,1.9,0.2,2.9C122.9,94.6,122.9,94.9,122.9,95.2z"/>
		<path class="st0" d="M139.7,138.7c0.1-0.2,0.1-0.4,0.2-0.5c0.7-0.8,1.4-1.6,2-2.4c0.7-0.9,1.5-1.7,2.1-2.7
			c0.4-0.5,0.9-0.9,1.3-1.5c0.5-0.8,1.1-1.4,1.7-2.2c0.3-0.3,0.6-0.6,0.9-1c1-1.3,2-2.6,3-3.9c0.5-0.6,1-1.2,1.6-1.8
			c0.7-0.8,1.3-1.5,1.9-2.4c0.6-0.9,1.3-1.8,2-2.6c0.3-0.3,0.5-0.7,0.8-0.9c0.2-0.3,0.7-0.4,0.8-0.7c0.1-0.4,0.4-0.6,0.6-0.8
			c0.2-0.3,0.5-0.6,0.7-1c0.2-0.3,0.5-0.6,0.7-1c0.9-1.3,2.1-2.4,2.9-3.7c0.2-0.4,0.7-0.4,0.9-0.9c0.4,0,0.9,0,1.3,0.1
			c0.5,0.1,0.9,0.3,1.4,0.5c0.4,0.2,1.1,0,1.6,0c0.4-0.1,0.9-0.3,1.3-0.4c0.2,0,0.4,0,0.6,0c0.1,0,0.4,0.1,0.1,0.4
			c-0.3,0.3-0.6,0.6-1,1c-2.1,2.1-4.2,4.2-6.3,6.2c-0.3,0.3-0.5,0.9-1,1c-0.1,0.5-0.9,0.5-0.9,1.1c-0.6,0.2-0.9,0.8-1.3,1.2
			c-0.4,0.4-0.8,0.9-1.2,1.3c-0.4,0.4-0.8,0.8-1.3,1.3c-0.4,0.4-0.9,0.9-1.3,1.4c-0.2,0.2-0.5,0.2-0.6,0.6c-0.1,0.3-0.4,0.7-0.7,0.7
			c-0.4,0-0.2,0.6-0.6,0.5c-0.8,1.3-2.1,2.2-3.1,3.3c-1.1,1.1-2.2,2.2-3.3,3.3c-1,1-2,2.2-3,3.2c-1.3,1.2-2.6,2.4-3.9,3.7
			c-0.1,0-0.1,0.1-0.2,0.1c-0.2,0-0.3,0.1-0.5,0.1C139.7,139,139.7,138.8,139.7,138.7z"/>
		<path class="st0" d="M128.1,219.1c-0.1-0.2,0.2-0.7,0.1-1.1c-0.1-0.4-0.1-0.9,0-1.4c0-0.6-0.4-1.2-0.2-1.8
			c0.1-0.2-0.1-0.5,0.2-0.7c0.1-0.1,0.1-0.3,0.1-0.4c-0.4-0.5-0.1-1.1-0.2-1.6c0-0.3,0.1-0.5-0.2-0.8c-0.1-0.2-0.1-0.5,0.2-0.6
			c-0.2-0.2-0.2-0.4-0.2-0.6c0-0.4,0.2-0.7,0-1.1c-0.1-0.3,0-0.8,0-1.1c0-0.4,0-0.8,0-1.3c0-0.4,0-0.8,0-1.2c0-0.8-0.3-1.5-0.2-2.3
			c0.1-0.8,0.2-1.6,0-2.4c-0.3-1.3-0.1-2.5-0.2-3.8c-0.1-0.7-0.2-1.5-0.2-2.2c0-0.8,0.1-1.6,0-2.3c-0.2-1.1-0.1-2.1-0.2-3.2
			c0-1.1,0-2.2,0-3.3c0-0.9-0.3-1.7-0.2-2.7c0.1-0.9,0-1.8,0-2.6c0-0.2,0-0.4,0-0.6c0-0.1,0.1-0.3,0.2-0.3c0.1,0,0.4,0,0.4,0.1
			c0.1,0.2,0.2,0.4,0.2,0.6c0.1,0.4,0,0.9,0.2,1.3c0.2,0.4,0,0.8,0.2,1.3c0.1,0.2,0,0.6,0,0.9c0,0.3,0.2,0.5,0.2,0.8
			c0.1,1.2,0.6,2.4,0.4,3.7c0.3,0.9,0.2,1.8,0.6,2.7c0,0.1,0,0.2,0,0.3c0,0.5,0,0.9,0.2,1.4c0.1,0.4-0.1,0.9,0.2,1.4
			c0.1,0.1,0,0.3,0,0.4c0,0.5,0.1,0.9,0.2,1.4c0.1,0.4,0,0.8,0.2,1.3c0.2,0.6,0.2,1.3,0.3,2c0.1,0.5,0.1,1.1,0.3,1.6
			c0.1,0.3,0.1,0.6,0.1,0.9c0.1,0.5-0.1,0.9,0.2,1.4c0.2,0.3,0,0.8,0.2,1.3c0.2,0.5,0.1,1,0.2,1.6c0.2,0.7,0.2,1.5,0.2,2.2
			c0,0.3,0.1,0.6,0.2,1c0.1,0.3-0.1,0.6,0.2,0.9c0.1,0.1,0,0.3,0,0.4c0.1,0.6,0.2,1.2,0.2,1.8c0,0.6,0.4,1.1,0.2,1.7
			c0.4,0.5,0,1,0.2,1.5c0.2,0.5,0.1,1,0.2,1.5c0,0.1-0.1,0.3,0,0.4c0.4,0.6,0,1.1-0.5,1.3c-0.3,0.2-0.7,0.4-1,0.5
			c-0.7,0.3-1.3,0.6-1.6,1.3c-0.2,0.4-0.4,0.9-0.7,1.3c-0.1,0.1-0.1,0.3-0.2,0.3c-0.1,0.1-0.2,0.1-0.4,0.2c0,0-0.1-0.2-0.1-0.2
			C128.5,221.2,128.2,220.3,128.1,219.1z"/>
		<path class="st0" d="M126.6,131.6c0-0.5-0.1-1,0-1.5c0.4-2.6,0.1-5.3,0.2-7.9c0.4-1.3,0-2.7,0.2-4c0.3-1.5,0-2.9,0.2-4.3
			c0.2-1.5,0-2.9,0.2-4.3c0.3-2,0.1-3.9,0.2-5.9c0-1.1,0.4-2.2,0.2-3.3c0.3-0.5,0.2-0.9,0-1.4c-0.1-0.4-0.2-0.9,0.1-1.3
			c0.1-0.1,0-0.4,0-0.6c0-0.3,0-0.6,0-0.9c0-0.3-0.1-0.6,0.2-0.8c-0.3-0.2-0.2-0.6-0.2-0.9c0-1,0.3-2,0.2-3.1c0-0.1,0.1-0.1,0.2-0.2
			c0,0,0.1,0,0.2,0.1c0.1,0.2,0.3,0.4,0.4,0.6c0.1,0.3,0.2,0.7,0.5,0.9c0,0.8,0.8,1,1.3,1.4c0.3,0.3,0.8,0.3,1.1,0.5
			c0.3,0.1,0.6,0.3,0.7,0.5c0.1,0.2,0.6,0.5,0.1,0.9c0,0,0,0.2,0,0.3c0.2,0.9-0.1,1.8-0.3,2.6c-0.2,1.1-0.2,2.2-0.6,3.2
			c-0.2,0.5-0.1,1.1-0.2,1.7c-0.1,0.6-0.3,1.2-0.3,1.8c0,0.6-0.1,1.2-0.2,1.7c-0.3,1.1-0.1,2.2-0.6,3.2c-0.1,0.1,0,0.3,0,0.5
			c0,0.9-0.1,1.7-0.4,2.6c-0.1,0.2,0,0.4,0,0.6c0,0.3,0,0.7-0.2,1c-0.1,0.3,0.1,0.6-0.2,0.9c0,0-0.1,0.1-0.1,0.2
			c-0.1,0.8-0.1,1.7-0.2,2.5c0,0.4-0.1,0.7-0.2,1.1c-0.1,0.4,0.2,0.8-0.2,1.1c-0.1,0.1,0,0.3,0,0.4c-0.1,0.4,0.1,0.7-0.2,1.1
			c-0.2,0.3,0.1,0.8-0.2,1c0.1,0.6-0.2,1.1-0.2,1.7c0,0.9-0.1,1.9-0.4,2.8c-0.2,0.6-0.1,1.4-0.3,2c-0.1,0.6-0.1,1.3-0.4,1.9
			c-0.1,0.2-0.1,0.5,0,0.7c0.1,0.5-0.2,0.7-0.5,1c-0.1,0.1-0.2,0.1-0.3,0.1c-0.1,0-0.1-0.2-0.1-0.2
			C126.6,133,126.6,132.3,126.6,131.6z"/>
		<path class="st0" d="M140.1,174.6c0.2,0,0.3,0,0.5,0.2c0.3,0.5,0.8,0.9,1.3,1.4c0.4,0.4,0.7,0.9,1.3,1.1c0.2,0.1,0.4,0.3,0.5,0.5
			c1.5,1.5,2.9,3.1,4.4,4.6c0.4,0.4,0.8,0.7,1.2,1.2c0.4,0.5,0.8,0.9,1.3,1.3c0.4,0.4,0.8,0.8,1.3,1.3c0.4,0.4,0.8,0.8,1.3,1.3
			c0.4,0.4,0.9,0.8,1.3,1.3c0.3,0.3,0.7,0.6,0.8,1c0.5,0.1,0.7,0.6,1.1,0.9c0.3,0.3,0.7,0.6,1,1c0.3,0.3,0.6,0.6,1,1
			c0.3,0.3,0.5,0.6,0.8,0.8c0.2,0.2,0.4,0.5,0.7,0.8c0.3,0.3,0.8,0.5,1,0.9c0.2,0.4,0.5,0.6,0.9,0.9c0.3,0.3,0.5,0.7,0.8,1
			c2.3,2.3,4.7,4.7,7,7c0.1,0.1,0.3,0.2,0.4,0.3c0.3,0.2,0.3,0.4,0,0.5c-0.2,0.1-0.4,0.1-0.6,0c-0.7-0.2-1.4-0.6-2.2-0.6
			c-0.4,0-0.8,0.1-1.2,0.3c-0.7,0.3-1.4,0.4-2.2,0.4c-0.1,0-0.2-0.1-0.2-0.2c-0.1-0.1-0.2-0.3-0.3-0.4c-0.5-0.5-1-1.1-1.5-1.7
			c-1-1.3-2-2.6-3.1-3.8c-0.1-0.6-0.9-0.7-0.8-1.4c0-0.1,0-0.2-0.1-0.2c-0.9-0.3-1.2-1.3-1.8-1.9c-0.6-0.6-1.1-1.3-1.6-2.1
			c-0.6-0.9-1.4-1.7-2.1-2.5c-0.5-0.7-1-1.4-1.6-2c-0.6-0.6-1.1-1.3-1.6-2c-0.3-0.5-0.7-0.9-1.1-1.3c-0.5-0.6-1.1-1.2-1.6-1.9
			c-0.5-0.6-0.9-1.2-1.3-1.8c-0.4-0.6-0.9-1.2-1.3-1.8c-0.8-0.9-1.4-1.9-2.2-2.8c-0.3-0.3-0.5-0.7-0.8-1c-0.3-0.3-0.5-0.7-0.8-0.9
			c-0.1-0.1-0.2-0.4-0.2-0.5C139.6,174.7,139.8,174.6,140.1,174.6z"/>
		<path class="st0" d="M85.9,205c-0.6-0.2-1.1-0.3-1.7-0.5c-0.9-0.4-1.8-0.2-2.7,0.2c-0.3,0.1-0.6,0.4-1,0.2c-0.1,0-0.3-0.1-0.3-0.2
			c0-0.1,0-0.2,0.1-0.3c0.7-0.7,1.3-1.3,2-1.9c0.4-0.3,0.7-0.6,1-1c0.2-0.4,0.6-0.5,0.9-0.9c0.3-0.3,0.6-0.6,0.8-1
			c0.1-0.2,0.3-0.4,0.5-0.5c1.8-1.8,3.5-3.5,5.3-5.3c0.3-0.3,0.6-0.6,0.8-1c0.2-0.3,0.5-0.4,0.7-0.8c0.2-0.4,0.7-0.7,1-1
			c0.4-0.3,0.5-0.8,1-1c0.4-0.1,0.7-0.6,1.1-1c0.4-0.4,0.8-0.7,1.1-1.1c0.7-0.8,1.4-1.5,2.1-2.3c0.3-0.3,0.7-0.5,0.9-0.9
			c0.2-0.4,0.6-0.6,0.9-0.9c0.3-0.3,0.6-0.6,1-1c0.3-0.3,0.6-0.6,1-1c0.3-0.3,0.6-0.6,0.9-0.9c0.3-0.3,0.6-0.7,1-1
			c0.3-0.3,0.5-0.7,0.9-0.9c0.3-0.2,0.7-0.6,0.9-1c0.2-0.3,0.5-0.5,0.8-0.8c1-0.9,1.9-1.9,2.9-2.8c0.1-0.1,0.4-0.1,0.6-0.1
			c0,0,0.1,0.2,0.1,0.3c0,0.2,0,0.4-0.1,0.6c-0.4,0.6-0.8,1.2-1.3,1.7c-0.8,0.8-1.4,1.7-2.1,2.5c-0.9,1.3-2.1,2.4-2.9,3.7
			c-0.4,0.6-1,1.1-1.5,1.7c-0.7,0.8-1.4,1.7-2,2.6c-0.3,0.4-0.6,0.8-0.9,1.1c-0.2,0.3-0.4,0.6-0.7,0.9c-0.9,0.9-1.6,2-2.4,2.9
			c-0.7,0.8-1.3,1.6-1.9,2.4c-0.4,0.6-0.8,1.1-1.3,1.7c-1,1.2-2,2.5-2.9,3.7c-0.5,0.7-1.1,1.2-1.6,1.9c-0.2,0.3-0.4,0.5-0.6,0.8
			c-0.2,0.2-0.3,0.5-0.5,0.7c-0.2,0.3-0.5,0.5-0.7,0.8C86.7,204.9,86.3,205,85.9,205z"/>
		<path class="st0" d="M111.3,138.7c0,0.1-0.1,0.4-0.1,0.4c-0.2,0-0.5,0-0.6-0.1c-0.4-0.5-0.9-0.9-1.3-1.3c-0.6-0.6-1.1-1.3-1.9-1.7
			c-0.5-1-1.5-1.6-2.2-2.4c-1.1-1.1-2.2-2.2-3.3-3.3c-0.3-0.3-0.5-0.5-0.7-0.8c-0.2-0.3-0.6-0.4-0.8-0.8c-0.1-0.3-0.7-0.3-0.7-0.8
			c-0.8-0.2-1-1.2-1.6-1.6c-0.6-0.5-1.1-1.1-1.7-1.7c-0.4-0.4-0.7-0.8-1.2-1.1c-0.4-0.2-0.5-0.6-0.9-0.9c-0.3-0.2-0.7-0.5-0.8-0.8
			c-0.2-0.4-0.6-0.5-0.7-0.9c-0.5-0.1-0.6-0.7-0.9-1c-0.4-0.3-0.7-0.7-1-1c-0.3-0.3-0.7-0.7-1-1c-1.2-1.2-2.3-2.3-3.5-3.5
			c-0.5-0.5-0.9-1-1.3-1.5c-0.2-0.3-0.6-0.2-0.7-0.6c-0.1-0.3-0.5-0.5-0.7-0.8c-0.2-0.3-0.7-0.2-0.7-0.6c-0.7-0.4-1.2-1.1-1.8-1.6
			c-0.3-0.2,0-0.3,0.1-0.4c0.3-0.1,0.5-0.1,0.9,0c0.7,0.4,1.4,0.6,2.2,0.5c0.6-0.1,1.2-0.2,1.7-0.5c0.5-0.2,0.9-0.1,1.3-0.1
			c0.1,0,0.3,0.2,0.4,0.3c0.8,0.8,1.5,1.7,2.2,2.6c0.6,0.8,1.2,1.4,1.8,2.2c0.5,0.7,1.3,1.3,1.6,2.2c0.1,0.2,0.3,0.4,0.5,0.5
			c0.9,0.9,1.7,2,2.5,3.1c0.4,0.5,0.9,0.9,1.3,1.5c0.8,1.1,1.7,2.2,2.6,3.2c0.6,0.8,1.4,1.6,2,2.4c1.1,1.6,2.6,3,3.7,4.7
			c0.3,0.5,0.8,1,1.3,1.5c0.7,0.9,1.4,1.8,2.1,2.7c0.4,0.5,0.8,0.9,1.2,1.4c0.3,0.4,0.7,0.8,1,1.2
			C111.2,138.3,111.3,138.5,111.3,138.7z"/>
		<path class="st0" d="M143.2,142.2c-0.1-0.1-0.3-0.1-0.3-0.2c0-0.1,0.1-0.3,0.2-0.3c1.6-1.7,3.2-3.4,4.8-5c0.3-0.3,0.5-0.7,1-0.8
			c0.1,0,0.2-0.3,0.3-0.4c0.1-0.1,0.1-0.2,0.2-0.3c0.4-0.4,1-0.6,1.3-1.1c0.2-0.4,0.6-0.8,1-1c0.5-0.4,1-0.9,1.5-1.4
			c3-3,6-5.9,8.9-8.9c0.4-0.4,0.8-0.6,1.1-1.1c0.3-0.4,0.7-0.8,1.1-1.1c2.4-1.9,4.3-4.2,6.5-6.3c0.3-0.3,0.4-0.8,0.8-0.9
			c0.4-0.2,0.6-0.5,0.9-0.8c0.1-0.1,0.3-0.2,0.4-0.3c0.1,0,0.3,0,0.4,0c0,0.1-0.1,0.1-0.1,0.2c-0.1,0.4-0.2,0.7-0.4,1.1
			c-0.2,0.3,0.1,0.7-0.2,1.1c-0.1,0.2,0.1,0.4,0.2,0.6c0,0.5,0.1,1,0.4,1.4c0.2,0.4,0,0.9,0.3,1.3c0.1,0.1-0.5,1.1-0.7,1.2
			c-0.7,0.4-1.2,0.9-1.8,1.4c-0.8,0.6-1.5,1.3-2.4,1.8c-0.2,0.1-0.3,0.3-0.5,0.4c-0.5,0.6-1.2,1-1.8,1.4c-0.4,0.3-0.8,0.7-1.2,1
			c-1,0.7-1.8,1.6-2.8,2.3c-0.8,0.6-1.4,1.3-2.3,1.7c-0.7,0.9-1.7,1.4-2.5,2.1c-1.3,1.1-2.5,2.3-4,3.2c-0.4,0.2-0.5,0.7-1,0.8
			c-0.6,0.8-1.6,1.3-2.4,1.9c-1.2,0.9-2.2,2-3.5,2.7c-0.6,0.4-1.1,1-1.7,1.5c-0.3,0.3-0.6,0.5-1,0.7
			C143.6,142.2,143.4,142.2,143.2,142.2z"/>
		<path class="st0" d="M143.4,171.3c0,0,0.1,0,0.1,0.1c1.1,0.9,2.2,1.7,3.2,2.6c1.1,0.9,2.3,1.8,3.4,2.7c0.9,0.7,1.7,1.5,2.7,2.1
			c0.3,0.2,0.4,0.5,0.8,0.6c0.3,0.1,0.6,0.4,0.9,0.7c0.6,0.6,1.2,1.2,1.9,1.7c0.8,0.5,1.4,1.4,2.3,1.8c0.5,0.2,0.8,0.7,1.3,1
			c1,0.8,2,1.6,3,2.4c0.5,0.4,0.9,0.8,1.4,1.2c0.9,0.7,1.8,1.5,2.8,2.1c0.1,0.1,0.2,0.3,0.4,0.4c0.5,0.5,1,1,1.6,1.4
			c0.6,0.4,1.2,1,1.8,1.4c0.6,0.4,1,0.9,1.6,1.2c0.3,0.2,0.5,0.6,0.7,0.9c0,0,0,0.1,0,0.2c-0.1,0.5-0.2,1.1-0.4,1.6
			c-0.2,0.4,0,0.8-0.2,1.1c-0.2,0.4-0.3,0.6,0,0.9c-0.1,0.7,0.2,1.3,0.6,1.9c0,0.1,0,0.2,0,0.3c-0.1,0.1-0.2,0.1-0.3,0.1
			c-0.2-0.1-0.4-0.2-0.6-0.4c-2.2-2.2-4.5-4.5-6.7-6.7c-0.3-0.3-0.5-0.6-0.8-0.8c-0.3-0.2-0.4-0.5-0.8-0.6c-0.4-0.2-0.6-0.7-0.9-1
			c-0.2-0.2-0.5-0.4-0.7-0.6c-0.2-0.2-0.4-0.4-0.7-0.7c-4.1-4.1-8.2-8.2-12.4-12.3c-0.9-0.9-2-1.7-2.9-2.7c-1.2-1.3-2.4-2.6-3.7-3.8
			c-0.1-0.1-0.2-0.3-0.1-0.3C143,171.5,143.2,171.4,143.4,171.3z"/>
		<path class="st0" d="M76.9,201.2c0.1-0.3,0.2-0.5,0.3-0.8c0.3-0.6,0.5-1.3,0.4-1.9c-0.1-0.6-0.3-1.1-0.5-1.7
			c-0.1-0.3-0.2-0.6-0.3-0.9c0-0.2,0.1-0.4,0.2-0.6c0.4-0.5,0.9-0.9,1.4-1.3c0.8-0.7,1.7-1.3,2.5-2c0.3-0.3,0.7-0.6,1-0.8
			c0.5-0.2,0.6-0.8,1-1c0.4-0.2,0.8-0.5,1.1-0.8c0.4-0.3,0.8-0.7,1.2-1c1.1-0.8,2.1-1.8,3.2-2.6c1.3-0.9,2.4-2.1,3.7-2.9
			c0.7-0.9,1.8-1.5,2.7-2.2c1.5-1.2,2.8-2.5,4.4-3.5c0.5-0.3,0.9-0.8,1.4-1.2c1.3-1,2.6-2.1,3.9-3c0.4-0.3,0.6-0.6,1-0.9
			c0.3-0.2,0.7-0.4,0.9-0.8c0.1-0.2,0.3,0.2,0.5,0.1c0,0.1,0,0.3,0,0.3c-0.5,0.4-0.7,1.2-1.4,1.4c-0.3,0.1,0,0.6-0.5,0.5
			c-0.2,0,0,0.5-0.4,0.4c-0.8,1.3-2.1,2.2-3.1,3.3c-1,1.1-2.1,2.1-3.2,3.2c-0.3,0.3-0.7,0.5-1,0.8c-0.3,0.2-0.5,0.6-0.8,0.8
			c-0.6,0.4-0.9,1.1-1.5,1.6c-1.2,1-2.2,2.2-3.4,3.2c-0.3,0.3-0.8,0.6-0.9,1.1c0,0.1-0.1,0.2-0.2,0.2c-0.9,0.6-1.5,1.5-2.3,2.1
			c-0.9,0.7-1.7,1.6-2.5,2.4c-0.8,0.8-1.6,1.7-2.5,2.5c-1.5,1.3-2.8,2.7-4.2,4c-0.3,0.3-0.4,0.7-0.8,0.9c-0.3,0.2-0.7,0.5-0.8,0.9
			c0,0.1-0.3,0.1-0.4,0.1C77,201.5,77,201.3,76.9,201.2z"/>
		<path class="st0" d="M78.1,112c0.1,0.1,0.2,0.2,0.3,0.3c0.1,0.2,0.2,0.4,0.4,0.5c0.8,0.6,1.3,1.4,2.1,2.1c0.7,0.7,1.3,1.4,2.1,2.1
			c2.3,1.9,4.2,4.1,6.4,6.2c0.3,0.3,0.6,0.5,0.9,0.8c0.3,0.3,0.6,0.5,0.8,0.9c1,0.4,1.3,1.5,2.1,2.1c0.8,0.6,1.4,1.3,2.1,2.1
			c0.3,0.3,0.7,0.6,1,0.9c0.3,0.2,0.4,0.8,0.9,0.8c0.1,0.6,0.7,0.8,1.1,1.2c0.2,0.3,0.6,0.5,0.9,0.8c2.1,2.1,4.2,4.2,6.3,6.3
			c0.4,0.5,0.9,0.9,1.3,1.4c0.8,0.2,0.9,1,1.5,1.5c0.1,0,0.1,0.2,0,0.3c0,0.1-0.2,0.1-0.3,0.1c-0.2,0-0.5-0.1-0.6-0.2
			c-0.4-0.3-0.8-0.6-1.2-1c-0.9-0.7-1.7-1.4-2.6-2c-0.5-0.3-0.8-0.7-1.3-1c-1.2-0.9-2.3-1.9-3.5-2.8c-0.8-0.6-1.5-1.2-2.2-1.8
			c-0.8-0.6-1.5-1.3-2.3-1.8c-0.6-0.3-1-0.9-1.6-1.3c-1.2-0.9-2.2-1.8-3.4-2.7c-0.3-0.2-0.5-0.4-0.8-0.7c-1.3-1.1-2.6-2.2-3.9-3.2
			c-0.6-0.5-1.2-1.1-1.8-1.5c-1.2-0.9-2.2-1.9-3.4-2.6c-0.1-0.4-0.6-0.5-0.8-0.8c-0.8-0.8-0.8-1.2-0.4-2.3c0.3-0.6,0.5-1.3,0.4-1.9
			c-0.1-0.5-0.2-1.1-0.5-1.6c-0.1-0.2-0.2-0.4-0.1-0.7C77.8,112.2,78,112.1,78.1,112z"/>
		<path class="st0" d="M186.8,153.8c-0.5,0-1.1-0.1-1.6,0c-2.2,0.4-4.4,0.1-6.5,0.2c-0.3,0-0.8,0.3-1,0.1c-0.4-0.3-0.7,0.2-1,0.1
			c-0.3-0.1-0.7-0.1-1.1,0.2c-0.1,0.1-0.4,0-0.6,0c-0.8-0.2-0.8-0.2-1.6,0c-0.2,0-0.3,0-0.5,0c-0.4,0-0.7,0-1.1,0
			c-2.6,0.1-5.2,0.1-7.8,0.2c-1,0.3-2.1,0-3.1,0.2c-1.8,0.3-3.5,0-5.3,0.2c-2.2,0.3-4.3,0.1-6.4,0.2c-0.2,0-0.4,0-0.6,0
			c-0.2,0-0.4,0.1-0.4-0.2c0-0.1,0.2-0.3,0.3-0.4c0.1-0.1,0.2,0,0.3,0c0.4,0,0.7,0,1.1-0.2c0.3-0.2,0.7,0.1,1-0.2c0,0,0.1,0,0.2,0
			c0.5,0,1-0.1,1.5-0.2c0.4-0.1,0.9-0.1,1.4-0.2c0.7-0.2,1.5-0.2,2.3-0.2c0.2,0,0.4-0.1,0.7-0.2c0.5-0.1,1-0.4,1.5-0.3
			c0.4,0.1,0.8-0.2,1.2-0.2c0.4,0,0.8,0,1.2-0.2c0.5-0.2,1.1,0,1.7-0.2c0.4-0.1,0.8,0,1.3-0.2c0.4-0.2,0.9,0.1,1.3-0.2
			c0.1-0.1,0.3,0,0.4,0c0.4,0,0.9,0,1.3-0.2c0.3-0.2,0.8,0.2,1.2-0.2c0.1-0.1,0.3,0,0.4,0c1.2,0,2.3-0.4,3.5-0.4
			c0.3-0.3,0.8-0.2,1.2-0.2c0.4,0,0.9,0,1.3-0.3c0.1-0.1,0.2-0.1,0.4-0.1c0.5,0,0.9,0,1.4,0c0.4,0,0.7-0.3,1.2-0.2
			c0.3,0,0.6-0.1,1-0.2c0.3-0.1,0.6,0.1,0.9-0.2c0.1-0.1,0.3,0,0.4,0c0.5,0,1.1,0,1.6-0.2c0.5-0.2,1.1-0.1,1.6-0.3
			c1.2-0.3,2.5-0.3,3.7-0.5c0.1,0,0.2,0,0.2,0c0.5,0.4,0.8,0.9,1,1.6c0.2,0.5,0.9,1.4,1.3,1.7c0.6,0.3,1.2,0.6,1.7,0.9
			c0.1,0,0.1,0.2,0.1,0.3c0,0-0.1,0.1-0.1,0.1c-0.8-0.1-1.6,0.2-2.3,0.2C187.7,153.8,187.3,153.8,186.8,153.8z"/>
		<path class="st0" d="M151.5,158.4c0.6,0,1.3,0,1.9,0c1.1,0.1,2.1,0.2,3.2,0.2c1.1,0,2.2-0.1,3.3,0c1.1,0.2,2.3,0,3.4,0.2
			c1.5,0.3,2.9,0,4.3,0.2c1.2,0.2,2.5,0.2,3.7,0.2c1.3,0,2.5,0,3.8,0c0.6,0,1.1,0.3,1.7,0.2c0.3-0.1,0.6,0.2,0.9,0
			c0.3-0.1,0.6-0.1,0.9,0c1.9,0.4,3.8,0,5.7,0.2c1.4,0.2,2.8,0.1,4.1,0.2c0.3,0,0.6,0.2,1,0.2c0.3,0,0.7,0,1.1,0
			c0.1,0,0.2,0.1,0.2,0.2c0,0.1,0,0.2-0.1,0.2c-0.4,0.2-0.8,0.5-1.2,0.6c-1.1,0.4-1.6,1.3-2,2.3c-0.4,0.9-0.5,1.1-1.4,1.1
			c-1.2-0.1-2.4-0.2-3.6-0.5c-0.3-0.1-0.4,0.3-0.6,0.1c-0.2-0.1-0.4-0.2-0.5-0.2c-1-0.2-2.1-0.3-3.1-0.4c-1.1-0.2-2.2-0.5-3.4-0.4
			c-0.3,0-0.5-0.2-0.8-0.3c-0.1,0-0.2-0.1-0.3-0.1c-0.8,0.1-1.6-0.2-2.4-0.2c-0.6,0-1.1-0.3-1.7-0.2c-0.5-0.5-1.2,0.1-1.6-0.4
			c-0.5,0-1.1-0.1-1.6-0.2c-0.9-0.1-1.8-0.1-2.7-0.4c-0.1,0-0.2,0-0.3,0c-0.5,0-1,0-1.5-0.2c-0.4-0.2-1,0.1-1.4-0.2
			c-1.1,0.1-2-0.4-3.1-0.5c-0.6-0.1-1.2-0.1-1.8-0.2c-0.4,0-0.7-0.2-1.1-0.2c-0.3,0-0.6-0.1-1-0.2c-0.5-0.2-1.1-0.1-1.6-0.2
			c-1.1-0.1-2.1-0.5-3.2-0.5c-0.1,0-0.3-0.1-0.3-0.2c-0.1-0.1-0.1-0.2-0.2-0.4c0,0,0.2-0.1,0.2-0.1
			C149.4,158.4,150.5,158.4,151.5,158.4z"/>
		<path class="st0" d="M99.6,155.3c-0.8,0-1.5,0-2.3,0c-1,0-2-0.3-3-0.2c-1,0.1-2.1,0.2-3,0c-1.1-0.2-2.2,0-3.3-0.2
			c-1.5-0.3-3,0-4.4-0.2c-1.8-0.3-3.6-0.1-5.4-0.2c-0.2,0-0.4-0.1-0.6-0.1c-0.5-0.1-1-0.2-1.5,0c-0.2,0.1-0.5,0.1-0.6,0
			c-0.2-0.2-0.4-0.1-0.6-0.1c-0.4,0-0.9-0.2-1.3-0.2c-0.4,0.1-0.8-0.2-1.2-0.1c-0.4,0.1-0.9,0-1.4,0s-0.9,0-1.4,0s-0.9,0-1.4,0
			c-0.5,0-0.9,0.1-1.4,0c-1.4-0.3-2.9-0.1-4.3-0.2c-0.7-0.1-1.5-0.2-2.2-0.2c0,0-0.1-0.1-0.1-0.1c0-0.1,0-0.2,0.1-0.3
			c0.5-0.2,1-0.5,1.5-0.7c0.2-0.1,0.8-0.5,0.9-0.7c0.3-0.3,0.5-0.7,0.6-1.1c0.2-0.5,0.5-1,1-1.4c0.1-0.1,0.3-0.1,0.5-0.1
			c0.4,0,0.8,0,1.2,0c0.3,0,0.7,0.1,1,0.2c0.4,0.1,0.8-0.2,1.1,0.2c0.9-0.1,1.8,0.3,2.7,0.4c0.5,0.1,0.9-0.1,1.4,0.2
			c0.3,0.2,0.9-0.1,1.3,0.2c0.8-0.1,1.5,0.3,2.2,0.2c0.4,0,0.9,0,1.3,0.2c0.4,0.2,0.8,0.3,1.3,0.2c0.4-0.1,0.8,0.2,1.2,0.2
			c0.4,0,0.8,0,1.2,0.2c0.5,0.2,1.1-0.1,1.6,0.3c1.2,0,2.4,0.3,3.6,0.5c1.1,0.1,2.2,0.2,3.3,0.6c0.5,0.1,1-0.1,1.5,0.2
			c0.8-0.2,1.5,0.2,2.3,0.2c0.2,0,0.4,0.1,0.7,0.2c0.5,0.1,0.9,0.4,1.5,0.3c0.4-0.1,0.9,0,1.3,0.2c0.4,0.1,0.8,0,1.3,0.2
			c0.6,0.2,1.3,0.2,1.9,0.3c0.7,0.1,1.4,0.2,2,0.4c0.2,0.1,0.5,0,0.7,0c0.2,0,0.3,0.2,0.5,0.4c0,0,0,0.2-0.1,0.3c-0.1,0-0.2,0-0.3,0
			C101.5,155.3,100.5,155.3,99.6,155.3z"/>
		<path class="st0" d="M117.8,135.2c0,0,0,0.2-0.1,0.3c-0.1,0.1-0.1,0.3-0.4,0.1c-0.5-0.4-0.8-1-1-1.6c-0.3-0.7-0.5-1.5-1-2.1
			c-0.1-0.2-0.2-0.5-0.3-0.7c-0.2-0.4-0.2-0.8-0.5-1.2c-0.2-0.3-0.2-0.8-0.5-1.2c-0.2-0.3-0.4-0.7-0.4-1.1c0.1-0.5-0.5-0.6-0.5-1
			c0.1-0.4-0.7-0.6-0.4-1.1c-0.5-0.9-0.7-2.1-1.4-2.9c0.2-0.5-0.5-0.7-0.5-1.2c0-0.4-0.4-0.7-0.4-1.2c-0.1-0.5-0.5-0.8-0.7-1.3
			c-0.3-0.8-0.6-1.6-1-2.4c-0.3-0.6-0.6-1.3-0.9-1.9c-0.6-1.2-1.2-2.5-1.6-3.8c-0.1-0.5-0.5-0.9-0.7-1.4c-0.5-0.9-0.9-1.9-1.3-2.8
			c-0.1-0.2,0-0.4,0.1-0.6c0-0.1,0.2-0.3,0.4-0.1c0.2,0.3,0.5,0.3,0.8,0.2c0.2,0,0.4-0.2,0.4-0.5c0-0.3-0.4-0.4-0.1-0.7
			c0.1-0.2,0.1-0.5,0.1-0.8c0-0.3,0-0.6,0-0.8c0-0.2,0-0.4,0-0.6c0-0.1,0.1-0.2,0.1-0.2c0.1,0.1,0.2,0.1,0.2,0.2
			c0.1,0.3,0.2,0.6,0.3,0.9c0.7,1.8,1.4,3.6,2,5.4c0.2,0.7,0.5,1.4,0.8,2.1c0.2,0.3,0.3,0.7,0.3,1c0,0.5,0.5,0.7,0.5,1.2
			c0,0.4,0.2,0.8,0.4,1.2c0.1,0.4,0.3,0.8,0.5,1.2c0.3,0.9,0.6,1.9,1,2.8c0.8,1.8,1.2,3.7,2,5.5c0.4,0.9,0.5,1.9,1.1,2.8
			c0,0.6,0.1,1.2,0.6,1.6c-0.1,0.8,0.4,1.4,0.7,2c0.3,0.9,0.6,1.8,0.9,2.7c0.2,0.5,0.2,1,0.6,1.5C117.8,134.8,117.8,135,117.8,135.2
			z"/>
		<path class="st0" d="M145.4,208.8c-0.1,0.4,0.2,1-0.2,1.5c0,0.1,0.1,0.3,0.2,0.4c0,0.1,0,0.2-0.1,0.2c-0.1,0-0.2,0-0.3-0.1
			c-0.2-0.4-0.3-0.7-0.5-1.1c-0.2-0.4-0.1-0.9-0.5-1.2c-0.1-0.1-0.1-0.2-0.1-0.3c0.1-0.6-0.2-1.1-0.5-1.5c-0.3-0.5-0.1-1.1-0.6-1.5
			c0.1-0.8-0.7-1.4-0.6-2.3c0-0.1-0.2-0.1-0.2-0.2c-0.4-0.8-0.4-1.8-1-2.5c-0.1-1.5-1-2.7-1.3-4.1c-0.5-0.7-0.5-1.6-0.9-2.2
			c-0.2-0.3,0.1-0.8-0.3-1c-0.4-0.2-0.1-0.7-0.4-1c-0.2-0.2-0.3-0.6-0.4-1c-0.2-1-0.8-1.9-1.1-2.9c-0.3-1-0.7-1.9-1.1-2.8
			c-0.4-1.3-0.9-2.5-1.4-3.8c-0.3-0.9-0.7-1.8-1-2.8c-0.1-0.2,0-0.4,0-0.6c0-0.1,0.1-0.3,0.4-0.1c0.5,0.3,0.8,0.8,1,1.4
			c0.3,0.7,0.5,1.4,0.9,2.1c0.4,0.7,0.6,1.5,1,2.3c0.1,0.3,0.3,0.7,0.4,1c0.2,0.6,0.4,1.2,0.8,1.7c0.3,0.5,0.5,1.1,0.7,1.6
			c0.2,0.6,0.6,1.1,0.7,1.7c0,0.3,0.2,0.6,0.4,0.9c0.5,0.6,0.6,1.3,0.9,1.9c0.2,0.4,0.4,0.9,0.6,1.3c0.2,0.4,0.2,0.9,0.6,1.3
			c0.3,0.3,0.4,0.8,0.5,1.1c0,0.5,0.3,0.8,0.5,1.2c0.6,1.5,1.4,2.8,1.9,4.4c0.2,0.5,0.4,1,0.7,1.5c0.3,0.5,0.5,1.1,0.7,1.6
			c0.3,0.5,0.5,1,0.7,1.5c0.1,0.1,0.1,0.3,0.2,0.5c0,0.4,0,0.5-0.4,0.3c-0.1,0-0.3-0.1-0.4-0.1c-0.7-0.1-0.7-0.1-0.7,0.6
			C145.4,208.2,145.4,208.5,145.4,208.8z"/>
		<path class="st0" d="M146,106.4c0,0,0.2,0,0.4-0.1c0.5-0.2,0.5-0.2,0.5,0.3c0,0.3-0.2,0.6-0.3,0.8c-0.5,1.2-1.1,2.4-1.6,3.6
			c-0.2,0.5-0.5,1-0.6,1.5c-0.2,0.5-0.6,0.9-0.6,1.5c-0.8,0.7-0.6,1.8-1.4,2.5c0,0.9-0.8,1.6-0.9,2.5c0,0.2-0.1,0.3-0.2,0.4
			c-0.5,1-0.9,1.9-1.3,2.9c-0.1,0.2-0.3,0.4-0.4,0.7c-0.6,1.1-1,2.3-1.5,3.4c0,0.1,0,0.2,0,0.2c-0.6,0.5-0.6,1.2-0.9,1.8
			c-0.4,0.7-0.7,1.5-1,2.3c0,0.2-0.1,0.3-0.2,0.4c-0.7,0.9-0.9,1.9-1.3,2.9c-0.2,0.5-0.5,0.9-0.8,1.2c-0.1,0.1-0.3,0.2-0.3,0.2
			c-0.1-0.1-0.2-0.3-0.3-0.4c0-0.1,0-0.2,0-0.3c0.7-1.5,1.1-3.2,1.8-4.7c0.4-1,0.7-2.1,1.1-3.1c0.2-0.6,0.5-1.1,0.7-1.7
			c0.2-0.6,0.3-1.2,0.7-1.7c0.2-0.3,0.1-0.6,0.2-1c0.2-0.6,0.7-1.1,0.6-1.8c0.6-0.6,0.6-1.5,0.9-2.3c0.2-0.5,0.5-1.1,0.6-1.6
			c0.1-0.5,0.4-1,0.6-1.5c0.4-1,0.7-2.1,1.1-3.1c0.3-0.9,0.7-1.7,1-2.6c0.2-0.7,0.5-1.3,0.7-2c0.2-0.8,0.7-1.6,0.8-2.4
			c0-0.1,0-0.2,0-0.2c0.5-0.7,0.7-1.6,1.1-2.3c0-0.1,0.2-0.1,0.3-0.1c0,0.1,0.1,0.2,0.1,0.3c-0.2,0.2-0.2,0.3-0.1,0.6
			c0.2,0.3,0.1,0.7,0.1,1.1c0,0.4,0,0.8,0,1.3C145.4,106.4,145.4,106.4,146,106.4z"/>
		<path class="st0" d="M105,209.1c0-0.5,0-0.9,0-1.4c0-0.3,0-0.5-0.4-0.4c-0.3,0-0.6,0-0.9,0.2c-0.1,0.1-0.3,0-0.4-0.1
			c0,0,0-0.2,0-0.3c0.4-1.3,1.1-2.6,1.7-3.8c0.5-1.1,0.9-2.2,1.4-3.3c0.1-0.4,0.4-0.7,0.5-1.1c0.2-0.4,0.6-0.8,0.5-1.4
			c0.5-0.3,0.3-1,0.8-1.2c0-0.7,0.5-1.2,0.7-1.8c0.1-0.2,0.1-0.4,0.3-0.6c0.1-0.1,0.1-0.3,0.2-0.3c0.3-0.3,0-1,0.6-1.2
			c0-0.4,0.4-0.7,0.5-1.2c0.1-0.4,0.6-0.7,0.6-1.2c0.7-1.1,0.7-2.5,1.6-3.4c0.1-0.9,0.9-1.5,0.9-2.5c0.6-0.7,0.5-1.6,1.1-2.3
			c0.4-0.5,0.6-1.2,0.8-1.9c0.2-0.6,0.5-1.2,1-1.6c0.2-0.1,0.4-0.1,0.4,0.1c0,0.3,0,0.7-0.1,1c-0.5,1.2-1,2.5-1.4,3.8
			c-0.1,0.2-0.2,0.5-0.3,0.7c-0.1,0.3-0.4,0.6-0.3,1c0,0.1,0,0.2,0,0.3c-0.7,0.7-0.6,1.7-1,2.5c-0.4,0.8-0.7,1.7-1,2.5
			c-0.3,0.6-0.5,1.3-0.7,1.9c-0.2,0.7-0.5,1.3-0.6,2c-0.1,0.5-0.5,0.8-0.6,1.3c0,0.4-0.2,0.9-0.4,1.3c-0.3,0.7-0.4,1.4-0.7,2
			c-0.3,0.6-0.6,1.2-0.7,1.9c0,0.3-0.3,0.5-0.4,0.8c-0.2,1-0.7,1.9-1.1,2.8c-0.3,0.9-0.5,1.9-0.9,2.8c-0.6,1.2-0.9,2.5-1.5,3.7
			c0,0.1-0.2,0.2-0.2,0.2c-0.1-0.1-0.2-0.2-0.2-0.3C104.9,210,105,209.6,105,209.1z"/>
		<path class="st0" d="M74.1,136.5c0.2,0,0.5,0,0.6,0.1c0.2,0.1,0.3,0.2,0.5,0c0.2-0.2,0.3-0.5,0.1-0.6c-0.2-0.2-0.1-0.4-0.2-0.7
			c0-0.3,0.2-0.3,0.3-0.2c0.5,0.2,1,0.4,1.4,0.6c0.2,0.1,0.4,0.3,0.6,0.4c1,0.1,1.7,0.7,2.6,1c0.6,0.2,1.2,0.6,1.8,0.8
			c1.2,0.6,2.4,1.1,3.6,1.7c0.5,0.2,1,0.3,1.5,0.5c0.1,0,0.2,0.1,0.3,0.2c0.8,0.6,1.8,0.8,2.7,1.3c0.3,0.1,0.6,0.3,0.9,0.4
			c0.3,0.1,0.5,0.2,0.8,0.4c0.3,0.1,0.6,0.3,0.9,0.4c1.3,0.4,2.5,1.2,3.7,1.7c0.2,0.1,0.3,0.2,0.6,0.2c0.2,0,0.4,0.1,0.5,0.2
			c0.2,0.2,0.5,0.4,0.7,0.4c0.5-0.1,0.8,0.3,1.2,0.5c0.3,0.2,0.7,0.3,0.9,0.5c0.3,0.3,0.6,0.3,0.9,0.3c0,0,0.1,0,0.1,0
			c0.4,0.3,0.9,0.6,1.3,0.7c0.4,0.2,0.9,0.2,1.3,0.5c0.1,0.1,0.3,0.2,0.4,0.3c0,0,0.1,0.1,0,0.2c0,0.1-0.1,0.2-0.2,0.2
			c-0.4-0.1-0.8,0-1.2-0.2c-1.1-0.7-2.4-0.7-3.5-1.4c-0.9,0-1.6-0.7-2.5-0.7c-0.7-0.5-1.6-0.5-2.3-0.9c-0.7-0.4-1.5-0.3-2.1-0.8
			c-0.6,0.2-1-0.5-1.6-0.5c-0.9-0.1-1.7-0.7-2.6-1c-0.6-0.2-1.1-0.3-1.7-0.5c-0.5-0.2-1-0.4-1.6-0.5c-0.4,0-0.7-0.5-1.1-0.4
			c-0.7-0.5-1.5-0.6-2.3-0.9c-0.7-0.3-1.5-0.6-2.2-0.8c-1.2-0.4-2.4-0.9-3.7-1.3c-0.7-0.2-1.3-0.5-2-0.7c-0.7-0.2-1.2-0.7-1.9-0.7
			c0,0-0.1-0.1-0.1-0.2c0-0.1,0.1-0.2,0.1-0.2C72.8,136.8,73.4,136.5,74.1,136.5z"/>
		<path class="st0" d="M177,177.1c-0.3,0-0.5,0.1-0.8-0.1c-0.2-0.1-0.4,0-0.6,0.2c-0.2,0.2-0.1,0.4,0.1,0.5c0.1,0.1,0,0.2,0.1,0.3
			c0.2,0.2,0.2,0.3,0,0.5c-0.2,0.2-0.4,0.3-0.6,0.1c-0.7-0.5-1.5-0.7-2.3-1.1c-0.8-0.4-1.5-0.8-2.3-1c-0.4-0.1-0.6-0.6-1.1-0.5
			c-0.4-0.5-1.1-0.5-1.6-0.8c-0.5-0.3-1-0.6-1.5-0.8c-0.6-0.2-1.1-0.5-1.7-0.8c-0.5-0.2-1-0.3-1.5-0.5c-1.4-0.7-2.7-1.3-4.1-1.9
			c-0.7-0.3-1.3-0.5-2-0.9c-0.5-0.3-1.2-0.4-1.7-0.9c-0.1-0.1-0.2-0.1-0.4-0.2c-0.8-0.3-1.6-0.8-2.5-1c-0.4-0.1-0.6-0.7-1.1-0.5
			c-0.7-0.5-1.4-0.9-2.3-1c-0.1-0.3-0.6-0.1-0.5-0.5c0,0-0.3-0.1-0.5-0.1c-0.3-0.1-0.6-0.1-0.8-0.2c-0.2-0.2-0.4-0.4-0.6-0.7
			c0.3-0.3,0.6-0.1,0.9,0c1.2,0.5,2.5,1,3.7,1.4c0.8,0.3,1.6,0.5,2.3,0.8c0.8,0.3,1.7,0.5,2.5,0.9c0.3,0.2,0.7,0.3,1,0.4
			c0.4,0,0.7,0.2,1,0.4c0.3,0.2,0.7,0,1,0.4c0.1,0.2,0.6,0.1,0.8,0.2c0.9,0.3,1.8,0.7,2.7,1c1,0.3,2,0.8,3.1,0.9
			c0.4,0.1,0.6,0.5,1.1,0.5c0.5,0,1,0.5,1.6,0.5c0.5,0.1,0.6,0.6,1.2,0.5c0.3-0.1,0.7,0.3,1.1,0.4c0.5,0,0.9,0.3,1.2,0.5
			c0.4,0.3,0.9,0,1.3,0.3c0.3,0.2,0.7,0.4,1.1,0.4c0.3,0.1,0.5,0.1,0.7,0.3c0.3,0.2,0.7,0.2,1.1,0.4c1,0.3,2,0.7,2.9,1.1
			c0.1,0,0.2,0.1,0.2,0.2c0,0.1-0.1,0.2-0.1,0.2C178.4,177,177.7,177,177,177.1z"/>
		<path class="st0" d="M74.4,178c0-0.1,0.2-0.3,0.2-0.5c0.1-0.4-0.2-0.6-0.6-0.5c-0.4,0.1-0.9,0.2-1.2,0.1c-0.5-0.2-1-0.2-1.5-0.2
			c-0.1,0-0.2-0.1-0.3-0.1c0.1-0.1,0.1-0.3,0.2-0.3c0.7-0.3,1.4-0.6,2.2-0.8c1.2-0.5,2.5-0.9,3.8-1.3c0.8-0.2,1.5-0.8,2.3-0.8
			c0.6-0.5,1.4-0.4,2-0.8c0.5-0.3,1.1-0.4,1.6-0.6c1.2-0.4,2.3-0.9,3.5-1.2c1.4-0.4,2.6-1.1,3.9-1.4c0.4-0.1,0.6-0.7,1.1-0.4
			c0.8-0.4,1.7-0.5,2.5-0.9c0.3-0.1,0.6-0.3,0.9-0.4c0.4,0,0.6-0.1,0.9-0.4c0.3-0.2,0.7-0.1,1-0.3c1-0.4,2-0.7,2.9-1.1
			c0.4-0.2,0.7-0.3,1.1-0.4c0.3-0.1,0.6-0.2,0.8-0.4c0.2-0.2,0.6-0.2,0.8-0.2c0.2,0,0.3-0.1,0.5-0.1c0.1,0,0.2,0.1,0.3,0.2
			c0,0,0,0.2-0.1,0.3c-0.4,0.2-0.9,0.4-1.3,0.6c-0.1,0-0.3,0-0.3,0c-0.6,0.6-1.4,0.6-2,1c-0.4,0.3-0.9,0.4-1.3,0.7
			c-0.3,0.3-0.8,0.3-1.2,0.5c-1.2,0.6-2.5,1.1-3.7,1.8c-1.3,0.7-2.6,1.1-3.9,1.7c-0.7,0.3-1.3,0.8-2,0.9c-0.2,0-0.4,0.2-0.6,0.4
			c-0.2,0.1-0.5,0.4-0.7,0.4c-0.7,0-1.1,0.4-1.6,0.6c-1.5,0.6-2.8,1.5-4.4,1.9c-0.7,0.7-1.9,0.6-2.7,1.4c-0.1,0.1-0.3,0.1-0.4,0.1
			c-0.3,0.1-0.6,0.1-0.7,0.2c-0.4,0.5-1,0.4-1.5,0.8C74.7,178.8,74.4,178.6,74.4,178z"/>
		<path class="st0" d="M176,135.4c-0.1,0.2-0.2,0.4-0.2,0.5c-0.1,0.2-0.1,0.3-0.2,0.5c0.3-0.1,0.4,0.5,0.8,0.2
			c0.1-0.1,0.2-0.1,0.4-0.1c0.3,0,0.6,0,1,0.1c0.4,0.2,1,0,1.4,0.1c0,0,0.1,0.1,0.1,0.2c0,0-0.1,0.2-0.1,0.2c-0.6-0.2-1,0.5-1.6,0.5
			c-0.8,0.1-1.5,0.7-2.3,0.7c-0.3,0.4-0.9,0.4-1.3,0.6c-0.3,0.1-0.6,0.2-0.9,0.3c-0.5,0.2-1.1,0.2-1.5,0.6c-0.5,0.3-1.1,0.1-1.5,0.6
			c-0.8-0.1-1.3,0.6-2,0.7c-0.7,0.1-1.3,0.6-1.9,0.7c-1.1,0.2-2,0.8-3.1,1c-0.3,0-0.7,0.3-1,0.4c-0.8,0.3-1.6,0.8-2.5,0.8
			c-0.4,0.6-1.2,0.4-1.7,0.7c-0.4,0.3-1.1,0.1-1.5,0.5c-1.3,0.3-2.5,1.1-3.9,1.4c-1,0.2-2,0.7-3,1.1c-0.3,0.1-0.8-0.1-1,0.3
			c-0.2,0.4-0.8-0.1-1,0.4c0,0-0.4,0.2-0.5-0.2c0-0.2-0.1-0.4,0.2-0.5c0.4-0.1,0.7-0.5,1.2-0.4c0.7-0.5,1.5-0.7,2.2-1
			c0.8-0.4,1.6-0.9,2.5-1.2c0.5-0.2,1-0.5,1.5-0.7c0.5-0.2,0.9-0.5,1.4-0.7c1-0.4,2-1,3-1.3c0.8-0.2,1.5-0.8,2.3-1.1
			c1.4-0.6,2.8-1.3,4.2-1.8c0.4-0.1,0.7-0.4,1-0.5c0.6-0.3,1.2-0.6,1.8-0.8c0.6-0.2,1.2-0.5,1.8-0.8c0.6-0.3,1.3-0.5,1.9-0.8
			c0.7-0.4,1.5-0.5,2.1-1c0.4-0.3,0.9-0.2,1.2-0.6c0.1-0.1,0.4,0,0.5,0.1C175.8,135.2,175.9,135.4,176,135.4z"/>
		<path class="st0" d="M114.6,136.9c0,0.1,0,0.2,0,0.3c-0.1,0.1-0.3,0.2-0.3,0.2c-0.3-0.4-1-0.6-1-1.3c0-0.1,0-0.1-0.1-0.2
			c-0.7-0.5-0.9-1.4-1.4-2.1c-0.5-0.6-0.9-1.3-1.3-2c-0.6-1-1.3-1.8-1.9-2.8c-0.4-0.6-0.7-1.2-1.2-1.8c-0.8-1.2-1.6-2.4-2.3-3.7
			c-0.6-0.9-1.3-1.7-1.9-2.6c-0.4-0.6-0.7-1.2-1-1.8c-0.2-0.4-0.5-0.7-0.8-1.1c-0.3-0.4-0.6-0.8-0.8-1.2c-0.7-1.3-1.7-2.5-2.5-3.7
			c-0.3-0.4-0.5-0.8-0.8-1.2c0-0.1,0-0.2,0-0.3c0.1-0.1,0.2-0.2,0.3-0.2c0.1,0.1,0.3,0.2,0.4,0.3c0.6,0.7,1.4,1.1,2.1,1.6
			c0.3,0.3,0.5,0.2,0.6-0.3c0-0.1,0-0.1,0.1-0.2c0.1-0.2,0.3-0.4,0.4-0.7c0.2,0.2,0.4,0.4,0.5,0.6c0.4,0.7,0.9,1.5,1.3,2.2
			c0.6,1.1,1.2,2.3,1.9,3.3c0.3,0.5,0.4,1,0.7,1.5c0.4,0.7,0.8,1.5,1.3,2.2c0.7,0.9,0.8,2,1.6,2.8c0,0.6,0.5,1,0.7,1.5
			c0.2,0.5,0.5,1,0.8,1.5c0.2,0.5,0.5,1,0.8,1.5c0.8,1.3,1.5,2.7,2.3,4c0.4,0.8,0.9,1.7,1.4,2.5
			C114.6,136.2,114.6,136.5,114.6,136.9C114.7,136.8,114.7,136.8,114.6,136.9z"/>
		<path class="st0" d="M113.9,176.8c0,0.5-0.2,0.9-0.4,1.2c-0.2,0.3-0.6,0.7-0.6,1c0,0.5-0.7,0.6-0.5,1.1c-0.5,0.6-0.7,1.4-1.2,2
			c-0.6,0.9-1,1.8-1.6,2.7c-0.6,1-1.1,2.2-1.7,3.2c-0.5,0.7-0.9,1.5-1.2,2.2c-0.1,0.3-0.3,0.6-0.5,0.9c-0.4,0.6-0.7,1.3-1.1,1.9
			c-0.7,1.2-1.3,2.6-2.1,3.8c-0.6,0.9-1,2-1.6,2.9c-0.3,0.5-0.5,1-0.9,1.4c-0.2,0.3-0.4,0.1-0.4-0.1c-0.1-0.2-0.1-0.4-0.2-0.6
			c-0.2-0.5-0.3-0.5-0.7-0.2c-0.8,0.6-1.6,1.1-2.2,1.8c-0.1,0.1-0.2,0.2-0.3,0c-0.1-0.1-0.2-0.3-0.2-0.4c0.7-1.1,1.4-2.1,2.1-3.1
			c0.6-0.9,1.2-1.7,1.7-2.7c0-0.1,0.1-0.1,0.1-0.2c0.7-0.5,1-1.3,1.4-2c0.6-0.9,1.2-1.8,1.8-2.7c0.6-1,1.3-1.9,1.9-2.9
			c0.7-1.1,1.6-2.1,2.2-3.3c0.2-0.5,0.7-0.9,1-1.4c0.8-1.2,1.5-2.3,2.2-3.5c0.6-1,1.4-1.8,1.8-2.8c0.1-0.1,0.2-0.3,0.4-0.4
			c0.2-0.1,0.3-0.2,0.5-0.3C113.7,176.5,113.8,176.7,113.9,176.8z"/>
		<path class="st0" d="M153.6,202c0,0,0,0.1-0.1,0.2c0,0-0.1,0-0.1-0.1c-0.8-0.6-1.5-1.2-2.3-1.8c-0.1-0.1-0.4-0.1-0.6-0.1
			c-0.2,0-0.3,0.1-0.3,0.3c0,0.1,0,0.1,0,0.2c-0.1,0.3-0.2,0.7-0.4,0.7c-0.4,0.1-0.4-0.4-0.6-0.6c-0.4-0.3-0.5-0.7-0.7-1.1
			c-0.6-1.3-1.3-2.5-2-3.7c-0.2-0.4-0.4-0.8-0.6-1.1c-0.6-1.1-1.2-2.2-1.8-3.2c-0.3-0.5-0.6-1.1-0.9-1.6c-0.3-0.5-0.6-1.1-0.9-1.6
			c-0.3-0.5-0.5-1-0.8-1.4c-0.3-0.4-0.4-1-0.8-1.3c-0.1-0.1,0-0.2-0.1-0.3c-0.1-0.1-0.2-0.3-0.2-0.4c-0.1-0.5-0.6-0.8-0.8-1.2
			c-0.1-0.4-0.3-0.9-0.5-1.3c-0.2-0.4-0.5-0.8-0.7-1.2c-0.4-0.8-0.9-1.6-1.3-2.5c-0.2-0.5-0.7-0.8-0.7-1.4c-0.5-0.3,0.1-0.6,0.1-0.9
			c0.1,0,0.3,0,0.3,0c0.3,0.6,0.8,1.2,1.3,1.7c0.2,0.2,0.2,0.3,0.2,0.5c0,0.2,0.1,0.4,0.2,0.5c0.6,0.4,0.7,1.1,1.1,1.6
			c0.6,0.7,1,1.5,1.5,2.2c0.7,1,1.4,2,2,3.1c0.6,1,1.2,1.9,1.8,2.8c0.4,0.6,0.7,1.2,1.1,1.7c0.4,0.7,0.9,1.3,1.3,2
			c0.6,0.9,1.2,1.8,1.8,2.7c0.2,0.4,0.7,0.7,0.8,1.3c0.1,0.4,0.4,0.9,0.7,1.1c0.6,0.6,1,1.3,1.4,1.9c0.5,0.7,0.9,1.4,1.3,2.1
			C153.6,201.8,153.6,201.9,153.6,202z"/>
		<path class="st0" d="M153.6,111.6c0,0.1,0,0.3,0,0.3c-0.5,0.3-0.4,0.9-0.8,1.3c-0.3,0.3-0.5,0.8-0.7,1.2c-0.6,1-1.5,1.8-1.9,2.8
			c-0.5,1-1.3,1.8-1.8,2.8c-0.3,0.6-0.7,1.2-1.1,1.7c-0.4,0.6-0.8,1.3-1.3,1.9c-0.6,0.9-1.2,1.7-1.8,2.6c-0.5,0.9-1.1,1.7-1.6,2.6
			c-0.4,0.8-1.1,1.5-1.6,2.3c-0.6,0.9-1.1,1.8-1.7,2.6c-0.8,1.1-1.3,2.3-2.3,3.3c-0.1,0.1-0.2,0.2-0.4,0.3c0-0.1,0-0.3-0.1-0.4
			c-0.3-0.4-0.1-0.8,0.1-1c0.4-0.5,0.5-1.1,0.9-1.6c0.2-0.3,0.6-0.7,0.6-1.1c0-0.5,0.7-0.7,0.5-1.2c0.4-0.4,0.7-0.8,0.9-1.3
			c0.2-0.4,0.3-0.8,0.7-1.1c0.2-0.1,0.3-0.4,0.3-0.6c0.2-0.8,0.7-1.4,1.1-2.1c0-0.1,0-0.2,0-0.2c0.5-0.4,0.6-0.9,0.8-1.4
			c0.3-0.6,0.6-1.2,1-1.8c0.2-0.3,0-0.7,0.5-0.9c0.3-0.1,0.2-0.6,0.5-0.9c0.2-0.2,0.3-0.6,0.5-0.9c0.2-0.3,0.4-0.6,0.6-0.9
			c0.5-0.8,0.9-1.7,1.3-2.5c0.5-1,1.1-1.9,1.6-2.9c0.3-0.7,0.7-1.3,1.1-1.9c0.2-0.3,0.3-0.3,0.5,0.1c0.1,0.1,0.2,0.3,0.2,0.4
			c0.1,0.2-0.1,0.5,0.2,0.5c0.3,0,0.5,0.1,0.8-0.2c0.7-0.6,1.5-1.2,2.2-1.8c0,0,0.1-0.1,0.1-0.1
			C153.5,111.5,153.6,111.6,153.6,111.6z"/>
		<path class="st0" d="M120.3,179.8c-0.1,0.7-0.1,1.4-0.4,2c-0.3,0.5,0.1,1.1-0.4,1.5c0,0.5-0.2,1-0.3,1.5c-0.1,0.8-0.2,1.6-0.4,2.3
			c-0.2,0.8-0.2,1.6-0.6,2.3c0.2,1-0.4,1.8-0.5,2.8c0,0.8-0.2,1.6-0.4,2.3c-0.2,0.8-0.2,1.6-0.6,2.3c-0.2,0.4,0.1,0.9-0.2,1.4
			c0,1-0.5,1.9-0.4,2.9c-0.4,0.8-0.3,1.7-0.6,2.5c0.1,0.9-0.6,1.7-0.4,2.6c0,0.3-0.1,0.6-0.2,0.9c-0.3,0.7-0.2,1.4-0.4,2
			c-0.1,0.2,0,0.4-0.2,0.3c-0.2,0-0.5-0.4-0.4-0.5c0.2-0.2,0.2-0.3,0.2-0.6c-0.1-0.4-0.2-0.8-0.2-1.2c0-0.4,0-0.7-0.2-1.1
			c-0.2-0.3-0.4-0.6-0.8-0.4c-0.2,0.1-0.3,0.2-0.5,0.3c-0.1,0.1-0.2,0.1-0.4,0.1c0-0.1-0.1-0.3-0.1-0.4c0.2-0.6,0.4-1.1,0.5-1.7
			c0.3-1.2,0.7-2.3,1-3.5c0.1-0.3,0.1-0.5,0.2-0.8c0.5-1,0.5-2.2,1-3.2c-0.2-0.7,0.3-1.3,0.5-1.9c0.2-0.6,0.1-1.3,0.6-1.8
			c-0.1-0.7,0.4-1.2,0.4-1.8c0.1-0.6,0.4-1.1,0.4-1.7c0.4-0.3,0-0.8,0.3-1.2c0.2-0.3,0.4-0.6,0.3-1c0.6-1,0.4-2.3,1-3.2
			c0.2-1.4,0.9-2.7,1.1-4.2c0,0,0-0.1,0-0.1c0.2-0.4,0.5-0.7,0.6-0.7C120.2,178.9,120.4,179.5,120.3,179.8z"/>
		<path class="st0" d="M114.9,105.3c0-0.1-0.1-0.3-0.2-0.4c-0.2-0.3,0-0.4,0.2-0.5c0.2-0.1,0.3-0.2,0.4,0.1c0.1,0.8,0.2,1.6,0.4,2.3
			c0.1,0.5,0.1,1,0.2,1.5c0.1,0.5,0.3,1,0.4,1.5c0.1,0.5,0.1,1,0.2,1.5c0.3,1,0.4,2,0.6,3c0.3,1.2,0.3,2.4,0.8,3.6
			c0.2,0.4,0.1,0.8,0.2,1.3c0.2,0.5,0.1,1.2,0.3,1.7c0.3,0.8,0.1,1.6,0.5,2.3c0.1,0.2,0,0.5,0.1,0.8c0,0.3,0.1,0.5,0.2,0.8
			c0.3,1.2,0.4,2.4,0.7,3.6c0.2,0.8,0.1,1.6,0.6,2.3c-0.1,0.9,0.4,1.8,0.4,2.7c0,0.1,0.2,0.3,0.2,0.4c0,0.2,0.1,0.4,0,0.6
			c-0.1,0.2-0.2,0.4-0.4,0.5c-0.2-0.2-0.4-0.3-0.4-0.5c-0.2-0.6-0.5-1.2-0.6-1.8c-0.1-0.5-0.3-1-0.4-1.5c-0.2-1.2-0.8-2.3-0.9-3.5
			c0-0.4-0.5-0.8-0.4-1.3c-0.5-0.7-0.4-1.7-0.7-2.4c-0.3-0.8-0.3-1.6-0.8-2.3c0.2-0.7-0.5-1.1-0.4-1.7c0-0.5-0.4-1.1-0.5-1.6
			c-0.1-0.7-0.5-1.4-0.6-2.1c-0.1-0.8-0.3-1.6-0.6-2.4c-0.2-0.6-0.4-1.2-0.6-1.9c-0.2-0.6-0.3-1.2-0.4-1.8c-0.2-0.6-0.4-1.2-0.6-1.8
			c0-0.1,0-0.2-0.1-0.3c0-0.3,0.1-0.4,0.4-0.2c0.3,0.2,0.6,0.4,1,0.4c0.1,0,0.3-0.1,0.3-0.2c0.1-0.5,0.1-1,0.2-1.5
			C114.7,106,114.8,105.7,114.9,105.3z"/>
		<path class="st0" d="M130,133.7c0.1-0.4,0-1.1,0.3-1.6c0.3-0.5,0-1,0.3-1.4c0.2-0.4,0.1-0.9,0.3-1.4c0.2-0.8,0.2-1.6,0.4-2.3
			c0.2-0.8,0.1-1.6,0.6-2.3c-0.1-0.9,0.3-1.7,0.4-2.6c0.1-0.5,0-1.1,0.3-1.5c0.3-0.5-0.1-1.1,0.3-1.4c-0.2-1,0.6-1.9,0.4-2.9
			c0-0.1,0.1-0.3,0.1-0.5c0.1-0.5,0.3-1,0.3-1.5c0.1-0.8,0.2-1.6,0.5-2.4c0.1-0.5,0.2-1,0.3-1.4c0.1-0.4,0.2-0.9,0.3-1.4
			c0.2-1.2,0.5-2.3,0.6-3.5c0-0.3,0.2-0.5,0.2-0.9c0-0.1,0.1-0.2,0.2-0.3c0.1-0.1,0.2-0.1,0.3-0.1c0.1,0,0.1,0.1,0.1,0.2
			c0.2,0.3-0.2,0.6,0,1c0.1,0.3,0,0.7,0,1c0,0.3,0.1,0.6,0.2,1c0,0.2,0,0.5,0.1,0.5c0.2,0.1,0.5,0.1,0.7,0c0.1,0,0.1-0.1,0.2-0.1
			c0.2-0.1,0.6-0.3,0.7-0.2c0.2,0.2-0.1,0.5-0.1,0.7c0,1-0.5,1.8-0.7,2.7c-0.1,0.6-0.4,1.2-0.4,1.8c0,0.4-0.4,0.7-0.4,1.1
			c0,0.5-0.1,1-0.3,1.4c-0.2,0.4-0.3,0.9-0.3,1.4c-0.6,0.6-0.5,1.5-0.8,2.2c-0.3,0.8-0.4,1.6-0.6,2.5c-0.1,0.5-0.3,0.9-0.4,1.4
			c-0.1,0.4-0.2,0.8-0.2,1.2c0,0.3-0.3,0.6-0.4,1c-0.1,0.4-0.1,0.8-0.2,1.2c-0.4,0.9-0.6,1.9-0.9,2.9c-0.1,0.2-0.1,0.4-0.2,0.6
			c0,0.2-0.1,0.4-0.1,0.6c-0.3,0.7-0.4,1.5-0.7,2.2c-0.1,0.2-0.1,0.4-0.2,0.6c-0.1,0.3-0.3,0.5-0.2,0.9c0,0.1,0,0.2,0,0.2
			c-0.2,0.2-0.4,0.5-0.6,0.5c-0.2,0-0.3-0.3-0.3-0.6C130,134,130,133.9,130,133.7z"/>
		<path class="st0" d="M130,180c0-0.3,0-0.4,0-0.5c0-0.3,0-0.6,0.3-0.6c0.2,0,0.5,0.3,0.6,0.5c0.2,1.1,0.7,2.2,0.9,3.3
			c0.1,0.5,0.4,0.9,0.4,1.5c0,0.5,0.3,0.9,0.4,1.4c0.3,0.9,0.7,1.7,0.8,2.6c0.1,0.6,0.5,1.1,0.5,1.7c0,0.5,0.2,1.1,0.4,1.6
			c0.1,0.4,0.3,0.7,0.4,1.1c0,0.4,0.3,0.7,0.3,1.2c0,0.3,0.1,0.6,0.3,0.9c0.3,0.6,0.2,1.5,0.7,2c0,0.5,0.1,1,0.3,1.4
			c0.2,0.4,0.2,0.9,0.3,1.3c0,0.2,0.1,0.4,0.2,0.6c0.1,0.2,0.2,0.3,0.2,0.4c0.1,1.3,0.7,2.4,1,3.6c0.1,0.4,0.2,0.9,0.3,1.3
			c0,0.2,0.1,0.4-0.3,0.2c-0.3-0.2-0.7-0.3-1.1-0.2c-0.1,0-0.2,0.1-0.2,0.2c-0.2,0.8-0.1,1.7-0.4,2.6c0.2,0.2,0.2,0.5,0.2,0.7
			c0,0.1-0.1,0.2-0.1,0.2c-0.1,0-0.2,0-0.3-0.1c-0.1-0.1-0.2-0.2-0.2-0.3c-0.2-0.7-0.2-1.5-0.4-2.2c-0.2-0.8-0.2-1.7-0.5-2.4
			c-0.1-0.3-0.1-0.6-0.2-0.9c0-0.3-0.1-0.6-0.2-0.9c-0.1-0.5,0-1-0.2-1.4c-0.3-0.4,0-1-0.3-1.3c-0.1-0.1,0-0.2,0-0.3
			c0-0.5,0-1-0.2-1.5c-0.2-0.6-0.3-1.2-0.4-1.7c-0.1-0.6-0.4-1.1-0.3-1.7c-0.5-0.5-0.1-1.1-0.4-1.6c-0.3-0.5-0.1-1.2-0.3-1.7
			c-0.5-1.1-0.3-2.3-0.8-3.3c0.1-1-0.4-1.9-0.4-2.9c0-0.8-0.3-1.5-0.6-2.3c-0.1-0.4,0-0.8-0.2-1.2C130,181.1,130.1,180.5,130,180z"
			/>
		<path class="st0" d="M102.9,161.9c-0.1,0.1-0.1,0.1-0.2,0.2c-0.3,0.3-0.7,0.6-1.2,0.6c-0.1,0-0.3,0-0.4,0c-0.9,0.6-2,0.7-3.1,1
			c-1.1,0.4-2.2,0.5-3.2,1.1c-0.7-0.2-1.1,0.4-1.7,0.4c-0.6,0-1.1,0.3-1.6,0.4c-0.6,0.2-1.1,0.4-1.7,0.6c-0.9,0.3-1.9,0.4-2.9,0.7
			c-0.9,0.2-1.7,0.6-2.6,0.8c-1,0.3-2.1,0.5-3.1,0.9c-1.3,0.5-2.7,0.6-3.9,1.2c-0.2,0.1-0.5,0-0.7,0.1c-0.2,0.1-0.5,0.2-0.6,0
			c-0.1-0.1,0-0.4,0.1-0.6c0-0.2,0.2-0.3,0.2-0.4c0.2-0.4,0.1-0.5-0.3-0.6c-0.5-0.1-1.1-0.1-1.6-0.2c-0.5-0.1-1.1-0.2-1.6-0.2
			c-0.1,0-0.1-0.1-0.2-0.2c0.1-0.1,0.1-0.2,0.2-0.2c1.2-0.2,2.4-0.4,3.6-0.7c1.1-0.2,2.2-0.3,3.2-0.6c1.1-0.3,2.3-0.2,3.4-0.8
			c0.1-0.1,0.3,0,0.4,0c0.4,0,0.9,0,1.3-0.2c0.6-0.4,1.3-0.1,1.9-0.4c0.4-0.2,1-0.1,1.4-0.3c0.3-0.2,0.6-0.1,1-0.2
			c0.4,0,0.7-0.1,1.1-0.2c1.2-0.2,2.4-0.4,3.5-0.7c0.7-0.2,1.4,0,2.1-0.5c0.3-0.2,0.9-0.1,1.4-0.2c0.6-0.2,1.3-0.2,2-0.2
			c0.2,0,0.3,0,0.5-0.1c1-0.5,2.1-0.6,3.1-0.5C102.7,161.8,102.8,161.8,102.9,161.9z"/>
		<path class="st0" d="M148.4,161.8c0.8-0.1,1.6,0.3,2.4,0.5c0.1,0,0.2,0.1,0.4,0.1c1.4,0.2,2.8,0.4,4.2,0.8c0.5,0.2,1,0.1,1.5,0.2
			c0.7,0.1,1.3,0.4,2,0.5c0.7,0.1,1.4,0.4,2,0.4c1,0,1.8,0.5,2.8,0.5c0.8,0.4,1.7,0,2.5,0.6c0.1,0.1,0.3,0,0.5,0
			c0.2,0,0.4-0.1,0.5,0c0.9,0.6,2.1,0.3,3.1,0.8c0.1,0,0.2,0.1,0.3,0.1c1.1,0.1,2.2,0.2,3.2,0.6c1-0.2,1.9,0.5,2.9,0.4
			c0.1,0,0.3,0,0.3,0.1c0.1,0.4,0.8-0.1,0.7,0.4c-0.1,0.3-0.5,0.1-0.7,0.2c-0.9,0.1-1.8,0.3-2.7,0.4c-0.3,0.1-0.4,0.4-0.2,0.7
			c0.1,0.1,0.2,0.3,0.2,0.4c0,0.1,0.4,0.2,0.1,0.4c-0.1,0.1-0.3,0.2-0.4,0.2c-0.3-0.1-0.7-0.1-1-0.2c-1.1-0.4-2.3-0.7-3.5-1.1
			c-0.9-0.3-1.7-0.6-2.6-0.8c-0.7-0.2-1.4-0.4-2-0.7c-1-0.3-2-0.3-2.9-0.8c-1.2,0-2.1-0.7-3.2-0.9c-0.9-0.2-1.8-0.5-2.7-0.8
			c-0.5-0.1-0.9-0.3-1.4-0.4c-1.3-0.4-2.5-0.7-3.8-1c-0.9-0.2-1.9-0.6-2.8-0.9c-0.2,0-0.3-0.1-0.4-0.2c-0.1-0.1-0.1-0.2-0.1-0.3
			c0,0,0.1-0.1,0.2-0.1C147.9,161.8,148.2,161.8,148.4,161.8z"/>
		<path class="st0" d="M147.9,151.9c0,0-0.3-0.1-0.4-0.2c-0.1-0.3,0.2-0.4,0.4-0.5c0.4-0.1,0.8-0.2,1.2-0.3c0.4-0.1,0.7-0.4,1.1-0.3
			c0.8-0.5,1.7-0.6,2.5-0.8c0.8-0.3,1.7-0.6,2.5-0.7c0.8-0.1,1.4-0.5,2.2-0.6c0.7-0.1,1.3-0.4,1.9-0.6c1-0.3,2-0.6,3-0.9
			c1-0.3,2-0.6,3-0.8c0.6-0.2,1.2-0.4,1.9-0.6c1-0.3,2-0.6,3-0.9c0.6-0.2,1.2-0.3,1.7-0.5c0.6-0.2,1.2-0.2,1.7-0.5
			c0.1-0.1,0.3,0,0.5,0.1c0.1,0,0.4,0.2,0.1,0.4c-0.1,0.1-0.2,0.1-0.2,0.2c-0.5,0.7-0.4,0.8,0.5,1c0.9,0.2,1.8,0.3,2.7,0.4
			c0.1,0,0.2,0.1,0.2,0.2c0,0.1-0.1,0.2-0.2,0.2c-0.6,0.2-1.3,0.3-1.9,0.4c-0.9,0.3-1.9,0.1-2.7,0.6c-0.6-0.1-1.2,0.1-1.8,0.2
			c-0.6,0.2-1.2,0.1-1.7,0.4c-1-0.2-1.9,0.6-2.9,0.4c-0.1,0-0.3,0-0.4,0.1c-0.5,0.2-1,0.2-1.5,0.4c-0.8,0.2-1.6,0.1-2.3,0.5
			c-0.1,0.1-0.3,0.1-0.5,0.1c-0.7,0-1.2,0.2-1.8,0.4c-0.5,0.2-1-0.1-1.5,0.3c-1,0-1.9,0.5-2.9,0.5c-0.6,0-1.3,0.3-1.9,0.5
			c-0.1,0-0.2,0.1-0.3,0.1c-0.7,0.1-1.3,0.1-2,0.2c-0.1,0-0.2,0-0.2,0c-0.7,0.4-1.4,0.4-2.1,0.5c-0.1,0-0.2,0.1-0.3,0.1
			C148.4,151.9,148.2,151.9,147.9,151.9z"/>
		<path class="st0" d="M102.8,151.9c-0.7-0.3-1.7,0-2.5-0.6c-0.1-0.1-0.2-0.1-0.3-0.1c-1.1-0.1-2.2-0.3-3.2-0.6
			c-0.5-0.2-1.1-0.1-1.7-0.2c-0.9-0.2-1.8-0.3-2.6-0.6c-0.4-0.1-0.8-0.1-1.3-0.2c-0.6-0.2-1.3-0.2-1.9-0.3c-0.1,0-0.3-0.1-0.4-0.1
			c-0.7-0.4-1.6-0.3-2.3-0.5c-0.4-0.1-0.9-0.2-1.3-0.3c-0.3-0.1-0.6-0.2-1-0.2c-0.1,0-0.2,0-0.3,0c-0.7-0.3-1.4-0.5-2.2-0.5
			c-0.3-0.4-0.8-0.1-1.2-0.3c-0.4-0.3-1.1-0.2-1.7-0.3c-0.3,0-0.5-0.2-0.8-0.2c-1.2-0.2-2.4-0.5-3.6-0.6c-0.2,0-0.4-0.1-0.6-0.2
			c-0.1,0-0.1-0.2-0.1-0.3c0,0,0.1-0.1,0.1-0.1c0.6-0.1,1.3-0.1,1.9-0.2c0.4-0.1,0.8-0.1,1.2-0.2c0.1,0,0.2-0.2,0.1-0.3
			c-0.1-0.3-0.3-0.6-0.4-0.9c0-0.1,0-0.3,0-0.4c0.1-0.1,0.3-0.1,0.4-0.1c1.1,0.3,2.1,0.7,3.2,1c1.4,0.3,2.7,0.8,4.2,1.2
			c0.9,0.2,1.8,0.6,2.7,0.8c0.5,0.1,1,0.2,1.4,0.4c0.4,0.2,0.9,0.1,1.3,0.4c1.1,0.1,2.1,0.7,3.2,0.9c0.2,0.1,0.5,0.1,0.7,0.1
			c0.3,0,0.6,0,0.8,0.3c0,0.1,0.2,0.1,0.3,0.1c1-0.1,1.8,0.7,2.8,0.6c0.5,0.4,1.1,0.3,1.7,0.5c0.5,0.2,1.1,0.3,1.7,0.5
			c0.6,0.2,1.1,0.6,1.7,0.4c0.1,0,0.3,0.2,0.5,0.3c0.2,0.1,0.3,0.3,0.4,0.4c-0.2,0-0.4,0.1-0.6,0.1
			C103.1,151.9,103,151.9,102.8,151.9z"/>
		<path class="st0" d="M103.9,169.4c-0.1,0.1-0.2,0.3-0.3,0.4c-0.8,0.5-1.6,0.9-2.3,1.5c-1.1,0.9-2.3,1.6-3.5,2.3
			c-0.3,0.2-0.6,0.4-0.8,0.6c-0.4,0.4-1.1,0.4-1.4,0.9c-0.3,0.5-0.9,0.6-1.3,1c-0.4,0.4-0.9,0.6-1.3,0.9c-0.4,0.3-0.8,0.5-1.2,0.7
			c-0.6,0.4-1.4,0.7-1.9,1.2c-0.7,0.6-1.5,1-2.3,1.5c-0.9,0.6-1.8,1.2-2.7,1.8c-0.1,0-0.2,0-0.2,0.1c-0.4,0.6-1.2,0.8-1.7,1.2
			c-0.6,0.4-1.1,0.8-1.7,1.2c-0.1,0.1-0.2,0.2-0.3,0.3c-0.2,0.1-0.6,0.2-0.7,0.1c-0.2-0.2,0-0.5,0.2-0.7c0.5-0.6,1-1.3,1.5-1.9
			c0.1-0.1,0.1-0.2,0-0.3c-0.2-0.2-0.4-0.4-0.8-0.4c-0.1,0-0.3-0.1-0.4-0.2c-0.2-0.2,0.2-0.3,0.3-0.4c0-0.1,0.2-0.1,0.2-0.2
			c1-0.5,2-0.9,2.8-1.5c1.1-0.7,2.4-1.2,3.5-1.9c0.4-0.3,0.8-0.5,1.3-0.7c0.4-0.2,0.9-0.4,1.3-0.7c0.7-0.5,1.5-0.8,2.3-1.2
			c0.8-0.4,1.5-0.8,2.2-1.2c1.6-1,3.3-1.8,4.9-2.7c0.6-0.3,1.2-0.8,2-0.8c0.1,0,0.3-0.1,0.3-0.2c0.1-0.3,0.3-0.4,0.6-0.5
			c0.3-0.2,0.8-0.2,1-0.6C103.5,168.8,103.9,169,103.9,169.4z"/>
		<path class="st0" d="M146.6,168.9c0.2,0.1,0.4,0.1,0.5,0.2c0.4,0.2,0.8,0.6,1.2,0.7c0.4,0.1,0.2,0.4,0.4,0.5c0.2,0,0.5-0.1,0.6,0
			c0.5,0.3,0.9,0.5,1.4,0.7c0.6,0.3,1.1,0.6,1.6,0.9c1.1,0.6,2.2,1.1,3.2,1.8c0.4,0.3,0.9,0.5,1.4,0.7c1.2,0.7,2.5,1.2,3.6,2
			c0.2,0.1,0.5,0.2,0.7,0.3c1,0.5,1.9,1.1,2.9,1.6c0.8,0.4,1.5,1,2.4,1.2c0,0,0,0.1,0.1,0.1c0.5,0.2,0.8,0.7,1.4,0.8
			c0.5,0.1,0.8,0.6,1.4,0.7c0.1,0,0.1,0.3,0.1,0.5c0,0.1-0.2,0.1-0.3,0.2c0,0-0.1,0-0.1,0c-0.3,0-0.7,0-0.8,0.3
			c-0.1,0.3,0.1,0.6,0.3,0.8c0.5,0.6,1,1.3,1.5,1.9c0,0-0.1,0.2-0.1,0.2c-0.1,0-0.2,0.1-0.2,0.1c-0.6-0.3-1.1-0.7-1.7-1
			c-1.3-0.9-2.6-1.8-3.9-2.7c-0.6-0.4-1.2-0.8-1.7-1.1c-0.9-0.5-1.7-1.1-2.6-1.7c-0.8-0.6-1.7-1.1-2.5-1.6c-1-0.7-2-1.4-3.1-2
			c-0.8-0.5-1.6-1-2.3-1.6c-0.4,0.1-0.6-0.4-0.9-0.5c-0.3-0.1-0.6-0.5-0.9-0.6c-0.6-0.1-1-0.6-1.5-1c-0.6-0.5-1.4-0.8-2-1.3
			c-0.2-0.1-0.4-0.2-0.4-0.4c0-0.1-0.1-0.2-0.1-0.4C146.4,169,146.5,169,146.6,168.9z"/>
		<path class="st0" d="M81,128.6c0.7,0.1,1.1,0.4,1.6,0.8c0.3,0.3,0.6,0.4,1,0.6c0.4,0.2,0.5,0.7,1,0.6c0,0,0.1,0.1,0.2,0.1
			c1,1.1,2.5,1.7,3.7,2.6c0.6,0.4,1.2,0.6,1.8,1.1c1.2,1,2.5,1.6,3.8,2.5c0.5,0,0.6,0.6,1.1,0.7c0.3,0,0.6,0.4,0.9,0.6
			c0.5,0.5,1.1,0.7,1.6,1.1c0.9,0.6,1.8,1.2,2.6,1.8c0.4,0.3,0.8,0.6,1.2,0.8c0.4,0.2,0.5,0.5,0.9,0.7c0.4,0.2,0.7,0.4,1.1,0.7
			c0.3,0.2,0.7,0.4,1,0.6c0.1,0.1,0.3,0.1,0.3,0.3c0.1,0.1,0.1,0.4,0,0.5c-0.1,0.1-0.3,0.1-0.5,0.1c-0.3-0.1-0.4-0.4-0.8-0.4
			c-0.3,0-0.6-0.2-0.7-0.4c-0.2-0.3-0.6-0.3-0.9-0.5c-0.3-0.1-0.8-0.1-0.8-0.6c-0.4,0-0.7-0.2-1-0.4c-0.3-0.2-0.6-0.3-0.9-0.4
			c-0.4-0.1-0.7-0.3-0.9-0.5c-0.1-0.1-0.3-0.2-0.5-0.3c-1.2-0.5-2.3-1.2-3.3-1.9c-0.9-0.1-1.5-0.8-2.3-1.2c-1.1-0.5-2.2-1.1-3.2-1.7
			c-0.5-0.3-1.1-0.5-1.5-0.8c-0.7-0.5-1.7-0.6-2.3-1.4c-0.1-0.1-0.3,0-0.5-0.1c-0.9-0.6-1.8-1.1-2.8-1.6c-0.1-0.1-0.2-0.2-0.3-0.3
			c-0.3-0.2,0-0.3,0.1-0.4c0.1-0.1,0.3-0.1,0.5-0.1c0.4,0,0.5-0.3,0.7-0.4c0,0,0-0.2,0-0.2c-0.5-0.6-1-1.3-1.5-1.9
			C81.1,129.1,80.9,129,81,128.6C81,128.6,81,128.6,81,128.6z"/>
		<path class="st0" d="M146.6,144.7c-0.4,0-0.4-0.1-0.2-0.4l0.5-0.5c0.9-0.5,1.8-1.1,2.6-1.8c0.4-0.3,0.8-0.6,1.2-0.8
			c0.4-0.2,0.7-0.6,1.2-0.7c0.1,0,0.2-0.1,0.3-0.2c0.4-0.4,0.9-0.7,1.3-1.1c0.2-0.2,0.5-0.1,0.8-0.3c1.3-1,2.7-1.9,4-2.8
			c0.8-0.6,1.8-1,2.6-1.7c0.9-0.7,1.9-1.1,2.8-1.8c0.8-0.7,1.7-1.2,2.6-1.8c1.1-0.7,2.2-1.4,3.2-2.1c0.1-0.1,0.2-0.1,0.3-0.1
			c0.1,0,0.2,0,0.3,0.1c0,0,0,0.2,0,0.2c-0.5,0.7-1.1,1.4-1.6,2.1c-0.2,0.2-0.2,0.4-0.1,0.6c0.1,0.2,0.3,0.3,0.5,0.3
			c0.2,0.1,0.3,0,0.5,0c0.1,0,0.2,0.1,0.2,0.1c0,0.1,0,0.2-0.1,0.3c-0.5,0.4-0.9,0.8-1.5,1c-0.3,0.1-0.6,0.3-0.9,0.5
			c-0.9,0.5-1.8,0.9-2.7,1.4c-1,0.6-2,1.1-3,1.7c-0.5,0.3-1.1,0.5-1.6,0.8c-0.7,0.4-1.4,0.8-2.2,1.1c-0.7,0.3-1.5,0.7-2.2,1.1
			c-1.6,1-3.3,1.8-4.9,2.8c-0.7,0.1-1.1,0.9-1.9,0.8c-0.1,0-0.1,0.3-0.3,0.3c-0.5,0.3-1.1,0.4-1.5,0.9
			C146.9,144.8,146.7,144.7,146.6,144.7z"/>
	</g>
</g>
</svg>
