<?xml version="1.0" encoding="utf-8"?>
<!-- Generator: Adobe Illustrator 20.1.0, SVG Export Plug-In . SVG Version: 6.00 Build 0)  -->
<svg version="1.1" id="Layer_1" xmlns="http://www.w3.org/2000/svg" xmlns:xlink="http://www.w3.org/1999/xlink" x="0px" y="0px"
	 viewBox="0 0 800 300" style="enable-background:new 0 0 800 300;" xml:space="preserve">
<style type="text/css">
	.st0{fill:#FFFFFF;}
</style>
<g>
	<path class="st0" d="M379.3,113.1c6.4-5.1,14.9-7.2,16.5-7.5c0.2,0,0.3-0.1,0.3-0.1c5.3-1.3,7.5,2.3,7.5,2.3
		c0.5-2.3,0.5-5.3,0.4-8.1c-0.3-3.9-0.8-7.2-0.8-7.2c-1.4-9.1-23.9-1.3-23.9-1.3L379.3,113.1L379.3,113.1z"/>
	<path class="st0" d="M401,109.1c0,0,1.6,0.5,2.1-0.8c0,0-2.8-2.5-5.6-1.9l-0.3,4.1C397.1,110.6,398.2,108.2,401,109.1z"/>
	<path class="st0" d="M415,106.5c0,0,0.7,0.2,1.3-0.7c0,0-1.2-1.7-3.6-0.4l-0.3,2.1C412.4,107.5,413.1,106.3,415,106.5z"/>
	<path class="st0" d="M416.5,105.3c0.5-1.4,0.5-3.2,0.5-4.8c-0.1-1.5-0.4-2.6-0.4-2.6c-0.8-4.7-11.9-0.6-11.9-0.6
		c0.2,2.2,0.2,4.1,0.1,5.8c-0.1,2.3-0.3,4-0.3,4c-0.3,3.8-4.1,2.8-4.1,2.8c-1-0.1-1.6,0.1-2,0.4l-0.2,0.1c-0.6,0.5-0.7,1-0.7,1
		c1.3,2.8,4,1.6,4,1.6c3.1-0.6,6.3-4.6,6.3-4.6c1.5-1.8,3.2-2.8,4.5-3.4c1-0.5,1.6-0.6,1.6-0.6C416,103.8,416.5,105.3,416.5,105.3z"
		/>
	<path class="st0" d="M418.1,100.6c0,0,0.2,1.4,0,2.9c-0.1,0.7-0.3,1.5-0.5,2.2c0,0-0.4,1.4-2.3,1.6c0,0-2.3-0.2-1.9,0.9
		c0,0,0.2,1.6,2.4,1.2c0,0,3-0.5,5.7-3.9c0,0,1.4-2.1,4.1-3.5c1.8-1,4.2-1.7,7.2-1.3c0.5,0.1,1,0.2,1.5,0.3
		C434.3,100.9,429.9,94.8,418.1,100.6z"/>
	<path class="st0" d="M380.1,112.7"/>
</g>
<g>
	<path class="st0" d="M295.1,162.3v-29h16c4.1,0,6.7,1.2,8.4,3.1c1.5,1.7,2.3,3.7,2.3,5.9c0,2.5-1,4.7-2.7,6.3s-4.1,2.7-8,2.7h-11
		v11.2L295.1,162.3L295.1,162.3z M300.1,137.8v9h11c1.3,0,3-0.1,4.4-1.4c0.8-0.8,1.4-1.9,1.4-3.1c0-1.2-0.5-2.2-1.2-3
		c-1.4-1.4-3.2-1.5-4.5-1.5H300.1z"/>
	<path class="st0" d="M346.2,162.3v-29h5v29H346.2z"/>
	<path class="st0" d="M378.9,162.3v-29h16c4.1,0,6.7,1.2,8.4,3.1c1.5,1.7,2.3,3.7,2.3,5.9c0,2.5-1,4.7-2.7,6.3
		c-1.7,1.6-4.1,2.7-8,2.7h-11v11.2L378.9,162.3L378.9,162.3z M384,137.8v9h11c1.3,0,3-0.1,4.4-1.4c0.8-0.8,1.4-1.9,1.4-3.1
		c0-1.2-0.5-2.2-1.2-3c-1.4-1.4-3.2-1.5-4.5-1.5H384z"/>
	<path class="st0" d="M446.2,149.5H435v8.5h19.6v4.4h-24.6v-29h23.6v4.4h-18.5v7.2h11.2L446.2,149.5L446.2,149.5z"/>
	<path class="st0" d="M479.6,162.3v-29h16c3.9,0,6.6,1.1,8.4,3.1c1.4,1.5,2.3,3.6,2.3,5.9c0,3.9-2.6,6.9-6.4,8.3l6.9,11.8h-5.8
		l-6.2-11.2h-10.4v11.2H479.6z M484.5,137.8v9h11.9c2.6,0,4.9-2.1,4.9-4.5c0-1.1-0.5-2.1-1.2-2.9c-1.4-1.4-3-1.5-4.5-1.5
		L484.5,137.8L484.5,137.8z"/>
</g>
<g>
	<path class="st0" d="M350.7,184.9c1.1-0.5,1.8-1.5,1.8-2.7c0-2.9-2.6-3.3-5.2-3.3h-2.8V192h2.8c2.3,0,4.1-0.3,5.1-1.4
		c0.5-0.5,0.8-1.4,0.8-2.4C353.2,186.6,352.3,185.5,350.7,184.9z M347.3,184.6h-1.2v-4.5h1c3.1,0,3.6,0.7,3.6,2.2
		C350.7,183.8,349.5,184.6,347.3,184.6z M346.1,185.7h1.6c3.3,0,3.8,1.4,3.8,2.5c0,0.6-0.1,1.1-0.5,1.5c-0.4,0.5-1.1,1-3.8,1h-1.2
		V185.7z"/>
	<path class="st0" d="M376.6,178.6c-4.1,0-7,2.8-7,6.8c0,4,2.9,6.8,7,6.8s6.9-2.8,6.9-6.7C383.5,181.5,380.7,178.6,376.6,178.6z
		 M376.6,179.9c2.6,0,5.2,1.7,5.2,5.6s-2.6,5.6-5.2,5.6s-5.2-1.7-5.2-5.6C371.4,181.6,374,179.9,376.6,179.9z"/>
	<path class="st0" d="M398.7,192.1h1.5l1.4-4h4.8l1.4,4h1.7l-5.5-14.3L398.7,192.1z M402.2,186.7l1.8-4.9l1.8,4.9H402.2z"/>
	<polygon class="st0" points="423,180.2 427.4,180.2 427.4,192 429,192 429,180.2 433.3,180.2 433.3,178.9 423,178.9 	"/>
	<path class="st0" d="M453.5,184.4l-0.7-0.3c-1.4-0.5-2.2-1.1-2.2-2.3c0-1.8,1.7-2,2.3-2c0.9,0,2.3,0.3,3.2,1.7l0.7,1.1v-3l-0.2-0.1
		c-1.1-0.6-2.3-0.9-3.7-0.9c-2.4,0-4.1,1.4-4.1,3.4c0,1.6,1.1,2.8,3.3,3.6l0.8,0.3c2.1,0.7,2.8,1.5,2.8,2.8c0,1.4-1.2,2.3-2.9,2.3
		c-1.6,0-2.7-0.5-3.6-1.9l-0.7-1v2.9l0.2,0.1c1.2,0.7,2.5,1.1,4.1,1.1c2.7,0,4.5-1.5,4.5-3.8C457.4,185.9,455.2,185,453.5,184.4z"/>
</g>
<path class="st0" d="M401.3,258.2l-1.2-0.6L208,146.6L401.3,41.9l192.6,104.7L401.3,258.2z M217.5,146.8l183.9,106.1l183.2-106.2
	L401.3,47.1L217.5,146.8z"/>
</svg>
