<?xml version="1.0" encoding="utf-8"?>
<!-- Generator: Adobe Illustrator 20.1.0, SVG Export Plug-In . SVG Version: 6.00 Build 0)  -->
<svg version="1.1" id="Layer_1" xmlns="http://www.w3.org/2000/svg" xmlns:xlink="http://www.w3.org/1999/xlink" x="0px" y="0px"
	 viewBox="0 0 800 300" style="enable-background:new 0 0 800 300;" xml:space="preserve">
<style type="text/css">
	.st0{fill:#FFFFFF;}
</style>
<path class="st0" d="M475.8,87.1c0-3-0.2-5.4,0.1-7.8c0.3-3.3-1-4.3-4.2-4.2c-15.5,0.1-31.1,0.1-46.6,0.1c-1.9,0-3.8,0.1-5.7,0
	c-2.5-0.1-3.4,1.1-3.3,3.4c0.1,3.6,0,7.3,0,10.9c0,9.9-3.5,14.6-12.9,17.5c-1,0.3-2,0.6-4,1.3c1.6,0.7,2.4,1.2,3.3,1.4
	c10,2.9,14.4,8.7,14.4,19.2c0,3.8,0.1,7.6,0,11.3c-0.1,2.7,0.9,4,3.7,4c17.3,0,34.6,0,51.8,0c2.6,0,3.5-1.2,3.4-3.7
	c-0.2-5.8-0.2-11.6,0-17.4c0.1-3.1-1.2-4-4-4c-10.7,0.1-21.3-0.1-32,0.1c-3.6,0.1-4.9-1-4.6-4.6c0.3-3.1,0.2-6.2,0-9.3
	c-0.1-2.2,0.9-3.1,3.2-3.1c19.1,0,38,0,57.1,0c2.6,0,3.6,1.2,3.6,3.7c-0.2,13.3,0,26.4-0.4,39.7c-0.4,10.8-5.8,16.1-16.7,17.1
	c-4.6,0.5-9.1,0.7-13.7,0.7c-53.9,0.1-107.7,0-161.6,0c-5.3,0-5.3,0-5.3-5.3c0-31.8,0-63.7,0-95.5c0-5.4,0-5.4,5.3-5.4
	c55.6,0,111.2,0,166.8,0.1c4,0,8.1,0.5,12,1.4c8.5,1.9,12.3,6.4,13.3,15.1c0.9,9.1,1,9.1-7.8,10.8C486.1,85.4,481.3,86.1,475.8,87.1
	z M357.6,144.9C357.6,144.8,357.6,145,357.6,144.9c9.3,0,18.6-0.2,27.9-0.4c6.1-0.2,8.8-2.9,9.1-9c0.2-2.2,0.1-4.3,0.1-6.5
	c0-9.6-2.6-12.5-12.2-12.6c-18-0.2-35.9,0-53.9-0.1c-3.3,0-4.2,1.5-4.1,4.4c0.1,6.5,0.2,12.9,0,19.5c-0.1,3.5,1.1,4.8,4.6,4.7
	C338.7,144.8,348.2,144.9,357.6,144.9z M356,100C356,100,356,99.9,356,100c9.1,0,18.4,0.1,27.5-0.1c7.7-0.1,10.5-2.9,10.5-10.5
	c0-2.4-0.1-4.9,0-7.3c0.1-4.2-2.2-6.5-6-7.6c-1.9-0.5-4-0.9-6-0.9c-17.8-0.1-35.6,0-53.4-0.1c-3,0-4,1.2-4,4.1
	c0.1,6,0.2,12.2,0,18.2c-0.1,3.1,1,4.3,4.3,4.2C337.9,99.8,346.9,100,356,100z"/>
<path class="st0" d="M309.5,181.4l27.3-0.2c4.9,0,7.2,1.7,7.2,6.1v3.9c0,3.1-1.9,5-5.5,5.4c3.7,0.5,5.7,2.7,5.8,6.1v4.1
	c0,4.3-3.1,6.3-9.4,6.3l-25.3,0.2L309.5,181.4z M316.8,186.5v7.6l16.9-0.1c2.2,0,3.4-0.5,3.4-2.3v-3c0-1.9-1.1-2.2-3.4-2.2
	L316.8,186.5z M316.8,199.4l0.1,8.1l16.9-0.1c2.6,0,3.6-0.5,3.6-2.9v-2.4c0-2.3-1.1-2.9-3.6-2.8L316.8,199.4z"/>
<path class="st0" d="M358.5,181.2l32.6-0.2v5.4l-25.2,0.2v7.1l14.7-0.1v5.4l-14.7,0.1v7.9l25.5-0.2v6l-32.9,0.2V181.2z"/>
<path class="st0" d="M417,180.9h7.1l18.4,31.8l-8.4,0.1l-3.9-7l-20.2,0.1l-3.6,7h-7.4L417,180.9z M427.3,200l-6.9-12.9l-7.1,13
	L427.3,200z"/>
<path class="st0" d="M452.8,180.7l27.3-0.2c4.9,0,7.2,1.7,7.2,6.1v7.4c0,4.4-2.2,6.2-7.1,6.2h-4.2l14.7,11.9l-10.6,0.1l-12.9-12H460
	l0.1,12h-7.3L452.8,180.7z M460.1,186.1l0.1,8.9l16.6-0.1c2.2,0,3.3-0.5,3.3-2.6v-3.8c0-2.1-1.1-2.6-3.3-2.6L460.1,186.1z"/>
<path class="st0" d="M329.6,228.2l0.1,11.5l13.3-0.1v-4.1H336v-3.1l11.1-0.1v6.3c0,3.4-1.1,4.3-4.5,4.3l-12.6,0.1
	c-3.4,0-4.5-0.9-4.6-4.3l-0.1-9.6c0-3.4,1.1-4.3,4.5-4.3l12.6-0.1c3.3,0,4.5,0.9,4.6,4.1c0,0.2,0,0.3,0,0.4l-4.1,0.8v-2L329.6,228.2
	z"/>
<path class="st0" d="M355.6,224.8l15.7-0.1c2.8,0,4.1,1,4.1,3.5v4.3c0,2.6-1.3,3.6-4.1,3.6h-2.4l8.4,6.9h-6.1l-7.4-6.9h-4v6.9h-4.2
	V224.8z M359.9,227.9v5.1l9.5-0.1c1.3,0,1.9-0.2,1.9-1.5v-2.2c0-1.2-0.6-1.5-1.9-1.5L359.9,227.9z"/>
<path class="st0" d="M388.1,234.7l-9.5-10.1h5.7l6.3,7l6.3-7.1h5l-9.4,10l0.1,8.3h-4.3L388.1,234.7z"/>
<path class="st0" d="M406.5,224.6h4.3l0.1,14.8l13.7-0.1v3.4l-17.9,0.1L406.5,224.6z"/>
<path class="st0" d="M430.3,224.4h4.3l0.1,14.8l13.7-0.1v3.4l-18,0.1L430.3,224.4z"/>
<path class="st0" d="M458,227.5v4l11.4-0.1c3.4,0,4.6,0.9,4.6,4.3v2.5c0,3.4-1.1,4.3-4.6,4.3l-11.3,0.1c-3.4,0-4.6-0.9-4.6-4.3v-0.5
	l3.7-0.8v2.2l12.9-0.1V235l-11.4,0.1c-3.4,0-4.5-0.9-4.6-4.3v-2c0-3.4,1.1-4.3,4.5-4.3l10.4-0.1c3.3,0,4.5,0.9,4.6,4v0.4l-3.7,0.9
	v-2.1H458z"/>
</svg>
