<?xml version="1.0" encoding="utf-8"?>
<!-- Generator: Adobe Illustrator 20.1.0, SVG Export Plug-In . SVG Version: 6.00 Build 0)  -->
<svg version="1.1" id="Layer_1" xmlns="http://www.w3.org/2000/svg" xmlns:xlink="http://www.w3.org/1999/xlink" x="0px" y="0px"
	 viewBox="0 0 800 300" style="enable-background:new 0 0 800 300;" xml:space="preserve">
<style type="text/css">
	.st0{fill:#FFFFFF;}
</style>
<g>
	<path class="st0" d="M198.3,191.9c0.1-0.1,0.2-0.2,0.2-0.3c0-1.2,0.5-2.1,1-3.2c1-2.3,2.7-4,4.5-5.6c0.8-0.7,1.6-1.3,2.5-1.7
		c1-0.4,1.8-1,2.9-1.4c1.3-0.6,2.6-1,4-1.3c1.2-0.3,2.4-0.6,3.6-0.9c1.2-0.2,2.5-0.2,3.6-0.7c0.1,0,0.2,0,0.2,0c0.6,0,1.2-0.1,1.7,0
		c0.6,0.1,1.1-0.3,1.7-0.3c0.6,0,1.1,0,1.7,0s1.2,0,1.7,0c1,0,1.9,0.1,2.8,0c2.1-0.1,4,0.5,6.1,0.2c1,0.4,2.1,0.1,3.1,0.3
		c1,0.2,1.9,0,2.9,0.2c1.1,0.2,2.1,0.2,3.2,0.2c0.6,0,1,0.4,1.6,0.3c0.6-0.1,1.1-0.2,1.6,0.2c0.1,0.1,0.2,0,0.2,0
		c1.3,0.1,2.7,0.2,4.1,0.2c0.6,0.1,1,0.3,1.6,0.2c0.6-0.1,1-0.1,1.5,0.2c1-0.2,1.9,0.3,2.9,0.2c0.4,0,0.9,0.2,1.3,0.2
		s0.9-0.1,1.3,0.2c0.4,0.3,0.8,0,1.1-0.6c0.4-0.6,0.9-1.3,1.3-1.9c0.6-0.8,1-1.5,1.5-2.3c0.7-1.1,1.4-2.3,2.1-3.4
		c0.2-0.2,0.3-0.5,0.5-0.7c0.6-1,1-2.1,1.7-3c0.6-1,1.1-2,1.7-3c1-1.7,1.7-3.6,2.6-5.4c0.2-0.4,0.6-0.8,0.7-1.2
		c0.6-1.6,1.6-3.1,2.1-4.8c1-1,0.8-2.4,1.7-3.3c-0.1-0.9,0.9-1.3,0.8-2.2c0.4-0.4,0.5-1,0.7-1.5c0.4-0.7,0.9-1.4,1-2.2
		c0.2-0.8,0.9-1.3,0.8-2.2c0.6-0.9,0.9-1.9,1.3-2.9c0.6-1.2,1-2.4,1.4-3.6c0.2-0.6,0.6-1.3,0.8-2c0.6-1.5,1.3-2.9,2-4.4
		c0.5-1.1,0.9-2.2,1.3-3.3c0.3-0.7,0.6-1.4,1-2.1c1.7-4.5,4-8.9,6.2-13.2c0.6-1.2,1.3-2.3,1.9-3.4c0.6-1.1,1.3-2.3,2-3.4
		c1-1.7,2.1-3.3,3.2-4.9c1.3-2.1,2.8-4,4.2-6c0.5-0.7,1.2-1.3,1.7-2c0.6-1,1.6-1.6,2.1-2.5c0.1-0.1,0.2-0.2,0.2-0.2c1-1,2-2.1,3.1-3
		c1-1,1.9-1.9,2.9-2.7c1.7-1.3,3.6-2.6,5.4-3.8c1-0.6,2.1-1.2,3.1-1.7c1.7-0.9,3.5-1.7,5.2-2.4c1.7-0.6,3.5-1.3,5.2-1.7
		c1-0.2,1.8-0.6,2.9-0.8c0.7-0.1,1.5-0.3,2.2-0.6c0.4-0.2,0.8-0.1,1.2-0.2c0.4-0.1,0.8-0.3,1.3-0.4c0.4-0.1,0.8-0.1,1.2-0.1
		c0.6,0,1-0.2,1.5-0.3c0.6-0.2,1.2-0.2,1.8-0.2c0.6-0.1,1.1-0.2,1.7-0.2c0.6-0.1,1-0.1,1.6-0.2c0.9-0.2,1.7-0.1,2.6-0.1
		c0.2,0,0.5,0.1,0.5-0.2c3.2,0,6.3,0,9.4,0c0.1,0.1,0.2,0.2,0.2,0.2c0.5,0,1,0.1,1.5,0c0.6-0.1,1,0.2,1.6,0.2c0.5,0.1,1-0.2,1.4,0.2
		c1.1-0.2,2.1,0.3,3.3,0.5c0.5,0.1,1,0.2,1.4,0.2c1,0.2,1.9,0.6,2.9,0.9c1.6,0.6,3,1.3,4.5,2c1.3,0.7,2.5,1.5,3.6,2.6
		c0.6,0.5,1,1.2,1.7,1.4c0.2,0.6,0.7,1.1,1.1,1.7c1.2,1.7,1.9,3.7,2.3,5.8c0.2,0.8,0.2,1.5,0.2,2.3c0,0.7-0.1,1.3,0,2.1
		c0.1,0.9-0.2,1.7-0.2,2.5c-0.2,0.7-0.3,1.5-0.5,2.2c-0.2,1-0.5,1.9-0.9,2.9c-0.6,1.6-1.3,3.2-2.1,4.6c-0.3,0.6-0.4,1.3-1,1.8
		c-0.5,0.5-0.6,1.2-1,1.7s-0.8,1.1-1.2,1.7c-0.7,1-1.5,1.9-2.3,2.9c-0.8,1-1.7,1.9-2.5,2.8c-2.3,2.1-4.8,4-7.4,5.8
		c-2.1,1.3-4.4,2.7-6.7,3.7c-2.6,1.2-5.2,2.4-8,3.1c-1,0.2-1.8,0.7-2.8,1c-1,0.2-1.8,0.4-2.8,0.7c-1,0.3-2,0.3-2.9,0.6
		c-1,0.3-2.1,0.2-3.1,0.7c-0.2,0.1-0.3,0-0.5,0c-0.5,0-1,0-1.4,0.2c-0.4,0.2-1-0.2-1.4,0.2c0,0-0.1,0-0.2,0
		c-1.2,0.1-2.3,0.2-3.5,0.2c-1,0-1.8,0.4-2.9,0.3c-1-0.1-2-0.1-2.9,0c-0.6,0.1-1.3,0.2-1.9,0.2c-0.3,0-0.3-0.2-0.2-0.4
		c0.6-1.2,1.4-2.1,2.8-2.7c1-0.5,2-0.7,3-0.7c0.4,0,0.9-0.2,1.3-0.2c0.4-0.1,0.8,0.2,1.2-0.2c0.1-0.1,0.3,0,0.5,0
		c0.9,0,1.7-0.3,2.5-0.4c1.6-0.2,3.1-0.8,4.6-1.1c1.1-0.2,2.2-0.7,3.3-1.1c1.5-0.6,2.9-1.3,4.4-1.8c1.7-0.6,3.2-1.8,4.8-2.4
		c1.1-1.1,2.5-1.7,3.7-2.6c1.9-1.4,3.7-2.9,5.3-4.6c0.9-1,1.7-1.8,2.5-2.9c0.6-0.7,1.1-1.5,1.7-2.2c0.5-0.6,1-1.3,1.3-2
		c1-1.7,1.9-3.5,2.7-5.2c0.4-0.9,0.8-1.8,1.1-2.7c0.3-0.9,0.4-1.8,0.8-2.7c0.2-0.4,0-0.9,0.2-1.3c0.4-0.8,0.5-4.4,0.3-5.3
		c-0.2-1.3-0.6-2.7-1-4c-0.2-0.6-0.6-1.3-1-1.8c-1-1.6-2.4-2.9-4-3.7c-0.7-0.4-1.4-1-2.3-1.2c-0.8-0.2-1.6-0.6-2.4-0.7
		c-0.9-0.2-1.7-0.6-2.6-0.6c-0.6,0-1.1-0.3-1.7-0.4c-0.2-0.1-0.5-0.1-0.7-0.1c-1.6,0-3.2-0.1-4.7,0c-0.9,0.1-1.8,0.1-2.7,0.5
		c-0.3,0.1-0.6,0-1,0.1c-0.3,0.1-0.6,0.2-0.9,0.2c-0.8,0.3-1.6,0.3-2.4,0.6c-0.7,0.3-1.5,0.5-2.2,0.7c-1.8,0.6-3.5,1.6-5.2,2.4
		c-1.2,0.6-2.1,1.3-3.3,2.1c-1.7,1.1-3.3,2.4-4.8,3.7c-1.4,1.2-2.7,2.5-4,3.8c-1,1-2.1,2.1-2.9,3.3c-0.5,0.6-1,1.2-1.5,1.8
		c-0.6,0.8-1.3,1.6-1.9,2.4c-1.2,1.7-2.4,3.5-3.5,5.3c-0.6,1-1.3,2.1-1.9,3.2c-1.1,1.7-2.1,3.6-3,5.5c-0.6,1.2-1.3,2.4-1.8,3.6
		c-0.3,0.7-0.6,1.4-1,2.1c-0.4,0.7-0.7,1.3-1.1,2.1c-0.4,0.9-0.7,1.7-1.1,2.6c-0.3,0.9-0.9,1.7-1.2,2.5c-0.2,0.8-0.6,1.6-1,2.4
		c-0.8,1.6-1.3,3.2-2.1,4.8c-0.6,1.3-1.1,2.6-1.7,3.9c-0.9,2.1-2,4-2.7,6.1c-0.2,0.5-0.5,0.9-0.7,1.3c-0.8,1.7-1.6,3.3-2.3,4.9
		c-0.5,1.1-1.1,2.1-1.6,3.2c-0.3,0.7-0.6,1.4-1,2.1c-1.1,1.9-2,3.9-3.1,5.9c-0.9,1.5-1.6,3.1-2.5,4.5c-1.1,1.8-2.1,3.8-3.4,5.6
		c-1,1.3-1.7,2.9-2.7,4.2c-0.4,0.6-1,1.2-1.3,1.9c-0.3,0.6-1,1.2-1.3,1.7c-1,1.5-2.3,2.9-3.4,4.3c-0.6,0.9-1.5,1.5-2.2,2.3
		c-0.2,0.2-0.2,0.3,0.1,0.3c0.2,0,0.4,0.2,0.6,0.2c1-0.1,1.9,0.2,2.9,0.2c0.6,0,1,0.2,1.4,0.3c0.5,0.1,1-0.2,1.4,0.2
		c0.1,0.1,0.3,0,0.5,0c0.6,0.1,1-0.2,1.6,0.2c0.4,0.2,1-0.2,1.5,0.3c0.1,0.1,0.3,0,0.5,0c1,0.1,2.1,0.1,3.1,0.3
		c0.6,0.2,1.3,0,1.9,0.2c0.6,0.3,1.3,0.1,1.8,0.2c0.4,0.1,0.8,0.3,1.3,0.2c0.4,0,0.8-0.1,1.2,0.2c0.4,0.2,1,0,1.3,0.2
		c0.6,0.2,1.3,0.1,1.9,0.2c0.6,0.2,1.3,0.1,1.8,0.2c0.6,0.2,1.3,0.2,1.9,0.2c0.6,0.1,1.3,0.1,1.8,0.3c0.6,0.2,1.3,0.2,2,0.2
		c0.4,0.1,0.9,0.2,1.3,0.2c0.5,0.1,1-0.2,1.3,0.2c0.1,0.1,0.2,0,0.4,0c0.6,0,1.2,0,1.8,0.2c0.5,0.2,1.2-0.2,1.7,0.3
		c0.9-0.2,1.7,0.2,2.5,0.2c0.5,0,1,0.2,1.4,0.2c0.5,0.1,0.9-0.2,1.3,0.2c0.1,0.1,0.3,0,0.5,0c1,0.1,2.1,0.1,3.1,0.3
		c0.6,0.2,1.3,0.1,1.9,0.2c0.6,0.2,1.2,0.2,1.8,0.2c0.4,0,0.8,0.2,1.3,0.2c0.4,0,0.8-0.1,1.2,0.2c0.4,0.2,1,0,1.3,0.2
		c0.6,0.2,1.3,0.1,1.9,0.2c0.6,0.2,1.3,0.1,1.9,0.2c0.6,0.2,1.3,0.1,1.9,0.2c0.6,0.2,1.3,0.2,1.9,0.2c0.4,0,0.9,0.2,1.3,0.2
		c0.4,0.1,0.9-0.2,1.2,0.2c0.1,0.1,0.2,0,0.4,0c1,0.1,2,0.1,2.9,0.3c0.6,0.2,1.3,0,1.9,0.2c0.6,0.2,1.3,0,1.8,0.2
		c0.7,0.2,1.4,0,2.1,0.3c0.7,0.3,1.3,0,1.9,0.2c0.6,0.3,1.3,0,1.8,0.2c0.6,0.2,1.3,0,1.8,0.2c0.7,0.3,1.5,0,2.1,0.3
		c0.7,0.4,1.5-0.2,2.1,0.4c0.1,0.1,0.2,0,0.2,0c1,0.1,2.1,0.1,3.2,0.3c0.6,0.2,1.3,0.1,1.9,0.2c0.6,0.2,1.3,0.1,1.9,0.2
		c0.6,0.2,1.3,0,1.9,0.2c0.6,0.3,1.3,0,1.8,0.2c0.6,0.2,1.3,0.1,1.9,0.3c0.6,0.2,1.3,0,1.9,0.2c0.6,0.2,1.3,0.1,1.8,0.2
		c0.6,0.2,1.3,0.1,1.8,0.2c0.7,0.2,1.4,0.1,2.1,0.2c0.7,0.2,1.3,0.2,2.1,0.2c0.4,0.1,0.9,0.2,1.3,0.2s0.9-0.2,1.2,0.2
		c0,0.1,0.2,0,0.2,0c1,0.1,2,0.2,2.9,0.2c0.4,0.1,0.9,0.2,1.3,0.2c0.4,0.1,0.8-0.1,1.2,0.2c0.1,0.1,0.2,0,0.2,0
		c0.6,0.1,1.2-0.1,1.8,0.2c0.6,0.2,1.2,0.1,1.8,0.2c0.9,0.2,1.9,0.2,2.8,0.3c0.4,0.1,0.9,0.2,1.3,0.2s1-0.2,1.3,0.2
		c0.1,0.1,0.3,0.1,0.5,0.1c0.6,0,1.2,0,1.8,0.2c0.5,0.2,1.1-0.1,1.7,0.2c0.2,0.1,0.4,0,0.6,0c0.6,0.1,1-0.2,1.6,0.2
		c0.4,0.2,1.1-0.2,1.5,0.3c0.1,0.1,0.2,0,0.2,0c1,0.1,2,0.2,2.9,0.2c0.4,0.1,0.9,0.2,1.3,0.2s0.8-0.1,1.2,0.2c0.1,0.1,0.3,0,0.5,0
		c1,0.1,2.1,0.1,3.1,0.3c0.6,0.2,1.1,0.2,1.7,0.2c0.4,0,0.6-0.2,0.6-0.5c0.2-1.2,0.9-2.2,1.3-3.4c0.4-1.1,1-2.1,1.3-3.3
		c0.5-1.5,1.3-2.9,1.7-4.4c0.2-0.8,0.6-1.6,1-2.4c0.8-1.6,1.3-3.3,2-4.9c0.2-0.7,0.6-1.3,0.9-2.1c0.7-1.7,1.4-3.6,2.1-5.3
		c0.4-1,0.7-1.9,1.2-2.9c0.4-0.9,0.8-1.8,1.1-2.7c0.3-1,0.7-1.8,1.1-2.7c0.6-1.2,1-2.4,1.5-3.6c0.7-1.7,1.3-3.3,2.1-5
		c0.5-1.1,0.7-2.5,1.5-3.4c0.3-0.5,0-1.1,0.5-1.5c0.1,0,0-0.2,0-0.2c-0.2-0.6-1.3-1.6-2.1-1.7c-1.2-0.2-2.3-0.3-3.5-0.5
		c-0.7-0.1-1.3-0.6-1.5-1.1s-0.2-1.1,0.1-1.7c0.2-0.2,0.3-0.4,0.3-0.6c0.1-0.6,0.5-0.6,0.9-0.6c2.6,0,5.2,0,7.8,0
		c0.6,0,0.9-0.2,1.1-0.7c1-2.1,2.1-4,2.7-6.3c0.6-0.6,0.6-1.7,1.2-2.3c0-0.6,0.5-1.1,0.6-1.7c0.4-1.3,1-2.5,1.5-3.7
		c0.3-1,0.8-1.9,1.3-2.8c0.3-0.6,0.6-1.2,0.8-1.8c0.5-1.3,1.1-2.5,1.6-3.8c0.8-1.8,1.6-3.6,2.4-5.4c0.6-1.1,1-2.3,1.4-3.5
		c0.2-0.6,0.6-1,0.8-1.4c0.6-1.2,1.2-2.4,1.7-3.6c0.3-0.6,0.6-1.3,1-2c0.7-1,1.2-2.1,2-3.1c0.4-0.4,0.6-1,1-1.3
		c0.8-0.9,1.6-1.7,2.3-2.6c1-1.3,2.2-2.2,3.3-3.3c1.1-1,2.4-1.9,3.7-2.7c0.7-0.4,1.4-0.9,2.2-1.2c1.7-0.7,3.5-1.5,5.3-1.9
		c1.3-0.3,2.5-0.5,3.7-0.8c0.9-0.2,1.7-0.2,2.5-0.2c1.6-0.1,3.3-0.2,4.8-0.2c0.7,0,1.3,0.2,2.1,0.2c0.7,0.1,1.3-0.1,2.1,0
		c1.9,0.4,3.8,0.9,5.4,2.1c0.9,0.6,1.4,1.5,1.7,2.6c0.1,0.6,0.2,1,0.2,1.6c0,0.5-0.1,1-0.2,1.4c-0.3,1.7-1.2,3-2.1,4.4
		c-0.6,0.9-1.4,1.7-2.5,2.2c-0.5,0.2-1,0.5-1.4,0.8c-0.7,0.5-1.6,0.6-2.4,0.7c-0.9,0.2-1.8,0.2-2.7,0.2c-1.3,0-2.5-0.4-3.6-1
		c-1.3-0.7-1.9-1.7-2-3.1c-0.1-2,0.7-3.5,2.1-4.9c0.9-0.9,1.7-1.7,2.9-2.3c0.8-0.4,1.6-0.8,2.4-1c0.1,0,0.1-0.2,0.4-0.2
		c0.4,0,0.5,0,0.6,0c0.2,0,0.2-0.1,0.4-0.2c-0.1,0-0.2-0.1-0.3-0.1c-0.2,0-0.5,0-0.7,0c-0.1,0-0.2,0.1-0.2,0.2
		c0.1,0.1,0.1,0.1,0.2,0.1c0.2,0,0.3,0,0.2,0c-2.1-0.2-3.9,0.4-5.5,0.9c-1.3,0.3-2.6,1.1-3.8,1.7c-1.7,0.9-3.2,1.9-4.5,3.3
		c-0.5,0.5-0.9,0.9-1.3,1.3c-1.5,1.4-2.9,2.9-4,4.7c-0.7,0.4-0.7,1.3-1.2,1.8c-0.5,0.5-0.8,1-1,1.7c-0.2,0.6-0.6,1.3-1,1.9
		c-0.3,0.6-0.7,1.2-0.9,1.8c-0.3,1.1-0.9,2.1-1.3,3.2c-0.3,1-0.8,2.1-1.3,3c-0.7,1.5-1.3,3.1-2,4.7c-1,2.6-2.1,5.2-3.1,7.8
		c-0.6,1.6-1.3,3.2-2,4.8c-0.9,2.1-1.8,4.2-2.6,6.4c-0.2,0.8-0.7,1.6-1,2.4c-0.1,0.3-0.2,0.6-0.3,0.9c0,0.1,0,0.2,0.1,0.2
		c0.2,0,0.4,0,0.6,0c2.1,0,4.2,0,6.3,0c0.3,0,0.6,0,0.9,0.1c0.1,0,0.6,0.2,0.2,0.5c-0.2,1.5-1.3,2.4-2.4,3.2
		c-0.2,0.2-0.6,0.2-0.9,0.3c-0.8,0.1-1.5,0.2-2.3,0.2c-1.4,0.2-2.9,0.4-4,1.3c-0.6,0.4-1,1-1.6,1.4c0,0.8-0.6,1.3-0.8,2
		c-0.2,1.1-0.9,2-1.2,3.1c-0.6,1.7-1.3,3.3-1.9,4.8c-0.5,1.2-1,2.3-1.4,3.5c-0.8,2-1.7,3.9-2.3,5.9c-0.3,1-0.9,2-1.3,3
		c-0.6,1.6-1.3,3-1.8,4.6c-0.3,1-0.9,1.9-1.3,2.9c-0.6,1.6-1.3,3.1-1.8,4.7c-0.4,1-0.8,2.1-1.3,3.2c-0.9,1.9-1.5,4-2.5,5.9
		c0.1,0.9-0.6,1.6-0.8,2.3s-0.6,1.4-0.9,2.1c-0.2,0.4-0.2,0.8-0.4,1.1c-0.1,0.3-0.3,0.6-0.5,0.8c0.4,0.1,0.7,0.3,1.1,0.3
		c1,0.1,2.1,0.1,3.2,0.3c1.4,0.2,2.9,0.2,4.2,0.6c0.6,0.2,1.3,0.2,1.9,0.2c0.5,0.1,1,0.2,1.4,0.2c0.5,0.1,1-0.2,1.4,0.2
		c0.1,0.1,0.2,0,0.4,0c1.2,0.1,2.4,0.1,3.6,0.3c0.9,0.2,1.7,0.1,2.5,0.2c0.7,0.2,1.5,0.1,2.2,0.2c0.7,0.2,1.5,0.1,2.1,0.2
		c1,0.2,1.9,0.2,2.9,0.2c0.6,0.1,1,0.2,1.6,0.2c0.6,0.1,1.1-0.2,1.6,0.2c0.1,0.1,0.2,0,0.2,0c1.6,0.1,3.3,0.2,4.8,0.2
		c0.6,0.1,1.3,0.2,1.9,0.2c0.6,0.1,1.3-0.2,1.9,0.1c0.8,0.3,1.7,0.2,2.5,0.2c0.9,0.1,1.8,0.2,2.7,0.2c0.9,0.1,1.7,0,2.7,0
		c0.3,0,0.7,0.6,1,0.1c0.3,0.4,0.8,0.2,1.2,0.2c0.4,0,0.9,0,1.3,0s0.9,0,1.3,0c1.7,0.1,3.4,0.2,5.1,0.2c1.7,0.1,3.5,0,5.2,0
		c0.8,0,1.6-0.2,2.5-0.2s1.7,0.2,2.5-0.1c1-0.3,2.1-0.2,3.1-0.2c0.6-0.1,1-0.2,1.6-0.2s1.1,0.2,1.6-0.2c0.1-0.1,0.2,0,0.4,0
		c1.2,0,2.4-0.2,3.5-0.5c0.3-0.1,0.8,0,1.1,0s0.6-0.2,1-0.2c1.8-0.2,3.6-0.6,5.4-1c0.9-0.2,1.8-0.4,2.8-0.7c1.1-0.3,2.2-0.7,3.3-1
		c2-0.5,3.8-1.4,5.8-1.9c1.1-0.3,2.1-0.9,3.3-1.3c2.4-1,4.7-2.1,6.9-3.3c1.3-0.8,2.8-1.5,4.1-2.4c1.4-1,2.9-1.7,4.2-2.7
		c0.8-0.6,1.6-1.2,2.5-1.7c1.2-0.7,2.4-1.6,4-1.6c0.6-0.5,1.2-0.1,1.7-0.3c0.6-0.3,1.1-0.1,1.7-0.2c0.1,0,0.3,0.1,0.3,0.1
		c0,0.2,0,0.3-0.1,0.4c-0.3,0.3-0.6,0.6-1,1c-0.2,0.2-0.6,0.4-0.8,0.8c-0.1,0.2-0.5,0.3-0.6,0.5c-1.2,1.1-2.3,2.3-3.6,3.3
		c-1,0.7-1.9,1.4-2.8,2.1c-1.1,0.9-2.1,1.7-3.3,2.5c-0.6,0.4-1.2,0.9-1.7,1.3c-0.8,0.6-1.6,1.1-2.4,1.6c-1.6,1-3.3,2.1-4.8,3
		c-2.4,1.4-4.8,2.8-7.4,3.9c-2.1,1-4.2,1.9-6.3,2.7c-1.7,0.6-3.3,1.1-4.9,1.9c-0.5,0.2-1.1,0.3-1.7,0.5c-1.1,0.3-2.2,0.7-3.3,1.1
		c-0.9,0.3-1.8,0.6-2.8,0.7c-1.2,0.2-2.4,0.6-3.6,1c-0.6,0.2-1.1,0.2-1.7,0.3c-1.6,0.4-3.1,0.6-4.7,1c-0.3,0.1-0.8,0-1.1,0
		s-0.6,0.2-1,0.2c-0.7,0-1.4,0.3-2.2,0.3c-0.7,0-1.4,0.2-2.1,0.2c-0.7,0.2-1.5,0-2.1,0.2c-0.7,0.3-1.4,0-2.1,0.2
		c-0.9,0.3-1.8,0.1-2.7,0.2c-1.5,0.4-3,0-4.4,0.2c-2.4,0.4-4.8,0.2-7.1,0.2s-4.8,0-7.2,0c-1,0-2-0.2-2.9-0.2c-1-0.1-2,0.2-2.9-0.1
		c-1-0.2-2-0.1-2.9-0.2c-1.1-0.2-2.2,0-3.2-0.3c-1-0.3-2.1,0.2-3-0.5c0,0-0.1,0-0.2,0c-1.1-0.1-2.2-0.2-3.3-0.2
		c-0.4-0.1-0.9-0.2-1.3-0.2c-0.5-0.1-0.9,0.1-1.3-0.2c-0.1-0.1-0.3,0-0.5,0c-1.3,0.1-2.6-0.1-3.9-0.5c-0.1,0-0.2,0-0.2,0
		c-1.1-0.1-2.2-0.2-3.3-0.2c-0.5,0-0.9-0.4-1.4-0.3c-0.4,0.1-0.9,0.2-1.3-0.2c-0.1-0.1-0.3,0-0.5,0c-1-0.1-2.1-0.1-3.1-0.3
		c-0.7-0.2-1.3-0.2-2.1-0.2c-0.4-0.1-0.9-0.2-1.3-0.2c-0.4-0.1-0.9,0.2-1.2-0.2c-1,0.2-2.1-0.2-3.1-0.2c-0.4,0-0.6,0.2-0.9,0.4
		c-0.2,0.3-0.5,0.6-0.8,0.9c-0.3,0.3-0.6,0.6-1,0.8c-0.3,0.3-0.6,0.6-0.9,0.9c-1.9,1.8-4,3.3-6.3,4.7c-1.2,0.7-2.4,1.4-3.6,2.1
		c-1.3,0.6-2.8,1.3-4.2,1.7c-1.2,0.5-2.4,0.9-3.6,1.1c-1,0.2-2,0.6-3,0.6c-0.3,0-0.6,0.2-1,0.2c-0.3,0.1-0.6-0.2-1,0.2
		c-0.1,0.1-0.2,0.1-0.3,0.1c-1.3,0-2.6,0.4-4,0.2c-0.2,0-0.5-0.1-0.5,0.2c-1.6,0-3.3,0-4.8,0c0-0.1-0.1-0.2-0.1-0.2
		c-0.3-0.1-0.6-0.1-0.3-0.6c0.4-0.7,0.9-1.2,1.6-1.6c1.1-0.6,2.4-1,3.6-1.2c1-0.2,1.9-0.6,2.9-0.6c0.6-0.6,1.4-0.4,2.1-0.7
		c0.6-0.3,1.4-0.6,2.1-0.9c2.3-1.1,4.4-2.6,6.3-4.3c1.7-1.4,3-3.1,4.3-4.8c0.3-0.4,0.6-1,0.9-1.4c0.2-0.5,0.1-0.8-0.4-0.8
		c-0.7,0-1.4,0-2.2-0.2c-1-0.2-2.1-0.4-3.1-0.5c-1.4-0.1-2.8-0.6-4.2-0.6c-0.7,0-1.4-0.3-2.2-0.2c-0.4-0.4-1-0.1-1.4-0.3
		c-0.6-0.2-1-0.2-1.6-0.2c-0.2,0-0.3,0.1-0.4,0c-0.4-0.5-1-0.1-1.4-0.2c-0.5-0.2-1-0.2-1.4-0.2c-0.2,0-0.4,0.1-0.5,0
		c-0.4-0.4-1-0.1-1.3-0.2c-0.5-0.2-1-0.2-1.4-0.2c-0.8-0.1-1.6,0-2.3-0.3c-0.5-0.2-1,0-1.4-0.2c-0.6-0.2-1-0.2-1.6-0.2
		c-0.2,0-0.4,0.1-0.5,0c-0.5-0.3-1.1-0.1-1.5-0.3c-0.6-0.2-1-0.2-1.6-0.2c-0.2,0-0.3,0-0.4-0.1c-0.3-0.4-0.7-0.2-1-0.2
		c-0.3-0.1-0.7-0.2-1-0.2c-0.6-0.2-1.1,0.2-1.7-0.2c-0.5-0.2-1.1,0.1-1.7-0.3c-1.4,0.1-2.8-0.5-4.2-0.6c-0.7,0-1.4-0.3-2.2-0.2
		c-0.4-0.4-1-0.1-1.4-0.3c-0.6-0.2-1-0.2-1.6-0.2c-0.2,0-0.3,0.1-0.4,0c-0.4-0.5-1-0.1-1.4-0.2c-0.5-0.2-1-0.2-1.4-0.2
		c-0.2,0-0.3,0-0.5,0c-0.9-0.4-1.8-0.3-2.7-0.5c-0.8-0.2-1.6,0-2.3-0.3c-0.6-0.2-1.1,0-1.5-0.2c-0.6-0.4-1-0.2-1.6-0.2
		c-0.2,0-0.3,0.1-0.4,0c-0.5-0.4-1.1-0.1-1.5-0.3c-0.6-0.2-1.1-0.1-1.6-0.2c-0.7-0.2-1.4,0-2.1-0.2c-1.3-0.5-2.6-0.3-3.9-0.7
		c-0.5-0.2-1-0.2-1.5-0.2c-0.6-0.2-1.1-0.2-1.7-0.2c-1.3-0.2-2.5-0.3-3.7-0.6c-1-0.2-2.1-0.4-3.1-0.5c-1.4-0.1-2.8-0.6-4.2-0.6
		c-0.7,0-1.4-0.3-2.2-0.2c-0.4-0.4-1-0.1-1.4-0.3c-0.6-0.2-1-0.2-1.6-0.2c-0.2,0-0.3,0.1-0.4,0c-0.4-0.5-1-0.1-1.4-0.2
		c-0.6-0.2-1-0.2-1.6-0.2c-0.2,0-0.5,0.1-0.6,0c-0.4-0.4-0.9-0.1-1.3-0.2c-0.4-0.2-0.8-0.3-1.3-0.2c-0.7,0.1-1.4-0.4-2.2-0.2
		c-0.5-0.5-1.1,0-1.5-0.3c-0.6-0.3-1-0.2-1.6-0.2c-0.2,0-0.3,0.1-0.4,0c-0.5-0.4-1.1-0.1-1.5-0.3c-0.6-0.2-1-0.2-1.6-0.2
		c-0.2,0-0.2,0-0.4,0c-0.9-0.3-1.8-0.3-2.7-0.5c-0.8-0.2-1.6,0-2.3-0.3c-0.5-0.2-1,0-1.4-0.2c-0.6-0.3-1-0.2-1.6-0.2
		c-0.2,0-0.5,0.1-0.6,0c-0.4-0.4-1-0.1-1.3-0.2c-0.5-0.2-1-0.2-1.4-0.2c-0.7-0.1-1.3-0.4-2.1-0.2c-0.4-0.4-0.9-0.2-1.3-0.2
		c-0.4-0.1-0.9-0.2-1.3-0.2c-0.8-0.1-1.7,0-2.5-0.3c-0.6-0.2-1.3,0-1.8-0.2c-0.6-0.2-1.1,0-1.5-0.2c-0.6-0.3-1.1-0.2-1.7-0.2
		c-0.2,0-0.4,0-0.5-0.1c-0.3-0.3-0.7-0.1-1.1-0.2c-0.4-0.1-0.8-0.2-1.2-0.2c-0.8-0.1-1.7-0.1-2.5-0.3c-1.1-0.2-2.2-0.5-3.3-0.5
		c-0.2,0-0.3,0-0.3-0.1c-0.3-0.4-0.7-0.2-1-0.2c-0.4-0.1-0.8-0.2-1.2-0.2c-1,0.1-1.7-0.5-2.7-0.2c-0.5-0.4-1.1-0.1-1.7-0.3
		c-0.9-0.3-1.8-0.2-2.7-0.5c-0.3-0.1-0.7,0-1-0.2c-0.6-0.2-1.1-0.2-1.5,0.4c-0.2,0.2-0.3,0.4-0.6,0.5c-1.3,0.7-2.5,1.6-3.8,2.4
		c-1.6,1-3.2,1.9-4.8,2.8c-1.4,0.7-2.9,1.4-4.4,2.1c-0.6,0.3-1.3,0.6-2.1,1c-1.3,0.5-2.6,1-3.9,1.4c-0.6,0.2-1.3,0.5-1.9,0.6
		c-0.8,0.2-1.6,0.4-2.4,0.6c-1.6,0.6-3.3,0.9-4.8,1.1c-0.2,0.1-0.6,0.2-0.8,0.2c-0.3,0.1-0.7-0.1-1,0c-1.2,0.5-2.5,0.5-3.6,0.7
		c-1.4,0.2-3,0.3-4.4,0.2c-0.9-0.1-1.7,0.6-2.6,0.1c-0.2-0.1-0.5,0.2-0.8,0.2c-0.5,0.1-1,0.2-1.3,0c-0.5-0.2-0.9,0.2-1.3,0
		c-0.4-0.1-0.8-0.2-1.2-0.2c-1.2-0.1-2.4,0.2-3.6-0.2c-0.6-0.2-1.1-0.1-1.7-0.2c-0.6-0.2-1.2-0.2-1.8-0.2c-1.6-0.2-3.1-0.7-4.6-1.1
		c-1.8-0.5-3.5-1.4-5.1-2.5c-1.1-0.7-2.1-1.7-2.9-2.7c-1-1.1-1.7-2.4-1.8-4c0-0.1-0.2-0.2-0.2-0.2c0-0.1,0-0.2,0-0.2
		c0.1,0,0.2-0.1,0.2-0.1c-0.1-0.1-0.2-0.1-0.2-0.2C198.3,193,198.3,192.5,198.3,191.9z M226,200.8c1.1,0,2.3,0,3.4,0
		c0.2,0,0.6,0.1,0.7,0c0.5-0.5,1.1-0.1,1.7-0.3s1.2-0.4,1.7-0.4c1.1,0.1,2.1-0.5,3.1-0.6c1.5-0.3,2.9-1,4.4-1.7
		c1.3-0.6,2.6-1.1,3.8-1.9c0.9-0.6,1.9-1,2.8-1.7c0.6-0.4,1.3-0.8,1.7-1.3c0.9,0,1.3-0.8,1.9-1.2c0.8-0.5,1.4-1.2,2.2-1.7
		c0.2-0.2,0.3-0.4,0.5-0.6c-0.2,0-0.5-0.1-0.7-0.1c-0.2,0-0.4,0-0.6,0c-0.8-0.3-1.6-0.5-2.5-0.5c-0.2,0-0.4,0-0.6-0.1
		c-0.8-0.2-1.6-0.4-2.4-0.4c-0.9-0.1-1.7-0.2-2.5-0.3c-1.2-0.2-2.3-0.5-3.5-0.5c-0.2,0-0.3,0-0.5-0.1c-0.9-0.3-1.8-0.3-2.7-0.5
		c-1-0.2-2-0.2-2.9-0.2c-0.1,0-0.1,0-0.2,0c-0.5-0.5-1-0.2-1.6-0.2c-0.5-0.1-1-0.2-1.5-0.2c-0.8-0.1-1.7,0.2-2.5-0.2
		c-1.2,0.1-2.3-0.2-3.5-0.2c-1.8-0.1-3.6-0.1-5.5,0c-1.8,0.1-3.6-0.2-5.4,0.2c-0.6,0.2-1.2-0.2-1.8,0.2c-0.6,0.3-1.3-0.2-1.9,0.3
		c-1.9,0.2-3.6,1-5.2,1.8c-0.4,0.2-0.6,0.5-1,0.7c-0.9,0.6-1.3,1.6-1.6,2.6c-0.3,1.2-0.1,2.4,0.6,3.3s1.7,1.7,2.8,2.2
		c0.6,0.4,1.4,0.7,2.1,1c1.1,0.4,2.2,0.7,3.4,1c1.2,0.3,2.4,0.5,3.5,0.7c0.6,0.2,1.2,0.1,1.8,0.2c0.6,0.2,1.2-0.1,1.8,0.3
		c1.3-0.2,2.5,0.3,3.8,0.2C224.1,200.7,225.1,200.8,226,200.8z"/>
	<path class="st0" d="M591.5,84.6c-0.1,0.1-0.2,0.2-0.2,0.3c0.1,1.3-0.5,2.3-0.9,3.4c-0.4,1.1-1,2.1-1.8,2.9c-0.4,0.4-0.6,0.9-1,1.2
		c-0.7,0.6-1.6,1.2-2.5,1.7c-1.4,1-3.1,1.3-4.8,1.7c-0.6,0.2-1.3,0.1-2.1,0c-0.6-0.1-1.3,0.2-1.9-0.2c-1.7,0-3-0.8-4.4-1.5
		c-1.4-0.7-2.6-1.7-3.6-3.1c-0.5-0.6-1-1.3-1.3-2c-0.7-1.6-1.5-3.2-1.4-5c0-0.2-0.2-0.5-0.2-0.7c0-0.5-0.2-1,0-1.3
		c0.2-0.3,0.2-0.6,0.2-1c0.1-1.2,0.4-2.3,0.9-3.5c0.7-1.8,1.8-3.3,3.2-4.7c1.4-1.3,3.2-2.3,5-2.9c0.6-0.2,1.3-0.2,1.9-0.3
		c0.4-0.1,0.8-0.2,1.2-0.2c0.4-0.1,0.9,0,1.3,0c2.5,0.2,4.7,0.8,6.7,2.1c1.7,1.2,3.2,2.7,4.2,4.4c0.6,1,1,2,1.2,3.1
		c0.1,0.6,0.3,1.1,0.3,1.7c0,0,0.2,0.1,0.2,0.1C591.5,82.2,591.5,83.4,591.5,84.6z M578.6,93.8c1.7,0.2,3.2-0.3,4.6-1
		c1.3-0.6,2.4-1.7,3.4-2.9c0.6-0.6,1.1-1.4,1.3-2.2c0.3-1.1,0.8-2.1,0.9-3.3c0.2-2,0.2-3.2-0.3-4.8c-0.4-1.3-1-2.5-1.8-3.6
		c-0.6-0.8-1.1-1.6-1.9-2.1c-1.3-0.9-2.7-1.8-4.4-1.8c-1.5-0.6-3-0.2-4.4,0.1c-1.5,0.3-2.9,1.2-4,2.2c-1.2,1-2,2.3-2.6,3.6
		c-0.6,1.1-0.9,2.4-1,3.6c-0.3,2.2,0.3,4.2,1.2,6.3c0.6,1.5,1.8,2.6,3,3.7c0.6,0.6,1.3,1,2,1.3C575.7,93.4,577.1,94,578.6,93.8z"/>
	<path class="st0" d="M327,180.4c-2.9,0-5.7,0-8.5,0c-0.6,0-0.3-0.2-0.2-0.5c0.6-1.2,0.9-2.5,1.5-3.6c0-0.1,0-0.2-0.1-0.2h-0.2
		c-0.6,0.5-1.2,1-1.8,1.5c-0.6,0.4-1.1,0.8-1.7,1.2c-0.6,0.4-1.3,0.7-2,1c-0.8,0.2-1.6,0.5-2.4,0.8c-0.5,0.2-1.1-0.1-1.7,0.3
		c-1.2-0.1-2.4,0.5-3.6,0.2c-0.9-0.2-1.7-0.2-2.5-0.3c-0.8,0-1.7-0.2-2.5-0.6c-2.1-0.7-4-1.7-4.8-4c-0.2-0.6-0.3-1.2-0.3-1.7
		c0-0.6-0.2-1.2,0.2-1.7c-0.1-1.1,0.5-2,0.8-3c0.2-0.7,0.6-1.5,0.9-2.2c0.7-1.7,1.5-3.3,2.2-5.1c0.3-0.7,0.7-1.4,1-2.1
		c0.2-0.7,0.9-1.3,0.8-2.1c0.6-0.7,0.7-1.6,1-2.4c0.5-1,0.9-1.9,1.3-2.9c0.2-0.5-0.2-1,0.3-1.3c-0.2-0.3-0.3-0.6-0.5-1
		c-0.1-0.2-1-0.7-1.3-0.7c-1.2-0.2-2.2-1.3-1.5-2.9c0.6-1.2,0.6-1.2,1.8-1.2c5.2,0,10.4,0,15.6,0c0.4,0,0.9-0.2,1.2,0.2
		c0.2-0.2,0.5-0.3,0.4,0.2c-0.1,0.2-0.1,0.5-0.2,0.7c-0.8,1.9-1.5,3.8-2.3,5.6c-0.5,1-0.9,2.1-1.2,3.2c-0.4,1-0.9,2.1-1.3,3
		c-0.4,1-0.8,1.9-1.1,2.9c-0.3,1-0.7,1.9-1.1,2.9c-0.9,1.9-1.5,3.9-2.4,5.8c-0.3,0.8-0.7,1.7-0.6,2.7c0.1,1.3,1,2.4,2.4,2.4
		c1,0,2-0.3,2.9-0.6c0.9-0.2,1.7-0.8,2.5-1.1c0.9-0.4,1.6-1,2.2-1.6c0.6-0.6,1.2-1.3,1.4-2.3c0.1-0.3,0.2-0.6,0.3-0.9
		c0.8-1.5,1.4-3.2,2.1-4.8c0.4-1,0.9-1.9,1.3-2.9c0.5-1.1,1-2.1,1.4-3.3c0.5-1.1,1-2.1,1.3-3.3c0.1-0.5,0.5-0.8,0.6-1.3
		c0.2-0.6,0.6-1.1,0.6-1.7c0-0.5-0.2-1-0.8-1.3c-0.4-0.2-0.6-0.6-1.2-0.6c-0.7,0-1.2-0.6-1.5-1.1c-0.2-0.3,0-0.9,0.1-1.3
		c0-0.2,0.1-0.4,0.2-0.6c0.3-0.9,0.5-1,1.4-1c5.3,0,10.6,0,15.9,0c0.2,0,0.3-0.1,0.5,0c0.1,0.1,0.2,0.2,0.2,0.3
		c-0.1,0.4-0.2,0.8-0.3,1.1c-0.2,0.4-0.5,0.7-0.5,1.2c-0.8,1-1,2.4-1.5,3.6c-0.7,1.7-1.5,3.3-2.1,5c-0.4,1.2-1,2.3-1.5,3.4
		c-0.4,1-0.9,2.1-1.3,3c-0.5,1.3-1,2.5-1.5,3.7c-0.9,2.3-1.9,4.4-2.7,6.7c-0.1,0.2-0.2,0.6-0.1,0.6c0.3,0.3,0.3,0.9,0.7,1.2
		c0.5,0.3,1,0.6,1.5,0.7c1,0.4,1.5,1.2,1.2,2.2c-0.1,0.2-0.2,0.4-0.2,0.6c-0.2,0.7-0.3,0.8-1,0.8C332.5,180.4,329.7,180.4,327,180.4
		z"/>
	<path class="st0" d="M458.6,180.4c-3.5,0-7,0-10.4,0c-0.2,0-0.5,0-0.8,0c-0.3,0.1-0.6-0.1-0.6-0.3c-0.1-0.2,0.1-0.4,0.2-0.6
		c0.6-0.9,1-1.8,2.1-2.3c0.4-0.2,1.7-0.6,2.3-0.9c0.9-0.3,1.7-0.6,2.5-1.1c0.6-0.3,1-1,1.3-1.5c0.4-0.9,0.8-1.7,1-2.6s0.7-1.6,1-2.4
		c0.4-1.3,0.9-2.5,1.4-3.6c0.6-1.2,1-2.5,1.5-3.6c0.6-1.4,1.3-2.9,1.7-4.4c0.2-0.7,0.6-1.3,0.9-2.1c0.3-0.8,0.6-1.7,1-2.5
		c0.3-0.8,0.6-1.7,1-2.4c0.6-1.2,1-2.5,1.6-3.6c0.6-1.4,1.3-2.9,1.7-4.4c0.2-0.7,0.6-1.3,0.9-2.1c0.6-1.7,1.4-3.3,1.9-4.9
		c0.9-1.2,1.1-2.6,1.7-3.9c0.7-1.4,1.2-3,1.8-4.4c0.5-1.2,1-2.4,1.4-3.6c0.3-0.9,1-1.7,0.9-2.7c0-0.2,0-0.5-0.2-0.6
		c-0.6-0.5-1-1-1.8-1.2c-0.3-0.1-0.7-0.4-1-0.6c-0.1-0.1-0.2-0.2-0.2-0.2c0.1-0.6-0.1-1.3,0.2-2c0.2-0.7,0.6-1,1.3-1
		c5.3,0,10.7,0,16,0c0.2,0,0.4,0,0.6,0c0.4,0,0.5,0.2,0.3,0.5c-0.2,0.4-0.5,0.7-0.5,1.2c-0.8,1-1,2.4-1.5,3.6
		c-0.7,1.7-1.5,3.3-2.1,5c-0.4,1.2-1,2.3-1.5,3.4c-0.4,1-0.9,2.1-1.2,3c-0.2,0.7-0.7,1.3-0.9,2.1s-0.5,1.3-0.8,2
		c-0.4,1-0.9,2.1-1.3,3.2c-0.2,0.7-0.7,1.4-1,2.1c-0.7,2.1-1.6,4-2.4,6c-0.4,1.1-1,2.1-1.3,3.3c-0.5,1.1-1,2.2-1.4,3.3
		c-0.5,1.1-0.9,2.3-1.3,3.4c-0.7,1.7-1.4,3.3-2.1,5c-0.5,1-1,2.1-1.3,3.2c-0.3,1-0.9,2-1.1,3.1c-0.2,0.7-0.6,1.3-1,2
		c-0.5,1.3-1,2.5-1.4,3.7c-0.4,1.1,0.2,2.1,1.3,2.5c0.2,0.1,0.6,0.2,0.8,0.3c1.1,0.6,1.4,1.3,1.1,2.4c-0.2,0.5-0.2,1-0.6,1.3
		c-0.2,0.2-0.8,0.1-1.2,0.1C465.5,180.4,462,180.4,458.6,180.4z"/>
	<path class="st0" d="M404.7,159.8c0.7-0.2,1.7,0.3,2.6-0.2c0.6,0.5,1.3,0.2,1.9,0.2s1.3,0,2.1,0c0.2,0,0.3,0.1,0.5,0.1
		c0.7,0.2,0.9,0.2,1-0.5c0.3-1.3,1-2.4,1.3-3.6c0.5-1.3,0.6-2.7,0.1-4c-0.2-0.5-0.6-1-1-1.3c-0.4-0.4-0.7-0.7-1.3-0.9
		c-0.7-0.2-1.4-0.5-2.2-0.4c-0.7,0.1-1.5-0.2-2.2,0.2c-0.4,0.2-1,0.2-1.4,0.3c-0.1,0-0.2,0.2-0.3,0.2c-0.6,0.3-0.7,0.4-0.3,0.9
		c0.4,0.6,0.2,1.2,0.2,1.8c0.1,0.3,0,0.6-0.2,0.8c-0.2,0.2-0.4,0.6-0.6,0.9c-0.7,0.7-1.7,1.2-2.7,1.4c-0.6,0.2-1.3,0.6-1.9,0.6
		c-1.3,0-2.5,0.1-3.8,0c-1.3-0.1-2.4-0.7-3.3-1.7c-0.1-0.1-0.2-0.2-0.2-0.2c0.1-1-0.2-2.1,0.6-2.9c1.9-1.9,4.1-3.3,6.7-4
		c1.3-0.5,2.7-1,4.1-1c0.5-0.5,1.2-0.1,1.7-0.3c0.6-0.2,1-0.2,1.6-0.2c1-0.1,2.1-0.2,3.2-0.2c1-0.1,2.1,0,3.2,0c0.6,0,1.2,0,1.8,0.2
		c0.5,0.2,1.2-0.2,1.7,0.3c1.4-0.1,2.6,0.6,3.9,1c0.5,0.2,0.8,0.5,1.2,0.7c1.3,0.7,2.3,1.7,3.1,2.9c0.4,0.6,0.6,1.4,0.8,2.2
		c0.3,1,0.2,2.1,0.2,3.2c0,0.3-0.2,0.7-0.2,1c-0.3,1.6-0.9,3.1-1.5,4.6c-0.9,2-1.9,4-2.6,6c-0.3,0.8-0.7,1.6-1,2.4
		c-0.5,1.2-1.1,2.3-1.7,3.5c-0.2,0.4-0.4,0.8-0.5,1.2s-0.1,0.8,0.3,1.1s0.6,0.2,1.1,0.1c0.6-0.2,1.1-0.5,1.6-0.7
		c0.6-0.2,0.6-0.2,0.9,0.3c0.1,0.2,0.2,0.4,0.3,0.6c0.2,0.3,0.2,0.6-0.2,0.8c-1,0.7-2,1.6-3.2,2.1c-1.3,0.6-2.7,1-4,1.3
		c-0.8,0.2-1.5,0.2-2.3,0.2c-0.5,0.6-0.9-0.1-1.3,0c-0.4,0.1-0.9,0-1.3-0.2c-2-0.8-3.1-1.8-3.6-3.7c0-0.1,0-0.2-0.1-0.3
		s-0.2-0.4-0.5-0.1c-0.6,0.6-1.2,1-1.8,1.4c-1.5,1-3.1,1.7-4.8,2.2c-1.3,0.4-2.8,0.6-4.3,0.8c-1.2,0.2-2.4,0.2-3.6,0.2
		c-2.1-0.1-4.3-0.6-6.2-1.5c-1.7-0.9-2.9-2.4-3.6-4.1c0.2-0.6-0.4-1.2-0.1-2c0.2-0.6,0.1-1.4,0.2-2.1c0.3-1.4,1.5-3.6,2.1-4.3
		c0.4-0.4,0.6-1,1.1-1.2c0.5-0.2,0.8-0.8,1.2-1.1c0.4-0.3,1-0.6,1.4-1c1.1-0.9,2.5-1.3,3.8-1.9c1-0.4,2-0.6,2.9-1
		c0.5-0.2,1,0,1.4-0.2c0.6-0.3,1.3-0.2,2.1-0.3c0.6-0.1,1-0.2,1.6-0.2c0.6-0.1,1-0.1,1.6-0.2C402.7,159.7,403.6,159.8,404.7,159.8z
		 M399.4,176.9c1-0.2,1.8-0.3,2.7-0.6c1.3-0.4,2.5-1,3.6-1.9c0.4-0.3,0.9-0.6,1.3-1c0.4-0.4,0.7-0.8,1-1.3c0.6-0.7,1.1-1.5,1.6-2.3
		c1.1-1.9,1.8-4,2.8-5.9c0.2-0.3-0.1-0.6-0.5-0.6c-0.7,0.1-1.4-0.2-2.2,0.2c-0.6,0.3-1.5-0.2-2.1,0.3c-1.2,0-2.4,0.4-3.5,0.8
		c-2.2,0.7-4.3,1.7-5.8,3.6c-0.4,0.6-1,1-1.1,1.7c-0.3,1-0.9,2.1-0.8,3.3c0,0.5,0.1,1.7,0.2,2C397,176.5,398.2,176.6,399.4,176.9z"
		/>
	<path class="st0" d="M539.3,180.4c-3.6,0-7.2,0-10.8,0c-0.6,0-0.5,0-0.3-0.6c0.2-0.5,0.2-1,0.4-1.3c0.1-0.5,0.2-0.9,0.6-1.1
		c0.3-0.2,0.7-0.5,1-0.5c0.6,0,1.1-0.3,1.7-0.2c1.3,0.1,2.3-1.4,1.8-2.9c-0.3-1.1-0.9-2.2-1.3-3.3c-0.3-0.8-0.7-1.5-0.9-2.3
		c-0.2-0.6-0.5-0.6-0.9-0.2c-1.3,1.2-2.7,2.5-4.1,3.6c-1.2,0.9-2.2,2-3.5,2.9c-0.4,0.2-0.6,0.9-0.8,1.3c-0.1,0.1,0,0.3,0.1,0.4
		c0.2,0.2,0.6,0.6,0.9,0.6c0.8,0.2,0.7,1,1,1.5c0.1,0.2-0.6,2-0.8,2.1c-0.2,0.1-0.5,0.2-0.7,0.2c-4.3,0-8.6,0-12.8,0
		c-0.2,0-0.2,0-0.4,0c-0.2-0.1-0.3-0.2-0.3-0.2c-0.1-0.8,0.2-1.6,0.6-2.3c0.2-0.3,0.5-0.6,0.8-0.6c0.5-0.2,1-0.3,1.4-0.3
		c1.2,0,2.1-0.6,3.1-1.2c1.3-0.9,2.8-1.8,4-2.9c1.3-1.1,2.5-2.1,3.7-3.3c1.4-1.3,2.9-2.5,4.4-3.9c0.6-0.5,1.1-1,1.7-1.4
		c0.2-0.2,0.2-0.5,0.2-0.8c-0.5-1.2-1-2.3-1.4-3.5c-0.6-1.3-1-2.8-1.6-4.2c-0.5-1.2-1-2.4-1.5-3.6c-0.4-1.1-1.3-1.6-2.2-2.1
		c-0.1,0-0.2,0-0.2,0c-1.6-0.5-2-1.3-1.4-2.9c0-0.1,0-0.2,0.1-0.4c0.2-0.6,0.6-0.8,1.1-0.8c0.2,0,0.5,0,0.8,0c6.7,0,13.4,0,20.1,0
		c0.3,0,0.6,0,0.9,0c0.1,0,0.3,0.2,0.3,0.2c0,0.6,0.1,1-0.2,1.6c-0.1,0.2-0.2,0.3-0.2,0.6c0,0.8-0.7,1-1.2,1.2s-1.1,0.2-1.7,0.3
		c-2.1,0.3-2.5,1.3-2.1,3.1c0.3,1.2,1,2.3,1.3,3.5c0.1,0.2,0.2,0.6,0.2,0.8c0.2,0.6,0.6,1.1,0.8,1.7c0.5-0.3,1-0.6,1.4-1
		c1.3-1,2.6-2.1,4-3c1.3-1,2.6-1.7,3.6-3c0.2-0.2,0.3-0.4,0.4-0.6c0.4-0.8,0.4-0.9-0.5-1.2c-0.7-0.2-1.1-0.9-1.3-1.5
		c-0.1-0.5,0.2-1,0.3-1.5c0.2-0.4,0.4-0.7,0.7-1c0.2-0.2,0.6-0.1,0.9-0.1c3.6,0,7.1,0,10.7,0c0.4,0,0.9,0.2,1.3,0
		c0.4-0.2,0.6,0.5,1,0.1c0.1-0.1,0.4,0.1,0.3,0.4c-0.2,0.5-0.3,0.9-0.4,1.3c-0.1,0.7-0.6,1.1-1,1.5c-0.1,0.1-0.3,0.2-0.4,0.2
		c-1,0-1.9,0.5-2.9,0.6c-0.2,0-0.5,0.2-0.6,0.2c-1,0.6-1.9,1.3-2.8,1.9c-1.6,1.2-3.1,2.5-4.6,3.7c-1.3,1.1-2.7,2.2-4,3.3
		c-1.2,1-2.4,1.8-3.6,2.8c-0.6,0.5-0.6,0.6-0.2,1.2c0.6,1,0.8,2,1.2,2.9c0.6,1.3,1.1,2.6,1.6,3.9c0.4,1.2,0.9,2.5,1.4,3.6
		c0.2,0.4,0.4,0.9,0.7,1.3c0.6,0.8,1.4,1.3,2.3,1.5c0.6,0.2,0.9,0.4,1.1,0.8c0.3,0.5,0.3,1,0.2,1.4c-0.1,0.2-0.2,0.4-0.2,0.6
		c-0.2,0.9-0.5,1-1.4,1C546.4,180.4,542.8,180.4,539.3,180.4z"/>
	<path class="st0" d="M368.6,180.4c-3.4,0-6.7,0-10.1,0c-0.3,0-0.6,0.1-0.9,0c-0.2,0-0.3-0.3-0.3-0.4c0.3-0.6,0.3-1.3,0.6-2
		c0.4-0.7,0.9-1.1,1.7-1.1c0.6,0,1.3-0.2,1.9-0.4c0.9-0.2,1-0.2,1.2-1c0.2-0.5,0.6-1,0.1-1.6c-0.1-1.3-0.9-2.4-1.3-3.6
		c-0.3-0.9-0.6-1.7-1-2.5c-0.2-0.2-0.3-0.2-0.5-0.1c-0.7,0.6-1.4,1.3-2.2,2c-1.4,1-2.6,2.3-4,3.3c-0.9,0.6-1.7,1.3-2.2,2.4
		c-0.2,0.4-0.2,0.6,0.2,0.8c0.3,0.2,0.6,0.4,0.9,0.6c0.2,0.2,0.5,0.2,0.6,0.4c0.2,0.4,0.2,0.8,0.2,1.2c0,0.3-0.3,0.6-0.4,1
		c-0.2,0.7-0.6,1-1.4,1c-4.3-0.1-8.6,0-12.9,0c-0.6,0-0.3-0.2-0.2-0.5c0.2-0.5,0.2-1,0.2-1.5c0.1-0.6,0.5-1.1,1.1-1.3
		c0.4-0.1,0.9-0.3,1.3-0.3c1.2,0,2.2-0.6,3.2-1.2c1.3-0.9,2.8-1.8,4-2.9c1.2-1,2.5-2.1,3.6-3.2c1.3-1.2,2.7-2.3,4-3.5
		c0.7-0.6,1.3-1.3,2.1-1.8c0.3-0.3,0.3-0.6,0.2-1c-0.6-1.7-1.3-3.4-2-5c-0.7-1.7-1.3-3.3-2-5.1c-0.2-0.6-0.5-1.2-0.8-1.7
		c-0.5-0.7-1.3-1.1-2.1-1.4c-0.2-0.1-0.4-0.2-0.6-0.2c-1-0.3-1.2-0.6-1.2-1.5c0-0.6-0.2-1.3,0.5-1.7c0.1-0.6,0.5-0.6,1-0.6
		c6.9,0,13.8,0,20.7,0c0.3,0,0.6,0.4,1,0.2l0.2,0.1c0.1,0.9-0.3,1.6-0.6,2.4c-0.2,0.6-0.6,0.8-1,1c-0.5,0.2-1,0.2-1.5,0.2
		c-0.6,0.1-1,0.3-1.4,0.5c-0.6,0.2-0.8,0.6-0.9,1c-0.2,0.6-0.2,1.3,0,1.8c0.2,0.6,0.5,1.3,0.8,1.8c0.6,1.2,1,2.4,1.4,3.6
		c0.2,0.5,0.3,0.6,0.7,0.2c0.4-0.3,0.8-0.6,1.1-0.9c1-0.8,2.1-1.7,3.2-2.5c1-0.7,2-1.6,3-2.3c0.7-0.5,1.3-1.1,1.7-1.9
		c0.2-0.6,0.2-0.9-0.4-1c-0.6-0.2-1-0.6-1.3-1c-0.3-0.5-0.2-1,0-1.4c0.2-0.5,0.3-0.9,0.6-1.3c0.2-0.2,0.5-0.4,0.8-0.2
		c0.4,0.2,0.8,0,1.2,0c0.5,0,1,0,1.4,0c0.5,0,1,0,1.4,0s1,0,1.4,0c0.5,0,1,0,1.4,0c0.5,0,1,0,1.4,0c0.5,0,1,0,1.4,0c0.5,0,1,0,1.4,0
		c0.4,0,0.8,0.1,1.1,0c0.5-0.1,0.8,0.2,1.3,0.2c0.1,0,0.2,0.2,0.2,0.2c-0.1,0.5-0.3,0.9-0.4,1.3c-0.2,0.9-0.5,1.5-1.3,1.8
		c-0.5,0.2-1,0.3-1.5,0.4c-1,0.1-1.7,0.4-2.5,0.9c-1.3,0.8-2.5,1.7-3.7,2.7c-1.6,1.3-3.1,2.5-4.7,3.8c-1.3,1.1-2.8,2.1-4,3.3
		c-0.7,0.6-1.5,1.1-2.2,1.7c-0.3,0.2-0.4,0.4-0.2,0.9c0.7,1.5,1.3,3.1,1.8,4.7c0.2,0.9,0.6,1.7,1,2.6c0.6,1.3,1.1,2.8,1.7,4.1
		c0.5,1,1.2,1.4,2.2,1.7c0.7,0.2,1.4,0.5,1.7,1.3c0.3,0.6-0.1,1.2-0.2,1.7c-0.2,0.9-0.5,1-1.3,1
		C375.6,180.4,372.1,180.4,368.6,180.4z"/>
	<path class="st0" d="M503,162.4c-4,0-7.9,0-12,0c-0.6,0-0.9,0.2-1,0.6c-0.2,1-0.6,1.8-0.8,2.7c-0.2,0.8-0.4,1.7-0.5,2.5
		c-0.1,0.9,0,1.7,0,2.5c-0.1,1.7,0.8,2.9,1.5,4.2c1,0.5,1.6,1.3,2.7,1.5c1.2,0.2,2.5,0.3,3.6,0.2c1.4-0.2,2.8-0.6,4.1-1
		c1.7-0.6,3.3-1.4,4.9-2c0.7-0.8,1.8-0.9,2.6-1.6c0.2-0.2,0.4-0.2,0.6-0.4c0.5-0.2,0.6-0.2,0.7,0.3c0,0.1,0.1,0.2,0.2,0.3
		c0.5,1,0.4,1.4-0.6,2c-1.4,0.8-2.9,1.7-4.3,2.6c-2.3,1.5-4.9,2.3-7.5,3.3c-1,0.4-2.1,0.3-3.1,0.6c-1.1,0.3-2.2,0.1-3.3,0.3
		c-0.8,0.2-1.5,0.2-2.3,0.2c-0.5,0-1-0.2-1.4-0.2c-0.5-0.1-1.2,0.2-1.5-0.1c-0.5-0.3-1,0.1-1.3-0.5c-1,0.2-1.7-0.7-2.7-0.8
		c-0.6-0.6-1.4-0.8-2.1-1.2c-1-0.7-2.1-1.6-2.8-2.6c-0.6-0.9-1.3-1.8-1.2-3.1c-0.6-1.2-0.3-2.5-0.2-3.7c0.2-1.3,0.6-2.7,1-4
		c0.4-1.2,0.8-2.3,1.3-3.4c0.6-1.1,1.2-2.1,1.9-3.2c1.2-1.9,2.6-3.6,4.4-5.1c1.3-1.1,2.6-2.2,4.2-3c0.9-0.5,1.7-1,2.5-1.5
		c1.3-0.8,2.9-1.3,4.4-1.8c0.7-0.2,1.4-0.4,2.1-0.6s1.5-0.2,2.1-0.6c0,0,0.1,0,0.2,0c1.2,0.2,2.3-0.3,3.5-0.2c1.2,0,2.4-0.2,3.6,0.1
		c1,0.2,2.1,0.3,3,0.6c1,0.3,1.8,0.6,2.7,1.1c2.1,1.1,3.7,2.7,4.4,5.1c0.2,0.6,0.3,1.3,0.4,2c0,0.6,0.2,1.3-0.2,1.9
		c-0.1,0.1,0,0.3,0,0.5c0.1,1.1-0.5,2.1-0.6,3.2c-0.1,0.6-0.2,1.2-0.5,1.7c-0.2,0.3-0.3,0.6-0.9,0.6c-1.8-0.1-3.6,0-5.5,0
		C507.4,162.4,505.3,162.4,503,162.4z M498.4,158.5c1.7,0,3.3,0,4.9,0c1,0,1.2-0.1,1.4-1c0.2-0.7,0.6-1.4,0.7-2.1
		c0.4-1.3,1-2.6,0.8-4.1c-0.1-0.5-0.1-1-0.4-1.3c-0.4-0.3-1-0.7-1.4-0.7c-1.7-0.2-3.5,0-5.1,0.9c-1.8,1-3.1,2.5-4.2,4.2
		c-0.9,1.2-1.7,2.5-2.5,3.8c-0.1,0.1-0.2,0.2-0.1,0.3c0,0.1,0.2,0.2,0.3,0.2C494.8,158.5,496.6,158.5,498.4,158.5z"/>
	<path class="st0" d="M573.8,83.3c0-2.4,0-4.8,0-7.1c0-0.3,0-0.5,0.5-0.6c1.7-0.4,3.6-0.2,5.4-0.2c1.1,0,2.2,0.4,3.1,1.1
		c1.2,1,1.8,3.4,0.7,4.9c-0.7,1-1,1.2-2,1.6c-0.1,0-0.2,0.1-0.2,0.2c0.1,0.1,0.2,0.2,0.2,0.2c1.2,0.2,1.3,1.2,1.8,2.1
		c0.2,0.2,0.2,0.5,0.2,0.8c0.1,0.6,0.2,1.2,0.2,1.8c0,0.2,0,0.4,0,0.6c0.2,0.6,0.5,1.2,0.6,1.8c-0.9,0-1.7,0.1-2.5,0.1
		c-0.1,0-0.2-0.2-0.2-0.3c-0.5-0.9-0.6-1.7-0.8-2.7c-0.1-1-0.4-1.9-1.2-2.5c-0.3-0.2-0.7-0.5-1.2-0.5c-0.6,0-1.2,0-1.7,0
		c-0.4,0-0.4,0.2-0.4,0.5c0,1.6,0,3.3,0,4.8c0,0.2,0,0.6-0.1,0.7c-0.1,0.1-0.2,0.6-0.6,0.2c-0.1-0.1-0.4-0.1-0.6-0.1
		c-0.4,0-0.9-0.1-1.3,0.2c0-0.5-0.1-1-0.1-1.5C573.7,87.3,573.8,85.3,573.8,83.3z M576.3,79.7c0,0.3,0,0.6,0,0.9
		c0,0.6,0.1,1.1,0.1,1.6c0.6,0,1.3,0.1,2,0c0.5-0.1,1-0.4,1.4-0.5c0.5,0,0.7-0.3,1-0.6c0.6-0.6,0.5-1.5,0.3-2.2
		c-0.1-0.4-0.6-0.7-0.9-1c-0.2-0.2-0.4-0.2-0.6-0.2c-1-0.5-2.1-0.2-3.2-0.2c0,0.7-0.1,1.4-0.1,2.1C576.3,79.6,576.3,79.7,576.3,79.7
		z"/>
</g>
</svg>
