<?xml version="1.0" encoding="utf-8"?>
<!-- Generator: Adobe Illustrator 19.2.1, SVG Export Plug-In . SVG Version: 6.00 Build 0)  -->
<svg version="1.1" id="Layer_1" xmlns="http://www.w3.org/2000/svg" xmlns:xlink="http://www.w3.org/1999/xlink" x="0px" y="0px"
	 viewBox="0 0 800 300" style="enable-background:new 0 0 800 300;" xml:space="preserve">
<style type="text/css">
	.st0{fill:#FFFFFF;}
</style>
<g>
	<path class="st0" d="M50.5,77.8c0.8,0.5-2.5,1.6,0.4,1.8c0.1,0,0.5,0.9,0.4,1.3c-0.5,1.1-0.7,1.9-0.7,2.4c0,1.3,0.2,1.8,1.6,1.1
		c2.1-0.9,4.5-0.9,6.6,0.4c2.4,1.4,3.6,5.3,2.2,7.7c-0.2,0.5-0.9,0.7-1.2,1.2c-0.4,1.1-0.6,2.2-0.9,3.4c1.1,0.1,2.1,0.4,3.2,0.4
		c3.4,0,6.8,0,10.1,0c1.1,0,1.3,0.6,0.9,1.3c-2.2,4.4-3.3,9.1-5.6,13.3c-0.7,1.4-1.4,2.8-1.8,4.4c-0.4,1.3-0.4,2.6,0.9,3.8
		c1.2,1.1,2.5,1.2,3.8,0.7c1.6-0.6,3.1-1.4,4.6-2c4-1.8,8.4-2.9,12.2-5.3c1.1-0.7,2,0.2,2,1.5c0,15.1,0,30.1,0,45.3
		c0,1.5-0.1,1.6-1.6,1.1c-4.7-1.9-9.4-3.8-14.1-5.6c-0.8-0.4-1.9-0.4-2.6-0.9c-1.6-1.3-2.7-1.4-4.2,0.2c-1.4,1.6-1.2,2.8-0.4,4.7
		c1.5,3.8,3.2,7.4,4.4,11.3c0.5,1.6,1.6,2.9,2.4,4.5c0.7,1.5,0.1,2.2-1.6,2.2c-10.7,0-21.4,0-32.1,0c-4.2,0-8.5,0-12.7,0
		c-1.6,0-2.1-0.8-1.4-2.4c0.9-2.1,2-4.2,2.9-6.4c1.5-3.3,2.5-6.8,4.1-10.1c0.9-1.9-0.5-4.6-2.5-5.5c-0.1-0.1-0.4,0.1-0.6,0.1
		c-3.4,1.4-6.7,2.7-10.1,4.2c-3.4,1.4-6.6,3.1-10.2,3.9c0-16.1,0-32.1,0-48.3c0.8,0.1,1.6,0,2.4,0.4c2.6,1.1,5.1,2.2,7.5,3.3
		c2.8,1.2,5.8,2.4,8.7,3.6c1.5,0.7,2.8,0.7,4.1-0.6c1.3-1.3,1.3-2.5,0.7-4.1c-1.4-3.3-2.6-6.6-3.9-9.8c-0.9-2.2-2.2-4.5-3.3-6.7
		c-0.6-1.2,0.1-2.1,1.4-2.1c3.3,0,6.5,0,9.8,0c1.1,0,2.1-0.2,3.2-0.5c-0.4-1.2-0.5-2.4-0.9-3.4c-0.2-0.5-0.8-0.7-1.2-1.2
		c-1.4-2.4-0.1-6.2,2.2-7.7c2.1-1.3,4.2-0.8,6.4-0.6c0.7,0.1,1.1,0.8,1.2-0.5c0.1-0.8,1.8-1.5,0.4-2.4c-0.6-0.4-1.4-0.4-1.2-1.2
		c0.1-0.4,0.8-0.6,1.3-0.6c2.8-0.1-0.5-1.3,0.4-1.8C48.7,77.8,49.7,77.8,50.5,77.8z M50.1,95.6c0.1,0,0.2,0,0.4,0
		c-0.1-0.2-0.1-0.5-0.2-0.6c0,0-0.4,0.1-0.5,0.1c0.1,0.1,0.2,0.4,3.5,0c-0.5,0-0.7-0.1-0.9,0c-0.6,0.2-1.2,0.6-1.8,0.9
		c0.7,0.1,1.4,0.4,2.2,0.4C52.9,96.3,53,95.7,50.1,95.6z M48,96c-0.1-0.1-0.4-0.4-0.5-0.4c-0.6-0.4-1.2-0.7-1.8-0.8
		c-0.4-0.1-0.7,0.2-1.1,0.4c0.2,0.4,0.5,0.7,0.7,0.8c0.6,0.2,1.3,0.4,1.9,0.5c0.2,0,0.5-0.2,1.2-1.6c-0.1,0.1-0.4,0.2-0.5,0.4
		c0.1,0.1,0.2,0.2,0.4,0.4c0.1-0.1,0.2-0.4,0.4-0.5C48.7,95,48.5,94.9,48,96z M55,86.3c-2.5,0-2.8,0.1-3.9,1.5
		c-0.4,0.5-0.9,4.9-0.6,5.2c0.1,0.1,0.6,0,0.8,0c1.3,0.2,2-0.5,2.6-1.5c0.1-0.4,0.4-0.6,0.5-0.8c0.1,0.4,0.4,0.8,0.4,1.2
		c-0.1,1.2,0.5,1.4,1.5,1.3c0.8,0,2.4,1.8,1.9-0.9c0-0.1,0-0.4,0-0.4c1.3-1.2,1.2-2.5,0.4-3.6c-0.8-1.3-2-2.4-8,5.4
		c0-0.1,0-0.2,0-0.4c-0.2,0.1-0.5,0.1-0.6,0.2c0,0,0.1,0.4,0.1,0.5C50.1,93.7,50.3,93.6,55,86.3z M70.5,138.1
		c-0.2-2.6-0.4-4.4-0.6-6.2c0-0.1-0.1-0.2-0.1-0.4c-1.2-3.6-4.5-8.7-7.5-10.8c-3.1-2.1-6.2-4.2-10.2-3.9c-0.6,0-1.2-0.5-1.9-0.6
		c-0.6-0.1-1.3-0.2-2-0.1c-0.7,0.1-1.5,0.8-2.2,0.7c-2.8-0.5-4.7,1.8-7.3,2c-5.6,4.1-10.5,8.6-10.4,16.4c0,1.1-0.9,2.1-0.7,3.1
		c1.1,3.4,1.6,6.8,3.2,10.1c2.2,4.6,9.9,10.1,15.9,10.1c1.1-1.1,1.9,1.4,3.3,0.2c0.8-0.6,2.4-0.2,3.6-0.2c0.6,0,1.2,0.1,1.6-0.1
		c3.1-2,6.8-2.9,9.4-5.9c1.8-2,2.4-4.5,3.9-6.4C70.7,143.2,69,139.9,70.5,138.1z M49.3,170.9c4.2,0,8.5,0,12.7,0
		c1.2,0,1.5-0.4,1.1-1.5c-1.1-2.4-2.1-4.7-3.2-7.2c-0.2-0.5-0.1-1.4-0.4-1.4c-0.6-0.1-1.3,0-2,0.1c-2.4,0.7-4.6,1.4-7.1,1.4
		c-3.4,0-6.7-0.2-9.9-1.6c-0.7-0.4-1.5-0.4-2,1.2c-0.7,2.5-2,4.7-2.8,7.3c-0.5,1.5-0.5,1.6,0.9,1.6
		C40.8,170.9,45.1,170.9,49.3,170.9z M82.6,138c0-4.4,0-8.7,0-13.1c0-1.4-0.1-1.5-1.6-0.8c-2.2,0.9-4.5,2-6.8,2.9
		c-1.6,0.7-2,0.9-1.4,2.4c0.5,1.2,1.2,2.4,1.4,3.6c0.6,2.6-0.2,9.8-1.2,12.6c-0.7,2.4-0.8,2.5,1.3,3.2c2.1,0.7,4.1,1.6,6.1,2.7
		c1.4,0.8,2.2,0.1,2.2-1.5C82.6,145.9,82.6,141.9,82.6,138z M49.2,104.1c-3.8,0-7.7,0-11.4,0c-2.5,0-2.4,0-1.8,2.4
		c0.5,2.2,1.6,4.1,2.4,6.2c0.6,1.6,1.1,1.9,2.6,1.3c1.5-0.5,2.9-1.4,4.5-1.4c4.1,0,8.5-0.9,12.4,1.6c0.2,0.1,0.6,0.1,0.8,0
		c0.5-0.2,1.1-0.5,1.2-0.7c0.4-2.8,2.5-4.9,3.1-7.7c0.4-1.8,0.6-1.8-1.3-1.8C57.3,104.1,53.3,104.1,49.2,104.1z M15.8,137.5
		c0,4.2,0,8.5,0,12.7c0,1.1,0.9,1.8,1.9,1.3c2.1-1.3,4.5-2.1,6.7-3.1c1.6-0.7,1.8-1.1,1.3-2.6s-1.4-2.9-1.4-4.5
		c0-4.1-0.9-8.5,1.6-12.4c0.1-0.2,0.1-0.6,0-0.8c-0.2-0.5-0.5-1.1-0.8-1.2c-2.7-0.7-5.2-1.9-7.7-2.9c-1.4-0.6-1.8-0.6-1.8,0.8
		C15.8,129,15.8,133.3,15.8,137.5z M49.4,100.7c-4.8,0-9.5,0-14.4,0c-1.3,0-2.7,0.2-4,0.5c0.4,1.4,0.6,2.8,0.9,4.2
		c0.1,0.6,0.7,1.2,0.8,1.8c0.9,2.7,2.7,5.1,3.3,8c0,0.2,0.4,0.4,0.6,0.6c0.4-0.4,0.7-0.8,0.9-1.2c0-0.1-0.5-0.4-0.6-0.6
		c-1.3-3.3-2.5-6.6-4-9.8c-0.6-1.3-0.7-1.8,0.8-1.8c10.1,0,20.4,0,30.5,0c1.2,0,1.6,0.5,1.1,1.4c-1.9,3.3-2.7,7.1-4.5,10.5
		c-0.1,0.2,0.1,0.8,0.4,1.2c0.5,0.6,0.6,0.5,0.9-0.4c1.6-4.1,3.4-8.2,5.1-12.4c0.5-1.3-0.1-2.1-1.4-2.1
		C60.4,100.7,55,100.7,49.4,100.7z M49.2,174.3c5.5,0,10.9,0,16.5,0c1.8,0,2.4-0.6,1.6-2.2c-1.6-4-3.3-7.9-4.9-11.9
		c-0.1-0.4,0.2-1.3-0.7-0.8c-0.4,0.1-1.2,0.4-0.6,1.4c1.5,3.3,2.8,6.7,4.2,10.1c0.6,1.5,0.6,1.6-0.9,1.6c-10.1,0-20.2,0-30.4,0
		c-1.4,0-1.4-0.1-0.8-1.8c1.1-2.8,2.2-5.5,3.3-8.4c0.4-0.8,0.4-1.8,0.5-2.7c0-0.2-0.2-0.5-0.4-0.7c-0.1,0.2-0.4,0.4-0.5,0.6
		c-1.6,4-2.7,8.1-5.1,11.9c-0.1,0.2,0,0.6,0,0.8c-0.2,1.6,0,1.9,1.6,1.9C38.1,174.3,43.7,174.3,49.2,174.3z M86,137.6
		c0-0.8,0-1.6,0-2.6c0-4.8,0-9.5,0-14.4c0-1.2-0.4-1.5-1.4-1.4c-0.7,0.1-1.3,0.1-1.9,0.5c-3.6,1.5-7.2,3.1-10.7,4.7
		c-0.4,0.1-1.3-0.2-0.8,0.7c0.1,0.4,0.4,1.1,1.4,0.6c3.3-1.3,6.2-3.2,9.8-4c2-0.5,2-0.6,2,1.1c0,9.9,0,19.7,0,29.5
		c0,1.6-0.8,2.4-2.2,1.5c-2.4-1.5-5.1-2.1-7.5-3.3c-1.1-0.6-2-0.6-3.1-0.7c-0.2,0-0.5,0.2-0.7,0.4c0.2,0.1,0.4,0.5,0.6,0.5
		c1.8-0.2,2.9,1.1,4.4,1.8c2.6,1.1,5.3,2.2,8,3.2c1.6,0.6,2.2,0.2,2.2-1.5C86,148.6,86,143,86,137.6z M12.4,137.4
		c0,4.6-0.1,9.3,0,13.9c0,1.4-0.9,3.6,0.6,4.2c1.2,0.5,2.9-0.6,4.5-1.1c0.5-0.1,0.9-0.5,1.4-0.6c2.7-0.8,5.1-2.7,8-3.3
		c0.2,0,0.5-0.2,0.7-0.4c-0.4-0.1-0.6-0.5-0.9-0.5c-0.8,0-1.6,0.1-2.4,0.4c-2.5,1.1-5.1,2.1-7.5,3.3c-2.4,1.1-2.7,0.9-2.7-1.4
		c0-9.8,0-19.4,0-29.2c0-0.5-0.1-0.9,0-1.2c0.2-0.4,1.1-0.7,1.2-0.6c3.2,2.1,7.1,2.7,10.4,4.5c1.1,0.6,1.2,0,1.5-0.4
		c0.7-0.8-0.2-0.6-0.6-0.8c-1.8-0.8-3.5-2-5.3-2.4c-2.2-0.4-4.1-1.8-6.2-2.2c-2.5-0.6-2.7-0.6-2.7,1.6
		C12.5,126.7,12.4,132.1,12.4,137.4z M47.9,90.9c0-2.7-0.1-2.7-1.4-4.1c-1.2-1.1-2.4-0.6-3.5-0.6c-2.6,0-4.1,2.5-3.2,4.8
		c0.4,0.9,1.2,1.8,1.8,2.7c0.5-0.7,0.9-1.4,1.5-2.2c0.1-0.1,0.2-0.2,0.4-0.4c0.4-0.2,0.6-0.5,0.9-0.7c0.1,0.4,0.4,0.7,0.4,1.2
		c0,0.7,0,1.3,1.1,1.4C47.7,93.3,47.9,93.1,47.9,90.9z M48.7,88.7c0.1,0.7,0.2,1.6,0.4,2.6c1.2-0.7,0.5-1.9,0.6-2.8
		c0.1-0.9-0.1-1.9-0.2-2.8C48.3,86.3,49.1,87.5,48.7,88.7z M55,94.9c-0.1,0.2-0.2,0.5-0.2,0.7c0.1,1.4,1.2,0.7,1.9,0.8
		c0.2,0,0.5-0.2,0.6-0.4C56.5,95.6,55.8,95.3,55,94.9z M43.9,95.7c-0.4-0.5-0.5-0.7-0.6-0.9c-0.7,0.5-1.3,0.9-2,1.4
		c0.4,0.1,0.8,0.4,1.1,0.2C43,96.3,43.4,96,43.9,95.7z"/>
	<path class="st0" d="M208,204.8c1.6-1.5,1.6-1.5,1.6-3.4c0-4.8,0-9.5,0-14.4c0-0.8,0.4-1.8-1.1-1.6c0,0-0.1-0.5-0.2-0.7
		c2.2,0,4.5,0,6.7,0c0.1,0,0.2,0.4,0.5,0.5c-0.2,0.1-0.5,0.4-0.7,0.4c-1.1-0.1-2,0-1.8,1.5c0,0.2,0,0.6,0,0.8c0,2,0.1,3.9,0.1,5.9
		c2.1,0.1,4.1,0.1,6.2,0.4c0.8,0,1.3-0.1,1.3-1.1c0-2-0.1-4,0-5.9c0.1-1.5-0.7-1.5-1.8-1.5c-0.2,0-0.5-0.2-0.7-0.4
		c0.2-0.1,0.6-0.5,0.8-0.5c1.6,0,3.4,0,5.1,0c0.8,0,0.7,0,0.2,0.9c-0.2,0.5-0.4,1.1-0.4,1.5c0,5.1,0.1,10.1-0.1,15.2
		c0,1.6,0.6,1.9,1.9,1.8c0.2,0,0.5,0.5,0.7,0.8c-2.8,0-5.6,0-8.5,0c0-1.2,0.9-0.7,1.5-0.8c0.4-0.1,0.9-0.6,1.1-0.8
		c0.1-2.5,0.1-5.1,0-7.5c0-0.4-0.6-0.7-1.1-0.8c-0.5-0.1-1.1,0-1.6,0c-1.5,0-3.5-0.5-4.5,0.4c-0.8,0.7-0.4,2.8-0.5,4.4
		c0,0.6,0,1.2,0,1.6c0.1,0.9-0.1,2,0.4,2.8c0.2,0.5,1.4,0.5,2.2,0.7c0,0,0,0.2,0,0.4C213,204.8,210.4,204.8,208,204.8z"/>
	<path class="st0" d="M299.4,204.8c1.6-1.5,1.6-1.5,1.6-3.4c0-3.8-0.1-7.7,0-11.4c0-1.5-0.2-2.5-2-2.1c-0.1,0-0.4-0.4-0.5-0.5
		c0.1-0.1,0.2-0.2,0.4-0.2c0.1-0.1,0.2-0.1,0.4-0.1c1.9,0,3.6,0,5.5,0c0.5,1.6,0.8,3.3,1.5,4.8c1.3,2.5,1.5,5.3,2.9,7.8
		c0.9-2.6,1.8-5.2,2.7-7.8c0-0.1,0.1-0.2,0.1-0.4c0.4-1.4,0.2-3.5,1.2-4c1.3-0.7,3.2-0.4,4.8-0.4c0.2,0,0.5,0.2,0.7,0.4
		c-0.4,0.1-0.7,0.5-0.9,0.5c-1.4-0.2-1.5,0.5-1.5,1.6c0.1,4.2,0.1,8.5,0,12.7c-0.1,1.6,0.6,1.9,1.9,1.8c0.2,0,0.5,0.5,0.7,0.8
		c-2.2,0-4.5,0-6.8,0c1.6-1.5,1.6-1.5,1.6-3.4c0-3.1,0-6.2,0-9.3c0-0.5,0-0.8,0-1.3c0-0.1-0.2-0.4-0.2-0.2c-0.2,0.1-0.5,0.2-0.5,0.4
		c-0.1,0.6-0.2,1.3-0.4,2c-1.3,4-2.6,7.9-3.9,11.9c-0.6,0-1.2,0-1.6,0c-0.2-1.5-0.5-3.2-0.8-4.7c-1.1-3.4-2.2-6.7-3.4-10
		c-0.1-0.2-0.4-0.4-0.5-0.5c-0.1,0.2-0.4,0.5-0.4,0.7c0,2.9,0,5.9,0,8.8c0,3.6,0,3.6,2.6,5.6C302.8,204.8,301.1,204.8,299.4,204.8z"
		/>
	<path class="st0" d="M469.6,204.8c1.6-1.5,1.6-1.5,1.6-3.4c0-3.9,0-7.9,0-11.8c0-0.8,0.4-1.8-1.2-1.6c0,0-0.1-0.5-0.2-0.7
		c1.4,0,2.8,0,4.2-0.1c1.9-0.1,2,1.5,2.7,2.6c1.5,2.4,2.9,4.7,4.5,7.1c0.1,0.2,0.4,0.4,0.6,0.6c0.1-0.2,0.4-0.5,0.4-0.7
		c0-2.6,0-5.1,0-7.7c0-0.4-0.6-0.7-0.9-0.9c-0.2-0.1-0.5-0.2-0.7-0.4c0.1-0.1,0.4-0.5,0.5-0.5c1.3,0,2.6,0,3.8,0
		c0.2,0,0.5,0.2,0.7,0.4c-0.2,0.1-0.5,0.5-0.6,0.5c-1.4,0-1.1,1.1-1.1,1.8c0,5.1,0,10.1,0,15.2c-0.6,0-1.2,0-1.6,0
		c0.5-1.5-1.1-2.1-1.6-3.1c-2.2-3.8-4.5-7.4-6.7-11.2c-0.2-0.2-0.4-0.6-0.5-0.9c-0.1,0.4-0.4,0.7-0.4,1.2c0,3.5,0,7.1,0,10.6
		c0,2,0,2,1.6,3.4C473,204.8,471.3,204.8,469.6,204.8z"/>
	<path class="st0" d="M446.8,204.8c2.6-1.9,2.6-1.9,2.6-5.6c0-3.6,0-7.3,0-10.9c0-1.1,0-2-0.9-2.6c-0.5-0.4-0.9-0.6-1.4-0.9
		c0.5-0.1,1.1-0.2,1.5-0.2c3.5,0,7.1,0,10.6,0c2.5,0,2.9,0.5,2.9,2.8c0,0.8,0,1.6,0,2.5c0,0.1-0.4,0.4-0.5,0.5c0,0-0.2-0.1-0.2-0.2
		c-0.1-0.4-0.1-0.8-0.4-1.2c-0.6-0.9-1.1-2.4-1.8-2.5c-1.8-0.4-3.5-1.5-5.5-1.1c-1.1,0.2-1.8,0.8-1.8,2c0,1.3-0.1,2.6,0,3.8
		c0.1,0.9-0.9,2.5,0.8,2.7c2.8,0.5,3.4,0,4.2-2.5c0.1-0.4,0.7-0.6,0.9-0.9c0.2,0.2,0.6,0.6,0.6,0.8c0,2,0,3.9,0,5.9
		c0,0.4-0.4,0.6-0.6,0.8c-0.4-0.4-1.1-0.6-0.9-0.8c0.1-1.3-0.6-1.5-1.5-1.9c-3.1-1.3-3.6-1.1-3.6,2.1c0,0.7,0,1.4,0,2.1
		c0.1,1.5,0.2,2.9,0.4,4.5c1.5,0,3.2,0.5,4.6-0.1c1.9-0.6,4.4-0.7,4.8-3.4c0.1-0.8,0.6-1.5,0.8-2.4c0.1,0.9,0.2,1.9,0.2,2.8
		c0,1.3,0,2.6,0,3.8C457.5,204.8,452.1,204.8,446.8,204.8z"/>
	<path class="st0" d="M276.6,204.8c0-0.1,0-0.4,0-0.4c0.7-0.2,1.9-0.2,2.2-0.7c0.5-0.7,0.4-1.9,0.4-2.8c0-3.6,0-7.3,0-10.9
		c0-1.5-0.1-2.5-2-2.1c-0.1,0-0.4-0.4-0.5-0.5c0.2-0.1,0.5-0.4,0.7-0.4c3.2,0,6.5-0.1,9.7,0c1.9,0.1,3.5,1.5,4.6,2.9
		c2,2.5,2.5,7.1,0.9,9.8c-0.9,1.6-2.8,2.8-4.4,4.2c-0.2,0.2-0.5,0.6-0.7,0.8C283.9,204.8,280.2,204.8,276.6,204.8z M281.7,195.5
		c0,2.4,0,4.8,0,7.2c0,0.5,0.2,1.2,0.6,1.3c2,0.6,3.6-0.5,5.5-0.9c0.6-0.1,1.1-1.4,1.4-2.1c1.3-2.8,1.3-5.9,0.4-8.7
		c-1.1-3.6-2-4.2-5.6-4.2c-2.4,0-2.4,0-2.4,2.6C281.7,192.1,281.7,193.8,281.7,195.5z"/>
	<path class="st0" d="M414.5,204.8c1.6-1.5,1.6-1.5,1.6-3.4c0-4.1,0-8.1,0-12.2c0-0.8-0.2-1.3-1.2-1.3c-0.5,0-0.9-0.4-1.3-0.5
		c0.4-0.1,0.7-0.2,1.2-0.4c0.2,0,0.6,0,0.8,0c1.5,0.1,3.3-0.2,4.5,0.4c1.2,0.6,2,2.1,2.7,3.4c1.3,2.1,2.4,4.4,3.4,6.6
		c0.1,0.2,0.4,0.4,0.5,0.6c0.1-0.2,0.4-0.5,0.4-0.7c0-2.8,0-5.6,0-8.5c0-1.4-1.1-0.8-1.8-1.1c-0.2,0-0.5-0.2-0.7-0.4
		c0.1-0.1,0.4-0.5,0.5-0.5c1.5,0,3.1,0,4.6,0c0.2,0,0.5,0.2,0.7,0.4c-0.2,0.1-0.5,0.5-0.6,0.5c-1.9-0.4-1.9,0.8-1.9,2.1
		c0,4.9,0,9.9,0,14.8c-0.2,0-0.6,0-0.8,0c-2.8-4.9-5.6-9.8-8.5-14.7c-0.1-0.2-0.4-0.4-0.5-0.5c-0.1,0.2-0.4,0.5-0.4,0.7
		c0,3.6,0,7.3,0,10.9c0,2,0,2,1.6,3.4C417.9,204.8,416.3,204.8,414.5,204.8z"/>
	<path class="st0" d="M577.1,204.8c0-0.1,0-0.4,0-0.4c0.7-0.2,1.9-0.2,2.2-0.7c0.5-0.7,0.4-1.9,0.4-2.8c0-3.6,0-7.3,0-10.9
		c0-1.5-0.1-2.5-2-2.1c-0.1,0-0.4-0.4-0.5-0.5c0.2-0.1,0.5-0.4,0.7-0.4c2.9,0,5.9-0.2,8.8,0.1c1.6,0.1,3.8,0.8,4.5,2
		c0.8,1.2,2,2.4,2.2,4.1c0.2,2,0.2,3.8-0.2,5.6c-0.5,1.9-2.7,4.4-4.8,5.1c-0.4,0.1-0.7,0.6-1.1,0.8
		C583.9,204.8,580.5,204.8,577.1,204.8z M590.7,196c0-0.9,0.2-1.9,0-2.6c-0.7-2-1.1-4.5-3.5-5.2c-1.3-0.4-2.7-0.4-4.1-0.2
		c-0.2,0-0.8,0.7-0.8,1.1c0,4.5,0,8.9-0.1,13.5c0,1.4,0.6,1.6,1.8,1.5c0.9-0.1,1.8-0.1,2.7-0.5C590,202,591,199.3,590.7,196z"/>
	<path class="st0" d="M346.9,204.8c2.6-1.9,2.6-1.9,2.6-5.6c0-3.4,0-6.7,0-10.1c0-0.4-0.4-0.9-0.7-1.2c-0.5-0.4-1.1-0.4-1.6-0.6
		c0.5-0.1,1.1-0.2,1.5-0.4c2.4,0,4.8,0,7.2,0c3.8,0,7.3,3.9,7.3,7.3c0,0.8,0,1.6,0,2.6c0,3.9-1.6,6-5.6,7.3c-0.1,0-0.2,0.5-0.4,0.7
		C353.6,204.8,350.1,204.8,346.9,204.8z M351.9,195.5c0,2,0,3.9,0,5.9c0,2.8,0,2.9,2.7,2.6c2.5-0.4,4.4-1.3,5.1-4.2
		c0.5-1.9,0.9-3.8,0.6-5.5c-0.9-4.5-3.1-6.8-6.5-6.2c-1.9,0.4-1.9,0.1-1.9,2.2C351.9,191.9,351.9,193.6,351.9,195.5z"/>
	<path class="st0" d="M369.7,204.8c1.6-1.5,1.6-1.5,1.6-3.4c0-4.1,0-8.1,0-12.2c0-0.4-0.4-0.9-0.7-1.2c-0.5-0.4-1.2-0.4-1.6-0.6
		c0.7-0.1,1.3-0.4,2-0.4c3.5,0,7.1,0.1,10.6-0.1c1.6-0.1,2,0.6,1.8,1.9c-0.1,0.6,0,1.2,0,1.6c0,0.2-0.2,0.5-0.4,0.7
		c-0.2-0.2-0.5-0.4-0.6-0.6c-1.6-3.5-4.8-2.7-7.7-2.7c-0.2,0-0.6,0.6-0.6,0.8c-0.1,1.2-0.1,2.2,0,3.4c0,0.8,0,2.2,0.4,2.4
		c1.1,0.4,2.4,0.6,3.3,0.1c0.7-0.4,0.9-1.6,1.5-2.6c0.1-0.2,0.2-0.5,0.5-0.7c0.1,0.2,0.4,0.5,0.5,0.7c0,2.1,0,4.2,0,6.4
		c0,0.2-0.2,0.4-0.5,0.6c-0.2-0.2-0.5-0.4-0.6-0.6c-0.5-0.6-0.7-1.5-1.3-1.9c-0.9-0.5-2.1-1.1-2.9-0.8c-1.3,0.2-0.5,1.6-0.6,2.6
		c-0.1,0.6-0.1,1.2,0,1.6c0.2,1.4-0.9,3.5,0.8,4c2.9,0.9,6.6-0.4,7.7-2.4c0.4-0.6,0.6-1.2,0.8-1.8c0.1-0.2,0.4-0.5,0.6-0.8
		c0.1,0.2,0.2,0.5,0.2,0.7c0,1.6,0,3.4,0,5.1C379.2,204.8,374.5,204.8,369.7,204.8z"/>
	<path class="st0" d="M555.1,204.8c0-0.1,0-0.4,0-0.4c0.7-0.2,1.9-0.2,2.2-0.7c0.5-0.7,0.4-1.9,0.4-2.8c0-3.6,0-7.3,0-10.9
		c0-1.5-0.1-2.5-2-2.1c-0.1,0-0.4-0.4-0.5-0.5c0.1-0.1,0.2-0.2,0.4-0.2c0.2-0.1,0.6,0,0.8-0.1c4.5-1.1,6.4,1.9,8.1,5.1
		c1.1,1.9,2.1,3.6,3.3,5.4c0.1,0.2,0.4,0.4,0.6,0.5c0.1-0.2,0.4-0.5,0.4-0.7c0-2.8,0-5.6,0-8.5c0-1.4-1.1-0.8-1.8-0.9
		c-0.2,0-0.5-0.2-0.7-0.4c0.2-0.1,0.4-0.5,0.6-0.5c1.4,0,2.8,0,4.2,0c0.4,0,0.7,0.2,1.1,0.4c-0.4,0.1-0.7,0.5-1.1,0.4
		c-0.9,0-1.5,0.1-1.5,1.3c0.1,5.2,0,10.4,0,15.7c-0.6,0-1.2,0-1.6,0c-0.1-0.5-0.1-1.1-0.4-1.5c-0.9-1.8-2-3.4-3.1-5.1
		c-1.6-2.7-3.3-5.4-4.9-8.1c-0.1-0.2-0.4-0.4-0.6-0.5c-0.1,0.2-0.4,0.5-0.4,0.7c0,3.5,0,7.1,0,10.6c0,0.9-0.1,2,0.4,2.8
		c0.2,0.5,1.4,0.5,2.2,0.7c0,0,0,0.2,0,0.4C559.1,204.8,557.1,204.8,555.1,204.8z"/>
	<path class="st0" d="M254.6,204.8c0-0.1,0-0.4,0-0.4c0.7-0.2,1.9-0.2,2.2-0.7c0.5-0.7,0.4-1.9,0.4-2.8c0-3.6,0-7.3,0-10.9
		c0-1.5-0.2-2.5-2-2.1c-0.1,0-0.4-0.4-0.5-0.5c0.2-0.1,0.5-0.4,0.7-0.4c0.8,0,1.6,0,2.6,0c2.2-0.2,3.5,0.2,4.5,2.7
		c1.1,2.8,3.2,5.2,4.8,7.8c0.1,0.2,0.4,0.4,0.6,0.6c0.1-0.2,0.4-0.5,0.4-0.7c0-2.8,0-5.6,0-8.5c0-1.4-1.1-0.8-1.8-1.1
		c-0.2,0-0.5-0.2-0.7-0.4c0.1-0.1,0.4-0.5,0.5-0.5c1.5,0,3.1,0,4.6,0c0.2,0,0.5,0.2,0.7,0.4c-0.2,0.1-0.5,0.5-0.6,0.5
		c-1.9-0.4-1.9,0.8-1.9,2.1c0,4.9,0,9.9,0,14.8c-0.2,0-0.6,0-0.8,0c-2.9-4.8-6-9.7-8.9-14.5c-0.4-0.5-0.6-1.1-0.9-1.5
		c-0.1,0.5-0.4,1.1-0.4,1.5c0,3.5,0,7.1,0,10.6c0,0.9-0.1,2,0.4,2.8c0.2,0.5,1.4,0.5,2.2,0.7c0,0,0,0.2,0,0.4
		C258.5,204.8,256.5,204.8,254.6,204.8z"/>
	<path class="st0" d="M532.2,204.8c0-0.1,0-0.4,0-0.4c3.2-1.3,3.2-1.3,4.2-4.4c1.2-3.8,2.2-7.4,3.4-11.2c0.1-0.2,0.1-0.6,0.2-0.7
		c0.4-0.4,0.7-0.7,1.2-0.8c0.2,0,0.7,0.5,0.8,0.8c0.7,2.1,1.3,4.2,2.1,6.2c1.1,2.9,2.1,5.9,3.3,8.7c0.1,0.4,0.6,0.7,1.1,0.8
		c0.6,0.2,1.5-0.2,1.5,0.8c-2.8,0-5.6,0-8.5,0c0-1.2,0.9-0.7,1.5-0.8c0.4-0.1,1.1-0.7,0.9-0.8c-0.4-1.5-0.8-3.1-1.5-4.4
		c-0.6-1.1-3.9-1.1-4.5,0c-0.7,1.3-1.3,2.9-1.5,4.4c-0.1,0.5,1.1,1.2,1.6,1.8C536.2,204.8,534.2,204.8,532.2,204.8z M540.2,197.2
		c0.5,0,0.8,0,1.3,0c0.8,0,0.8-0.2,0.5-0.9c-0.7-1.3-1.1-2.7-1.5-4c-1.2,1.1-1.2,2.7-1.9,4c-0.4,0.7-0.4,0.9,0.5,0.9
		C539.4,197.2,539.9,197.2,540.2,197.2z"/>
	<path class="st0" d="M232.5,204.8c2.5-1.9,2.5-1.9,4.2-7.5c0.9-2.8,1.6-5.8,2.6-8.7c0.2-0.6,0.8-1.1,1.2-1.6
		c0.5,0.5,1.1,0.9,1.3,1.5c0.9,2.4,1.6,4.7,2.6,6.9c0.8,2.1,2,4.1,2.4,6.2c0.4,1.9,2.2,1.8,2.7,3.1c-2.6,0-5.1,0-7.7,0
		c0-1.2,0.9-0.8,1.5-0.8c0.9-0.1,1.1-0.1,0.5-1.1c-0.7-1.1-0.7-2.5-1.3-3.6c-0.7-1.4-4.2-1.9-5.1-0.5c-0.8,1.3-1.3,2.8-1.5,4.4
		c-0.1,0.5,1.1,1.2,1.6,1.8C235.9,204.8,234.2,204.8,232.5,204.8z M239.4,197.3c0.8-0.1,1.5-0.4,2.4-0.5c-0.2-0.7-0.5-1.4-0.8-2.1
		c-0.2-0.6-0.6-1.2-0.8-1.8c-0.1-0.2-0.2-0.5-0.4-0.7c-0.1,0.2-0.4,0.6-0.5,0.8c-0.4,0.8-0.4,1.9-0.9,2.6
		C237.2,197.3,238,197.4,239.4,197.3z"/>
	<path class="st0" d="M323.9,204.8c0-0.1,0-0.4,0-0.4c2.1-0.5,2.9-1.6,3.5-3.9c1.1-4.2,2.7-8.4,4.1-12.6c0.1-0.4,0.4-0.6,0.6-0.9
		c0.4,0.2,0.9,0.5,1.1,0.8c1.2,2.8,2.2,5.8,3.4,8.7c0.7,1.9,1.4,3.9,2.2,5.8c0.2,0.6,0.6,1.1,0.9,1.6c0.2,0.4,0.7,0.6,1.1,0.8
		c-2.6,0-5.1,0-7.7,0c0.1-0.2,0.1-0.6,0.4-0.7c2.6-0.8,2.6-0.8,1.4-3.3c-0.4-0.7-0.5-1.5-0.8-2.1c-0.1-0.2-0.6-0.6-0.8-0.6
		c-1.3-0.1-2.7-0.4-3.8,0.1c-0.7,0.4-0.8,1.8-1.3,2.7c-0.1,0.2,0,0.6-0.1,0.8c-0.4,1.3,0,1.9,1.4,2.4c0.1,0,0.2,0.5,0.4,0.7
		C327.9,204.8,325.9,204.8,323.9,204.8z M331.4,197.2c0.5,0,0.9,0.1,1.2,0c0.4-0.2,0.7-0.9,0.6-1.2c-0.4-1.1-0.7-2.2-1.5-2.9
		c-0.7-0.5-0.9,0.5-0.9,1.2c0,0.4-0.1,0.7-0.2,1.2C329.8,197.2,329.8,197.2,331.4,197.2z"/>
	<path class="st0" d="M513.6,204.8c1.6-1.5,1.6-1.5,1.6-3.4c0-3.8,0-7.7,0-11.4c0-1.5-0.1-2.5-2-2.1c-0.1,0-0.4-0.2-0.6-0.5
		c0.2-0.1,0.5-0.4,0.7-0.4c2.1,0,4.2,0,6.4,0c0.1,0,0.4,0.4,0.5,0.5c-0.2,0.1-0.5,0.4-0.7,0.4c-1.1,0-1.9,0-1.8,1.4
		c0.1,4.5,0,8.9,0,13.5c0,0.9,0.4,1.2,1.2,1.2c1.2-0.1,2.6,0,3.6-0.4c2.2-0.7,3.3-2.5,3.6-4.7c0-0.2,0.4-0.5,0.6-0.7
		c0.1,0.2,0.2,0.5,0.2,0.7c0,2,0,3.9,0,5.9C522.7,204.8,518.1,204.8,513.6,204.8z"/>
	<path class="st0" d="M400.2,204.8c0-0.1,0-0.4,0-0.4c0.7-0.2,1.9-0.2,2.2-0.7c0.5-0.7,0.4-1.9,0.4-2.8c0-3.9,0-7.9,0-11.8
		c0-1.2-0.5-1.4-1.5-1.3c-0.4,0-0.7-0.2-1.1-0.4c0.4-0.1,0.7-0.4,1.1-0.4c2,0,3.9,0,5.9,0c0.2,0,0.5,0.2,0.7,0.4
		c-0.2,0.1-0.5,0.5-0.7,0.4c-2-0.5-1.9,0.8-1.9,2.2c0,4.1,0.1,8.1,0,12.2c-0.1,1.6,0.6,1.9,1.9,1.8c0.2,0,0.5,0.5,0.7,0.8
		C405.2,204.8,402.6,204.8,400.2,204.8z"/>
	<path class="st0" d="M794.7,163.3c-0.5,0.2-0.9,0.6-1.3,0.9c-1.1,0.8-1.8,1.8-3.6,0.9c-1.9-0.8-1.9-2-1.9-3.5
		c0-0.9-0.2-1.9,0.6-2.7c1.6-1.9,3.2-2,5.2-0.4c0.4,0.2,0.7,0.4,1.1,0.6C794.7,160.6,794.7,162,794.7,163.3z"/>
	<path class="st0" d="M496.7,204.8c0-0.2,0-0.6,0-0.8c0.8,0,1.6,0,2.5,0c2.5,0,2.5,0,3.4-2.8c0.8-2.5,0.8-2.5-1.4-3.2
		c-0.4-0.1-0.7-0.2-1.1-0.5c0.4-0.1,0.7-0.4,1.1-0.4c2.2,0,4.5,0,6.7,0c0.2,0,0.5,0.2,0.7,0.4c-0.2,0.1-0.5,0.5-0.7,0.4
		c-2-0.4-1.9,0.8-1.9,2.2c0,1.5,0,3.1,0,4.6c-0.2,0-0.6,0-0.8,0c-0.8-1.2-1.6-1.2-2.6,0C500.7,204.8,498.7,204.8,496.7,204.8z"/>
	<path class="st0" d="M439.7,110c3.4,0,6.8,0,10.1,0c0.9,0,1.2,0.5,1.2,1.3c0,0.8-0.1,1.3-1.1,1.3c-0.9,0-2,0-2.9,0
		c-4,0-4,0-2.6,3.9c1.9,5.5,3.9,11.1,5.9,16.6c2.1,5.9,4.4,11.8,5.9,17.9c0,0.2,0.4,0.5,0.5,0.5c0.2-0.1,0.5-0.4,0.6-0.6
		c0.8-1.9,1.6-3.9,2.2-5.8c2.4-7.1,4.7-14.1,6.9-21.2c0.5-1.5,1.4-3.1,1.4-4.5c-0.1-1.9-0.9-3.8-1.8-5.5c-0.2-0.6-1.3-1.1-2-1.2
		c-1.1-0.2-2.2-0.1-3.4,0c-0.8,0-1.2-0.2-1.3-1.2c0-1.1,0.4-1.4,1.4-1.4c6.5,0,12.9,0,19.4,0c0.9,0,1.2,0.4,1.2,1.2
		c0,0.7,0,1.4-1.1,1.3c-1.5,0-3.1,0-4.7,0c-1.2,0-1.2,0.5-0.8,1.5c2.5,7.2,4.9,14.4,7.3,21.5c1.5,4.5,2.8,8.9,4.2,13.4
		c0.1,0.2,0.5,0.6,0.8,0.6c0.2,0,0.8-0.4,0.8-0.6c1.2-6.5,3.9-12.6,5.3-19.1c0.8-3.8,1.9-7.7,3.4-11.2c0.7-1.6,0.1-3.5,1.4-4.9
		c0.6-0.6,0-1.5-1.3-1.4c-1.5,0.1-3.1,0-4.7,0c-0.8,0-1.6,0.2-1.6-1.2c0-1.1,0.4-1.4,1.4-1.4c4.5,0,9.1,0,13.5,0
		c0.9,0,1.2,0.4,1.2,1.3c0,0.8-0.1,1.2-1.1,1.4c-1.6,0.2-3.6-1.2-4.8,0.8c-0.7,1.3-1.3,2.9-1.5,4.5c-0.7,4.8-2.7,9.3-3.6,14.1
		c-0.7,3.5-2.2,6.9-3.3,10.5c-1.2,4-2.2,8.1-3.4,12.1c-0.8,2.8-1.6,5.5-2.6,8.2c-0.2,0.7-0.5,1.5-0.8,2.1c-0.2,0.4-0.7,0.7-1.1,0.8
		c-0.7,0.1-1.2,0.1-1.4-0.9c-0.7-2.4-1.8-4.6-2.5-7.1c-3.3-10.5-7.3-20.7-10.2-31.3c-0.1-0.5-0.6-0.9-0.8-1.3
		c-0.1-0.2-0.2-0.5-0.2-0.7c-0.2,0.2-0.5,0.5-0.6,0.7c-0.8,2.2-1.9,4.4-2.5,6.6c-2.9,10.5-7.5,20.4-10.2,31c-0.2,0.7-0.6,1.5-1.1,2
		c-0.6,0.5-1.3,0.9-2.1,1.1c-1.4,0.2-0.8-1.1-1.1-1.6c-2.6-7.5-5.2-15.1-7.8-22.6c-2.8-8.1-5.5-16.4-8.2-24.5
		c-0.2-0.6-0.6-1.2-0.8-1.8c-0.9-2.7-0.9-2.7-3.5-2.7c-0.7,0-1.4,0-2.1,0c-0.9,0.1-1.2-0.4-1.2-1.2c0-0.7,0-1.4,1.1-1.3
		c1.9,0,3.6,0,5.5,0C436.3,110,438.1,110,439.7,110z"/>
	<path class="st0" d="M126.6,137.5c0-7.8,0-15.5,0-23.3c0-1.2-0.1-1.9-1.5-1.8c-1.6,0.1-3.4,0-5.1,0c-1.1,0-1.1-0.6-1.1-1.3
		c0-0.9,0.2-1.2,1.2-1.2c8,0,16.1-0.4,24.1,0.1c5.6,0.4,11.1,2,14.9,6.7c2,2.5,3.8,5.2,3.8,8.6c0,1.3,1.4,2.4,0.1,4
		c-0.7,0.9-0.1,2.8-0.8,4.2c-0.4,0.8-0.5,1.8-1.3,2.5c-2.4,2.2-4.2,5.2-7.9,5.4c-0.8,1.2-2.1,0.6-3.1,0.6c-4.8,0-9.7,0.1-14.4,0
		c-1.2,0-1.4,0.4-1.4,1.4c0,5.8,0.1,11.5,0,17.3c0,1.4,0.5,1.6,1.6,1.5c1.5-0.1,3.1-0.1,4.7,0c0.5,0,0.8,0.4,1.3,0.6
		c-0.2,0.5-0.4,1.1-0.8,1.3c-0.4,0.4-0.9,0.5-1.4,0.5c-6.5,0-12.9,0-19.4,0c-0.9,0-1.2-0.4-1.2-1.2c0-0.7,0-1.4,1.1-1.3
		c0.1,0,0.2,0,0.5,0c2,0,3.9-0.1,5.9-0.1c0.1-2.1,0.2-4.1,0.2-6.2C126.6,150,126.6,143.7,126.6,137.5z M134.3,126.2
		c0,1.2,0,2.2,0,3.4c0,3.5,0,7.1,0.1,10.5c3.8,0.1,7.5,0.2,11.3,0.4c2.6,0,4.6-1.1,6.4-2.8c1.4-1.5,1.3-3.4,1.9-5.2
		c1.6-4.8,0.5-11.1-1.9-15.1c-1.9-3.2-4.9-5.1-8.8-4.8c-1.9,0.1-3.6,0-5.5,0c-3.4,0-3.4,0-3.4,3.6
		C134.3,119.5,134.3,122.9,134.3,126.2z"/>
	<path class="st0" d="M522.9,152.8c0,2.7,0,5.4,0,8c0,1.9,0.6,2.2,2.5,2.5c1.2,0.1,3.3-0.9,3.3,0.9c0,1.3-2.1,0.6-3.2,0.6
		c-4.5,0.1-9.1,0-13.5,0c-0.2,0-0.6-0.5-0.8-0.6c0.4-0.4,0.6-0.9,0.9-0.9c0.9-0.1,2,0,2.9-0.1c1.3-0.1,2-0.8,2-2.1
		c0-0.1,0-0.2,0-0.5c0-12.2,0-24.5,0-36.8c0-1.2-0.5-1.4-1.5-1.4c-1.4,0-2.8,0-4.1-0.1c-0.1,0-0.2-0.5-0.2-0.7
		c0-0.2,0.1-0.6,0.2-0.7c0.2-0.1,0.5-0.1,0.8-0.1c5.2,0,10.5,0,15.7,0c0.4,0,0.7,0.6,1.1,0.8c-0.4,0.2-0.7,0.7-1.2,0.7
		c-1.5,0.1-3.1,0.1-4.6,0.2c-0.1,1.6-0.2,3.3-0.2,4.9c0,3.6,0,7.3,0,10.9c0,1.8,0.7,2.4,2.5,2.5c4.2,0,8.5,0,12.7,0
		c1.6,0,2.5-0.7,2.5-2c0-5.2,0-10.5,0-15.7c0-0.4-0.6-0.9-0.9-0.9c-1.3-0.1-2.6,0-3.8-0.1c-0.4,0-0.8-0.5-1.2-0.7
		c0.4-0.4,0.7-0.8,1.1-0.8c2.8-0.1,5.6,0,8.5,0c2.6,0,5.1,0,7.7,0c0.2,0,0.6,0.5,0.6,0.8c0,0.2-0.4,0.6-0.6,0.8
		c-0.2,0.1-0.6,0-0.8,0c-4.4,0.1-4.4,0.1-4.4,4.4c0,10.7,0,21.4,0,32.1c0,0.7-0.1,1.4,0,2.1c0.1,1.2,0.7,1.9,2.1,2
		c1.3,0.1,2.7-0.8,3.8,0.6c-0.8,2-2.6,0.9-3.9,0.9c-4.1,0.1-8.1,0.1-12.2,0c-0.6,0-1.5,0.4-1.6-0.7c-0.1-1.4,1.1-0.8,1.8-0.9
		c0.6-0.1,1.2,0,1.6,0c1.8-0.1,2.4-0.7,2.4-2.6c0-5.5,0-10.9,0-16.5c0-0.8-0.1-1.3-1.1-1.3c-5.2,0-10.5,0-15.7,0
		c-1.1,0-1.1,0.6-1.1,1.3C522.9,147.2,522.9,150,522.9,152.8z"/>
	<path class="st0" d="M180.8,121c2.6,0,5.1-0.1,7.7,0c2.1,0.1,4.4,0.4,6.4,0.8c3.1,0.8,6,5.4,6.5,8.7c0.8,5.5-2.4,8.4-6.5,10.7
		c-0.4,0.2-0.7,0.2-1.2,0.4c0.5,0.1,0.9,0.4,1.3,0.5c1.4,0.6,3.1,1.1,4.2,1.9c1.6,1.2,2.9,2.8,2.8,5.2c0,0.9,0.1,2,0,2.9
		c-0.6,2.9,0.9,5.6,0.9,8.6c0,1.2,2.2,2.6,4.1,2.6c0.8,0,1.8-0.6,2.6-0.8c0.2,0,0.6,0.1,0.7,0.2c0.1,0.2,0.2,0.6,0.1,0.7
		c-0.6,0.6-1.2,1.4-1.8,1.4c-2.8,0-5.8,0.5-8.6-0.7c-2.5-1.1-3.9-2.6-4-5.4c-0.1-2.8,0-5.6,0-8.5c0-2.5-0.9-4.6-2.8-6.5
		c-1.2-1.2-2.7-1.3-4-1.6c-2.1-0.6-4.5-0.2-6.7-0.1c-0.4,0-0.8,0.7-0.8,1.1c0,5.9-0.1,11.9,0,17.8c0,1.5,0.7,2.2,2.2,2.4
		c0.7,0,1.4,0,2.1,0c0.6,0,1.5-0.4,1.6,0.7c0.1,1.1-0.7,0.9-1.4,0.9c-2.2,0-4.5,0-6.7,0c-2.9,0-5.9,0-8.8,0c-0.2,0-0.7-0.5-0.7-0.8
		c0-0.2,0.4-0.7,0.6-0.8c0.4-0.1,0.8,0,1.3,0c4-0.1,4-0.1,4-3.9c0-11.5,0-23.1,0-34.7c0-2,0-1.9-2-2.1c-1.3-0.1-3.1,1.1-3.9-0.9
		c1.2-1.4,2.8-0.6,4.2-0.7C176.3,120.9,178.6,121,180.8,121z M181.7,131.4c0,2.7,0,5.3,0,8c0,0.4,0.6,0.9,0.8,0.9
		c2.8,0.1,5.6,0.2,8.4,0c1.1-0.1,2.2-0.7,2.8-2.2c1.1-2.9,1.8-5.5,0.7-8.8c-1.5-4.5-1.6-5.5-5.4-6.4c-2.2-0.5-4.7-0.2-7.1-0.2
		c-0.1,1.8-0.2,3.5-0.4,5.3C181.6,129.2,181.7,130.3,181.7,131.4z"/>
	<path class="st0" d="M648.4,165c-5.1,0-10.1,0-15.2,0c-0.6,0-1.2,0.1-1.6,0c-0.4-0.1-0.7-0.6-0.9-0.9c0.2-0.2,0.5-0.7,0.8-0.7
		c0.8-0.1,1.8-0.1,2.6,0c1.8,0.4,1.8-0.6,1.8-1.9c0-12.2,0-24.6,0-36.8c0-1.9,0-1.8-2.1-2c-0.9-0.1-2.8,0.7-2.8-0.7
		c-0.1-2.2,2-0.9,2.9-0.9c9.8-0.1,19.4,0,29.2-0.1c1.3,0,1.6,0.4,1.6,1.6c-0.1,3.1,0,6.2-0.1,9.3c0,0.4-0.6,0.6-0.9,0.9
		c-0.2-0.2-0.6-0.5-0.7-0.8c-0.4-1.9-0.9-3.5-2-5.1c-2-2.8-4.5-4.2-8-4.2c-2.9,0-5.9,0-8.9,0c-0.9,0-1.5,0.1-1.5,1.3
		c0.1,5.4,0,10.7,0,16.1c0,0.8,0.2,1.3,1.2,1.2c0.9,0,2,0,2.9,0c3.9,0,7.1-2.8,7.8-6.8c0.1-0.6,0.2-1.3,0.7-1.8
		c0.2-0.4,0.9-0.5,1.4-0.6c0.1,0,0.5,0.7,0.5,0.9c0,5.8,0,11.5,0,17.3c0,0.9-0.5,1.1-1.3,1.1c-0.8,0-1.3-0.2-1.3-1.2
		c0-1.3,0.1-2.6-0.8-3.9c-1.4-2-2.6-3.9-5.5-3.4c-1.8,0.2-3.6,0.2-5.4,0.4c0,1.6-0.1,3.3-0.1,5.1c0,4.4,0,8.7,0,13.1
		c0,1.3,0,2.1,1.8,2c2.4-0.2,4.8,0.1,7.2-0.1c2.1-0.2,4.2-0.6,6.2-1.2c3.6-1.1,5.8-3.8,6.7-7.2c0.5-1.5,0.8-2.9,1.6-4.2h0.4
		c1.2,1.4,0.6,3.2,0.6,4.7c0,3.2-0.2,6.4-0.4,9.5c-3.1,0-6.2,0.1-9.3,0.1C654.3,165,651.3,165,648.4,165z"/>
	<path class="st0" d="M384.3,165c-4.9,0-9.9,0-14.8,0c-0.8,0-1.6,0.1-2.6,0c-0.2,0-0.6-0.5-0.6-0.8c0-0.2,0.4-0.8,0.6-0.8
		c0.9-0.1,2-0.1,2.9,0c0.9,0,1.5-0.1,1.5-1.3c0-12.7,0-25.4,0-38.1c0-0.8-0.2-1.3-1.2-1.3c-0.8,0-1.6,0-2.6,0
		c-0.7,0-1.5,0.1-1.4-0.9c0-0.4,0.7-0.7,1.2-0.7c10.5,0,20.8,0,31.3,0c0.7,0,1.4,0,1.4,1.1c0,3.4,0,6.8,0,10.1
		c0,0.2-0.5,0.6-0.8,0.6c-0.2,0-0.7-0.4-0.8-0.6c-0.4-0.9-0.6-2-0.8-3.1c-1.3-4.4-5.4-6.6-8.5-6.5c-3.6,0.1-7.3,0.2-10.8,0.4
		c0,3.5-0.1,7.1-0.1,10.6c0,2.2,0,4.5,0,6.8c0,0.4,0.4,0.9,0.5,0.9c2.9-0.1,6.1,0.7,8.6-1.8c1.4-1.5,2.9-2.9,2.7-5.2
		c-0.1-1.2,0.7-1.8,1.5-2.2c0.2-0.1,0.7,0.2,1.1,0.5c0.1,0.1,0,0.6,0,0.8c0,5.6,0,11.3,0,16.9c0,0.8-0.1,1.3-1.1,1.3
		c-1.1,0-1.6-0.2-1.4-1.4c0.2-1.9-0.4-3.4-1.5-4.8c-1.3-1.5-2.7-2.7-4.9-2.4c-1.6,0.4-3.3,0.1-5.1,0.2c-0.1,1.8-0.2,3.5-0.2,5.4
		c0,4.1,0,8.2,0,12.2c0,1.6,0.7,2.5,2,2.5c4.8,0.1,9.5,0,14.1-1.5c2.1-0.7,3.2-1.9,4.1-3.5c1.3-2.1,2.2-4.5,2.6-6.9
		c0-0.2,0.6-0.6,0.9-0.5c0.2,0,0.7,0.5,0.7,0.7c0,4.2,0,8.5,0,12.7c0,1.2-0.8,0.9-1.4,0.9C395.6,165,389.9,165,384.3,165z"/>
	<path class="st0" d="M342.6,142.6c0,5.9,0,11.9,0,17.8c0,2.5,0.5,2.7,2.8,3.1c1.1,0.1,2.9-1.3,2.9,0.9c0,1.4-1.9,0.7-2.8,0.7
		c-4.7,0.1-9.3,0.1-14,0c-0.4,0-0.6-0.7-0.9-1.1c0.2-0.2,0.6-0.6,0.8-0.6c0.9-0.1,2,0,2.9,0c1.3,0,2-0.8,2.1-2c0-0.2,0-0.6,0-0.8
		c0-12,0-24,0-36c0-1.6-0.5-1.8-1.9-1.9c-4.1-0.4-7.7,0.9-10.1,4.1c-1.8,2.2-2.7,5.1-3.2,8c-0.2,1.1,0,2.2-0.9,3.1
		c-0.4,0.4-0.6,0.7-0.9,1.1c-0.2-0.4-0.8-0.8-0.8-1.2c0.4-3.3-0.7-6.6,0.7-9.9c0.7-1.5,0.2-3.6,0.1-5.4c-0.1-1.2,0.5-1.4,1.5-1.4
		c12.2,0,24.6,0,36.8,0c1.4,0,1.6,0.6,1.5,1.8c-0.1,1.9,0.2,3.6-0.1,5.5c-0.4,2.7,1.1,5.1,0.9,7.7c0,0.7,0.1,1.4,0,2.1
		c0,0.2-0.5,0.6-0.7,0.7c-0.1,0.1-0.6,0-0.7-0.2c-0.4-0.7-1.1-1.4-1.1-2.1c0.2-3.9-1.5-6.9-3.5-10c-1.6-2.6-4.6-3.1-7.3-3.8
		c-1.1-0.2-2.2,0-3.4,0c-0.9,0-1.1,0.5-1.1,1.3C342.6,130.2,342.6,136.4,342.6,142.6z"/>
	<path class="st0" d="M603.7,121c6.2,0,12.4,0,18.6,0c1.1,0,1.5,0.2,1.4,1.4c-0.1,1.9,0.1,3.6,0,5.5c-0.2,2.9,0.5,5.6,0.8,8.6
		c0.1,0.6,0,1.2,0,1.6c0,0.2-0.2,0.6-0.4,0.6c-0.4,0-0.8-0.1-1.2-0.2c-0.7-0.5-1.1-1.2-1.1-2.1c0.4-4-1.6-7.2-3.9-10.2
		c-1.9-2.6-4.8-3.2-7.9-3.4c-3.5-0.2-3.5-0.1-3.5,3.4c0,10.9,0,22,0,33c0,0.7-0.1,1.4,0,2.1c0.1,1.2,0.8,1.9,2.1,2.1
		c1.3,0.2,3.1-1.2,3.9,1.1c-1.1,1.3-2.6,0.6-3.9,0.6c-4.2,0.1-8.5,0.1-12.7,0c-0.4,0-1.1-0.4-1.2-0.7c-0.2-1.1,0.6-0.9,1.3-0.9
		c0.8,0,1.6,0.1,2.6,0c1.2-0.1,2-0.7,2-2.1c0-1.4,0-2.8,0-4.2c0-10,0-20,0-30c0-0.8,0.2-1.8-0.1-2.5c-0.2-0.7-0.9-1.5-1.5-1.6
		c-3.9-0.7-8.6,0.8-11.2,5.1c-1.8,2.9-2.4,6.4-3.3,9.7c-0.2,0.7,0,1.5-1.1,1.3c-0.4-0.1-0.6-0.8-0.7-1.2c-0.1-2.7-0.1-5.4,0-8
		c0.1-1.3,0.6-2.6,0.8-3.9c0.2-1.5,0.2-3.1,0.4-4.5c1.4,0,2.8-0.1,4.2-0.1C593.5,121,598.6,121,603.7,121z"/>
	<path class="st0" d="M309,165c-2.6,0-5.1,0-7.7,0c-0.7,0-1.5-0.4-2.2-0.7c-0.2-0.1-0.4-0.4-0.6-0.6c0.2-0.1,0.5-0.4,0.7-0.4
		c1.6,0,3.4,0,5.1,0c2,0,2.2-0.6,1.4-2.5c-0.7-1.8-1.5-3.6-2.1-5.4c-0.6-1.5-1.2-3.2-1.6-4.8c-0.4-1.2-1.2-1.8-2.5-1.6
		c-2.8,0.1-5.6,0.1-8.5,0c-1.4,0-2.2,0.5-2.7,1.9c-0.9,3.2-2.1,6.2-3.1,9.3c-0.2,0.6-0.2,1.3-0.2,2c-0.1,0.9,0.2,1.3,1.2,1.2
		c1.3,0,2.6,0,3.8,0c0.4,0,0.6,0.4,0.8,0.5c-0.4,0.4-0.6,0.7-0.9,0.8c-0.4,0.2-0.7,0.2-1.2,0.2c-4.1,0-8.1,0-12.2,0
		c-0.2,0-0.6-0.5-0.8-0.6c0.4-0.4,0.6-0.9,0.9-0.9c0.7-0.1,1.4,0,2.1,0c3.1,0,3.6-0.5,4.6-3.4c1.3-4,2.8-7.9,3.9-11.9
		c2.2-8.4,5.3-16.4,8-24.6c0.2-0.7,0.7-1.4,0.8-2.2c0.1-0.9,0.5-1.1,1.3-1.1s1.1,0.2,1.3,1.1c1.4,4.2,3.1,8.4,4.6,12.5
		c1.3,3.4,2.6,6.8,3.8,10.2c1.5,4.1,3.1,8.4,4.6,12.5c0.7,2,1.6,3.9,2.1,5.9c0.2,0.9,0.6,1.1,1.4,1.1c0.9,0,2-0.1,2.9,0
		c0.5,0,1.5-0.6,1.4,0.6c-0.1,0.5-1.1,1.1-1.6,1.1C314.8,165,311.9,165,309,165z M294.7,147.3c1.4,0,2.8,0,4.2,0
		c1.1,0,1.9-0.9,1.3-1.9c-2.2-3.9-2.9-8.4-5.1-12.2c-0.2-0.4-0.2-0.7-0.4-1.1c-0.1,0.4-0.4,0.7-0.5,1.1c-1.5,4.5-3.1,8.8-4.6,13.3
		c-0.2,0.7-0.5,0.9,0.4,0.9C291.7,147.3,293.2,147.3,294.7,147.3z"/>
	<path class="st0" d="M247.4,121c2.9,0,5.9,0,8.8,0c0.6,0,1.5-0.4,1.6,0.7c0.1,1.4-1.1,0.9-1.8,0.9c-1.6,0.1-3.4,0-5.1,0.1
		c-0.2,0-0.8,0.9-0.7,1.2c2,4.2,3.3,8.8,5.1,13.2c1.8,4.6,3.4,9.3,5.1,14c0.4,0.9,0.7,1.9,1.2,2.9c0.5-0.9,1.1-2,1.4-2.9
		c2.9-9.1,5.9-18.1,8.8-27.2c0.1-0.5,0.8-0.9-0.2-0.9c-1.6-0.1-3.4,0-5.1-0.1c-0.4,0-0.7-0.6-0.9-0.9c0.2-0.2,0.5-0.7,0.8-0.7
		c4.5,0,9.1,0,13.5,0c0.4,0,0.6,0.6,0.9,0.9c-0.2,0.2-0.6,0.6-0.8,0.6c-0.7,0.1-1.4,0-2.1,0c-3.6,0-3.6,0-4.7,3.3
		c-1.5,4.8-3.3,9.7-4.6,14.6c-2,7.7-4.9,14.9-7.2,22.4c-0.4,1.2-0.6,2.6-1.6,2.8c-1.5,0.2-1.8-1.4-2.2-2.5
		c-1.4-3.4-2.6-6.8-3.8-10.2c-1.5-4.1-3.1-8.4-4.6-12.5c-1.3-3.4-2.6-6.8-3.9-10.2c-0.4-0.8-0.6-1.8-0.8-2.6c-0.6-1.5-0.8-3.8-2-4.6
		c-1.1-0.8-3.2-0.4-4.8-0.5c-0.4,0-0.6-0.5-0.8-0.7c0.4-0.4,0.6-0.9,0.9-0.9C240.9,121,244.1,121,247.4,121z"/>
	<path class="st0" d="M698.4,121c2.8,0,5.6,0,8.5,0c0.7,0,1.5-0.1,1.4,0.9c-0.1,1.2-0.9,0.7-1.6,0.7c-1.6,0-3.4,0-5.1,0
		c-1.1,0-1.2,0.7-0.8,1.4c2.5,4.9,3.9,10.2,5.9,15.3c1.5,4,2.9,8.1,4.6,12.1c0.2,0.5,0.2,1.1,0.5,1.5c0.1,0.4,0.4,0.6,0.5,0.9
		c0.1-0.4,0.2-0.8,0.4-1.1c1.6-2.7,2.2-5.9,3.3-8.8c2.2-6.7,4.2-13.5,6.8-20c0.4-0.7,0-1.3-0.9-1.3c-1.4,0-2.8,0-4.2,0
		c-0.2,0-0.6-0.6-0.6-0.8c0-0.2,0.4-0.8,0.6-0.8c4.2,0,8.5,0,12.7,0c0.4,0,0.7,0.2,1.1,0.5c0.2,0.2,0.5,0.6,0.7,0.8
		c-0.2,0.1-0.5,0.4-0.7,0.4c-1.5,0-3.1,0-4.7,0c-1.2,0-1.8,0.7-2.1,1.5c-2,6.1-4,12.2-6,18.2c-1.5,4.6-2.9,9.2-4.5,13.8
		c-0.8,2.5-1.5,5.1-2.4,7.5c-0.1,0.5-0.4,0.9-0.7,1.4c-0.6,0.9-1.4,0.8-2,0c-0.2-0.4-0.6-0.6-0.7-0.9c-2.6-9.1-6.7-17.5-9.5-26.6
		c-1.4-4.5-3.5-8.7-4.9-13.2c-0.4-1.3-1.1-1.9-2.4-1.8c-1.1,0-2.2,0-3.3-0.1c-0.1,0-0.2-0.5-0.2-0.7s0.1-0.7,0.2-0.7
		c0.8-0.1,1.6-0.1,2.5-0.1C693.3,121,695.9,121,698.4,121z"/>
	<path class="st0" d="M778.7,158.7c0,2.1,0,4.2,0,6.4c0,0.2-0.2,0.5-0.2,0.7c-0.2-0.1-0.5-0.1-0.6-0.4c-1.6-3.2-4.1-1.5-6.4-1.2
		c-0.5,0.1-0.9,0.7-1.4,0.7c-2.1,0.4-4.4,1.1-6.4,0.8c-7.4-0.8-14-3.9-17.9-10.6c-1.5-2.7-2.8-6-2.7-9.4c0.1-1.9,0-3.6,0-5.5
		c0.2-6.5,3.1-11.8,7.9-15.7c4.7-3.8,10.4-5.1,16.2-4.5c1.5,0.1,3.1,0.9,4.6,1.2c1.4,0.2,2.9,0.4,4.5,0.5c0.2,0,0.4-0.6,0.6-0.8
		c0.4-0.4,0.7-0.6,1.2-0.8c0.2,0.4,0.6,0.6,0.6,0.9c0,4.2,0,8.5,0,12.7c0,0.2-0.5,0.7-0.7,0.7c-0.4,0-0.8-0.2-0.9-0.6
		c-0.4-0.8-0.8-1.8-0.8-2.6c-0.2-3.6-2.9-5.6-5.4-7.4c-2.1-1.6-5.1-2.5-8-2.1c-3.1,0.5-6.1,1.3-8,4c-2.4,3.2-3.9,6.6-4,10.6
		c-0.1,2.2-1.4,4.1-0.9,6.5c0.4,1.4,0.4,2.9,0.5,4.5c0.1,1.4,0.1,2.7,0.5,4.1c0.4,1.4,1.2,2.6,1.6,4c2,5.8,4,7.3,10,8.1
		c0.9,0.1,1.6,0.5,2.7,0c0.9-0.5,2.4,0.2,3.3-0.1c2.7-0.9,4.7-2.7,5.9-5.2c0.9-2,2.7-3.6,2.6-6.1c0-0.1,0.7-0.5,0.9-0.5
		c0.2,0,0.6,0.5,0.6,0.8C778.7,154.5,778.7,156.6,778.7,158.7z"/>
	<path class="st0" d="M568.5,165c-2.6,0-5.1,0-7.7,0c-0.6,0-1.2-0.5-1.8-0.7c-0.2-0.1-0.4-0.4-0.5-0.6c0.2-0.1,0.5-0.4,0.7-0.4
		c1.6-0.1,3.3-0.1,4.9-0.2c0.1-2,0.2-3.9,0.2-5.9c0-10.8,0-21.8,0-32.6c0-2,0-1.8-2-2.1c-1.3-0.1-3.1,1.1-3.9-0.9
		c1.1-1.4,2.6-0.6,3.8-0.6c4.7-0.1,9.3,0,14,0c0.2,0,0.6,0.5,0.8,0.6c-0.4,0.4-0.6,0.7-0.9,1.1c-0.1,0.1-0.2,0-0.5,0
		c-1.5,0.1-3.6-0.4-4.4,0.5c-0.8,0.9-0.2,2.9-0.2,4.5c0,11.3,0,22.6,0,33.9c0,1.5,0.2,2.1,1.9,1.9c0.9-0.1,2-0.1,2.9,0
		c0.5,0,0.8,0.5,1.2,0.7c-0.4,0.4-0.7,0.8-1.1,0.8C573.5,165,571.1,165,568.5,165z"/>
	<path class="st0" d="M224.1,121c2.2,0,4.5,0,6.7,0c0.6,0,1.3,0.4,1.9,0.6c0.2,0.1,0.5,0.4,0.6,0.6c0,0.1-0.2,0.4-0.5,0.5
		c-0.1,0.1-0.2,0-0.5,0c-1.5,0-3.1,0.1-4.6,0.1c-0.1,1.8-0.4,3.5-0.4,5.4c0,11.2,0,22.2-0.1,33.4c0,1.6,0.5,2,1.9,1.8
		c0.6-0.1,1.2-0.1,1.6,0c0.8,0.1,1.5,0.2,2.4,0.4c-0.7,0.7-1.2,1.3-2.4,1.3c-5.1-0.1-10.1,0-15.2-0.1c-0.4,0-0.7-0.6-0.9-0.9
		c0.4-0.2,0.8-0.7,1.2-0.7c1.5-0.1,3.6,0.4,4.4-0.5c0.8-0.8,0.4-2.9,0.4-4.5c0-11.3,0-22.6,0-33.8c0-2,0-1.8-2-2
		c-1.3-0.1-3.1,1.1-3.9-0.9c1.1-1.4,2.6-0.5,3.8-0.6C220.3,120.9,222.2,121,224.1,121z"/>
	<path class="st0" d="M500.6,187.1c0.5,0,0.6,0,0.7,0c4.2,0,4.5,0.2,3.9,4.4c0,0.2-0.2,0.5-0.4,0.7c-0.1-0.2-0.4-0.4-0.5-0.6
		c-0.4-0.6-0.7-1.2-0.8-1.8c-0.4-1.6-1.4-1.8-2.7-1.9c-4.7-0.1-6.6,1.6-6.6,6.6c0,2.1-0.4,4.4,0.8,6.5c0.2,0.5,0.2,1.1,0.5,1.4
		c0.4,0.6,0.8,1.1,1.2,1.6c-0.9,0.1-1.5-0.1-2.2-0.8c-1.3-1.5-2.6-2.9-3.4-4.9c-0.9-2.5,0.1-4.6,0.8-6.6c0.5-1.6,1.8-3.1,3.6-4
		C497.4,186.7,499.2,187.4,500.6,187.1z"/>
	<path class="st0" d="M733.7,161c0,1.9-2,4.6-3.8,4.7c-1.1,0.1-3.8-2.7-3.9-4c-0.1-1.6,2.5-4.4,4.1-4.4
		C732.2,157.4,733.7,158.9,733.7,161z"/>
	<path class="st0" d="M30.8,137.6c1.2-5.2,2.2-9.9,6.5-13.4c3.5-3.1,7.5-4.4,12-4.9c0.9-0.1,8.4,1.9,9.1,2.6
		c2.7,2.2,5.3,4.6,6.8,7.7c1.2,2.5,2.1,5.3,2,8c-0.1,2.5-0.4,5.4-1.6,7.7c-2,3.4-4.8,6.2-8.2,8.4c-2.5,1.6-5.5,0.6-8,2
		c-3.2-1.2-6.6-1.2-9.7-3.2c-2.8-1.9-5.1-4.4-6.6-7.1C31.8,143,31.5,140.1,30.8,137.6z M48.5,153.4c3.5,0,6.6-0.1,8.9-2
		c2.6-2,5.3-4.1,6.5-7.3c0.8-2.2,1.9-4.7,1.5-6.8c-0.5-2.6-0.6-5.5-2.4-7.9c-1.6-2.4-3.6-4.2-6.1-5.9s-5.4-1.1-7.9-2.5
		c-2.7,0.9-5.9,0.7-8.2,2.6c-2.5,1.9-4.8,4.1-6.4,6.9c-1.3,2.2-0.8,4.9-1.9,7.3c1.1,2.7,0.7,5.9,2.7,8.1c2,2.2,4,4.5,6.7,6.1
		C44.4,153.5,47.1,152.5,48.5,153.4z"/>
	<path class="st0" d="M40.6,128.6c-1.5-1.1-1.5-1.2,0.2-1.5c0.8-0.1,1.3-0.2,1.2-1.2c0-0.1,0.4-0.4,0.5-0.5
		c-0.2,2.2,2.5,0.9,2.9,2.6c-0.1,0-0.4-0.2-0.5-0.1c-0.7,0.1-1.4,0.4-2.1,0.6c-0.1,0,0,0.5,0,0.7c0,0.1,0.2,0.2,0.2,0.2
		c0.7-0.4,1.5-0.8,2.2-1.4c0.2-0.1,0.6,0,0.7,0.1c0.1,1.1,1.9,5.9,2.7,7.4c0.7,1.4,1.3,2,3.1,0.8c0.9-0.6,2.9-1.4,4.2,0
		c1.1,1.2,1.5,0.1,1.8-0.5c0.2-0.4-0.1-1.3-0.5-1.6c-0.9-1.1-2.2-0.6-3.4-0.2c-0.7,0.2-1.5,0.5-2.4,0.5c-0.7,0-1.9,0.6-2-0.7
		c0-1.1-0.8-2.6,1.3-2.8c0.7,0,1.3-0.8,2-1.2c0.7-0.4,3.1,0.4,3.3,1.1c0.1,0.2-0.2,1.1-0.4,1.1c-1.3,0.1-2.6,0-3.8,0.1
		c-0.6,0-1.5-0.5-1.6,0.7c0,0.2,0.1,0.7,0.1,0.7c0.7,0.1,1.6,0.5,1.9,0.2c1.2-1.2,2.6-0.5,4-0.7c1.2-0.2,2.1,0.6,2.4,1.3
		c0.2,1.1,0.5,2.5-0.8,3.4c-0.6,0.5-1.8,0-1.6,1.3c0.1,1.4,0.6,2.5,1.8,3.3c0.6,0.4,1.2,0.7,1.5,1.2c0.4,0.5,0.9,1.2,0.8,1.6
		c-0.2,0.8-0.8,1.6-1.4,2.4c-0.8,0.9-1.8,1.1-3.1-0.2c-0.9-0.9-1.3-0.1-1.9,0c-0.5,0.1-1.2-0.6-1.8-0.7c-0.9-0.1-1.3-0.4-0.4-1.1
		c0.4-0.2,0.6-0.6,0.9-0.9c0.7-0.7,1.8-1.4-0.4-1.5c-0.5,0-3.5-0.7-4-0.8c-1.8-0.1-2.9,0.2-3.3,2.2c-0.1,0.7-1.1,1.3-1.5,1.9
		c-0.7,0.9-3.6,1.4-4.1,0.5c-0.2-0.5-0.5-1.4,0.5-2.1c1.4-0.9,1.6-2.6,0.5-3.4c-2.4-1.6-1.9-3.9-1.9-6c0-1.3,1.5-2.6,0-4
		C39.2,130.7,39.8,130.1,40.6,128.6c0.1-0.5-0.1,0-0.2,0.6c0,0.1,0.2,0.2,0.4,0.4c0.4-0.5,0.8-0.9,1.2-1.4
		C41.7,128,41.4,127.9,40.6,128.6z M57.4,145.2c-0.2-0.6-0.4-0.8-0.5-1.1c-0.2,0.2-0.5,0.5-0.5,0.7c0,0.2,0.1,0.5,0.2,0.7
		C57,145.3,57.3,145.2,57.4,145.2z"/>
</g>
</svg>
