<?xml version="1.0" encoding="utf-8"?>
<!-- Generator: Adobe Illustrator 20.1.0, SVG Export Plug-In . SVG Version: 6.00 Build 0)  -->
<svg version="1.1" id="Layer_1" xmlns="http://www.w3.org/2000/svg" xmlns:xlink="http://www.w3.org/1999/xlink" x="0px" y="0px"
	 viewBox="0 0 800 300" style="enable-background:new 0 0 800 300;" xml:space="preserve">
<style type="text/css">
	.st0{fill:#FFFFFF;}
</style>
<g>
	<path class="st0" d="M239.4,205.8c0-16.2,0-32.5,0-48.7c0-0.5-0.2-1-0.2-1.4c0-0.5,0.1-1.1,0-1.5c-0.2-0.8-0.2-1.6-0.4-2.4
		c-0.2-0.7-0.3-1.4-0.6-2.1c-0.2-0.4-0.1-0.4,0.3-0.4c0.4-0.1,0.7-0.1,1.1-0.2c0.4-0.1,0.8-0.1,1.1-0.2c0.4-0.2,0.9-0.2,1.4-0.3
		c0.4-0.1,1-0.1,1.4-0.2c0.7-0.3,1.5-0.2,2.2-0.4c0.1-0.1,0.3,0,0.4,0s0.2,0.1,0.3,0.3c0.1,0.4,0.4,0.9,0.3,1.3c0,1,0.3,1.8,0.2,2.7
		c0,0.1,0,0.2,0.1,0.3c0.1-0.1,0.1-0.1,0.2-0.2c1.4-1.3,3.1-2.3,4.7-3.1c0.7-0.4,1.6-0.5,2.4-0.7c0.7-0.2,1.5-0.3,2.2-0.4
		c0.7-0.1,1.5-0.1,2.2,0c0.6,0.1,1.3,0.1,1.9,0.4c0.6,0.2,1.2,0.4,1.8,0.5c1.4,0.5,2.6,1.2,3.9,2.2c1.4,1.1,2.5,2.5,3.5,3.9
		c0.4,0.5,0.6,1.1,0.9,1.6c0.3,0.5,0.4,1.1,0.7,1.7c0.5,0.9,0.5,1.9,1,2.8c0.2,0.4,0.1,0.9,0.2,1.3c0,0.3,0.1,0.5,0.2,0.9
		c0,0.3-0.1,0.6,0.2,0.9v0.1c0.1,0.8,0.2,1.6,0.2,2.4c0,1.4,0,2.8,0,4.1c0.1,1.1-0.2,2.2-0.2,3.3c0,0.4-0.2,0.7-0.2,1.1
		c0,0.4-0.1,0.6-0.2,1c-0.1,0.4-0.3,0.6-0.2,1.1c-0.4,0.9-0.4,1.8-0.9,2.6c-0.4,0.8-0.7,1.6-1.1,2.4c-0.5,1-1.1,1.9-1.8,2.8
		c-0.5,0.6-1.1,1.1-1.6,1.8c-1.2,1.2-2.7,2.2-4.4,2.8c-0.9,0.4-1.8,0.8-2.8,0.7c-0.4,0.4-0.9,0.1-1.3,0.3c-0.4,0.1-0.9,0.1-1.4,0.1
		c-0.4,0-0.9,0-1.3-0.2c-0.4-0.2-0.9,0.1-1.2-0.2c-1-0.1-1.8-0.4-2.7-0.7c-0.8-0.3-1.6-0.6-2.3-1.1c-0.6-0.4-1.3-0.8-1.9-1.2
		l-0.3,0.1c0,0.2,0,0.4,0,0.7c0,5.2,0,10.3,0,15.4c0,0.2,0,0.4,0,0.5c0,0.4-0.1,0.5-0.5,0.5c-0.4,0-0.9,0-1.2,0.2s-0.8,0-1.1,0.3
		c-0.3,0.2-0.6,0.1-0.9,0.2c-0.4,0.2-0.9,0.1-1.3,0.2c-0.7,0.1-1.3,0.3-2,0.4v0.1C239.9,205.8,239.6,205.8,239.4,205.8z
		 M247.2,169.8c0,2.9,0,5.9,0,8.8c0,0.5,0.1,0.8,0.5,1.1c0.5,0.4,1,1,1.5,1.3c0.7,0.5,1.4,1,2.1,1.4c1.3,0.9,2.9,1.1,4.5,1.3
		c0.2,0,0.4,0.1,0.5,0c0.2-0.2,0.4-0.1,0.6-0.1c0.9,0,1.7-0.3,2.5-0.6c1.2-0.5,2.3-1.2,3.1-2.4c0.5-0.7,0.9-1.5,1.2-2.3
		c0.2-0.4,0.2-0.7,0.4-1.1c0.2-0.4,0.2-0.7,0.3-1.1c0.2-0.4,0.1-0.8,0.2-1.1c0.1-0.4,0.1-0.8,0.2-1.1c0.1-0.5,0-1.1,0-1.7
		c0-0.5,0.2-1.1,0.2-1.7c0-0.8,0-1.6-0.1-2.4c-0.2-1,0.1-1.9-0.2-2.9c-0.1-0.4,0-0.7-0.2-1.1c-0.2-0.4,0.1-0.8-0.2-1.1
		c0-0.8-0.4-1.5-0.5-2.3c-0.3-1.1-0.9-2.1-1.6-3.1c-0.4-0.5-1-0.8-1.5-1.1c-0.9-0.5-1.8-1-2.9-1c-0.6,0-1.2,0-1.9,0
		c-0.7,0-1.3,0.2-1.9,0.4c-1.8,0.5-3.4,1.5-4.8,2.7c-0.4,0.4-0.9,0.9-1.4,1.3c-0.3,0.3-0.4,0.5-0.4,0.9
		C247.2,163.9,247.2,166.8,247.2,169.8z"/>
	<path class="st0" d="M119.1,185c0.4-0.5,0.6-1.1,1-1.6c0.4-0.6,0.6-1.3,1.1-1.9c0.5-0.8,1-1.6,1.3-2.4c0.2-0.4,0.3-0.4,0.7-0.2
		c0.4,0.3,0.9,0.6,1.3,0.9c1,0.6,1.9,1.2,3,1.8c1.1,0.5,2.3,0.9,3.3,1.3c0.6,0,1.2,0.3,1.8,0.4c1,0.2,2,0.3,3,0.4
		c0.5,0,1.1,0.2,1.7,0.1c1,0,1.9,0,2.9-0.2c0.5-0.1,1.1-0.1,1.6-0.3c0.4-0.2,1-0.4,1.5-0.5c0.8-0.4,1.5-0.8,2.1-1.3
		c0.4-0.3,0.6-0.5,1-0.8c1-1,1.6-2.1,2-3.4c0.2-0.4,0.4-0.9,0.3-1.3c-0.1-0.4,0.2-0.7,0.2-1.1c-0.1-1.4-0.2-2.8-1-4
		c-0.5-1-1.2-1.8-2.1-2.5c-1-0.7-2-1.3-3.1-1.8c-1-0.4-2-0.9-3.1-1.1c-0.5-0.1-1-0.4-1.5-0.5c-1-0.3-1.8-0.5-2.8-0.9
		c-1.2-0.4-2.5-0.8-3.8-1.1c-0.7-0.3-1.3-0.5-2-0.8c-0.4-0.2-0.8-0.3-1.1-0.4c-1-0.5-1.8-1.1-2.7-1.8c-1-0.8-1.8-1.7-2.5-2.7
		c-0.9-1.3-1.6-2.6-1.8-4.2c-0.4-0.3-0.1-0.7-0.3-1.1c-0.2-0.3,0-0.7-0.1-1.1c-0.2-0.6-0.2-1.1-0.2-1.8c0-0.4,0.1-0.7,0.2-1.1
		c0-0.4-0.1-0.8,0-1.1c0.3-0.4-0.1-0.8,0.3-1.1c0-0.8,0.4-1.6,0.6-2.3c0.4-1.1,0.9-2,1.5-3c0.8-1.3,1.9-2.3,3-3.3
		c0.6-0.6,1.4-1.1,2.2-1.5c1.3-0.8,2.8-1.2,4.2-1.8c0.6,0.1,1.1-0.3,1.8-0.4c1.7-0.4,3.3-0.3,5-0.4c0.4,0,1,0,1.4,0
		c0.7,0,1.5,0,2.2,0.2c0.4,0.1,0.7,0.1,1.1,0.2c0.3,0.4,0.7,0.1,1.1,0.3c0.3,0.2,0.7,0.1,1.1,0.2c0.7,0.2,1.4,0.5,2.1,0.7
		c1.4,0.4,2.8,1.1,4.1,1.8c1.1,0.6,2.2,1.2,3.2,2c0.2,0.1,0.4,0.2,0.5,0.4c0,0.2-0.2,0.4-0.4,0.5c-0.5,0.9-1.1,1.8-1.7,2.6
		c-0.5,0.9-1.1,1.8-1.6,2.7c-0.1,0.1-0.2,0.1-0.3,0c-0.7-0.4-1.4-0.9-2.1-1.3c-0.9-0.6-2.7-1.5-4-2.1c-0.8-0.4-1.6-0.7-2.5-0.8
		c-0.3-0.4-0.6,0-0.9-0.3c-0.3-0.2-0.6,0-0.9-0.1c-1.1-0.4-2.4-0.1-3.6-0.2c-1-0.1-1.9,0.4-2.9,0.4c-1.3,0.5-2.7,1-3.8,2.1
		c-0.7,0.7-1.3,1.6-1.7,2.5c-0.1,0.3-0.2,0.6-0.3,0.9c-0.2,0.5-0.2,1.1-0.2,1.7c0,0.4,0,0.7,0,1c0,1.1,0.5,2.3,1.1,3.2
		c0.5,0.8,1.2,1.2,1.9,1.8c0.7,0.5,1.4,1,2.3,1.1c1.1,0.8,2.5,1.1,3.8,1.4c1.3,0.4,2.6,0.9,3.9,1.2c0.8,0.2,1.5,0.5,2.3,0.7
		c0.8,0.3,1.5,0.4,2.3,0.8c1.2,0.6,2.5,1.1,3.7,1.9c0.4,0.4,0.9,0.5,1.2,0.9c0.8,0.8,1.7,1.6,2.4,2.5c0.6,0.8,1.1,1.7,1.5,2.5
		c0.4,1,0.8,1.9,1.1,3c0.1,0.6,0.3,1.2,0.4,1.8c0.1,0.5,0.1,1.1,0.1,1.5c0,0.5,0.1,1.1,0,1.5c-0.2,0.7-0.2,1.5-0.4,2.2
		c-0.3,0.7-0.3,1.4-0.6,2.1c-0.6,1.2-1.2,2.5-2.1,3.7c-0.7,0.9-1.3,1.8-2.2,2.5c-1,0.8-1.8,1.6-3,2.3c-0.9,0.5-1.8,1-2.7,1.4
		c-0.8,0.4-1.8,0.6-2.6,0.9c-0.6,0.2-1.2,0.3-1.8,0.4c-0.4,0.1-0.9,0.1-1.3,0.2c-1.7,0.1-3.2,0.4-4.9,0.2c-0.8-0.1-1.5-0.1-2.3-0.2
		c-0.4-0.1-0.8-0.1-1.1-0.2c-0.4-0.1-0.7-0.1-1.1-0.2c-1.1-0.3-2.1-0.4-3.1-0.7c-0.8-0.3-1.6-0.4-2.4-0.8c-0.4-0.1-0.7-0.3-1.1-0.4
		c-1-0.4-1.9-0.8-2.8-1.3c-0.9-0.5-1.8-1-2.6-1.6C119.3,185.1,119.3,185.1,119.1,185C119.1,185.2,119.1,185.1,119.1,185z"/>
	<path class="st0" d="M697.2,120.5c0.1,0,0.1,0,0.2,0c0,0.1,0,0.1,0,0.2C697.3,120.6,697.2,120.6,697.2,120.5z"/>
	<path class="st0" d="M642.6,64.5c0-0.1,0-0.1,0-0.2c0.1,0,0.1,0,0.2,0C642.8,64.3,642.7,64.4,642.6,64.5z"/>
	<path class="st0" d="M386,189.1c-1.8,0-3.7,0-5.4,0c-0.4,0-0.5-0.2-0.6-0.5c-0.1-0.5-0.3-1.1-0.4-1.6c-0.1-0.6-0.2-1.2-0.4-1.8
		c-0.2-0.5-0.1-1.2-0.4-1.7c0-1-0.4-1.9-0.5-2.9c-0.2-0.8-0.3-1.7-0.6-2.4c-0.1-0.4-0.2-0.7-0.2-1.1c-0.2-0.9-0.4-1.8-0.6-2.7
		c-0.1-0.6-0.4-1.2-0.4-1.9c0-0.4,0-0.7-0.2-0.9c-0.3-0.4-0.2-0.8-0.3-1.2c-0.2-0.9-0.4-1.8-0.5-2.6c-0.4-0.3-0.1-0.8-0.4-1.1
		c-0.2-0.3-0.1-0.7-0.2-1.1c-0.2-0.4-0.2-1-0.4-1.4c-0.1-0.4-0.1-1-0.4-1.4c-0.1-0.2,0-0.4,0-0.6s-0.1-0.4-0.2-0.6
		c-0.2-0.9-0.3-1.8-0.4-2.6c-0.1-0.4-0.1-0.9-0.2-1.3c-0.1-0.4-0.2-0.7-0.2-1.1c0-0.4,0-0.7-0.2-1.1c-0.2-0.6-0.2-1.2-0.2-1.8
		c0-0.5-0.3-1-0.2-1.5l-0.1-0.1l-0.1,0.1c-0.1,0.5-0.1,1.1-0.2,1.7c0,0.3-0.1,0.5-0.2,0.8c0,0.3,0,0.4-0.2,0.7
		c-0.2,0.4-0.1,0.7-0.2,1.1c-0.2,0.4-0.1,1-0.2,1.5c0,0.3-0.1,0.5-0.2,0.8c-0.1,0.3-0.1,0.5-0.2,0.9c-0.1,0.3,0,0.5-0.1,0.8
		c-0.2,0.4-0.1,0.8-0.2,1.1c-0.1,0.6-0.3,1.1-0.4,1.8s-0.2,1.2-0.4,1.8c-0.1,0.4-0.1,0.9-0.2,1.3c-0.2,0.7-0.2,1.4-0.4,2
		c-0.1,0.4-0.1,0.7-0.2,1c-0.1,0.4-0.3,1-0.3,1.5c-0.1,0.5-0.2,1-0.3,1.5c-0.1,0.5-0.3,1.1-0.4,1.7s-0.3,1.1-0.4,1.6
		c-0.4,0.3-0.1,0.7-0.3,1.1c-0.2,0.4-0.2,0.8-0.3,1.1c-0.1,0.4-0.1,0.7-0.2,1.1c-0.2,0.9-0.4,1.7-0.5,2.5c-0.2,0.6-0.3,1.3-0.4,1.9
		c-0.2,0.7-0.3,1.4-0.4,2.1c-0.2,1-0.3,1.9-0.6,2.9c-0.1,0.3,0.1,0.5-0.2,0.8c-0.3,0.3-0.6,0.1-0.9,0.1c-3.7,0-7.3,0-11,0
		c-0.2,0-0.4,0.1-0.5,0c-0.2-0.1,0-0.4-0.3-0.5c0-0.6-0.3-1.2-0.4-1.8c-0.1-0.7-0.4-1.4-0.4-2.1c-0.4-0.3-0.1-0.6-0.3-1
		c-0.1-0.3-0.2-0.6-0.2-0.9c-0.1-0.5-0.4-1.1-0.4-1.6c-0.4-0.3,0-0.8-0.4-1.1c0-0.8-0.4-1.6-0.5-2.4c-0.1-0.6-0.3-1.2-0.4-1.8
		c-0.2-0.5-0.3-1.1-0.4-1.7c-0.1-0.5-0.3-1.1-0.4-1.7c-0.2-0.6-0.4-1.2-0.4-1.8c-0.1-0.7-0.3-1.5-0.5-2.2c-0.1-0.2-0.1-0.4-0.1-0.6
		s-0.1-0.4-0.2-0.6c-0.2-0.8-0.4-1.5-0.5-2.3c-0.2-0.6-0.3-1.2-0.4-1.8c-0.2-0.5-0.3-1.1-0.4-1.7s-0.3-1.1-0.4-1.7
		c-0.2-0.6-0.4-1.2-0.4-1.8c-0.1-0.7-0.3-1.5-0.5-2.2c-0.1-0.4-0.2-0.8-0.3-1.2c-0.3-0.7-0.4-1.5-0.5-2.3c-0.1-0.4-0.1-0.8-0.3-1.1
		c-0.2-0.6-0.4-1.2-0.4-1.8c-0.1-0.5-0.3-1.1-0.4-1.7c-0.2-0.6-0.4-1.2-0.4-1.8c-0.1-0.6-0.3-1.1-0.4-1.8c-0.4-1.3-0.5-2.6-1-3.9
		c-0.2-0.5-0.3-1.1-0.4-1.8c-0.1-0.5-0.3-1.1-0.4-1.7c-0.2-0.6-0.4-1.2-0.4-1.8c-0.1-0.5,0-0.5,0.4-0.5c2.5,0,4.8,0,7.3,0
		c1.1,0,2.2,0,3.3,0c0.4,0,0.4,0.3,0.4,0.4c0.1,0.3,0.2,0.6,0.3,0.9c0.1,0.4,0,0.8,0.2,1.1c0.1,0.3,0.1,0.5,0.2,0.8s0.1,0.5,0.2,0.8
		c0.2,0.8,0.4,1.6,0.5,2.5c0.2,0.6,0.3,1.2,0.4,1.8c0.2,0.7,0.3,1.4,0.4,2c0.2,0.7,0.3,1.3,0.4,2c0.2,0.8,0.4,1.6,0.5,2.4
		c0.3,0.2,0.1,0.4,0.2,0.6c0,0.2,0.1,0.4,0.2,0.6c0.2,0.9,0.4,1.8,0.6,2.7c0.1,0.6,0.3,1.2,0.4,1.9c0.1,0.6,0.2,1.3,0.4,1.9
		c0.1,0.4,0.1,0.7,0.2,1c0.2,0.4,0.2,0.9,0.4,1.3c0.1,0.4-0.1,0.8,0.2,1.1c0,0.8,0.3,1.5,0.4,2.3c0.1,0.7,0.2,1.5,0.4,2.2
		c0.1,0.3,0,0.5,0,0.7s0.2,0.4,0.2,0.6c0,0.5,0.3,1.1,0.2,1.6c0,0.3,0.2,0.4,0.2,0.8c0,0.3-0.1,0.5,0.2,0.8c0,0,0,0.1,0,0.2
		c0.1,0.7,0.1,1.4,0.2,2.1c0,0.3,0.1,0.5,0.2,0.9c0.1,0.3-0.1,0.5,0.1,0.8c0-0.3,0-0.5,0.1-0.7c0.2-0.4,0.1-0.9,0.2-1.3
		c0.1-0.4,0.1-0.9,0.2-1.3c0.2-0.7,0.2-1.5,0.4-2.2c0.1-0.4,0.1-0.7,0.2-1.1c0.1-0.4,0.1-0.7,0.2-1c0.3-0.8,0.2-1.6,0.4-2.4
		c-0.1-0.5,0.2-1,0.2-1.4c0-0.4,0-0.9,0.2-1.1c0.3-0.4,0-0.8,0.3-1.1c0.2-0.3,0.1-0.8,0.2-1.1c0.1-0.6,0.2-1.1,0.4-1.8
		c0.2-0.6,0.3-1.2,0.4-1.8c0.2-0.7,0.4-1.4,0.4-2.1s0.3-1.3,0.4-2c0.1-0.8,0.3-1.6,0.5-2.4c0.2-0.6,0.3-1.2,0.4-1.8
		c0.1-0.4,0.3-1,0.4-1.4c0.1-0.4,0.2-0.9,0.3-1.4c0.1-0.4,0.2-0.7,0.2-1.1c0.2-0.9,0.4-1.8,0.6-2.6c0.2-0.6,0.3-1.2,0.4-1.9
		c0.2-1,0.4-1.9,0.7-2.9c0.1-0.3,0.2-0.4,0.4-0.4c0.1,0,0.2,0,0.3,0c3.6,0,7.2,0,10.8,0c0.4,0,0.6,0.1,0.6,0.6
		c0.1,0.6,0.2,1.3,0.4,1.9c0.3,1,0.3,1.9,0.6,2.8c-0.1,0.7,0.4,1.3,0.4,2c0.4,0.9,0.4,1.8,0.6,2.8c0.2,0.6,0.3,1.1,0.4,1.8
		c0.2,0.9,0.4,1.8,0.5,2.7c0.3,1.1,0.4,2.4,0.8,3.5c0,0.7,0.3,1.4,0.4,2.1c0.1,0.6,0.2,1.2,0.4,1.8c0.2,0.5,0.2,1.1,0.4,1.8
		c0.1,0.3,0.1,0.7,0.2,1c0.2,0.7,0.2,1.5,0.4,2.2c0.2,0.7,0.3,1.3,0.4,2c0.1,0.4,0,0.7,0.2,1c0.1,0.4,0.1,0.6,0.2,1
		c0.2,0.7,0.2,1.5,0.4,2.2c0.1,0.4,0.1,0.7,0.2,1.1s0.1,0.8,0.2,1.1c0.2,0.4,0,0.8,0.2,1.1c0.2,0.4,0.1,0.7,0.2,1.1
		c0,0.1,0.1,0.2,0.1,0.3c0,0.1,0.1,0.1,0.1,0.1l0.1-0.1c0-0.2,0-0.3,0-0.4c0-0.4,0-0.6,0.2-1c0.2-0.3-0.1-0.6,0.2-1
		c0.1-0.1,0-0.2,0-0.4c0-0.4,0-0.6,0.2-1c0.2-0.3-0.1-0.6,0.2-1c0,0,0-0.2,0-0.3c0-0.7,0.2-1.3,0.3-1.9c0.1-0.4,0.2-1,0.2-1.4
		c0-0.3,0.1-0.5,0.2-0.8c0.1-0.3,0-0.5,0.2-0.8s0.1-0.7,0.2-1.1c0.2-0.4,0.1-1,0.2-1.5c0-0.2,0.1-0.4,0.2-0.6c0-0.2-0.1-0.4,0.2-0.6
		c-0.1-0.4,0.1-0.9,0.2-1.3c0.2-1,0.3-2,0.6-3c0.2-0.4,0.1-0.8,0.2-1.1c0.2-0.6,0.3-1.3,0.4-1.9c0.2-0.6,0.3-1.3,0.4-1.9
		c0.1-0.4,0-0.7,0.2-0.9c0.2-0.3,0.1-0.5,0.2-0.8c0.1-0.3,0.1-0.4,0.2-0.7c0.1-0.6,0.3-1.2,0.4-1.8c0.2-0.6,0.3-1.2,0.4-1.8
		c0.1-0.7,0.4-1.4,0.4-2c0.1-0.7,0.3-1.3,0.4-2c0.1-0.6,0.3-1.2,0.4-1.8s0.4-1.2,0.4-1.9c0-0.2,0.1-0.4,0.2-0.5
		c0.2-0.7,0.2-0.7,0.8-0.7c3.3,0,6.7,0,10,0c0.2,0,0.4-0.1,0.5,0c0.1,0.1,0.4,0.1,0.2,0.4c-0.2,1.1-0.5,2.1-0.7,3.2
		c-0.2,1-0.5,1.9-0.8,2.9c-0.1,0.4,0,0.7-0.2,1c-0.2,0.4-0.3,0.9-0.4,1.2c-0.1,0.4-0.3,0.9-0.4,1.3c-0.2,0.5-0.2,1.1-0.4,1.7
		c-0.3,0.8-0.4,1.7-0.6,2.5c-0.2,0.5-0.3,1.1-0.4,1.8c-0.2,0.8-0.4,1.5-0.5,2.3c-0.1,0.2-0.1,0.4-0.1,0.6s-0.1,0.4-0.2,0.6
		c-0.3,1-0.4,1.9-0.7,2.9c-0.1,0.4-0.2,0.8-0.3,1.1c-0.3,0.8-0.4,1.7-0.6,2.5c-0.2,0.5-0.2,1.1-0.4,1.7c-0.2,0.8-0.4,1.7-0.6,2.5
		c-0.2,0.5-0.2,1.1-0.4,1.7c-0.3,0.8-0.4,1.7-0.6,2.5c-0.2,0.6-0.3,1.1-0.4,1.8c-0.2,0.8-0.4,1.5-0.5,2.3c-0.1,0.2-0.1,0.4-0.1,0.6
		c-0.1,0.2-0.1,0.4-0.2,0.6c-0.3,1-0.4,1.9-0.7,2.9c-0.1,0.2-0.1,0.4-0.1,0.6s-0.1,0.4-0.2,0.6c-0.3,1-0.4,1.9-0.7,2.9
		c-0.1,0.2-0.1,0.4-0.1,0.6s-0.1,0.4-0.2,0.6c-0.3,1-0.4,1.9-0.7,2.9c-0.1,0.4-0.2,0.8-0.3,1.1c-0.2,0.8-0.4,1.5-0.5,2.3
		c0,0.4-0.3,0.4-0.6,0.4C389.7,189.1,387.9,189.1,386,189.1z"/>
	<path class="st0" d="M522.3,172.9c0,5,0,10,0,15c0,0.3,0,0.4,0,0.7c0,0.1-0.1,0.2-0.2,0.2c0,0-0.1,0-0.2,0c-3.2,0-6.2,0-9.4,0
		c-0.4,0-0.4,0-0.4-0.4c0-5.5,0-11,0-16.6c0-3.2,0-6.4,0-9.6c0-0.5,0-1.1,0-1.6c0-0.5-0.2-1-0.2-1.4c0-0.5-0.2-1.1-0.5-1.5
		c-0.4-0.6-1.1-0.8-1.8-0.9c-1.3-0.1-2.5,0.3-3.7,0.8c-1.1,0.5-2.9,1.6-3.7,2.4c-0.2,0.2-0.3,0.4-0.3,0.6c0,0.2,0,0.3,0,0.4
		c0,9,0,18.1,0,27.1c0,0.8,0,0.8-0.8,0.8c-2.7,0-5.4,0-8.2,0c-0.2,0-0.4,0-0.5,0c-0.3,0-0.4-0.2-0.4-0.4c0-0.2,0-0.4,0-0.6
		c0-8.9,0-17.8,0-26.6c0-0.6-0.3-2.3-0.5-2.9c-0.3-0.7-1.2-1.4-2-1.4c-0.7,0-1.4-0.1-2.1,0c-0.7,0.1-1.3,0.2-1.9,0.5
		c-1.1,0.5-2.1,1-3,1.8c-0.1,0.1-0.1,0.2-0.2,0.2c-0.5,0.1-0.6,0.5-0.6,1c0,9.2,0,18.3,0,27.5c0,1,0.1,1.1-1,1.1c-2.8,0-5.7,0-8.5,0
		c-0.2,0-0.4,0-0.6,0c-0.1,0-0.2-0.1-0.2-0.2c0-0.2,0-0.4,0-0.7c0-9.8,0-19.6,0-29.5c0-0.4-0.1-1-0.2-1.4c0-0.5,0.1-1.1,0-1.5
		c-0.2-0.7-0.1-1.5-0.4-2.2c-0.3-0.8-0.4-1.7-0.9-2.4c-0.2-0.3-0.1-0.3,0.2-0.4c0.5-0.1,1.1-0.3,1.6-0.4c0.8-0.2,1.5-0.4,2.3-0.6
		c0.8-0.2,1.7-0.4,2.5-0.6c0.2-0.4,0.5,0,0.8-0.3c0.2-0.2,0.5,0,0.8-0.2c0.2-0.2,0.5-0.1,0.8-0.2c0.2,0,0.4-0.2,0.4-0.2
		c0.2,0.1,0.4,0.3,0.4,0.5c0.4,0.7,0.5,1.5,0.8,2.3c0,0.1,0.1,0.3,0.1,0.4c0.1,0.3,0.1,0.5,0.1,0.8h0.1c0.3-0.2,0.5-0.4,0.7-0.5
		c0.4-0.5,1.1-0.9,1.6-1.2c0.9-0.6,2.7-1.4,3.9-1.7c0.6-0.2,1.2-0.2,1.8-0.4c1-0.3,1.9-0.1,2.8-0.1c0.3,0,0.5,0.1,0.8,0.2
		c0.3,0.1,0.5-0.1,0.7,0.2c0.9-0.1,1.7,0.4,2.5,0.7c0.7,0.3,1.5,0.7,2,1.3c0.6,0.6,1.1,1.1,1.8,1.8c0.3,0.3,0.5,0.6,0.8,1
		c0.1,0.2,0.2,0.1,0.3,0c0.3-0.3,0.4-0.4,0.7-0.7c1.4-1.3,2.8-2.4,4.6-3.2c0.9-0.4,1.8-0.7,2.7-0.9c0.7-0.1,1.4-0.3,2.1-0.3
		c0.7,0,1.4-0.1,2.2,0c0.7,0.1,1.5,0.2,2.2,0.4c0.7,0.2,1.4,0.4,2,0.7c0.7,0.3,1.4,0.7,2,1.1c1.1,0.9,2,1.9,2.5,3.3
		c0.3,0.7,0.4,1.4,0.6,2.1c0,0.1,0,0.1,0,0.2c0.1,0.8,0.2,1.6,0.2,2.5C522.3,163.2,522.3,168.1,522.3,172.9z"/>
	<path class="st0" d="M181.6,172.9c0-5.3,0-10.5,0-15.9c0-0.8-0.3-1.6-0.2-2.5c-0.4-1.2-0.5-2.4-1.1-3.5c-0.1-0.3-0.2-0.5-0.3-0.8
		c-0.2-0.4-0.2-0.6,0.3-0.7c0.9-0.1,1.6-0.4,2.5-0.5c0.5-0.1,1.1-0.2,1.5-0.4c0.6-0.2,1.3-0.3,1.9-0.4h0.1c0.4-0.2,0.7-0.2,1.1-0.3
		c0.2,0.4,0.4,0.7,0.5,1.1c0.4,0.9,0.7,1.8,1,2.7c0,0.1,0,0.2,0,0.2c0.3,0.2,0.1,0.5,0.2,0.8c0.2-0.2,0.4-0.4,0.6-0.5
		c0.9-0.6,1.8-1.2,2.6-1.8c0.8-0.4,1.6-0.9,2.4-1.3c0.9-0.4,1.8-0.8,2.9-1c1.1-0.2,2.3-0.1,3.4-0.1c0.7,0,1.4,0.3,2.1,0.5
		c0.9,0.4,1.7,0.7,2.5,1.2c0.4,0.3,0.6,0.6,1.1,0.8c0.4,0.2,0.6,0.6,0.9,1c0.5,0.6,0.9,1.2,1.3,1.8c0.1,0.1,0.2,0.2,0.3,0
		c0.9-1,1.9-1.7,3-2.5c0.9-0.6,1.8-1.1,2.7-1.6c0.6-0.3,1.2-0.4,1.8-0.7c0.6-0.3,1.2-0.4,1.8-0.6c0.5-0.2,1.1-0.2,1.6-0.2
		c0.7,0,1.4,0,2.1,0c1.1,0.1,2,0.4,3.1,0.7c0.7,0.3,1.2,0.6,1.8,1c0.7,0.5,1.5,1.1,2,1.8c0.4,0.4,0.7,1,1.1,1.5
		c0.4,0.5,1,2.1,1.1,2.7c0.3,0.8,0.2,1.6,0.4,2.3c0.1,0.2,0,0.4,0,0.5c0,10.2,0,20.2,0,30.4c0,0.2,0,0.3,0,0.4
		c0,0.1-0.1,0.2-0.2,0.2c-0.1,0-0.2,0-0.4,0c-2.3,0-4.6,0-6.8,0c-0.5,0-0.5,0-0.5-0.6c0-7.2,0-14.5,0-21.6c0-2.2,0-4.4,0-6.7
		c0-0.4,0-0.8,0-1.2c0-0.4-0.3-0.8-0.2-1.1c-0.4-1.4-1.1-2.5-2.7-2.9c-0.5-0.1-1.1-0.2-1.6-0.2c-0.8,0.1-1.6,0.3-2.4,0.5
		c-1.8,0.8-2.5,1.4-3.6,2.2c-1,0.7-1.8,1.5-2.7,2.4c-0.3,0.3-0.4,0.4-0.4,0.8c0,9.1,0,18.3,0,27.4c0,0.9,0,1-0.9,1
		c-2.3,0-4.5,0-6.7,0c-0.3,0-0.4,0-0.4-0.4c0-0.2,0-0.4,0-0.5c0-9.8,0-19.6,0-29.4c0-0.7-0.1-1.4-0.5-2c-0.7-1-1.6-1.7-2.8-1.7
		c-0.5,0-1.1,0-1.7,0c-0.8,0-1.5,0.3-2.2,0.5c-1,0.4-1.9,0.9-2.8,1.5c-0.5,0.4-1,0.7-1.5,1.1c-0.5,0.4-1.1,0.9-1.5,1.3
		c-0.2,0.1-0.2,0.3-0.2,0.4s0,0.4,0,0.5c0,9.3,0,18.5,0,27.8c0,0.9,0,1-0.9,0.9c-2.1,0-4.2,0-6.3,0c-0.5,0-0.4,0-0.4-0.4
		c0-4.1,0-8.3,0-12.4C181.6,175.4,181.6,174.2,181.6,172.9z"/>
	<path class="st0" d="M435.8,163.8c0,1.8,0.1,3.7,0,5.5c-0.1,1.4-0.1,2.8-0.1,4.2c0,1.4,0,2.8,0,4.2c0,0.4,0.2,0.7,0.2,1.1
		c0,0.4,0.1,0.7,0.2,1.1c0.1,0.4,0.2,0.7,0.4,1.1c0.1,0.3,0.3,0.5,0.5,0.8c0.4,0.5,0.7,1.2,1.4,1.5c0.4,0.2,0.6,0.7,1.1,0.9
		c0,0,0,0.2,0,0.3c-0.4,0.4-0.7,0.9-1.1,1.3c-0.8,1-1.6,1.8-2.4,2.7c-0.6,0.7-1.1,1.5-1.8,2.1c-0.1,0.1-0.2,0.1-0.3,0
		c-1.3-0.5-2.5-1.3-3.6-2.5c-0.1-0.1-0.3-0.3-0.4-0.4c-0.4-0.4-1-0.9-1.2-1.6c-0.2-0.4-0.4-0.4-0.6-0.1c-0.4,0.4-0.6,0.6-1,1
		c-0.8,0.7-1.8,1.4-3.2,1.9c-0.8,0.4-1.6,0.5-2.5,0.8c-0.5,0.2-1.1,0.2-1.6,0.2c-1.1,0-2.3,0-3.4,0c-0.9,0-1.7-0.2-2.5-0.3
		c-0.8-0.2-1.6-0.4-2.4-0.6c-1-0.4-1.9-0.8-2.7-1.4c-1.4-1.1-2.5-2.3-3.3-3.9c-0.4-0.8-0.7-1.8-0.9-2.6c-0.3-1.1-0.4-2.4-0.4-3.5
		c0-0.5,0-1.1,0-1.7s0.1-1.1,0.2-1.5c0.2-0.9,0.4-1.7,0.8-2.5c0.3-0.6,0.5-1.1,0.9-1.8c0.2-0.3,0.4-0.6,0.6-0.9
		c0.9-0.8,1.6-1.8,2.6-2.4c0.5-0.3,1-0.7,1.5-1c1.3-0.5,2.6-1.1,4-1.4c1-0.2,1.8-0.4,2.8-0.5c0.5-0.1,1.1,0,1.5-0.2
		c1-0.3,1.9-0.1,2.9-0.2c1,0,2,0,3,0c0.2,0,0.3,0,0.4,0c0.2,0,0.2-0.1,0.2-0.3c0-1,0.1-1.9,0-2.9c-0.1-0.8-0.1-1.7-0.5-2.5
		c-0.6-1.2-1.3-1.5-2.5-1.8c-0.8-0.2-1.5-0.2-2.3-0.1c-0.8,0.1-1.6,0.2-2.4,0.4c-1,0.3-1.9,0.6-2.9,1c-0.7,0.3-1.4,0.7-2,1.1
		c-1.1,0.5-2,1.1-2.9,1.8c-0.2,0.1-0.3,0.2-0.4,0.3c-0.2,0.1-0.2,0.1-0.3-0.1c-0.3-0.4-0.5-0.9-0.8-1.3c-0.9-1.5-1.7-3-2.6-4.4
		c-0.4-0.4-0.5-1-0.8-1.5c-0.1-0.2-0.1-0.2,0.1-0.3c0.4-0.3,1-0.5,1.4-0.8c0.4-0.3,0.9-0.5,1.3-0.8c0.7-0.4,1.5-0.7,2.3-1.1
		c0.6-0.3,1.3-0.5,2-0.8c1.1-0.4,2.1-0.8,3.2-1.1c0.4-0.1,0.9-0.3,1.2-0.4c0.4-0.1,0.8-0.1,1.2-0.3c0.4-0.2,0.8-0.2,1.1-0.2
		c1.3-0.1,2.5-0.4,3.9-0.2c0.5,0.1,1-0.1,1.5,0.2c0.4,0.2,1.1-0.1,1.5,0.2c1.1,0,2.2,0.4,3.3,0.8c0.9,0.4,1.8,0.8,2.5,1.3
		c1.1,0.7,1.8,1.6,2.5,2.5c0.5,0.8,0.9,1.6,1.1,2.5c0.2,0.7,0.2,1.5,0.4,2.2c0.1,0.2,0,0.4,0,0.6
		C435.8,160.2,435.8,161.9,435.8,163.8z M425.4,173.8c0-0.7,0-1.4,0-2.1c0-0.3-0.1-0.4-0.4-0.4c-0.4,0-0.7,0-1.1,0c-0.4,0-0.7,0-1,0
		c-0.4,0-0.7,0-1.1,0c-0.4,0-0.6,0.1-1,0.2c-0.4,0-0.7,0.1-1.1,0.2c-0.9,0.2-1.7,0.4-2.5,0.8c-0.8,0.4-1.3,1.1-1.8,1.8
		c-0.4,0.6-0.4,1.4-0.5,2.2c-0.1,0.4,0,0.9,0,1.3c0,0.4,0.2,0.7,0.2,1c0.1,0.5,0.3,1.1,0.5,1.4c0.7,1.1,1.5,1.9,2.8,2
		c0.6,0.4,1.3,0.2,2,0.1c0.4,0,0.8-0.2,1.1-0.3c0.4-0.2,0.7-0.4,1.1-0.5c0.7-0.4,1.4-1,2-1.5c0.2-0.1,0.2-0.3,0.2-0.4
		c-0.1-1.8,0.2-3.7,0.2-5.4C425.4,174,425.4,173.8,425.4,173.8z"/>
	<path class="st0" d="M550.7,172.2c-3.6,0-7.1,0-10.7,0c-0.2,0-0.4,0-0.6,0c-0.2,0-0.3,0.1-0.3,0.3c0,0.4,0.2,0.8,0.2,1.2
		c0,0.4-0.2,0.9,0.2,1.2c0,0.8,0.3,1.4,0.5,2.1c0.4,1,0.8,1.8,1.5,2.5c0.5,0.6,1.1,1.1,1.8,1.5c0.6,0.4,1.4,0.5,2.1,0.7
		c1.1,0.3,2.2,0.2,3.2,0.2c0.8,0,1.6-0.3,2.4-0.4c0.5-0.1,1-0.4,1.5-0.4c0.4-0.1,0.9-0.4,1.3-0.5c0.8-0.4,1.4-0.8,2.1-1.2
		c0.5-0.4,1-0.7,1.4-1.1c0.3-0.2,0.4-0.2,0.5,0.1c0.9,1.4,1.8,2.7,2.7,4.1c0.4,0.5,0.6,1.1,1,1.7c0.1,0.2,0.1,0.3-0.1,0.4
		c-1.6,1.1-3.2,2.4-5,3.2c-0.6,0.3-1.3,0.6-2,0.8c-0.6,0.3-1.3,0.4-2,0.6c-0.9,0.2-1.8,0.4-2.6,0.5c-0.5,0.1-1.1,0.1-1.7,0.1
		c-0.5,0-1.1,0.2-1.6,0.2c-0.9,0-1.8-0.3-2.6-0.2c-0.5-0.3-1.1-0.2-1.7-0.4c-0.5-0.2-1.1-0.2-1.7-0.4c-1-0.4-2-0.8-3-1.2
		c-1.1-0.5-2-1.1-2.9-1.8c-0.5-0.4-1-1-1.4-1.4c-0.9-0.8-1.7-1.8-2.3-2.8s-1.2-2.1-1.6-3.3c-0.2-0.5-0.4-1-0.5-1.4
		c-0.2-0.5-0.4-1.1-0.4-1.8c-0.2-0.7-0.3-1.4-0.4-2.1c-0.1-0.5,0-1.1-0.2-1.5c-0.3-1.5-0.1-3-0.2-4.5c0-0.8,0.3-1.6,0.2-2.4
		c0.3-0.4,0.2-0.7,0.2-1.1c0-0.4,0.1-0.7,0.2-1.1c0.4-1.5,0.7-3,1.3-4.5c0.5-1.1,1.1-2.2,1.8-3.3c0.2-0.3,0.4-0.6,0.6-0.8
		c0.5-0.6,1.1-1.2,1.7-1.8c1.3-1.2,2.8-2.3,4.5-3c0.8-0.4,1.5-0.6,2.3-0.8c0.6-0.2,1.2-0.3,1.8-0.4c1.6-0.3,3.2-0.1,4.7-0.2
		c0.4,0,0.6,0,1,0.2c0.3,0.2,0.6-0.2,1,0.2c0.6,0,1.1,0.2,1.7,0.4c0.4,0.1,0.9,0.2,1.3,0.4c1.1,0.5,2.4,1,3.4,1.8
		c0.8,0.6,1.6,1.2,2.2,2.1c0.4,0.5,0.8,1,1.1,1.5c0.4,0.8,1,1.6,1.3,2.5c0.3,0.7,0.5,1.4,0.8,2.2c0.2,0.5,0.3,1.1,0.4,1.7
		c0.3,0.8,0.4,1.7,0.5,2.5c0.1,0.8,0.4,1.7,0.2,2.5c0.4,1.8,0.1,3.8,0.2,5.6c0,0.2,0,0.4,0,0.5c0,0.1-0.1,0.2-0.2,0.2
		c-0.2,0-0.4,0-0.6,0C557.9,172.2,554.3,172.2,550.7,172.2z M545.4,164.4c1.8,0,3.7,0,5.5,0c0.5,0,0.5,0,0.5-0.5
		c0-0.4-0.3-1-0.2-1.4c0.1-0.7-0.1-1.3-0.2-2c0-0.3-0.2-0.6-0.3-0.9c-0.1-0.7-0.5-1.1-0.9-1.7c-0.3-0.4-0.5-0.8-0.9-1.1
		c-1.4-1-3-1.3-4.7-0.9c-0.6,0.2-1.2,0.4-1.8,0.7c-0.6,0.3-1.1,0.7-1.5,1.3c-0.4,0.7-0.8,1.4-1.1,2.1c-0.5,1.3-0.4,2.7-0.6,4
		c-0.1,0.4,0,0.4,0.4,0.4C541.7,164.4,543.6,164.4,545.4,164.4z"/>
	<path class="st0" d="M305.4,189.7c-0.1,0-0.3,0.1-0.4,0.2c-0.2,0-0.4,0.1-0.5,0c-0.2-0.1-0.4-0.3-0.4-0.4c0-0.4-0.2-0.6-0.2-1
		c0-0.6-0.3-1.2-0.4-1.8c-0.2-0.8-0.4-1.5-0.6-2.3c-0.2-0.7-0.3-1.4-0.5-2c-0.2-0.5-0.4-1-0.4-1.5c-0.1-0.5-0.4-0.9-0.4-1.4
		c-0.4-0.9-0.5-1.8-0.9-2.8c-0.5-1.6-1.1-3.2-1.6-4.7c-0.4-1.4-1-2.7-1.4-4.1c-0.6-2-1.4-4-2.1-6.1c-0.4-1.3-1-2.6-1.4-3.9
		c-0.4-1.1-0.7-2.1-1.1-3.2c-0.4-1.2-0.9-2.5-1.2-3.7c-0.3-0.8-0.3-0.8,0.4-1.1c2.3-0.7,4.5-1.6,6.7-2.3c0.3-0.1,0.2-0.1,0.3,0.1
		c0.2,0.5,0.4,1.1,0.5,1.5c0.2,0.5,0.4,1,0.5,1.6c0.2,0.7,0.4,1.4,0.7,2.1c0.4,1.2,0.7,2.5,1.3,3.8c0.1,1.1,0.6,1.9,0.9,3
		c0.2,0.6,0.4,1.2,0.6,1.9c0.2,0.6,0.4,1.2,0.6,1.9c0.1,0.7,0.4,1.3,0.6,1.9c0.4,1,0.6,2,1,3c0.5,1.4,0.9,2.9,1.4,4.3
		c0.2,0.5,0.4,1,0.4,1.5c0.1,0.4,0.4,0.9,0.4,1.4c0.4,1,0.4,1.9,0.8,2.9c-0.1,0.4,0.2,0.8,0.2,1.1c0,0.1,0,0.2,0.1,0.3
		c0-0.1,0.1-0.2,0.1-0.3c0.3-0.6,0.4-1.2,0.6-1.9c0.3-0.8,0.4-1.6,0.7-2.4c0.3-1,0.5-1.8,0.9-2.8c0.4-1.4,0.8-2.8,1.3-4.2
		c0.2-0.5,0.4-1.1,0.5-1.7c0.2-0.5,0.4-1.1,0.5-1.6c0.1-0.6,0.4-1.1,0.5-1.7c0.2-0.5,0.4-1.1,0.5-1.6c0.1-0.5,0.4-1.1,0.4-1.7
		c0.1-0.5,0.4-1.1,0.4-1.7c0.2-0.7,0.4-1.3,0.6-2c0.2-0.6,0.3-1.3,0.6-1.9c0.1-0.9,0.4-1.8,0.7-2.6s0.6-1.8,0.8-2.7
		c0.1-0.3,0.2-0.4,0.4-0.4c0.1,0,0.3,0,0.4,0c2.5,0,5.1,0,7.6,0c0.2,0,0.3,0,0.4,0c0.1,0,0.2,0.2,0.2,0.3c-0.4,0.7-0.5,1.6-0.8,2.3
		c-0.3,0.7-0.5,1.5-0.8,2.3c-0.5,1.6-1.1,3.1-1.6,4.6c-0.6,1.8-1.1,3.5-1.7,5.3c-0.6,1.8-1.2,3.5-1.8,5.3c-0.7,2.1-1.3,4.1-2,6.2
		c-0.6,1.9-1.3,3.9-1.9,5.8c-0.6,1.8-1.2,3.8-1.8,5.6c-0.6,1.8-1.2,3.5-1.8,5.3c-0.3,0.6-0.4,1.3-0.7,1.9c-0.4,0.8-0.7,1.7-1.1,2.5
		c-0.6,1.1-1.3,2.4-2.1,3.4c-0.5,0.7-1.1,1.5-1.8,2.1c-0.8,0.7-1.6,1.3-2.5,1.8c-1,0.6-2,1.1-3.1,1.4c-0.6,0.2-1.1,0.4-1.8,0.4
		c-0.3,0-0.4,0-0.4-0.4c-0.4-1-0.8-1.8-1.1-2.8c-0.3-0.7-0.6-1.3-1-1.9c-0.1-0.2-0.2-0.3-0.2-0.4c-0.1-0.2,0-0.4,0.3-0.4
		c1.1-0.1,2.1-0.5,3.1-1.1c0.7-0.4,1.3-0.9,1.9-1.4c0.6-0.5,1-1.1,1.4-1.8c0.8-1.1,1.2-2.5,1.7-3.7c0.2-0.4,0.3-0.9,0.4-1.2
		c0-0.1,0.1-0.1,0.1-0.1C306.1,189.9,306,189.7,305.4,189.7z"/>
	<path class="st0" d="M444.1,173.1c0-4.8,0-9.7,0-14.5c0-0.8-0.2-1.6-0.2-2.5c-0.1-0.8-0.2-1.5-0.3-2.3c-0.2-1-0.4-1.9-0.7-2.9
		c0-0.1-0.1-0.3-0.2-0.4c-0.1-0.3,0-0.4,0.4-0.4c0.4,0,1-0.2,1.3-0.4c0.5-0.3,1.1-0.4,1.7-0.4c0.7-0.2,1.5-0.4,2.3-0.6
		c1-0.3,1.8-0.5,2.8-0.7h0.1c0.3-0.1,0.5-0.4,0.8-0.1c0.2,0.2,0.3,0.4,0.4,0.7c0.4,0.9,0.7,1.8,0.9,2.6c0.1,0.6,0.3,1.2,0.4,1.8
		c0,0.1,0.1,0.1,0.1,0.2c0-0.1,0-0.1,0.1-0.2c0.1-0.2,0.3-0.4,0.4-0.5c0.7-0.7,1.3-1.4,2-2c0.7-0.6,1.4-1.1,2.2-1.7
		c0.6-0.4,1.2-0.6,1.9-0.9c0.4-0.2,1-0.3,1.5-0.3c0.8,0,1.6,0,2.4,0c0.9,0,1.7,0.4,2.5,0.7c0.2,0.1,0.4,0.3,0.1,0.4
		c-0.4,1.6-1,3.1-1.4,4.6c-0.4,1.1-0.8,2.4-1.1,3.5c0,0.2-0.1,0.3-0.2,0.4c-0.1,0.4-0.3,0.4-0.4,0.3c-0.9-0.5-1.8-0.7-2.9-0.6
		c-0.4,0-0.7-0.1-1,0c-0.3,0.1-0.5,0.1-0.8,0.2c-0.4,0.1-0.8,0.4-1.3,0.4c-0.6,0.5-1.4,0.9-2,1.5c-0.4,0.4-0.9,0.6-1.1,1.1
		c-0.2,0.4,0,1,0,1.5c0,8.6,0,17.3,0,25.9c0,0.9,0,1-0.9,1c-3,0-5.9,0-8.9,0c-0.2,0-0.4,0.1-0.5,0c-0.2-0.1-0.3-0.2-0.4-0.4
		s0-0.4,0-0.6C444.1,183,444.1,178.1,444.1,173.1z"/>
	<path class="st0" d="M568.4,174.5c0-4.5,0-8.9,0-13.3c0-1.2-0.2-2.5-0.2-3.8c0-0.3-0.2-0.6-0.2-1s0.1-0.6-0.1-1
		c-0.2-0.3,0.1-0.7-0.1-1c-0.3-0.9-0.3-1.8-0.6-2.6c-0.2-0.4-0.2-0.9-0.4-1.2c-0.1-0.1-0.1-0.3,0.2-0.4c0.8-0.1,1.6-0.4,2.3-0.6
		c0.5-0.2,1-0.3,1.5-0.4c0.6-0.1,1.1-0.4,1.8-0.5c0.6-0.1,1.1-0.3,1.8-0.4c0.5-0.2,1-0.3,1.5-0.4c0.2-0.1,0.4,0,0.4,0.3
		c0.3,0.6,0.7,1.2,0.9,1.8c0.2,0.6,0.3,1.2,0.4,1.8c0,0.2,0.1,0.3,0.2,0.4c0.1,0.4,0.1,0.7,0.1,1.1c0.3-0.3,0.5-0.6,0.8-0.9
		c0.5-0.5,1.1-1.1,1.6-1.6c0.9-0.7,1.8-1.5,2.7-2c0.5-0.3,1.1-0.5,1.7-0.7c0.4-0.1,0.9-0.3,1.4-0.3c0.8,0,1.7,0,2.5,0
		c0.9,0,1.6,0.4,2.4,0.7c0.2,0.1,0.4,0.3,0.2,0.5c-0.4,1.4-0.9,2.9-1.3,4.3c-0.4,1.1-0.7,2.3-1.1,3.4c-0.1,0.3-0.1,0.5-0.2,0.8
		c-0.2,0.3-0.3,0.3-0.4,0.2c-0.3-0.1-0.4-0.2-0.7-0.4c-1-0.4-1.9-0.4-2.9-0.4c-0.5,0-1.1,0.2-1.5,0.4c-0.5,0.2-1,0.4-1.4,0.7
		c-0.9,0.5-1.6,1.2-2.3,1.9c-0.2,0.2-0.2,0.4-0.2,0.6c0,0.8,0,1.5,0,2.3c0,8.2,0,16.5,0,24.7c0,1.1,0,1-1,1c-2.9,0-5.8,0-8.7,0
		c-0.8,0-0.8,0-0.8-0.7C568.4,183.5,568.4,179,568.4,174.5z"/>
	<path class="st0" d="M286.8,190.2c-0.4,0-0.6,0-0.9,0c-1.4,0-2.6-0.4-3.7-1.2c-0.8-0.6-1.5-1.3-2-2.2c-0.3-0.4-0.4-1-0.5-1.5
		c-0.3-1.1-0.4-2.2-0.4-3.2c0-14.2,0-28.3,0-42.5c0-0.9-0.2-1.7-0.2-2.5c-0.1-0.7-0.2-1.4-0.4-2.1c-0.2-0.7-0.4-1.3-0.7-1.9
		c0-0.1,0.1-0.3,0.1-0.3c0.5-0.1,1.1-0.3,1.5-0.4c0.4-0.1,0.9,0,1.1-0.2c0.4-0.2,0.8,0,1.1-0.3c0.4,0.1,0.8-0.1,1.1-0.2
		s0.9,0,1.1-0.2c0.4-0.3,0.8,0,1.1-0.3c0.1-0.1,0.4,0,0.5,0s0.2,0.1,0.3,0.2c0.3,0.5,0.4,1.1,0.4,1.6c0.2,0.7,0.3,1.5,0.4,2.3
		c0.1,0.7,0,1.4,0.2,2.1c0.4,1.8,0.2,3.7,0.2,5.5c0,13,0,26,0,39c0,0.5,0.1,1.1,0.4,1.6c0.2,0.4,0.6,0.5,1.1,0.4
		c0.3-0.1,0.6-0.2,0.9-0.3c0.4-0.1,0.4,0,0.6,0.4c0.4,1.1,0.7,2.3,1.1,3.4c0.2,0.4,0.2,0.9,0.4,1.2c0.1,0.3-0.1,0.4-0.3,0.5
		c-0.8,0.3-1.6,0.5-2.4,0.9C288.2,190.3,287.5,190.2,286.8,190.2z"/>
	<path class="st0" d="M647,144.6c0-0.9,0-1.8,0-2.5c0-0.1,0.1-0.2,0.1-0.3c0.1,0.1,0.3,0.1,0.4,0.2c0.7,0.7,1.2,1.5,1.8,2.4
		c0.6,1,1.1,2,1.5,3.1c0.4,0.8,0.5,1.6,0.8,2.4c0.6,2,0.5,4.1,0.5,6.2c0,0.4-0.1,0.7-0.2,1.1c-0.1,0.4,0.1,0.7-0.2,1
		c0.1,1-0.4,1.8-0.5,2.7c-0.1,0.6-0.4,1.1-0.5,1.7c-0.4,1.2-1.1,2.4-1.7,3.4c-0.5,1-1.1,1.8-1.7,2.7c-0.6,1-1.2,1.8-1.9,2.7
		c-0.4,0.5-0.9,1-1.3,1.5c-0.4,0.4-1,1-1.4,1.4c-0.2,0.2-0.4,0.4-0.6,0.4c-0.2,0.2-0.3,0.4-0.6,0.4c0.1-0.2,0.2-0.4,0.2-0.5
		c0.1-0.9-0.1-1.7-0.5-2.5c-0.4-0.6-0.8-1.3-1.2-1.9c-0.4-0.5-0.8-1.1-1.2-1.7c-0.7-0.9-1.5-1.8-2.2-2.6c-0.5-0.7-1.1-1.3-1.6-2.1
		c-0.6-1-1.1-1.9-1.5-2.9c-0.4-1.1-0.7-2.3-1.1-3.3c0-0.1,0-0.1,0-0.2c-0.1-0.8-0.1-1.6-0.2-2.4c0-0.5,0.2-1.1,0.2-1.6
		c0-0.5,0.3-1,0.4-1.5s0.4-1,0.5-1.4c0.4-1.2,1.1-2.4,1.7-3.4c0.5-1.1,1.1-2,1.8-3c0.2-0.3,0.2-0.5,0.4-0.7c0,0.3,0.1,0.5,0.1,0.8
		c0,1.1,0,2.2,0,3.2c0,0.3,0,0.4,0.3,0.5c0.1,0,0.1,0.1,0.1,0.1c0.4,0.4,0.8,0.6,1,1.1c0.2,0.4,0,1,0,1.4c0,0.8,0,0.8,0.8,0.8
		c0.5,0,0.5,0,0.5-0.5c0-0.1,0-0.2,0-0.3c0-0.1,0.1-0.2,0.1-0.2l0.1,0.1c0.4,0.4,0.7,0.7,1.1,1.1c0.4,0.4,0.7,0.6,1.1,1
		c0.1,0,0.2,0,0.3,0c0,0,0,0,0.1-0.1c1.1-1.1,2.3-2.2,3.4-3.2c0.4-0.4,0.6-0.7,1.1-0.9c0.3-0.1,0.4-0.4,0.4-0.7
		C646.9,146.3,647,145.5,647,144.6z"/>
	<path class="st0" d="M666.8,114.7c-0.9,0-1.8,0-2.5,0c-0.1,0-0.3,0.1-0.4-0.1c0-0.1,0.1-0.2,0.2-0.3c0.8-0.4,1.4-1.1,2.2-1.7
		c0.8-0.4,1.6-0.8,2.3-1.2c1-0.5,2-0.9,3.1-1.1c0.7-0.2,1.4-0.3,2.2-0.4c1.4-0.3,2.8,0,4.1-0.2c0.4,0,0.7,0.2,1.1,0.2
		s0.7-0.1,1.1,0.1c0.3,0.2,0.7,0.1,1.1,0.2c0.8,0.1,1.5,0.4,2.2,0.5c0.7,0.3,1.4,0.4,2,0.8c0.6,0.4,1.3,0.5,1.8,0.9
		c0.8,0.4,1.5,0.9,2.3,1.3c0.9,0.6,1.8,1.2,2.6,1.8c0.4,0.3,0.8,0.5,1.1,0.8c0.7,0.4,1.1,1.1,1.9,1.6c0.3,0.2,0.5,0.4,0.7,0.8
		c0.1,0.2,0.2,0.3,0.4,0.4c0.3,0.4,0.6,0.6,0.8,1c0.1,0.2,0.2,0.3,0.2,0.4c-0.1-0.1-0.2-0.2-0.4-0.3c-0.1-0.1-0.2-0.1-0.3-0.1
		c-1.1-0.2-2.1,0.3-3,0.9c-0.4,0.3-0.8,0.5-1.2,0.8c-0.4,0.3-0.8,0.6-1.2,0.9c-0.4,0.2-0.7,0.5-1,0.8c-0.4,0.4-0.9,0.8-1.3,1.1
		c-1.1,0.9-2.2,1.8-3.4,2.5c-1.1,0.6-2.1,1.2-3.3,1.6c-0.4,0.1-0.8,0.4-1.2,0.4c-0.4,0.4-1.1,0.3-1.6,0.4c-0.7,0.2-1.4,0.3-2.1,0.2
		c-1-0.1-1.8-0.2-2.8-0.4c-1.6-0.4-3.1-1-4.5-1.8c-1.5-0.8-3-1.6-4.4-2.5c-0.1,0-0.1-0.1-0.2-0.2c0.1,0,0.2-0.1,0.3-0.1
		c1.2,0,2.5,0,3.8,0c0.4,0,0.5-0.2,0.8-0.4c0.1-0.1,0.1-0.3,0.2-0.4c0.4-0.4,0.7-0.7,1.3-0.6c0.5,0.1,1,0,1.5,0
		c0.1,0,0.2-0.1,0.2-0.2s0-0.2,0-0.3c0-0.3,0.1-0.6,0-0.8c-0.1-0.2-0.5-0.1-0.8-0.1c-0.1,0-0.1,0-0.2-0.1c0-0.1,0.1-0.1,0.1-0.2
		c0.4-0.4,0.6-0.8,1-1.1c0.3-0.3,0.6-0.6,0.9-0.9c0.2-0.1,0.1-0.2,0-0.3c-0.9-1.1-1.8-1.9-2.7-2.9c-0.5-0.6-1.1-1.1-1.6-1.8
		c-0.2-0.2-0.4-0.3-0.6-0.3C668.6,114.7,667.7,114.7,666.8,114.7z"/>
	<path class="st0" d="M636.9,94.9c0,0.9,0,1.8,0,2.6c0,0.1,0,0.2-0.1,0.3c-0.1,0-0.1-0.1-0.2-0.1c-0.6-0.6-1.1-1.2-1.6-2
		c-0.8-1.3-1.6-2.7-2-4.2c-0.5-0.7-0.5-1.6-0.8-2.4c-0.2-0.5-0.1-1.1-0.2-1.8c-0.1-0.4-0.1-0.9-0.2-1.2c0-0.4,0-0.8,0-1.2
		c0-0.8,0.2-1.6,0.2-2.4c0.1-0.7,0.1-1.4,0.4-2.1c0.3-0.9,0.4-1.7,0.8-2.5c0.5-1.3,1-2.5,1.7-3.8c0.6-1.1,1.2-2,1.8-3.1
		c0.6-0.9,1.2-1.8,1.9-2.7c0.9-1.1,1.9-2.1,2.9-3.1c0.3-0.3,0.6-0.4,0.9-0.6c0.1-0.1,0.2-0.1,0.3-0.2c0,0.1-0.1,0.3-0.1,0.4
		c-0.1,0.3-0.3,0.5-0.2,0.8c0.1,0.4,0.1,0.8,0.3,1.1c0.4,1.1,1.1,2.1,1.8,3.1c0.4,0.6,1,1.2,1.4,1.9c0.3,0.4,0.7,0.9,1.1,1.2
		c1.1,1.1,1.8,2.4,2.7,3.5c0.4,0.4,1.8,3.6,1.8,4.1c0.1,0.6,0.3,1.2,0.4,1.8c0.3,1.1,0.1,2.1,0.1,3.2c0,0.6-0.3,1.2-0.4,1.9
		c-0.4,1.4-1,2.7-1.6,3.9c-0.4,0.8-0.8,1.5-1.2,2.2c-0.4,0.5-0.6,1.1-0.9,1.7c-0.2,0.3-0.4,0.4-0.4,0.7c-0.1,0.1-0.2,0.1-0.2,0.2
		c0-0.1-0.1-0.2-0.1-0.3c0-1.1,0-2.3,0-3.4c0-0.2,0-0.4,0-0.5c0-0.2-0.1-0.3-0.2-0.4c-0.4-0.4-0.8-0.7-1-1.1c-0.2-0.4-0.1-1,0-1.4
		c0.1-1.1-0.2-0.9-0.9-0.9c-0.4,0-0.5,0.1-0.6,0.5c0,0.2,0,0.3,0,0.4c-0.1-0.1-0.3-0.2-0.4-0.3c-0.4-0.4-0.8-0.9-1.3-1.1
		c-0.3-0.2-0.4-0.4-0.7-0.6c-0.3,0.3-0.4,0.4-0.7,0.7c-1.1,1.1-2.3,2.2-3.4,3.2c-0.1,0.1-0.3,0.1-0.4,0.2c-0.4,0.3-0.7,0.6-0.6,1.1
		C636.9,93.2,636.9,94,636.9,94.9z"/>
	<path class="st0" d="M623.8,142.8c0.7,0,1.4,0,2.2,0c0.5-0.5,1.1-1.1,1.6-1.6c0.8-0.8,1.5-1.5,2.3-2.3c0.1-0.1,0.1-0.1,0.2-0.1
		c0,0.1,0,0.1,0,0.2c0.1,1.1-0.1,2.1-0.4,3.1c-0.2,0.8-0.5,1.6-0.8,2.4c-0.4,1.3-1.1,2.5-1.8,3.7c-0.9,1.3-1.8,2.5-3.1,3.5
		c-1.1,1.1-2.4,2-3.7,2.8c-0.8,0.4-1.7,0.9-2.5,1.2c-1.2,0.6-2.5,1.1-3.9,1.3c-0.4,0.1-1,0.3-1.4,0.4c-0.4,0.1-0.9,0.2-1.4,0.3
		c-0.4,0.1-0.7,0-1,0.2c-0.4,0.2-0.7,0-1,0.2c-0.4,0.2-0.6,0-1,0.1c-0.5,0.2-1.1,0-1.7,0.2c-0.8,0.2-1.6,0.1-2.4,0.2
		c-0.6,0-1.1-0.3-1.8-0.2c-0.1,0-0.3-0.1-0.4-0.2c-0.1,0-0.1-0.1-0.2-0.1l0.1-0.1c1.1,0,1.5-0.9,1.8-1.7c0.3-0.7,0.4-1.4,0.5-2.2
		c0.1-0.4,0-0.8,0.2-1.1c0.2-0.4,0-0.8,0.2-1.1c0.2-0.5,0.1-1.1,0.2-1.7c0-0.4,0.3-0.7,0.2-1.1c0-0.4-0.1-0.8,0.2-1.1
		c0.1-0.1,0-0.2,0-0.4c0-1.5,0.4-2.9,0.9-4.4c0.3-0.9,0.6-1.8,1.1-2.5c0.4-0.8,0.9-1.7,1.5-2.4c0.3-0.3,0.4-0.6,0.7-0.9
		c1.1-1.1,2.3-1.8,3.6-2.5s2.8-1.1,4.2-1.6c0.4-0.2,0.9-0.3,1.2-0.4c0.4-0.1,0.8-0.2,1.2-0.4c0.4-0.2,0.9-0.2,1.2-0.4
		c0.1,0,0.2,0,0.3,0c0.1,0,0.2,0,0.3,0.1c0,0.1-0.1,0.1-0.1,0.2c-0.9,0.9-1.8,1.8-2.5,2.5c-0.2,0.2-0.3,0.4-0.3,0.6
		c0,0.5,0.1,1.1-0.1,1.5c-0.2,0.4-0.7,0.7-1.1,1.1c-0.2,0.2-0.5,0.4-0.5,0.6c0,0.2,0.4,0.4,0.5,0.6c0.1,0.1,0.2,0.2,0.3,0.3
		c0.1,0.1,0.3,0.1,0.4,0s0.2-0.2,0.3-0.3l0.1-0.1c0,0.1,0.1,0.2,0.1,0.2c0.3,0.9,0.2,1.8,0.2,2.5c0,0.2,0,0.4,0.3,0.4
		C620.8,142.7,622.3,142.8,623.8,142.8z"/>
	<path class="st0" d="M616.3,114.7c-0.6,0-1.2,0-1.8,0c-0.4,0-0.7,0.2-0.9,0.4c-0.1,0.1-0.1,0.3-0.2,0.4c-0.2,0.3-0.4,0.4-0.9,0.4
		c-0.5-0.1-1.1,0-1.7,0c-0.2,0-0.4,0-0.3,0.3c0,0.2,0,0.4,0,0.6c0,0.2,0,0.4,0.1,0.6c0.1,0.1,0.4,0,0.5,0c0.1,0,0.1,0,0.2,0
		c0,0.1-0.1,0.1-0.1,0.2c-0.4,0.7-1.1,1.2-1.7,1.8c-0.2,0.2-0.2,0.3,0,0.4c0.6,0.8,1.4,1.5,2,2.2c0.7,0.8,1.5,1.6,2.2,2.4
		c0.3,0.3,0.5,0.4,1,0.4c1.6,0,3.2,0,4.7,0c0.2,0,0.4,0,0.5,0l0.1,0.1c0,0,0,0.1-0.1,0.1c-0.8,0.4-1.3,1.2-2.1,1.7
		c-0.4,0.3-1.1,0.4-1.4,0.9c-0.1,0.1-3.9,1.7-3.9,1.7c-0.6,0-1.1,0.3-1.8,0.4c-0.6,0.1-1.2,0.1-1.8,0.2c-0.5,0.1-1,0.2-1.5,0.2
		c-0.4,0-0.8,0.1-1.1,0c-0.4-0.2-0.7-0.1-1.1-0.2c-0.4,0-0.7,0-1.1-0.2c-0.4-0.1-0.8-0.1-1.2-0.2c-0.6-0.1-1.2-0.3-1.9-0.4
		c-2-0.5-3.9-1.4-5.6-2.5c-1.3-0.7-2.5-1.6-3.8-2.5c-0.9-0.6-1.7-1.3-2.5-1.9c-1.1-0.8-1.8-1.8-2.6-2.8c-0.1-0.1,0-0.2,0-0.3
		c0.1,0,0.1,0.1,0.2,0.1c0.4,0.4,1.1,0.4,1.6,0.4c0.8-0.2,1.6-0.6,2.2-1.1c0.9-0.6,1.8-1.3,2.6-1.9c0.7-0.5,1.3-1.1,1.9-1.6
		c1.2-1.1,2.5-2,3.8-2.8c0.8-0.5,1.8-0.9,2.6-1.2c0.8-0.4,1.7-0.5,2.5-0.8c0.4-0.2,1-0.2,1.5-0.2c0.7,0,1.4-0.1,2.1,0
		c1.1,0.1,2.1,0.4,3.2,0.7c1.5,0.5,2.8,1.2,4.2,1.9c1.1,0.5,2.1,1.2,3.2,1.8c0.1,0,0.1,0,0.2,0.1s0.3,0.3,0.4,0.4
		c-0.2,0-0.4,0.1-0.4,0.1C617.6,114.7,617,114.7,616.3,114.7z"/>
	<path class="st0" d="M662,96.6c-0.6,0-1.2,0-1.8,0c-0.5,0-1.1-0.3-1.7-0.2c-0.4,0-0.6,0.1-0.9,0.4c-1.2,1.2-2.5,2.5-3.6,3.7
		c-0.1,0.1-0.1,0.1-0.2,0.2c0-0.1-0.1-0.2-0.1-0.3c0-0.4-0.1-0.8,0-1.1c0.2-0.4,0-0.7,0.2-1c0.2-0.4,0-0.7,0.4-1
		c0-0.7,0.4-1.3,0.5-1.9c0.2-0.6,0.4-1.2,0.7-1.8c0.4-1,0.9-1.8,1.4-2.6c0.2-0.3,0.4-0.6,0.6-0.9c0.8-0.9,1.6-1.8,2.5-2.6
		c0.6-0.6,1.3-1.1,1.9-1.7c0.6-0.5,1.3-1,2-1.3c1.4-0.7,2.8-1.4,4.3-1.8c0.5-0.2,1.1-0.4,1.7-0.5c0.5-0.2,1.1-0.4,1.8-0.4
		c0.8-0.1,1.5-0.4,2.3-0.4c0.4,0,0.9,0,1.1-0.2c0.4-0.2,0.8,0,1.2-0.2c1-0.3,1.9-0.1,2.9-0.2c0.9-0.1,1.7,0.2,2.5,0.2
		c0.1,0,0.1,0.1,0.2,0.1l-0.1,0.1c-0.9,0-1.3,0.6-1.7,1.2c-0.4,0.6-0.5,1.4-0.7,2.1c-0.1,0.4-0.1,0.8-0.2,1.1
		c-0.1,0.4-0.2,0.7-0.2,1.1c0,0.4-0.3,0.6-0.2,1c0,0.3,0.1,0.6-0.2,0.9c0,0,0,0.1,0,0.2c0.1,1-0.1,1.8-0.2,2.7
		c-0.1,1.1-0.3,2.1-0.5,3.2c-0.3,1-0.5,1.9-1,2.8c-0.5,1.1-1.1,2.4-1.9,3.3c-0.4,0.4-0.8,1-1.2,1.4c-1.2,1.1-2.5,1.9-4.1,2.5
		c-1.1,0.4-2.3,0.8-3.5,1.2c-0.7,0.3-1.4,0.4-2.2,0.6c-0.5,0.2-1.1,0.2-1.8,0.4c-0.1,0-0.2,0-0.3,0c0-0.1,0.1-0.1,0.1-0.2
		c0.9-0.9,1.8-1.8,2.6-2.6c0.3-0.3,0.4-0.5,0.4-1c0-0.4-0.1-0.9,0-1.2c0.2-0.4,0.6-0.6,0.9-1c0.2-0.2,0.5-0.4,0.5-0.7
		c0-0.3-0.4-0.4-0.5-0.7c-0.4-0.4-0.4-0.4-0.6,0c-0.1,0.1-0.3,0.2-0.4,0.4c0-0.2-0.1-0.4-0.1-0.4c0-0.6,0-1.1,0-1.8
		c0-0.9-0.3-1.1-1.1-1.1C663.3,96.6,662.7,96.6,662,96.6z"/>
	<path class="st0" d="M665.1,139.8c0-0.6,0-1.1,0-1.8c0-0.5,0.1-1,0.2-1.5c0.1-0.5-0.1-0.9-0.4-1.2c-1.2-1.1-2.4-2.4-3.5-3.5
		c-0.1-0.1-0.1-0.1-0.1-0.2c0.1,0,0.2-0.1,0.3-0.1c0.4,0,1-0.1,1.4,0c0.6,0.1,1.2,0.3,1.8,0.4c1,0.2,1.9,0.6,2.8,1
		c1.1,0.4,2.3,1.1,3.3,1.8c0.7,0.5,1.3,1.1,2,1.7c1.3,1.3,2.5,2.7,3.7,4.2c0.2,0.3,0.4,0.6,0.5,1c0.9,1.6,1.7,3.2,2.2,4.9
		c0.3,1,0.7,1.8,0.7,2.9c0.3,0.3,0.1,0.6,0.2,0.8c0.2,0.3,0,0.6,0.2,0.9c0.2,0.3,0.1,0.6,0.2,0.9c0.2,0.8,0.3,1.6,0.4,2.4
		c0.1,0.7,0.1,1.3,0.1,2c0,0.7,0.1,1.4,0,2.1c0,0.4-0.2,0.8-0.2,1.1l-0.1,0.1c0,0-0.1,0-0.1-0.1c0-0.1,0-0.3,0-0.4
		c-0.2-0.5-0.6-0.9-1.2-1.2c-0.6-0.4-1.2-0.5-1.8-0.7c-1.1-0.2-2-0.4-3.1-0.5c-0.5-0.1-1.1,0-1.7-0.2c-0.5-0.2-1.1-0.1-1.7-0.2
		c-0.4-0.1-0.9-0.2-1.2-0.2c-0.4,0-0.8-0.3-1.2-0.2c-0.3,0-3.2-0.9-3.5-1c-0.8-0.4-1.6-0.8-2.4-1.1c-0.8-0.4-1.4-0.9-2-1.4
		c-0.3-0.3-0.5-0.5-0.8-0.8c-1-0.9-1.6-2-2.2-3.2c-0.6-1.1-1.1-2.4-1.4-3.5c-0.2-0.6-0.4-1.1-0.5-1.8c-0.2-0.6-0.3-1.1-0.4-1.7
		c-0.1-0.3-0.2-0.5-0.2-0.8c0-0.2,0-0.4,0-0.6c0.2,0.1,0.3,0.3,0.4,0.4c0.8,0.7,1.5,1.5,2.2,2.2c0.2,0.2,0.4,0.3,0.5,0.3
		c0.5,0,1.1-0.2,1.5,0c0.4,0.2,0.8,0.7,1.1,1.1c0.6,0.6,0.6,0.6,1.3,0c0.1-0.1,0.2-0.2,0.3-0.3c0.1-0.1,0.1-0.2,0-0.3
		c-0.1-0.1-0.1-0.1-0.2-0.2c-0.4-0.4-0.4-0.4,0.2-0.6c0.2,0,0.4,0,0.4,0c0.4,0,1,0,1.4,0c0.3,0,0.6,0,0.7-0.1
		c0.2-0.2,0.2-0.5,0.2-0.8C665.1,141.1,665.1,140.5,665.1,139.8z"/>
	<path class="st0" d="M620.7,96.6c-0.4,0-0.8,0-1.1,0c-0.4,0-0.6,0.3-0.6,0.6c-0.1,1.4-0.1,2.9-0.2,4.3c0,0.5,0,1.1,0,1.7
		c0,0.4,0.1,0.7,0.4,1c1.1,1.1,2.3,2.3,3.5,3.4l0.1,0.1c-0.1,0-0.2,0.1-0.2,0.1c-0.4,0-0.8,0-1.1-0.1c-0.4-0.2-0.8,0.2-1.1-0.2
		c-1,0-1.8-0.4-2.7-0.7c-0.9-0.3-1.7-0.6-2.5-1c-0.8-0.4-1.6-0.8-2.3-1.3c-0.4-0.4-0.9-0.7-1.3-1.1c-0.6-0.6-1.2-1.2-1.8-1.8
		c-1-1-1.8-2.1-2.5-3.3c-1-1.6-1.8-3.3-2.4-5.1c-0.4-1.1-0.6-2.1-0.8-3.2c-0.2-0.6-0.3-1.1-0.4-1.8c0-0.4-0.1-0.8-0.2-1.1
		c-0.1-0.4,0-0.7-0.2-1c-0.2-0.5,0-1.1-0.2-1.5c-0.3-0.9-0.2-1.7-0.2-2.5c0-0.7,0.1-1.4,0.4-2c0-0.1,0.1-0.2,0.1-0.3
		c0,0.1,0.1,0.2,0.1,0.3c0,0.7,0.2,1,1.1,1.6c0.6,0.4,1.4,0.5,2.1,0.7c0.9,0.2,1.8,0.2,2.6,0.5h0.1c0.8,0.1,1.6,0.2,2.4,0.2
		c0.4,0,0.8,0.2,1.1,0.2c0.4,0,0.8-0.2,1.1,0.2c0.1,0.1,0.2,0,0.4,0c1.5,0.2,3,0.5,4.4,1.1c0.5,0.2,1.1,0.4,1.7,0.7
		c0.7,0.3,1.4,0.8,2.1,1.2c0.9,0.6,1.7,1.4,2.4,2.2c0.8,1,1.5,2,1.9,3.2c0.3,0.8,0.6,1.5,0.9,2.3c0.3,1,0.5,1.8,0.8,2.8
		c0.2,0.7,0.4,1.4,0.6,2.1c0.1,0.2,0.1,0.4,0.1,0.4s0,0.1-0.1,0.2l-0.1-0.1c-0.9-0.9-1.8-1.8-2.7-2.7c-0.2-0.2-0.4-0.4-0.7-0.3
		c-0.4,0-0.9,0.1-1.2,0c-0.4-0.2-0.6-0.5-0.9-0.9l-0.1-0.1c-0.7-0.7-0.7-0.6-1.3,0c-0.3,0.3-0.4,0.4,0,0.6c0.1,0.1,0.2,0.2,0.3,0.3
		c0,0.1,0,0.2,0,0.3c0,0-0.1,0.1-0.2,0.1C621.5,96.6,621.2,96.6,620.7,96.6z"/>
	<path class="st0" d="M171.8,168.9c0,6.7,0,13.2,0,19.9c0,0.3,0,0.4,0,0.7c0,0.1-0.1,0.2-0.2,0.2c-2.5,0-5.2,0-7.7,0
		c-0.2,0-0.3-0.1-0.3-0.3s0-0.4,0-0.5c0-12.9,0-25.9,0-38.7c0-0.1,0-0.2,0-0.3c0-0.4,0-0.4,0.5-0.5c0.3,0,0.5-0.1,0.9-0.2
		c0.4-0.1,0.6-0.1,1-0.2c0.3,0,0.5-0.1,0.9-0.2c0.5-0.2,1.1-0.1,1.6-0.2c0.3,0,0.5-0.1,0.8-0.2c0.3,0,0.5-0.1,0.8-0.2
		c0.4-0.1,0.8-0.1,1.1-0.2c0.7-0.1,0.7-0.1,0.7,0.6C171.8,155.5,171.8,162.2,171.8,168.9z"/>
	<path class="st0" d="M162.1,138.1c-0.1-1.7,0.6-3.1,1.8-4.2c0.4-0.5,1.8-1.1,2.5-1.3c0.7-0.3,1.4-0.2,2.1-0.1
		c1.1,0.2,2.1,0.5,2.9,1.3c0.7,0.6,1.2,1.4,1.6,2.3c0.1,0.4,0.3,0.7,0.3,1.1c0,0.2-0.1,0.4,0.1,0.5c0.1,0.1,0.1,0.2,0,0.3
		c-0.2,0.7-0.1,1.4-0.4,2.1c-0.4,0.7-0.7,1.3-1.2,1.9c-0.7,0.8-1.6,1.3-2.6,1.6c-0.8,0.2-1.6,0.5-2.4,0.1c-1,0-1.8-0.4-2.5-1
		c-0.3-0.2-0.4-0.4-0.7-0.6c-0.4-0.4-0.6-0.7-0.9-1.1c-0.3-0.5-0.5-1.1-0.6-1.6C162,138.9,162.1,138.4,162.1,138.1z"/>
	<path class="st0" d="M654.9,140L654.9,140L654.9,140C654.9,139.9,654.9,140,654.9,140L654.9,140z"/>
	<path class="st0" d="M641.3,174.8c-0.1,0.1-0.1,0.1-0.2,0.2C641.2,175,641.3,174.9,641.3,174.8z"/>
	<path class="st0" d="M641.2,175.1L641.2,175.1L641.2,175.1C641.1,175,641.2,175,641.2,175.1C641.2,175,641.2,175.1,641.2,175.1z"/>
</g>
</svg>
