<?xml version="1.0" encoding="utf-8"?>
<!-- Generator: Adobe Illustrator 19.2.1, SVG Export Plug-In . SVG Version: 6.00 Build 0)  -->
<svg version="1.1" id="Layer_1" xmlns="http://www.w3.org/2000/svg" xmlns:xlink="http://www.w3.org/1999/xlink" x="0px" y="0px"
	 viewBox="0 0 800 300" style="enable-background:new 0 0 800 300;" xml:space="preserve">
<style type="text/css">
	.st0{fill:#FFFFFF;}
</style>
<g>
	<path class="st0" d="M278.7,158.9L278.7,158.9c0-0.1,0-0.2,0-0.3v-2.4c0-3-1.3-5.7-3.6-7.6c-0.1-0.1-0.3-0.2-0.4-0.3
		c1.5-1.7,2.2-3.8,2.2-6.3v-6.9c0-0.3,0-0.5,0-0.8v-0.4c0-1.9-0.5-3.7-1.4-5.2c-0.8-1.5-1.9-2.5-3-3.1c-1.6-1.1-3.5-1.7-5.6-1.7
		h-8.7h-19.9v52.6h0.3l0,0H259c0.3,0,0.5,0,0.8,0l0,0h7.7c5.9,0,11.3-4,11.3-11.2L278.7,158.9z M252.1,136.1h8.5
		c3.4,0,3.2,3.1,3.2,3.1v1c0.2,3.4-2.7,3.4-2.7,3.4h-9V136.1z M263,164.1h-10.9v-9.2h10.4c3.4,0,3.2,3.1,3.2,3.1v2.7
		C265.9,164.1,263,164.1,263,164.1z M299.4,123.9l-21,52.6h13.8l5-12.5l16.5-0.1l5.1,12.6h13.9l-20.9-52.6H299.4z M301.8,152.6
		l3.7-9.5l3.8,9.5H301.8z M535.8,123.9l-21,52.6h13.8l5-12.5l16.5-0.1l5.1,12.6h13.9l-20.9-52.6H535.8z M538.2,152.6l3.7-9.5
		l3.8,9.5H538.2z M348.8,123.9h-14v52.6h36.4v-12.3h-22.5v-40.3H348.8z M387.9,123.9h-14v52.6h36.4v-12.3h-22.5v-40.3H387.9z
		 M429.6,123.9l-9.8,18.5l-9.8-18.5h-14.2l16.9,31.7v20.9h14v-21.1l17-31.5L429.6,123.9L429.6,123.9z M494.9,164.1v-40.2h-14v52.6
		h31.7l4.7-12.4H494.9z M655.2,136.1v-12.2h-36.9v52.6h36.9v-12.4h-23v-9.3h19.6v-11.2h-19.6v-7.5H655.2z M459.2,164.1
		c-1.8-0.4-3-1.8-3.3-3.2c-0.1-0.5-0.1-1.2-0.1-1.8V143c0-1.4-0.1-2.5,0.1-3.5c0.4-2,2.2-3.5,4.6-3.4h17.7v-12.2h-25.1
		c-5.9,0-11.3,4-11.3,11.2V165c0,7.3,5.6,11.6,11.2,11.6c4.7,0,20.6,0,25.3-0.1v-12.3h-16.1C460.9,164.2,460,164.3,459.2,164.1z
		 M605,153.6c3.4-2.1,5.1-5.3,5.1-9.4v-7.8c0-7.3-3.7-10.2-6.3-11.4c-3-1.4-7-1.1-13.3-1.1h-19.6v52.6h13.8V155l14.5,21.5h17.1
		L601.8,155C603.2,154.6,603.8,154.3,605,153.6z M594.4,143.6h-9.6v-7.4h9.2c3.4,0,3.2,3.1,3.2,3.1v1
		C597.3,143.5,594.4,143.6,594.4,143.6z M179.7,164.4c0,0-8.5-9.6-17-25.3c-8.5-15.9-12.7-32-12.7-32s-2.8,0.6-6.8,1.5
		c-4.1,0.9-6.8,1.8-6.8,1.8s2.5,8.9,5.1,15.7c2.5,6.6,6.7,16.2,13.4,27.4c6.6,11.1,15.1,21,15.1,21s1.9-1.9,3.9-3.9
		C176,168.6,179.7,164.4,179.7,164.4z M180.1,104.1c-12.9,0-26.1,2.4-26.1,2.4s0.7,2.7,1.7,5.9c0.9,2.8,2.6,7.5,2.6,7.5
		s13.5-2.3,30.9-1.7c18.7,0.6,34.9,5.6,34.9,5.6s1-2.8,2.2-6.7c1.3-3.9,1.9-6.6,1.9-6.6s-10.1-2.8-18.7-4.1
		C202.5,105.1,193.5,104.1,180.1,104.1z M209,124.2c0,0-5,12.8-14.4,27.4c-9.7,14.9-21.9,26.1-21.9,26.1s1.8,2,4.7,5s5,5.1,5,5.1
		s7-6.7,11.5-12.2s10.8-13.3,17.5-24.8c6.5-11.1,11.3-23.5,11.3-23.5s-2.7-0.8-5.5-1.4C214.4,125.3,209,124.2,209,124.2z"/>
</g>
</svg>
