<?xml version="1.0" encoding="utf-8"?>
<!-- Generator: Adobe Illustrator 20.1.0, SVG Export Plug-In . SVG Version: 6.00 Build 0)  -->
<svg version="1.1" id="Layer_1" xmlns="http://www.w3.org/2000/svg" xmlns:xlink="http://www.w3.org/1999/xlink" x="0px" y="0px"
	 viewBox="0 0 800 300" style="enable-background:new 0 0 800 300;" xml:space="preserve">
<style type="text/css">
	.st0{fill:#FFFFFF;}
</style>
<g>
	<path class="st0" d="M388.4,48.4c0.5,0.6,0.8,1.3,1,1.9c0.2,0.7,0.4,1.5,0.1,2.2c-0.1,0.3,0.1,0.7-0.1,1l0.1,0.1
		c0.9,0.1,1.8,0.3,2.6,0.6c0.7,0.3,1.3,0.7,1.6,1.4c0.5,0.8,0.5,1.7,0.5,2.7l-0.1,0.1l-0.2-0.1c-0.1-0.1-0.2-0.1-0.3-0.3
		c-0.4-0.5-0.9-0.8-1.5-1.1c-0.3-0.2-0.8-0.3-1.2-0.3c-0.5,0-0.9,0.1-1.1,0.6c-0.3,0.5-0.4,0.9-0.3,1.5c0,0.4,0,0.9,0,1.3
		c0,0.1-0.1,0.3,0,0.5c0.1,0.4,0.2,0.8,0.3,1.3c0.1,0.3,0.3,0.4,0.3,0.8c0,0.1,0.1,0.3,0.3,0.4c0.6,0.5,0.9,1.1,1.6,1.4
		c0.3,0.1,0.6,0.3,1,0.3c0.2,0,0.3-0.1,0.5,0.1h0.2c0.5-0.2,1-0.1,1.6-0.3c0.6-0.2,1.3-0.5,1.7-0.9c0.6-0.4,0.8-1,1-1.7
		c0.1-0.3-0.1-0.6-0.1-0.9c-0.1-0.2-0.7-0.6-1-0.5c-0.5,0.1-1,0.2-1.4,0.6c-0.1,0.1-0.2,0.1-0.3,0.2c-0.2,0.1-0.3,0.1-0.3-0.1
		c-0.1-0.6,0.1-1.3,0.3-1.8c0.3-0.7,0.8-1.1,1.5-1.3c0.3-0.1,0.6-0.1,0.8-0.1c0.6-0.1,1-0.1,1.6-0.1c0.3,0,0.5-0.1,0.5-0.4
		c0-0.3,0.1-0.6,0.1-0.9c0.1-0.7,0.5-1.8,0.9-2.3c0.3-0.3,0.6-0.5,1-0.6c0.1,0,0.2,0,0.2,0.1c0.1,0.3,0.2,0.6,0.3,1
		c0.1,0.5,0.1,1,0.1,1.4s-0.1,0.8-0.1,1.2c0,0.4-0.2,0.8-0.3,1.1c0,0.1-0.2,0.1,0.1,0.2c0.8,0.1,1.5,0.5,2.2,1c0.6,0.4,1,1,1.1,1.7
		c0.1,0.6,0.4,1.2,0.1,1.8c-0.1,0.1,0,0.3,0,0.6l-0.1,0.1l-0.2-0.1c-0.3-0.3-0.6-0.6-0.9-0.9c-0.7-0.8-1.6-1-2.6-1
		c-0.4,0-1,0.4-1,0.8c0,0.2,0.1,0.5,0.2,0.7c0.5,0.6,1,1.3,1.7,1.7c0.3,0.2,0.6,0.5,0.9,0.7c0.8,0.5,1.7,1,2.6,1.2
		c0.6,0.2,1.3,0.3,1.9,0.1c0.8-0.2,1.9-0.7,2.4-1.3c0.6-0.7,0.5-1.9-0.6-2.4c-0.6-0.3-1.2-0.1-1.8,0.3c-0.1,0.1-0.2,0.1-0.3,0.2
		s-0.2,0.3-0.3,0.2c-0.1-0.1-0.1-0.3-0.1-0.5c0-0.3,0-0.6,0.1-0.8c0.3-0.8,0.9-1,1.5-1.3c0.8-0.3,1.7-0.1,2.6-0.1
		c0.1,0,0.3,0.3,0.5,0.1s0.1-0.4,0.1-0.6c-0.1-0.6,0.1-1.1,0.3-1.7c0.1-0.3,0.3-0.8,0.6-1c0.3-0.3,0.8-0.2,1.1,0.2
		c0.3,0.3,0.5,0.7,0.7,1.1c0.1,0.2,0.1,0.4,0,0.6c-0.1,0.5-0.3,1-0.6,1.5c-0.4,1-0.8,2.1-1.3,3.1c-0.3,0.8-0.6,1.5-0.9,2.3
		c-0.3,0.8-0.6,1.5-0.9,2.3c-0.2,0.6-0.5,1.1-0.7,1.6c-0.3,0.8-0.6,1.5-0.8,2.3c-0.1,0.1-0.1,0.2-0.2,0.1c-0.1,0-0.3,0-0.5,0
		c-13.7,0-27.4,0-41.1,0c-0.1,0-0.3,0-0.5,0c-0.2,0-0.2-0.1-0.3-0.3c-0.1-0.6-0.4-1-0.6-1.6c-0.2-0.6-0.5-1-0.6-1.6
		c-0.1-0.6-0.5-1-0.6-1.6c-0.6-1.2-1-2.4-1.5-3.6c-0.4-0.9-0.8-1.9-1-2.8c-0.2-0.6-0.4-1.1-0.7-1.7c-0.2-0.4-0.2-0.8,0-1.3
		c0.2-0.3,0.3-0.7,0.6-1c0.4-0.3,0.7-0.3,1.1,0.1c0.5,0.4,0.6,1,0.8,1.6c0.1,0.4,0.2,0.9,0.1,1.3c0,0.2,0.1,0.2,0.2,0.1
		c0.8-0.3,1.6-0.1,2.4-0.1c0.8,0.1,1.5,0.4,2,1.1c0.3,0.4,0.3,0.9,0.2,1.4c0,0.1-0.1,0.3-0.3,0.1c-0.2-0.2-0.4-0.3-0.6-0.4
		c-0.2-0.1-0.5-0.1-0.8-0.3c-0.3-0.1-0.7,0.1-1,0.1c-0.2,0.1-0.8,0.6-0.8,0.8c-0.1,0.2,0,0.5-0.1,0.7c-0.1,0.3,0.1,0.6,0.3,0.8
		c0.6,0.6,1.3,0.9,1.9,1.3c0.3,0.1,0.8,0.1,1.3,0.2c0.4,0.1,0.8-0.1,1.2-0.2c1.1-0.3,2-0.8,2.9-1.5c0.6-0.4,1.1-0.9,1.7-1.4
		c0.4-0.3,0.6-0.9,0.8-1.4c0.1-0.1,0.1-0.2,0-0.3c-0.3-0.3-0.6-0.6-1-0.6c-0.8,0-1.5,0.3-2.1,0.7c-0.4,0.3-0.8,0.6-1,1
		c-0.1,0.1-0.2,0.2-0.3,0.3l-0.1-0.1c-0.1-0.7-0.3-1.3-0.1-2c0.1-0.5,0.2-1,0.6-1.5c0.3-0.3,0.6-0.8,1-1c0.5-0.3,1-0.6,1.7-0.7
		c0.1,0,0.3-0.1,0.2-0.2c-0.3-0.3,0-0.7-0.3-1c-0.1-0.6-0.1-1.2-0.1-1.8c-0.1-0.3,0.1-0.6,0.1-0.9c0-0.3,0.1-0.6,0.1-0.9
		c0.1-0.2,0.3-0.3,0.5-0.3c0.5,0.2,1,0.5,1.3,0.9c0.3,0.6,0.6,1.3,0.8,1.9c0.1,0.3,0.1,0.6,0.1,0.8c0,0.1,0.1,0.3,0.1,0.4
		s0.3,0.1,0.4,0.1c0.3,0,0.6,0,0.9,0s0.6,0.1,0.8,0.1c0.6,0.1,1,0.3,1.5,0.6c0.4,0.3,0.6,0.8,0.8,1.3c0.1,0.5,0.3,1,0.2,1.5
		c0,0.2-0.1,0.2-0.3,0.1c-0.5-0.3-1-0.6-1.5-0.7c-0.5-0.1-1.3,0.1-1.4,0.6c-0.1,0.3-0.1,0.7,0,1c0.2,0.7,0.6,1.3,1.3,1.6
		c0.3,0.2,0.7,0.4,1,0.6c0.3,0.1,0.8,0.3,1.2,0.3c0.2,0,0.4-0.1,0.6,0.1h0.2c0.6-0.2,1.3-0.1,1.9-0.5c0.6-0.3,1-0.8,1.5-1.3
		c0.5-0.7,0.6-1.5,0.8-2.2c0.1-0.7,0.1-1.3,0.1-2c0-0.3-0.1-0.8-0.1-1.1c-0.1-0.6-1-1.2-1.5-1.1c-0.5,0.1-1,0.2-1.4,0.6
		c-0.4,0.3-0.8,0.7-1.2,1c-0.1,0.1-0.1,0.1-0.2,0.2h-0.2l-0.1-0.1c0-0.3,0-0.8,0-1.1c0-0.3,0-0.7,0.1-1c0.3-0.7,0.7-1.3,1.4-1.7
		c0.6-0.3,1.8-0.6,2.4-0.7c0.2,0,0.5-0.1,0.7-0.1l0.1-0.1c0-0.2,0.1-0.4,0-0.6c-0.3-1.4-0.1-2.6,0.6-3.9c0.1-0.2,0.4-0.3,0.3-0.6
		C388.2,48.4,388.2,48.4,388.4,48.4z"/>
	<path class="st0" d="M332.5,144.2c0-0.8,0-1.5,0-2.3c0-1,0.1-2,0.1-3c0.1-0.3,0.1-0.8,0.1-1.1s0.1-0.7,0.1-1c0.1-0.5,0.1-1,0.3-1.5
		s0.2-1,0.4-1.5c0.1-0.4,0.2-1,0.4-1.4c0.4-0.8,0.8-1.7,1.4-2.4c0.6-0.8,1.7-1.8,2.4-2.2c0.7-0.3,1.5-0.7,2.2-0.7l0.1-0.1
		c0.3-0.1,0.3-0.1,0.4,0.3c0.3,1.4,0.1,2.7,0.1,4.1c0,0.5-0.2,0.9-0.1,1.3c0.1,0.4,0.1,0.9,0,1.3c-0.1,0.5,0,0.9-0.1,1.3
		c-0.1,0.8-0.2,1.5-0.3,2.2c-0.2,0.9-0.4,1.8-0.7,2.7c-0.3,0.8-0.9,1.9-1.3,2.4c-0.4,0.7-1.1,1-1.7,1.5c-1,0.8-1.9,1.5-2.6,2.6
		c-0.6,1-0.8,2.2-0.6,3.4c0.1,0.6,0.2,1.3,0.5,1.9c0.1,0.4,0.3,0.9,0.4,1.4c0.3,1.1,0.8,2.2,1.3,3.2c0.6,1.3,1.4,2.4,2.2,3.5
		c0.5,0.7,1.2,1.3,1.8,1.9c0.1,0.1,0.2,0.1,0.3,0c0.3-0.3,0.3-0.3,0.1-0.7c-0.3-0.6-0.4-1.1-0.6-1.7c-0.2-0.6-0.2-1.3-0.4-1.9v-0.1
		c-0.1-0.6-0.1-1.3-0.1-1.9c-0.2-1-0.1-1.9-0.1-2.9c-0.3-0.6,0-1.1,0-1.7s0.3-1,0.4-1.6c0.4-1.1,0.9-2.2,1.5-3.3
		c0.7-1.3,1.4-2.5,2.2-3.8c0.3-0.5,0.5-1,0.8-1.6c0.3-0.8,0.7-1.7,1.1-2.4c0.1-0.1,0.1-0.1,0.1-0.1l0.1,0.1c0.3,0.5,0.6,1,0.8,1.5
		c0.2,0.4,0.3,0.9,0.6,1.3s0.3,0.9,0.5,1.3c0.2,0.4,0.2,0.9,0.5,1.3c0,0.8,0.4,1.5,0.5,2.3c0.1,0.6,0.2,1.3,0.3,1.9
		c0.1,0.6,0.1,1.3,0,1.9c-0.1,1.1-0.3,2.2-0.8,3.2c-0.3,0.6-0.5,1.1-0.8,1.7c-0.4,0.8-0.8,1.5-1.4,2.2c-0.5,0.6-0.9,1.2-1.3,1.7
		c-0.2,0.3-1,1.9-1,2.2c-0.1,0.7-0.2,1.4-0.1,2.1c0.1,0.6,0.3,1.2,0.6,1.7c1.3,2,1.8,2.6,3.5,4.1c1,0.9,2,1.7,3.1,2.4
		c0.7,0.5,1.4,0.8,2.1,1.3c0.8,0.4,1.5,0.8,2.4,0.9c0.1,0,0.2,0.1,0.3,0.1c0-0.1,0.1-0.3,0-0.5c-0.1-0.1-0.1-0.2-0.1-0.3
		c0-1-0.5-1.9-1-2.7c-0.6-1-1.4-2-2.2-2.9c-0.5-0.5-0.8-1.3-1-2c-0.1-0.3,0.1-0.6-0.1-0.8c0-0.8-0.3-1.5-0.1-2.4
		c0.1-0.3,0.1-0.6,0.1-0.9c0.1-0.3,0.1-0.6,0.3-1c0.1-0.3,0.1-0.6,0.3-0.8c0.1-0.3,0.3-0.6,0.4-0.8c0.3-0.6,0.7-1,1-1.5
		c0.1-0.3,0.5-1.2,0.6-1.5c0.3-1.1,0.1-2.3,0.1-3.4c0-0.1,0.1-0.3-0.1-0.4l0.1-0.1c0.1,0.1,0.3,0.1,0.4,0.2c0.3,0.3,0.6,0.5,0.8,0.8
		c0.7,1,1.3,1.9,1.8,3.1c0.6,1.3,1.2,2.6,1.6,4c0.1,0.3,0.1,0.8,0.2,1.1c0.2,0.9,0.1,1.7,0.1,2.6c0.1,0.9-0.2,1.7-0.5,2.6
		c-0.3,0.8-0.5,1.5-0.7,2.4c-0.1,0.3-0.1,0.6-0.3,0.9c-0.1,0.3-0.2,0.6-0.2,1c0,0.3,0,0.7-0.1,1c-0.1,0.2-0.1,0.6,0.1,0.8
		c0.1,0.1,0.1,0.2,0,0.3c0,0.5,0.1,1,0.3,1.4c-0.1,0.3,0.3,0.4,0.3,0.7c0.6,0.6,1.1,1.1,1.9,1.5c0.8,0.3,1.5,0.8,2.3,1
		c0.6,0.1,1.1,0.4,1.7,0.4c0.2,0,0.5,0.1,0.7,0.1c0.2,0,0.5-0.1,0.6,0.1c0.1,0.1,0.2,0,0.3,0c1,0,1.9,0,2.9,0c0.4,0,0.8-0.2,1.3-0.1
		v-0.1c-0.1-0.1-0.2-0.3-0.3-0.3c-1.3-0.9-2.1-2-2.9-3.3c-0.4-0.8-0.8-1.5-1-2.4c-0.1-0.3-0.1-0.6-0.3-0.9c-0.1-0.3-0.1-0.6-0.2-0.9
		c-0.1-0.5,0-1-0.1-1.4c-0.2-0.5-0.1-1-0.1-1.5c-0.1-0.5,0-1,0-1.5c0-0.4,0.1-0.8,0.1-1.2c0-0.4-0.1-0.8,0-1.3
		c0.1-0.6,0.1-1.1,0.1-1.7c0-0.1,0.1-0.2,0.1-0.3l0.1-0.1c0.6,0.5,1.2,0.7,1.7,1.3c0.1,0.2,0.3,0.4,0.5,0.5c0.3,0.1,0.3,0.3,0.4,0.5
		c0.8,0.8,1.5,1.7,1.9,2.8c0.3,0.8,0.6,1.5,0.8,2.4c0.2,1,0.1,2.2,0.1,3.2c-0.3,1-0.1,2-0.1,3.1c0,0.8,0.3,1.4,0.8,2
		c0.3,0.3,0.6,0.7,0.9,1c0.3,0.4,0.8,0.5,1.2,0.8l0.1,0.1c0.4,0.1,0.9,0.1,1.3,0.1c0.5,0,1,0,1.4,0l0.2-0.1l-0.1-0.1
		c-0.2-0.3-0.4-0.7-0.6-1c-0.3-0.5-0.6-1-0.8-1.6c-0.3-0.7-0.5-1.4-0.6-2.2c-0.2-1-0.1-2.1-0.1-3.1c0-0.3,0.1-0.3,0.3-0.1
		c0.6,0.3,1.3,0.6,1.7,1.2c0.5,0.6,0.9,1.1,1.1,1.9c0.2,0.6,0.4,1.3,0.6,1.9c0.3,1.1,0.9,2.2,1.6,3.1c0.6,0.9,1.4,1.7,2.3,2.3
		c1.3,0.9,1.7,1.2,3.1,1.6c0.8,0.3,1.6,0.5,2.4,0.6c0.3,0.1,0.6,0.1,0.9,0.1c0.4,0,0.6,0.1,0.6,0.6c0,0.3,0,0.8,0,1.1
		c0,0.3,0,0.6-0.1,0.8c-0.3,0-0.7,0-1,0c-0.1,0-0.3-0.1-0.3-0.1c-0.3-0.1-0.6,0.1-0.8-0.1c-0.3-0.2-0.6,0.1-0.8-0.1
		c-0.2-0.1-0.6,0.1-0.8-0.2c-1-0.1-1.9-0.4-2.9-0.7c-0.6-0.2-1.3-0.5-1.9-0.7c-0.6-0.2-1.3-0.5-1.9-0.8c-0.6-0.3-1.3-0.6-1.9-0.8
		c-0.8-0.3-1.5-0.6-2.3-0.8c-0.7-0.1-1.4-0.3-2.1-0.4c-0.3-0.1-0.7-0.1-1-0.1c-0.6-0.1-1.3,0-1.9-0.1c-0.4-0.1-0.8-0.1-1.3-0.1
		c-0.1,0-0.3-0.1-0.3,0c-0.2,0.3-0.6,0-0.8,0.2c-0.7,0.1-1.2,0.6-1.5,1.1c-0.6,0.9-1.3,1.7-2,2.4c-0.7,0.6-1.6,1.1-2.5,1.4
		c-0.6,0.2-1.3,0.4-2,0.1c-0.6,0-1.3-0.2-1.8-0.4c-1.3-0.6-2.4-1.3-3.5-2.1c-0.6-0.5-1.3-0.9-1.9-1.5c-0.3-0.3-0.8-0.6-1.3-1
		c-0.1-0.1-0.1-0.2,0.1-0.3c0.4-0.3,0.9-0.3,1.4-0.4c1.4-0.4,2.8-0.3,4.2-0.3c0.3,0,0.6,0.1,0.8,0.1c0.3,0,0.6-0.1,0.8,0.1
		c0.6-0.1,1.3,0.2,1.9,0.3c0.6,0.1,1.2,0.1,1.7,0.3c0.3,0.1,0.6-0.1,0.9,0.1l0.1-0.1c0-0.4,0-0.9-0.3-1.2c-0.1-0.1-0.2-0.2-0.3-0.3
		c-0.8-0.4-1.4-0.9-2.2-1.3c-1.3-0.7-2.4-1.4-3.7-1.9c-1.5-0.8-3.1-1.4-4.7-1.9c-0.6-0.2-1.3-0.4-1.9-0.3c-0.2,0-0.4,0.1-0.6,0.2
		c-0.6,0.7-1.3,1.4-1.6,2.2c-0.5,1-1.3,1.5-2.2,1.9c-0.6,0-1.1,0.3-1.7,0.3c-0.3,0-0.6,0.1-0.9,0.1c-1.4-0.1-2.5-0.6-3.5-1.5
		c-0.7-0.7-1.3-1.5-1.7-2.3c-0.6-1-1.3-1.9-2.2-2.6c-0.6-0.4-1.2-0.8-1.8-1c-0.1-0.1-0.2-0.1,0-0.1c0.7-0.5,1.5-0.7,2.3-0.7
		c0.6-0.1,1.3,0.1,1.8,0.2c0.6,0.1,1.2,0.3,1.7,0.6c0.8,0.3,1.5,0.7,2.2,0.9c0.6,0.2,1.3,0.5,2,0.6c0.6,0.1,1.3,0.1,1.9,0.1
		c0.3,0,0.7-0.1,1-0.3c0.2-0.1,0.3-0.2,0.6-0.3c0.6-0.3,0.6-0.3,0.1-0.8c-0.6-0.7-1.3-1.3-1.7-2c-0.1-0.1-0.2-0.2-0.3-0.3
		c-1-1-2-2-3-3c-0.9-0.9-1.9-1.7-3-2.4c-0.3-0.2-0.7-0.4-1-0.5c-0.4-0.1-0.8,0.1-1.2,0.2c-0.3,0.1-0.6,0.2-0.8,0.2
		c-0.1,0-0.2,0.1-0.3,0.2c-0.6,0.4-1.2,0.8-1.9,0.9c-0.4,0.1-0.8,0.1-1.3,0.1c-0.3,0-0.6,0-0.9,0c-1,0.1-2-0.2-2.9-0.6
		c-0.6-0.3-1.3-0.6-1.8-1.2c-0.3-0.3-0.6-0.6-1-1c-0.6-0.6-1-1.3-1.5-2c-0.5-0.8-0.9-1.6-1.3-2.4c-0.2-0.3-0.3-0.8-0.5-1.1
		c0-0.1,0-0.1,0.1-0.3l0.1,0.1c0.2,0.1,0.5,0.3,0.7,0.4c0.8,0.6,1.7,1,2.6,1.5c0.3,0.1,0.5,0.2,0.8,0.3c0.3,0.1,0.6,0.2,0.9,0.1
		c0.9-0.1,1.8,0.2,2.7,0.1c0.6-0.1,1.3-0.2,1.9-0.3c0.1,0,0.1-0.1,0.3-0.1c0.8-0.1,1.5,0,2.2,0.1c0.4,0.1,0.8,0.3,1.3,0.4
		c0.1,0,0.1,0.1,0.2,0.1c0-0.1-0.1-0.1-0.1-0.2c-0.4-0.8-0.8-1.7-1.3-2.5c-0.4-0.8-0.8-1.7-1.3-2.6s-1-1.7-1.6-2.4
		c-0.3-0.4-0.6-0.8-1-1.2c-0.4-0.4-0.9-0.8-1.5-1.1c-0.3-0.2-0.8-0.3-1.1-0.3c-0.8-0.1-1.6,0.1-2.4,0.3c-0.3,0.1-0.6-0.1-0.8,0.2
		c-1.5,0.1-2.9-0.1-4-1c-0.8-0.6-1.5-1.3-2-2.2c-0.7-1.1-1.3-2.3-1.7-3.6c-0.1-0.4-0.3-0.8-0.5-1.3c-0.2-0.8-0.4-1.5-0.6-2.4
		c-0.1-0.5-0.1-1-0.4-1.5c-0.1-0.1,0-0.2,0-0.3c0-0.2,0-0.3,0.3-0.3c0.5,0,1-0.1,1.4,0c0.6,0.1,1,0.1,1.6,0.3c0.5,0.1,1,0.3,1.4,0.6
		c1,0.6,1.9,1.2,2.6,2.1c0.7,0.9,1.3,1.9,1.9,2.8c0.6,0.8,1.3,1.6,2.4,1.9c0.5,0.2,0.9,0.3,1.4,0.4c0.1,0,0.2,0,0.2-0.2
		c0.1-0.5-0.1-0.9-0.2-1.3c-0.1-0.6-0.3-1.3-0.5-1.9c-0.1-0.6-0.3-1.2-0.4-1.7c-0.1-0.5-0.3-1-0.5-1.5c-0.2-0.5-0.3-1-0.5-1.5
		c-0.3-0.6-0.5-1.3-0.8-1.9c-0.1-0.1-0.1-0.3-0.3-0.4c-0.1-0.2-0.3-0.3-0.6-0.3c-1,0.1-2-0.3-3-0.8c-0.2-0.1-0.5-0.3-0.6-0.5
		c-0.6-0.6-1.3-1-1.8-1.7c-0.6-0.7-1.2-1.3-1.3-2.3c-0.4-0.4-0.4-1-0.6-1.5c-0.1-0.5-0.3-1-0.1-1.5c-0.3-1-0.1-2.1-0.1-3.1
		c0-0.3,0.1-0.7,0.1-1c0-0.3-0.1-0.8,0-1.1c0.1-0.5,0.1-1,0.1-1.5c0-0.3,0.2-0.7,0.1-1c-0.1-0.7-0.1-1.4-0.1-2.2c0-0.7,0-1.4,0-2.1
		c0-0.3-0.1-0.6-0.1-0.9c0-0.2,0.1-0.2,0.3-0.2c0.1,0,0.1,0,0.2,0c0.8,0.3,1.6,0.6,2.2,1.3c0.3,0.3,0.6,0.6,0.8,0.8
		c0.2,0.3,0.5,0.5,0.6,0.8c0.5,1,1,1.9,1.3,3c0.2,0.8,0.5,1.6,0.6,2.4c0.1,0.6,0.2,1.3,0.3,1.9c0.1,0.6,0,1.2,0.1,1.7
		c0.3,1.5,0.1,3.1,0.1,4.6c0,0.5,0.1,1,0.6,1.3c0.6,0.5,1.1,0.4,1.4-0.2c0.4-0.7,0.6-1.5,0.8-2.3c0.2-0.8,0.3-1.5,0.4-2.3
		c0.1-0.3,0-0.8,0.1-1c0.1-0.3,0-0.7,0.1-1c0.3-0.6-0.1-1.1,0.3-1.7c0.1-0.1,0-0.2,0-0.3c0-1.3,0-2.5,0-3.8c-0.1-1-0.3-1.9-0.7-2.9
		c-0.2-0.3-0.5-0.7-0.8-0.9c-0.6-0.3-1.2-0.8-1.7-1.3c-0.3-0.3-0.6-0.8-1-1.2c-0.4-0.6-0.6-1.3-1-1.8c0-0.8-0.5-1.4-0.4-2.2
		c-0.3-0.5-0.1-1-0.2-1.5c-0.1-0.5-0.1-1-0.1-1.5c0.1-1.1,0.4-2.1,1-3.1c0.6-1,1.3-2,1.6-3.1c0.1-0.6,0.3-1.2,0.3-1.7
		c0.1-0.6,0-1.3,0.1-1.9c0.1-0.5,0.1-1,0.1-1.5c0-0.2-0.1-0.5-0.1-0.7l0.1-0.1h0.2l0.1,0.1c0.2,0.2,0.3,0.5,0.6,0.7
		c0.2,0.2,0.4,0.3,0.6,0.7c0.1,0.2,0.3,0.4,0.6,0.6c0.7,0.7,1.3,1.5,1.5,2.5c0.1,0.3,0.2,0.6,0.2,0.8c0.1,0.4,0.2,0.9,0.1,1.3
		c0.3,1,0.1,2,0.1,3c0,0.6-0.1,1.2-0.3,1.7c-0.2,0.8-0.5,1.6-0.8,2.4c-0.1,0.3-0.1,0.8-0.1,1.1c-0.1,0.5-0.1,0.9-0.1,1.4
		c-0.1,0.5,0.1,1,0.1,1.5c0.1,0.2,0.3,0.4,0.5,0.6c0.1-0.1,0.1-0.1,0.1-0.1c0.3-0.8,0.8-1.5,1.1-2.2c0.6-1.2,1.1-2.4,1.7-3.5
		c0.6-1,1.1-1.9,1.6-2.9c0.4-0.8,0.7-1.6,1-2.4c0.1-0.2,0.1-0.5,0.2-0.7c0.1-0.2,0.1-0.5,0.1-0.7c0.1-0.5-0.1-1-0.2-1.4
		c-0.1-0.4-0.3-0.8-0.5-1.3l-0.1-0.1c-0.6-0.4-0.6-1-0.8-1.7c-0.2-0.8-0.3-1.5-0.6-2.3c-0.1-0.5-0.1-1-0.4-1.5c-0.1-0.1,0-0.2,0-0.3
		c0-0.5,0-1,0-1.5c0-0.6,0.2-1.5,0.6-2.3c0.1-0.3,0.3-0.8,0.4-1.1c0.6-1,1.2-1.9,1.9-2.9c0.9-1.3,1.7-2.5,2.1-4
		c0.1-0.5,0.3-1,0.3-1.6c0.1-0.4,0.1-0.8,0.1-1.2l0.3-0.3l0.2,0.1c0.6,0.6,1.1,1.3,1.5,2.2c0.2,0.6,0.5,1.2,0.7,1.8
		c0.2,0.6,0.3,1.3,0.6,1.9c0.2,0.6,0.1,1.2,0.1,1.8c-0.1,0.6-0.3,1.2-0.5,1.7c-0.4,1.1-1,2.1-1.5,3.1c-0.3,0.8-0.8,1.5-1.2,2.2
		c-0.4,0.9-0.8,1.8-1,2.8c-0.1,0.5-0.1,1-0.1,1.4c0,0.2,0.1,0.3-0.1,0.5c-0.1,0.1-0.1,0.3,0,0.3c0.2,0.3,0.1,0.6,0.1,0.8l0.1,0.1
		l0.1-0.1c0.3-0.3,0.7-0.6,0.8-1c0.1-0.1,0.2-0.2,0.3-0.3c0.6-0.6,1.1-1.3,1.6-1.9c0.3-0.3,0.6-0.7,1-1.1c0.6-0.8,1.3-1.5,1.9-2.2
		c0.7-0.8,1.3-1.7,2.1-2.6c0.6-0.7,1-1.4,1.6-2.1c0.3-0.3,0.4-0.6,0.7-1c0.3-0.4,0.1-0.8-0.1-1.1c-0.3-0.6-0.4-1.2-0.6-1.8
		c-0.1-0.4,0-0.8-0.1-1.2c-0.2-0.8-0.1-1.7-0.1-2.5c-0.1-1.5,0.4-2.9,1.1-4.1c0.6-1,1.3-1.9,2.1-2.6c1.3-1,2.7-1.9,4.2-2.6
		c0.6-0.3,1.2-0.6,1.8-0.8c0.3-0.1,0.3,0,0.3,0.3c0,0.4,0,0.8,0,1.2c0,0.3-0.1,0.6-0.1,0.8s0.1,0.6,0,0.8c-0.2,1-0.3,2-0.7,3.1
		c-0.3,0.8-0.6,1.5-1.1,2.2c-0.5,0.7-1.1,1.3-1.8,1.9c-1,0.7-1.9,1.7-2.4,2.7c-0.3,0.5-0.5,1-0.6,1.7c0,0.1-0.1,0.1-0.1,0.3
		c0,0.1,0,0.2,0,0.2c0.1,0.1,0.2,0.2,0.3,0.3c0.1,0.1,0.2,0.1,0.4,0.1c1-0.5,2-0.9,2.9-1.4c0.1,0,0.1,0,0.2,0c0,0.1,0,0.2-0.1,0.2
		c-0.5,0.6-1,1.3-1.5,1.9c-0.2,0.3-0.4,0.6-0.6,0.8c-0.1,0.1-0.3,0.2-0.3,0.3c0,0.1,0.2,0.3,0.2,0.4c0.3,0.7,1.3,1.2,1.9,1
		c0.6-0.1,1.3-0.3,1.9-0.7c0.8-0.5,1.6-1,2.5-1.3c0.5-0.1,1-0.4,1.5-0.6c0.3-0.1,0.7-0.3,1-0.2c0.2,0,0.4-0.1,0.6-0.1
		c0.9-0.1,1.7,0.1,2.6,0.3c0.4,0.1,0.8,0.3,1.2,0.5s0.7,0.4,1,0.6c0.1,0.1,0.1,0.1,0.3,0.2c0.1,0.1,0.1,0.1,0,0.2l-0.1,0.2
		c-0.5,0.6-1,1.2-1.5,1.7c-0.6,0.4-1.1,0.9-1.8,1c-0.7,0.5-1.5,0.5-2.3,0.8c-0.3,0.1-0.6,0.1-0.9,0.1c-0.5,0.1-1,0.1-1.5,0.1
		c-0.3,0-0.6-0.1-0.8,0.1c-0.1,0.1-0.3,0.1-0.5,0c-0.6-0.2-1.3-0.1-1.9-0.3c-0.6-0.2-1-0.5-1.6-0.7c-0.5-0.3-1-0.6-1.5-0.8
		c-0.6-0.2-1.2-0.4-1.8-0.6s-1.1,0.2-1.6,0.6c-0.6,0.3-1.1,0.8-1.6,1.3c-0.3,0.3-0.7,0.7-1,1c-0.9,0.9-1.7,1.9-2.5,2.9
		c-0.8,1-1.6,2.1-2.3,3.2c-0.3,0.4-0.5,0.8-0.7,1.3c-0.1,0.2-0.1,0.3,0,0.5c0.2,0.2,0.2,0.2,0.4-0.1c0.2-0.2,0.3-0.4,0.6-0.6
		c0.8-0.6,1.6-1.3,2.6-1.7c0.8-0.3,1.5-0.7,2.4-0.7c0.4-0.3,0.8-0.1,1.3-0.3c0.4-0.1,0.9,0,1.4,0c0.5,0,1-0.1,1.4,0
		c0.8,0.2,1.6,0.1,2.4,0.4c0.1,0.1,0.3,0,0.4,0c0.3,0.1,0.3,0.2,0.2,0.5c-0.3,0.5-0.6,1-1,1.5c-0.6,0.6-1,1.2-1.7,1.7
		c-0.6,0.5-1.3,0.8-1.9,1.3c-0.4,0.2-0.8,0.5-1.3,0.7c-0.6,0.3-1.2,0.6-1.8,0.7c-0.7,0.2-1.3,0.5-2,0.5c-0.3,0.3-0.8,0-1.2,0.3h-0.2
		c-0.4-0.3-0.8-0.1-1.3-0.1c-0.7,0-1.3-0.1-1.9-0.3c-0.3-0.1-0.6-0.1-0.8,0.1c-0.2,0.3-0.4,0.6-0.6,0.9c-0.6,1-1.2,2-1.6,3.1
		c-0.1,0.4-0.3,0.8-0.5,1.3c-0.1,0.3-0.2,0.5-0.2,0.8c-0.1,0.4-0.1,0.8-0.1,1.3c0,0.2-0.1,0.4-0.1,0.6c0,0.1,0,0.1,0,0.2l0.1-0.1
		c0.1-0.1,0.3-0.2,0.4-0.3c0.3-0.3,0.6-0.6,0.9-0.9c0.6-0.6,1.3-1,2-1.5c1-0.7,2.2-1,3.4-1.5c0.4-0.1,1-0.2,1.4-0.3
		c0.5-0.1,1-0.3,1.5-0.1c0.7-0.3,1.4-0.1,2.2-0.1c0.4,0,0.8,0.1,1.1,0.1s0.8-0.1,1,0.1c0.6-0.1,1.1,0.2,1.7,0.3
		c0.1,0,0.1,0.1,0.2,0.1c0.1,0.1,0.3,0.1,0.3,0.1c-0.1,0.1-0.1,0.3-0.2,0.5c-0.2,0.3-0.4,0.6-0.7,0.8s-0.6,0.6-0.8,0.8
		c-1.1,1.2-2.5,2.1-4,2.9c-0.7,0.3-1.4,0.6-2.2,0.8c-0.3,0.1-0.6,0.1-0.8,0.1c-0.8,0.1-1.5,0.1-2.2-0.2c-0.3-0.1-0.6-0.1-0.8-0.1
		c-0.4-0.1-0.8-0.1-1.3-0.2c-0.7-0.2-1.4-0.1-2.1-0.1c-0.6,0-1,0.1-1.5,0.3c-1,0.4-1.6,1.3-1.9,2.2c-0.2,0.6-0.3,1.2-0.6,1.7
		c-0.2,0.5-0.3,1-0.4,1.5c-0.2,0.6-0.2,1.3-0.4,1.9v0.1c-0.1,0.7-0.1,1.4-0.1,2.1c0,0.8-0.2,1.7-0.1,2.6c0,0.8,0,1.7,0,2.6
		c0,0.3,0.2,0.7,0.1,1l0.5,0.3l0.1-0.1c0.5-1.8,1-3.2,1.7-4.7c0.4-0.8,0.8-1.5,1.4-2.1c0.5-0.6,0.8-1.1,1.4-1.6
		c1.1-1.1,2.4-1.9,3.8-2.6c0.3-0.1,0.6-0.3,1-0.3c0.3-0.1,0.6-0.1,0.9-0.1c0.3,0,0.7,0,1,0.1c0,0.4,0.1,0.8,0,1.2
		c-0.1,0.4-0.1,0.8-0.2,1.3c-0.3,1.3-1,3.1-1.8,4.5s-1.9,2.6-3.1,3.6c-0.7,0.7-1.6,1.2-2.5,1.7c-0.8,0.4-1.6,0.7-2.4,1.1
		c-0.3,0.1-0.7,0.1-1,0.3c-1,0.5-1.7,1.4-1.9,2.4c-0.1,0.4,0,0.8-0.1,1.2c-0.1,0.4-0.1,0.8-0.1,1.3c0,0.7,0.1,1.3,0.3,2
		c0.3,1,0.6,2.1,0.8,3.1c0.1,0.3,0.2,0.6,0.3,0.8c0.2,0.7,0.4,1.4,0.6,2.1c0.5,1.4,1,2.7,1.7,4c0.6,1.1,1.2,2.1,2.1,2.9l0.1,0.1
		v-0.1C332.5,146.6,332.5,145.4,332.5,144.2z"/>
	<path class="st0" d="M410.1,117.8c0,7,0,14,0,20.9c0,0.8,0.2,1.6,0.4,2.4c0.1,0.3,0.3,0.8,0.8,1c0.8,0.5,1.5,0.8,2.4,0.8
		c0.5,0,1,0.2,1.5,0.1l0.1,0.1v0.1c0,0.3,0,0.6-0.1,1c-0.3,0-0.6,0-0.9,0c-6,0-12,0-17.9,0c-0.2,0-0.3,0-0.6,0
		c-0.1,0-0.2-0.1-0.2-0.2c0-0.3,0-0.6,0-0.8c0-0.2,0.1-0.2,0.3-0.2c0.6-0.1,1.3-0.1,1.9-0.1c0.7-0.1,1.4-0.3,1.9-0.8
		c0.3-0.3,0.6-0.6,0.7-1.1c0.2-0.7,0.3-1.4,0.4-2.1c0.3-3.2,0.1-6.5,0.1-9.7c0-3.3,0-6.5,0-9.7c0-0.2,0.1-0.6-0.1-0.7
		s-0.4-0.1-0.7-0.1c-2.4,0-4.9,0-7.2,0c-0.3,0-0.3,0-0.3,0.3c0,1.7,0,3.3,0,4.9c0,8.1,0,16.2,0,24.3c0,0.3,0.1,0.6,0.1,1
		c0,0.3,0,0.6,0.1,0.9c0.1,0.3,0.1,0.7,0.1,1c0.5,1.3,1.2,2.2,2.8,2.5c0.8,0.1,1.7,0.3,2.5,0.3c3.3,0,6.7,0,10,0c0.3,0,0.7,0,1-0.1
		c0.3-0.1,0.7,0,1-0.1s0.6-0.1,0.8-0.1c0.3-0.1,0.7-0.2,1-0.3c1-0.3,2-0.9,2.9-1.7c0.3-0.3,0.7-0.7,1-1.1c0.7-0.7,1.1-1.5,1.5-2.4
		c0.2-0.3,0.4-0.8,0.6-1.2c0.2-0.5,0.4-1,0.6-1.6c0.3-0.8,0.6-1.5,0.8-2.4c0.2-0.6,0.3-1.2,0.6-1.8c0-0.1,0.1-0.2,0.1-0.3
		c0-0.1,0.1-0.2,0.2-0.2c0.1,0,0.3,0,0.4,0c0.2,0,0.4,0,0.6,0.1c0,0.3,0,0.6-0.1,0.8c0,0.1-0.1,0.1-0.1,0.3c0,0.6,0.1,1-0.1,1.5
		c0.1,0.9-0.2,1.7-0.1,2.6c0,0.3-0.1,0.6-0.1,0.8c0,0.3,0.1,0.6,0,0.8c-0.2,0.6,0,1-0.1,1.6c-0.1,0.6,0,1.2-0.1,1.7
		c-0.1,0.5-0.1,0.9-0.1,1.4c0,0.3-0.2,0.7-0.1,1c0.1,0.3,0.1,0.7-0.1,1c-0.1,0.1-0.1,0.3,0,0.6c0.1,0.6-0.2,1.1-0.1,1.7
		c0,0.1-0.1,0.1-0.2,0.1c-0.1,0-0.3,0-0.5,0c-13.5,0-27.1,0-40.6,0c-0.6,0-0.7,0-0.6-0.6c0-0.3,0.1-0.5,0.1-0.8c0.2,0,0.5-0.1,0.7,0
		c0.3,0.1,0.7-0.1,1-0.1c0.3,0,0.7,0,1-0.1c0.9-0.3,1.7-0.9,1.9-1.9c0.1-0.6,0.2-1.1,0.3-1.7c0.2-1.8,0.1-3.6,0.1-5.4
		c0.1-1.8,0-3.5,0-5.4s0-3.6,0-5.4s0-3.6,0-5.4c0-1.8,0-3.5,0-5.4c0-1.8,0-3.6,0-5.4c0-0.1,0-0.2,0-0.3c0-0.1,0-0.2-0.2-0.2
		c-0.1,0-0.2,0-0.3,0c-2.4,0-4.9,0-7.2,0c-0.1,0-0.2,0-0.3,0s-0.1,0.1-0.1,0.1c0,0.1,0,0.3,0,0.5c0,5.9,0,11.8,0,17.8
		c0,0.4,0.1,0.8,0.1,1.2c0,0.4-0.1,0.8,0,1.2c0.1,0.6,0.2,1,0.4,1.6c0.1,0.3,0.3,0.7,0.7,0.9c0.3,0.3,1,0.5,1.5,0.7
		c0.3,0.1,0.7,0.1,1,0.1c0.2,0,0.3,0.1,0.6,0.1c0.3,0.1,0.6,0.1,1,0.1c0,0.3,0,0.6,0,1c0,0.2-0.1,0.2-0.3,0.2c-0.1,0-0.2,0-0.3,0
		c-6.1,0-12.2,0-18.4,0c-0.1,0-0.2,0-0.3,0c-0.3,0-0.3-0.1-0.3-0.3V144c0-0.3,0-0.6,0-0.8c0.3,0,0.6,0,0.8-0.1
		c0.2,0,0.5-0.1,0.7-0.1c0.2,0,0.5,0.1,0.7-0.1c0.2-0.1,0.6,0.1,0.7-0.2c1-0.2,1.7-0.9,2-1.9c0.1-0.3,0.1-0.6,0.2-1
		c0.2-1.3,0.1-2.6,0.1-4c0-1.3,0-2.7,0-4c0-11.6,0-23.2,0-34.8c0-0.7-0.1-1.4-0.3-2.1c-0.3-1-1-1.7-2-2c-0.8-0.2-1.7-0.3-2.6-0.3
		c-0.1,0-0.3,0-0.3-0.2c0-0.3,0-0.8,0-1.1c0.3,0,0.8-0.1,1.1-0.1c6,0,11.9,0,17.9,0c0.1,0,0.3,0,0.4,0s0.2,0,0.2,0.2
		c0,0.4,0,0.8,0,1.2c-0.3,0-0.8,0.1-1.1,0.1c-0.8,0-1.7,0.1-2.4,0.5c-1,0.5-1.3,1.3-1.5,2.3c-0.1,0.7,0,1.4-0.1,2.1
		c-0.2,1.5-0.1,2.9-0.1,4.4c0,1.5,0,3,0,4.5c0,1.5,0,3,0,4.5c0,1.5,0,3,0,4.5c0,0.3,0,0.3,0.3,0.3c2.5,0,5,0,7.5,0
		c0.3,0,0.3-0.1,0.3-0.3c0-1.9,0.1-3.8,0-5.6c-0.1-0.8-0.1-1.7-0.4-2.4c-0.3-0.9-0.8-1.5-1.7-1.9c-0.3-0.1-0.6-0.1-0.8-0.2
		c-0.3-0.1-0.7-0.1-1-0.1c-0.3,0-0.6,0-1,0c-0.2,0-0.3-0.1-0.3-0.3c0-0.3,0-0.6,0-0.9c0-0.2,0.1-0.2,0.3-0.2c0.1,0,0.2,0,0.3,0
		c6.3,0,12.5,0,18.7,0c0.1,0,0.3,0,0.4,0c0.1,0,0.2,0.1,0.2,0.1c0,0.4,0,0.8-0.1,1.3c-0.3,0-0.7,0-1,0c-0.8,0-1.5,0.1-2.2,0.3
		c-0.9,0.3-1.7,0.8-1.9,1.8c-0.1,0.5-0.2,1-0.3,1.5c-0.2,1.1-0.1,2.2-0.1,3.3c0,1.1,0,2.2,0,3.3c0,0.3,0.1,0.3,0.3,0.3
		c2.6,0,5.1,0,7.8,0c0.2,0,0.3-0.1,0.3-0.3c0-1.5,0-2.9,0-4.4c0-4.2,0-8.4,0-12.6c0-0.8-0.1-1.6-0.1-2.4c0-0.4-0.1-0.9-0.3-1.3
		c-0.1-0.3-0.3-0.7-0.6-1c-0.3-0.3-0.8-0.6-1.3-0.8c-0.8-0.3-1.5-0.3-2.3-0.3c-0.3,0-0.6,0.1-0.7-0.1c-0.1-0.1-0.1-0.5-0.1-0.8
		c0-0.1,0-0.2,0-0.3c0-0.3,0.1-0.3,0.3-0.3c0.1,0,0.2,0,0.3,0c6.2,0,12.3,0,18.5,0c0.1,0,0.2,0,0.3,0c0.1,0,0.2,0,0.2,0.2
		c0,0.4,0,0.8,0,1.2c-0.3,0-0.8,0.1-1.1,0c-0.8,0-1.6,0.1-2.3,0.4c-0.8,0.3-1.3,1-1.5,1.8c-0.1,0.3-0.1,0.6-0.2,0.8
		c-0.2,1.1-0.1,2.3-0.1,3.4C410.1,105.4,410.1,111.6,410.1,117.8z"/>
	<path class="st0" d="M449.3,142.2c6.1-17,6.1-17.4,6.1-17.7c-0.1-0.9,0.1-1.9,0.2-2.8c0.1-0.6,0.2-1.3,0.3-1.9c0.2-1,0.6-1.9,1-2.8
		c0.6-1.1,1.4-1.9,2.4-2.6c0.6-0.4,1.2-0.6,1.8-0.8c0.2-0.1,0.3,0,0.3,0.3c0,0.4,0.1,0.8-0.1,1.2c0.3,0.7,0,1.4,0.1,2
		c0.1,0.4,0.1,0.8,0.1,1.1c0.1,0.3,0.1,0.6,0.1,0.9s-0.1,0.6,0.1,0.9c0.1,0.1,0,0.3,0,0.4c0,1.3,0,2.6,0,3.8c0,0.7-0.1,1.4-0.2,2.1
		c-0.2,1.4-0.7,2.8-1.6,3.8c-0.7,0.8-1.4,1.5-2.2,2.2c-0.5,0.3-0.9,0.8-1.4,1c-0.6,0.4-1.3,0.8-2,0.8c-0.1,0-0.3,0.2-0.5,0.1
		c-0.3-0.1-0.6,0.1-0.8,0.2c-0.3,0.2-0.5,0.4-0.6,0.8c-0.2,0.8-0.5,1.7-0.7,2.5c-0.2,0.7-0.4,1.5-0.6,2.2s-0.3,1.4-0.5,2.2
		c-0.1,0.6-0.2,1.3-0.4,1.9c-0.1,0.3,0.1,0.5,0.4,0.4c1-0.3,1.9-0.6,2.9-1.5c0.6-0.6,1-1.3,1.5-2c0.6-0.9,1.2-1.7,1.9-2.4
		c0.6-0.5,2.1-1.4,3-1.5c0.3-0.3,0.7-0.1,1-0.2c0.3-0.2,0.7-0.1,1-0.1c0.3,0,0.7,0,1,0c0.1,0,0.2,0,0.2,0.2c-0.1,0.4,0,0.9-0.1,1.3
		c-0.2,0.6-0.3,1-0.4,1.6c-0.2,1-0.6,1.9-0.9,2.8c-0.2,0.6-0.4,1.3-0.8,1.8c-0.5,0.8-0.9,1.7-1.6,2.4c-0.1,0.2-0.3,0.4-0.5,0.6
		c-0.8,0.8-1.7,1.4-2.9,1.6c-0.8,0.1-0.8,0.1-1.7,0c-0.3-0.1-0.6-0.1-0.9-0.2c-0.3-0.1-0.6-0.1-0.9-0.3c-0.6,0-1.3-0.1-1.9,0
		c-0.5,0.1-1,0.3-1.3,0.6c-0.6,0.4-1.2,0.8-1.6,1.5c-0.1,0.3-0.5,0.6-0.7,0.8c-0.3,0.4-0.6,0.8-0.8,1.3c-0.6,0.8-1,1.7-1.5,2.5
		c-0.3,0.4-0.5,0.9-0.7,1.4c-0.2,0.5-0.6,0.9-0.6,1.5c-0.1,0.2-0.3,0.3-0.3,0.6c0.2-0.1,0.5-0.1,0.7-0.1c0.9-0.3,1.8-0.5,2.7-0.4
		c0.3,0,0.7,0,0.9,0.1c0.3,0.1,0.6,0,0.8,0.2c0.3,0.1,0.6,0.1,0.9,0.1c0.3,0,0.6,0.1,0.9,0c0.8-0.1,1.5-0.1,2.3-0.3
		c0.4-0.1,0.8-0.3,1.1-0.5c1-0.5,1.9-1,2.9-1.7c0.1-0.1,0.3-0.1,0.6-0.2c-0.1,0.2-0.1,0.3-0.1,0.6c-0.5,1-1,2-1.5,3
		c-0.8,1.4-1.7,2.7-3,3.8c-0.8,0.6-1.6,1.2-2.6,1.3c-0.2,0.3-0.6,0.1-0.8,0.2c-0.3,0.1-0.6,0.1-0.9,0.1c-0.3,0-0.6,0.1-0.9,0
		c-0.8-0.1-1.6-0.3-2.3-0.7l-0.1-0.1c-0.4-0.5-1-0.7-1.5-0.8c-0.1,0-0.3-0.1-0.3-0.1c-0.3-0.2-0.7-0.3-1-0.3
		c-0.4,0.1-0.8,0.3-1.1,0.5c-0.7,0.5-1.3,1-1.9,1.5c-1.5,1.3-2.7,2.6-4,4c-0.8,0.8-1.3,1.6-2.1,2.4c-0.1,0.1-0.1,0.2-0.1,0.3
		c-0.1,0.1-0.1,0.1,0,0.2c0.2,0.3,0.5,0.3,0.8,0.5c0.6,0.3,1.5,0.1,2.3,0.1c0.8-0.1,1.4-0.4,2.1-0.6c0.4-0.1,0.8-0.3,1.2-0.5
		c0.8-0.3,1.5-0.6,2.3-0.8c0.8-0.3,2.4-0.5,3.2-0.3c0.7,0.1,1.4,0.4,2,0.8c0.1,0.1,0.1,0.2,0,0.3c-0.4,0.2-0.9,0.4-1.3,0.8
		s-0.8,0.6-1.1,1c-0.5,0.6-0.8,1.2-1.3,1.8c-0.3,0.5-0.7,1-1,1.5c-0.5,0.8-1.2,1.4-1.9,1.8c-0.5,0.3-1,0.4-1.5,0.4
		c-0.1,0-0.3,0.1-0.3,0.1c-0.2,0-0.5,0.1-0.6,0c-0.2-0.1-0.4-0.1-0.6-0.1c-1.3-0.1-2.4-0.5-3.3-1.4c-0.3-0.3-0.6-0.7-0.8-1.1
		c-0.1-0.3-0.3-0.7-0.7-0.9c-0.5-0.3-0.9-0.8-1.3-1.2c-0.1-0.1-0.3-0.1-0.4-0.2c-0.9-0.1-1.7,0.2-2.6,0.5c-0.6,0.1-1,0.3-1.6,0.6
		c-0.5,0.2-1,0.4-1.5,0.6c-0.6,0.2-1.1,0.6-1.7,0.8c-0.8,0.4-1.6,0.7-2.4,1.1c-1.3,0.7-2.6,1.3-3.8,2.2c-0.1,0.1-0.3,0-0.2,0.2
		c0,0.1,0,0.3,0,0.3c0.1,0.2,0.3,0.3,0.5,0.2c0.4-0.1,0.8-0.3,1.3-0.3c0.2-0.3,0.6,0.1,0.9-0.3c0.4-0.1,0.9-0.1,1.3-0.1
		c0.3-0.1,0.6-0.1,0.8-0.1c0.3,0,0.6,0.1,0.9,0c0.5-0.2,1-0.1,1.5-0.1c0.5,0,1-0.1,1.5,0c0.4,0.1,0.8,0.1,1.1,0.1
		c1,0.1,2,0.3,2.9,0.9c0.1,0.1,0.3,0.1,0,0.2c-0.3,0.1-0.6,0.4-0.8,0.7c-0.7,0.6-1.5,1.2-2.3,1.7c-1,0.7-2.1,1.3-3.2,1.9
		c-0.6,0.3-1.3,0.4-1.9,0.6c-0.8,0.2-1.5,0.1-2.3,0.1c-0.6,0-1.2-0.3-1.7-0.6c-0.8-0.4-1.5-1-2.1-1.7c-0.6-0.6-1-1.3-1.5-1.9
		c-0.4-0.6-0.9-0.8-1.6-0.9c-0.8-0.1-1.5,0-2.3,0c-0.3,0-0.7,0.1-1,0.1s-0.8-0.1-1,0c-0.4,0.2-0.8,0-1.3,0.2
		c-0.3,0.1-0.8,0.1-1.2,0.2c-1,0.3-2,0.5-3,0.8c-0.8,0.2-1.5,0.5-2.4,0.6c-0.7,0.2-1.4,0.4-2,0.8c-0.2,0.1-0.2,0.1-0.3-0.1
		c-0.1-0.5-0.1-0.9-0.3-1.4c-0.1-0.5-0.1-1-0.1-1.4c0-0.1,0-0.2,0.1-0.2c0.8-0.1,1.9-0.6,2.6-1c0.4-0.3,0.8-0.7,1-1.2
		c0.4-0.8,0.6-1.6,0.9-2.4c0.3-1.2,0.6-2.4,1.1-3.4c0.4-0.7,0.9-1.4,1.6-1.8c0.1-0.1,0.4,0,0.3,0.1c0,0.3,0.1,0.5,0.1,0.7
		s0.1,0.4,0.1,0.6c0.1,0.5,0.2,1,0.3,1.5c0.1,0.7,0.3,1.4,0.1,2.2c0,0.2,0.1,0.5-0.1,0.7s0.1,0.5-0.2,0.6c-0.3,0.8-0.8,1.2-1.5,1.2
		c-0.1,0-0.3,0-0.3,0.1c0,0.2,0,0.3,0,0.6l0.2,0.1c0.9,0.1,1.8-0.1,2.6-0.6c0.1-0.1,0.2-0.1,0.2-0.1c0.3-0.4,0.8-0.8,1-1.3
		c0.3-0.5,0.6-1.1,0.7-1.7c0.1-0.3,0.1-0.6,0.1-0.8c0.1-0.6,0.1-1.1,0-1.6c-0.1-0.5,0-0.9-0.1-1.3c-0.1-0.4-0.1-0.8-0.1-1.1
		c0.1-0.6,0.1-1.1,0.3-1.7c0.1-0.5,0.4-1,0.7-1.4c0.4-0.6,1-1.1,1.6-1.6c0.4-0.3,0.9-0.7,1.4-1s1-0.6,1.4-0.8c0.3-0.2,0.7-0.3,1-0.6
		c0.1-0.1,0.3,0,0.3,0.2c-0.1,1.2,0.2,2.4,0.1,3.6c-0.1,0.9,0,1.8,0,2.8c0,1.6-0.6,2.9-1.4,4.2c-0.7,1-1.6,1.9-2.5,2.8
		c-0.6,0.3-0.9,1-1.5,1.3l-0.1,0.1l0.1,0.1c0.7,0.1,1.4,0.1,2.2,0.1c0.7,0,1.4,0.1,2.1,0s1.4-0.1,2.1-0.3c0.6-0.1,1.3-0.3,1.9-0.6
		c1.2-0.5,2.4-1,3.3-1.9c0.4-0.5,0.6-1,0.7-1.6c0-0.7,0-1.4,0-2.1c0-0.2,0.1-0.4-0.1-0.6v-0.2c0.3-0.5,0.1-1,0.1-1.5
		c0-0.3,0.1-0.6,0.1-0.8c0-0.3-0.2-0.5-0.3-0.8c-0.1-0.4-0.3-0.9-0.3-1.4c-0.1-0.7-0.1-1.4,0-2.1c0.1-0.6,0.3-1.2,0.5-1.7
		c0.3-0.7,0.6-1.3,0.9-1.9c0.3-0.7,0.8-1.3,1.2-1.9c0.6-0.8,1.2-1.6,1.9-2.2c0.7-0.6,1.3-1.2,2-1.6c0.2-0.1,0.3-0.3,0.5-0.5l0.1-0.1
		c0.1,0.1,0.1,0.1,0.1,0.2c0,0.6,0,1.3,0,1.8c0,0.5,0.1,0.9,0.3,1.4c0.1,0.2,0,0.3,0.1,0.6c0,0.1,0.1,0.3,0.1,0.5
		c0.1,0.9,0.1,1.8,0.1,2.8c0,0.2-0.1,0.4,0.1,0.6v0.2c-0.2,0.4-0.1,0.8-0.1,1.2c-0.2,1-0.3,1.9-0.9,2.8c-0.4,0.6-0.8,1.1-1.2,1.6
		c-0.4,0.5-0.8,1-1.3,1.5c-0.4,0.5-0.8,1-1.2,1.5c-0.5,0.6-0.8,1.2-1,1.9c-0.1,0.2-0.1,0.5-0.1,0.8c0,0.7,0,0.7,0.7,0.4
		c0.6-0.2,1.3-0.4,1.9-0.8c1-0.6,2.1-1.1,3.1-1.9c0.4-0.3,1-0.7,1.4-1l0.1-0.1c0.8-0.8,1.7-1.6,2.6-2.4c0.6-0.6,1-1.4,1.5-2.2
		c0.3-0.5,0.6-1,0.8-1.6c0.1-0.6,0.1-1.1,0.1-1.7c-0.3-0.3,0.1-0.6-0.3-0.9c-0.3-0.8-0.7-1.6-1.2-2.2c-0.6-0.8-1.3-1.7-1.7-2.6
		c-0.2-0.4-0.5-1.7-0.6-2.2c-0.1-0.6,0-1.2-0.1-1.7c-0.1-0.6-0.1-1.1-0.1-1.7c0-0.3,0-0.6,0.1-0.8c0.1-0.2-0.1-0.6,0.1-0.8
		c0.1-0.3,0-0.6,0.3-0.8c0-0.7,0.3-1.3,0.5-1.9c0.3-1.1,0.8-2.2,1.4-3.2c0.3-0.7,0.7-1.4,1-2.1c0.1-0.2,0.2-0.5,0.3-0.6
		c0.1-0.1,0.1-0.1,0.1-0.2c0,0.1,0.1,0.1,0.1,0.2c0.1,0.2,0.1,0.4,0.1,0.6c0,0.2-0.1,0.4,0,0.6c0.1,0.6,0.1,1.2,0.3,1.7
		c0.1,0.4,0.2,0.8,0.3,1.3c0.1,0.3,0.2,0.7,0.3,1c0.1,0.6,0.3,1.3,0.6,1.8c0.1,0.3,0.2,0.6,0.3,1c0.4,0.9,0.8,1.8,1.1,2.8l0.1,0.1
		c0.1,0.5,0.1,1,0.1,1.4c0.1,0.6,0.2,1.3,0.1,1.9c0,0.6,0,1.3,0,1.9c0,0.5,0,1-0.1,1.5c-0.1,0.4,0,0.9-0.1,1.3
		c-0.1,0.6-0.2,1.1-0.3,1.7c-0.1,0.2-0.1,0.4-0.1,0.6c0,0.1-0.1,0.1,0,0.3c0.3,0.2,0.5,0.3,0.7,0c0.1-0.1,0.1-0.3,0.3-0.3
		c0.8-0.8,1.5-1.7,2.1-2.7c0.9-1.3,1.5-2.8,2.2-4.2c0.3-0.8,0.6-1.6,0.8-2.4c0.1-0.6,0.3-1.2,0.3-1.8c0-0.3,0.2-0.8,0.1-1.1
		c-0.1-0.8-0.3-1.6-0.9-2.3c-0.6-0.9-1.5-1.5-2.3-2c-0.3-0.2-0.5-0.4-0.8-0.6c-0.3-0.1-0.5-0.4-0.8-0.6c-0.3-0.2-0.6-0.5-0.7-0.8
		c-0.6-1-1.1-2-1.3-3.2c-0.1-0.8-0.3-1.5-0.4-2.2c-0.1-0.3,0-0.8-0.1-1.1c-0.2-0.8,0-1.6-0.1-2.4c-0.2-1.2-0.1-2.4-0.1-3.5
		c0-0.3,0.1-0.7,0.1-1c0-0.3,0-0.7,0-1c0-0.2,0.1-0.1,0.3-0.1c0.4,0.1,0.8,0.2,1.3,0.3c0.4,0.1,0.8,0.3,1.2,0.5
		c0.3,0.2,0.7,0.3,0.9,0.6c0.6,0.7,1.4,1.3,1.9,2.1c0.2,0.5,0.6,0.9,0.8,1.3c0.4,0.8,0.8,1.7,1,2.6c0.1,0.4,0.2,0.8,0.3,1.3
		c0.1,0.4,0.2,0.8,0.3,1.3c0.1,0.7,0.3,1.4,0.3,2.2c0.3,0.5,0.1,1,0.1,1.5c0,0.9,0.3,1.9,0.1,2.8c-0.2,0.8-0.1,1.7-0.1,2.6
		c0,0.1,0,0.1,0,0.2c0,0.1,0,0.1,0.1,0.1c0.1-0.1,0.3-0.2,0.5-0.3c0.7-1,1.5-2,1.9-3.2c0.4-1,0.9-2.1,1.3-3.1c0.1-0.5,0.3-1,0.5-1.5
		c0.2-0.6,0.3-1.3,0.5-1.8c0.1-0.5,0.2-1,0.4-1.5c0.1-0.3,0-0.6,0.1-0.8c0.1-0.3,0.1-0.8,0.1-1.1c0.3-1,0.1-1.9,0.1-2.9
		c0-0.8-0.3-1.4-0.8-1.9c-0.6-0.6-1.3-1-2.1-1.1c-0.6-0.1-1.3-0.3-1.9-0.6c-0.6-0.2-1.1-0.5-1.6-0.8c-0.7-0.4-1.4-0.8-1.9-1.5
		c-0.3-0.4-0.8-0.7-1.1-1.1c-0.4-0.5-0.8-1-1.1-1.6c-0.3-0.4-0.5-0.8-0.7-1.3c-0.3-0.5-0.8-2.2-0.9-2.6c-0.2-1-0.4-1.9-0.4-3
		c0-0.3-0.1-0.6-0.1-0.9l0.1-0.1c0.3-0.1,0.7-0.1,1-0.1c0.8,0.1,1.7,0.1,2.4,0.4c0.8,0.3,1.5,0.6,2.1,1.1c1,0.7,1.8,1.7,2.5,2.7
		c0.6,0.8,1,1.6,1.4,2.5c0.5,1.1,1,2.2,1.2,3.3c0.1,0.3,0.3,0.7,0.3,1.1c0,0,0.1,0.2,0.3,0.1c0.3-0.2,0.4-0.1,0.4-0.5
		c0-1.4,0.1-2.7,0-4.1c-0.1-0.8-0.1-1.7-0.1-2.5c-0.1-0.3-0.1-0.8-0.1-1.1c0-0.3-0.2-0.7-0.1-1c-0.3-0.7-0.3-1.5-0.6-2.2
		c-0.2-0.7-0.5-1.3-0.6-2c-0.1-0.3-0.3-0.5-0.4-0.8c-0.6-1-1.3-1.5-2.5-1.6c-0.2,0-0.4-0.1-0.6-0.1c-0.3,0-0.6,0.1-0.9,0.1
		s-0.6-0.1-1,0.1c-0.3,0.1-0.6,0-1,0.1c-0.3,0.1-0.7,0-0.9,0.2c-0.3,0.2-0.6,0-0.9,0.2c-0.1,0.1-0.3,0-0.4,0c-1.5,0.1-3-0.3-4.3-1
		c-1-0.5-1.8-1.1-2.6-1.7c-0.7-0.6-1.3-1.2-1.9-1.8c-0.4-0.5-0.9-1-1.2-1.5c-0.1-0.3-0.1-0.3,0.1-0.3c0.4-0.1,0.8-0.2,1.3-0.3
		c1.7-0.4,3.5-0.2,5.2-0.3c0.8,0.2,1.7,0.3,2.4,0.5c1.1,0.3,2.2,0.7,3.1,1.2c0.7,0.4,1.5,0.8,2,1.4c0.3,0.3,0.7,0.5,1,0.8
		c0.2,0.3,0.5,0.6,0.8,0.9l0.1,0.1l0.1-0.1c-0.1-0.4,0.1-0.8-0.1-1.2c0-0.1,0-0.1,0-0.2c0-0.8-0.2-1.5-0.5-2.2c-0.3-1-0.8-2-1.3-2.9
		c-0.3-0.5-0.6-1-0.9-1.5c-0.2-0.2-0.3-0.3-0.6-0.3c-0.6,0-1.3-0.1-1.8,0c-0.6,0.1-1.3,0.1-1.9,0.3c-0.3,0.1-0.6,0-1,0.1
		c-0.3,0.1-0.6-0.1-1-0.1s-0.7-0.1-1-0.3c-0.3-0.1-0.6-0.3-0.9-0.3c-0.6-0.2-1.2-0.5-1.7-0.8c-1-0.5-1.9-1-2.7-1.8
		c-0.3-0.3-0.8-0.6-1-0.9c-0.6-0.8-1.3-1.5-1.7-2.4c-0.1-0.1,0-0.3,0.1-0.3c0.4-0.1,0.9-0.1,1.3-0.1s0.8-0.1,1.3-0.1
		c0.4,0,0.9,0,1.3,0c0.3,0,0.7,0.1,1,0.1s0.6-0.1,1,0.1c0.3,0.1,0.6,0.1,0.9,0.1c0.7,0.1,1.3,0.3,1.9,0.6c0.9,0.3,1.7,0.8,2.6,1.2
		c0.6,0.3,1.1,0.7,1.6,1.1l0.2,0.1c0.1-0.1,0.3-0.2,0.4-0.3l-0.1-0.1c-0.2-0.6-0.6-1.1-1-1.7c-0.8-1.1-1.5-2.2-2.4-3.3
		c-0.5-0.6-1-1.1-1.5-1.7c-0.7-0.9-1.5-1.7-2.4-2.4c-0.4-0.4-0.8-0.7-1.3-1c-0.7-0.5-1.4-0.3-2,0.1c-0.7,0.5-1.3,1-2,1.5
		c-0.6,0.4-1.3,0.7-2,0.7c-0.2,0-0.5,0.1-0.7,0.1c-0.3,0-0.6-0.2-0.8-0.1c-0.3,0.1-0.6,0.1-0.8-0.1s-0.6,0.1-0.8-0.2
		c-1,0-1.8-0.5-2.7-0.7c-0.6-0.1-1-0.6-1.6-0.8c-0.7-0.3-1.3-0.8-1.8-1.3c-0.4-0.3-0.8-0.9-1.1-1.4c-0.3-0.6-0.7-1.3-1-1.8
		c-0.1-0.3-0.1-0.3,0.2-0.4c0.7-0.3,1.5-0.4,2.2-0.6c0.4-0.1,0.8-0.1,1.1-0.1c0.1,0,0.2-0.1,0.3-0.1l0.1-0.1
		c0.3,0.1,0.6,0.1,0.8,0.1c0.3,0,0.5,0,0.8,0.1c0.3,0.1,0.7,0.2,1,0.3c0.3,0.1,0.6,0.3,1,0.4c0.4,0.3,0.9,0.5,1.3,0.8
		c0.6,0.5,1.2,0.8,1.8,1.2c0.5,0.3,1,0.6,1.6,0.8c0.5,0.2,0.9,0.2,1.4,0.2c0.3,0,0.5-0.2,0.7-0.4c0.1-0.1,0.2-0.3,0.3-0.4
		c0-0.1,0.1-0.2,0-0.2c-0.3-0.3-0.6-0.6-0.8-0.9c-0.5-0.6-1-1.3-1.6-1.9l-0.1-0.1c-0.1-0.1-0.1-0.2-0.1-0.3c0.1,0,0.2,0.1,0.3,0.1
		c1,0.5,1.9,0.9,2.9,1.4c0.5,0.2,0.5,0.2,0.7-0.2c0.1-0.1,0.1-0.1,0-0.2c-0.5-0.6-0.9-1.1-1.3-1.6c-0.6-0.8-1.3-1.5-1.9-2.3
		c-0.4-0.5-0.8-1-1.2-1.5c-0.8-1-1.5-2.2-1.7-3.5c-0.1-0.5-0.2-1-0.3-1.5c-0.1-0.5,0-1-0.1-1.4c-0.1-0.5-0.1-1-0.1-1.5
		c0-0.5,0-1,0-1.5c0-0.3,0.1-0.4,0.3-0.3c1,0.6,2.1,1,3.1,1.6c0.8,0.5,1.5,1,2.3,1.6c0.5,0.4,1,0.8,1.4,1.3c0.5,0.6,1,1.2,1.4,1.8
		c0.4,0.7,0.8,1.5,1,2.3c0.1,0.5,0.3,0.9,0.3,1.5c0,0.7,0,1.4,0,2.1c0.1,1-0.3,1.9-0.4,2.9c-0.1,0.3-0.2,0.5-0.3,0.8
		c-0.1,0.3-0.1,0.4,0,0.7c0.2,0.6,0.6,1.1,1,1.7c0.6,0.8,1.2,1.7,1.8,2.5c0.5,0.6,1,1.1,1.5,1.7c0.5,0.6,1,1.3,1.5,1.9
		c0.3,0.4,0.6,0.7,1,1.1c0.4,0.6,1,1,1.5,1.6c0.3,0.3,0.6,0.6,0.9,1c0.3,0.3,0.7,0.6,1,0.9l0.1,0.1l0.1-0.1c0-0.6,0.1-1.1,0-1.7
		c-0.1-0.6-0.2-1.1-0.4-1.6c-0.4-1-0.9-1.9-1.5-2.9c-0.6-1-1.1-2.1-1.7-3.1c-0.4-0.8-0.8-1.6-1-2.4c-0.3-0.9-0.3-1.8-0.1-2.7
		c0.2-0.6,0.3-1.3,0.5-1.9c0.1-0.6,0.3-1.1,0.5-1.6c0.3-0.7,0.6-1.4,1-1.9c0.2-0.2,0.3-0.4,0.6-0.6c0.3-0.2,0.3-0.1,0.3,0.1
		c0.1,1.1,0.3,2.2,0.8,3.3c0.4,1,1,1.9,1.6,2.8c0.5,0.8,1,1.5,1.5,2.2c0.3,0.6,0.6,1.1,0.8,1.7c0.1,0.4,0.3,0.8,0.4,1.3
		c0.1,0.4,0.1,0.8,0.1,1.3c0,0.5,0,1,0,1.4c0,0.5-0.1,0.9-0.2,1.4c-0.1,0.5-0.2,1-0.3,1.5c-0.2,0.9-0.5,1.7-0.8,2.6
		c-0.2,0.5-0.4,1-0.7,1.5c-0.1,0.1-0.1,0.1-0.1,0.2c-0.3,0.4-0.5,0.9-0.4,1.5c0.1,0.5,0.1,1,0.3,1.5c0.4,1.5,1.2,2.7,1.8,4
		c0.4,0.8,0.8,1.6,1.3,2.4c0.7,1.3,1.3,2.7,1.9,4c0.1,0.2,0.2,0.5,0.3,0.7l0.1,0.1l0.1-0.1c0.2-0.6,0.4-1.3,0.7-1.9
		c0.1-0.3,0.2-0.7,0.1-1c-0.1-0.6-0.3-1.3-0.5-1.9c-0.1-0.5-0.3-0.9-0.5-1.4c-0.1-0.5-0.1-1-0.4-1.4c0.1-0.4-0.1-0.8-0.1-1.2
		c0-0.4,0.1-0.9-0.1-1.3c0.2-0.4,0.1-0.8,0.1-1.2c0.2-1.6,0.7-3.1,2.2-4c0.2-0.1,0.5-0.3,0.6-0.6c0.1-0.3,0.4-0.6,0.7-0.8
		c0.2-0.2,0.4-0.5,0.6-0.8c0.1-0.1,0.2-0.1,0.3-0.1c0,0.1,0.1,0.1,0.1,0.3c0,0.8,0,1.7,0,2.4c0,0.3-0.1,0.6,0.1,0.9
		c0.1,0.3-0.1,0.6,0.1,0.8c0.2,0.3,0,0.6,0.3,0.8c0,0.8,0.3,1.4,0.7,2c0.3,0.6,0.6,1,0.9,1.5c0.3,0.5,0.6,1.1,0.9,1.6
		c0.1,0.2,0.1,0.5,0.2,0.7c0.1,0.3,0.1,0.7,0.1,1c0,0.3,0,0.7,0,1c0,0.4-0.2,0.8-0.1,1.2c0,0.3-0.1,0.8-0.1,1.1
		c-0.1,0.4-0.2,0.8-0.3,1.2s-0.3,0.8-0.5,1.1c-0.5,1-1.3,1.8-2.2,2.4c-0.4,0.3-0.9,0.6-1.3,0.8c-0.6,0.3-0.9,1-1,1.6
		c-0.2,0.8-0.3,1.5-0.3,2.3c0,0.3-0.1,0.6-0.1,0.8c0,0.3,0,0.6,0,0.8c0,0.3,0.1,0.8,0.1,1.1c0,0.4-0.1,0.8,0,1.2
		c0.1,0.4,0.1,0.8,0.1,1.1c0.1,0.3,0.2,0.8,0.1,1.1c0.3,0.3,0,0.8,0.3,1.1c0.1,0.2,0.1,0.6,0.1,0.9c0.2,1.2,0.5,2.3,0.9,3.5
		c0.1,0.5,0.3,0.9,0.8,1.1c0.1,0.1,0.2,0.1,0.3,0c0.6-0.4,1.1-0.9,1.3-1.7c0.1-0.4,0.1-0.8,0.1-1.3
		C455.4,126.8,455.4,126.2,449.3,142.2c-6.1,16.7-6.1,16.6-6.1,16.6l-0.1,0.1v0.1C443.2,158.9,443.2,158.9,449.3,142.2z"/>
	<path class="st0" d="M258.8,230.8c0-4.5,0-9,0-13.5c0-0.6-0.1-1.1-0.3-1.5c-0.3-0.7-1-1.2-1.7-1.3c-0.3-0.1-0.7-0.2-1-0.1
		c-0.1,0-0.2-0.1-0.3-0.1c-0.2,0-0.4-0.1-0.6-0.1c0-0.3,0-0.6,0-1l0.1-0.1c0.1,0,0.1,0,0.2,0c4.2,0,8.5,0,12.7,0
		c0.3,0,0.3,0,0.3,0.3c0,0.1,0,0.2,0,0.3c0,0.4,0,0.3-0.4,0.5c-0.7,0.1-1.4,0.1-2,0.4c-0.3,0.1-0.6,0.3-0.8,0.6
		c-0.2,0.3-0.5,0.4-0.6,0.8c-0.1,0.4-0.1,0.8-0.3,1.3c-0.2,1.3-0.1,2.6-0.1,3.8c0,1.3,0,2.6,0,4c0,1.3,0,2.6,0,3.9
		c0,0.4,0,0.4,0.5,0.4c4.2,0,8.4,0,12.6,0c0.5,0,0.9,0,1.4,0c0-0.5,0.1-0.9,0.1-1.4c0-2.5,0-5.1,0-7.6c0-1.1-0.1-2.2-0.2-3.4
		c0-0.9-0.4-1.7-1.3-2.1c-0.5-0.2-1-0.3-1.5-0.4c-0.2,0-0.4,0.1-0.6-0.1c-0.1-0.1-0.4-0.1-0.6-0.1c0-0.3,0-0.6,0-1l0.1-0.1
		c0.1,0,0.1,0,0.2,0c4.2,0,8.5,0,12.7,0c0.3,0,0.3,0,0.3,0.3c0,0.1,0,0.2,0,0.3c0,0.4,0,0.3-0.4,0.5c-0.7,0.1-1.4,0.1-2,0.4
		c-0.3,0.1-0.6,0.3-0.8,0.6c-0.2,0.3-0.5,0.4-0.6,0.8c-0.1,0.4-0.2,0.8-0.3,1.3c-0.3,1.7-0.1,3.4-0.1,5.1c0,1.7,0,3.4,0,5.1
		c0,1.7,0,3.5,0,5.2c0,1.7,0,3.4,0,5.1c0,1.7,0,3.5,0,5.2c0,0.6,0.2,1.3,0.1,1.9c0.3,1.1,1,1.9,2.1,2.2c0.6,0.1,1.3,0.3,1.9,0.3
		l0.1,0.1c0,0.3,0,0.6,0,0.9c-0.3,0-0.6,0.1-0.8,0.1c-4,0-7.9,0-11.9,0c-0.1,0-0.3,0-0.5,0c-0.1,0-0.1-0.1-0.1-0.1v-0.1
		c0-0.3-0.1-0.6,0.1-0.8c0.1-0.1,0.5-0.1,0.7-0.1c0.6-0.1,1.3-0.1,1.9-0.4s1-0.8,1.3-1.5c0.1-0.5,0.1-0.9,0.1-1.4
		c0-1.3,0.2-2.6,0.1-3.8s0-2.5,0-3.8c0-1.3,0-2.6,0-3.9c0-0.2,0.1-0.6-0.1-0.7c-0.1-0.1-0.4-0.1-0.7-0.1c-4.4,0-8.8,0-13.1,0
		c-0.1,0-0.3,0-0.5,0c-0.1,0-0.2,0.1-0.2,0.2c0,0.1,0,0.3,0,0.5c0,3.6,0,7.3,0,10.9c0,0.8,0.1,1.6,0.4,2.4v0.2
		c0.5,0.5,1,1.1,1.7,1.2c0.6,0.1,1.3,0.3,1.9,0.3c0.1,0,0.2,0.1,0.2,0.2c0,0.3-0.1,0.6-0.1,0.9c-0.3,0-0.6,0-0.8,0
		c-4,0-8.1,0-12.1,0c-0.4,0-0.4,0.1-0.3-0.3c0-0.3,0.1-0.5,0.1-0.8c0.2,0,0.5,0,0.7,0s0.4-0.1,0.6-0.1c0.2-0.1,0.4,0.1,0.6-0.1
		c0.1-0.1,0.5-0.1,0.6-0.1c0.3-0.2,0.7-0.4,0.9-0.8c0.3-0.6,0.5-1.3,0.5-1.9C258.8,239.6,258.8,235.2,258.8,230.8z"/>
	<path class="st0" d="M351,217.9c1.9,0,4,0,5.9,0c0.6,0,1.1,0.1,1.6,0.2c0.5,0.1,1,0.2,1.5,0.3c0.8,0.2,1.4,0.4,2.1,0.8
		c0.8,0.3,1.5,0.8,2,1.4c0.8,0.8,1.3,1.8,1.6,2.9c0.1,0.6,0.3,1,0.3,1.7c0,0.6,0,1.1,0,1.7c0.1,0.8-0.2,1.5-0.5,2.2
		c-0.4,1.1-1.1,2-2,2.7c-0.6,0.5-1.3,0.8-2,1.1c-0.9,0.3-1.8,0.6-2.7,0.8c-0.1,0-0.1,0.1-0.1,0.1c0.2,0.3,0.3,0.6,0.5,0.8
		c0.4,0.6,0.8,1.1,1.3,1.7c0.5,0.6,0.9,1.3,1.4,1.9c0.4,0.6,0.9,1.3,1.4,1.8c0.4,0.6,0.9,1.2,1.3,1.8c0.5,0.6,0.9,1.3,1.4,1.9
		c0.2,0.3,0.4,0.6,0.6,0.9c0.4,0.6,0.8,1.1,1.3,1.6c0.7,0.7,1.5,1,2.4,1c0.2,0,0.3,0.1,0.2,0.2c0,0.1,0,0.3,0,0.5
		c0,0.2-0.1,0.3-0.3,0.3c-1,0-2.1,0-3.2,0c-1,0-1.9,0-2.9,0c-0.3,0-0.5-0.1-0.6-0.3c-0.4-0.6-0.9-1.3-1.3-1.9
		c-0.4-0.6-0.8-1.3-1.3-1.9c-0.3-0.3-0.6-0.8-0.8-1.2c-0.6-0.8-1.1-1.5-1.7-2.4c-0.6-0.8-1.2-1.7-1.7-2.6c-0.8-1.3-1.7-2.4-2.5-3.7
		c-0.1-0.1-0.2-0.2-0.4-0.2c-0.3,0-0.6,0-1,0c-0.3,0-0.6,0.1-0.8,0.1c-0.1,0-0.1,0.1-0.1,0.2c0,0.1,0,0.3,0,0.4c0,3.2,0,6.3,0,9.5
		c0,0.3,0.2,1.2,0.3,1.4c0.2,0.7,0.7,1,1.3,1.2c0.6,0.2,1.2,0.3,1.8,0.3c0.1,0,0.3,0,0.3,0.1c0,0.3,0,0.6,0,0.9c0,0-0.1,0.1-0.2,0.1
		c-0.3,0-0.6,0-0.8,0c-3.4,0-6.7,0-10.2,0c-0.3,0-0.3,0-0.3-0.3c0-0.6,0-0.6,0.6-0.6c0.4,0,1.7-0.3,1.9-0.6c0.4-0.3,0.7-0.8,0.8-1.5
		c0.3-1.7,0.1-3.3,0.1-4.9c0-6.1,0-12.1,0-18.2c0-0.6-0.2-1.7-0.4-2.2c-0.2-0.5-0.7-0.8-1.1-0.9c-0.6-0.1-1.2-0.3-1.8-0.3
		c-0.2,0-0.2-0.1-0.2-0.2c0-0.8,0-0.8,0.7-0.8C346.8,217.9,348.9,217.9,351,217.9z M352,226.6c0,1.9,0,3.8,0,5.6
		c0,0.3,0,0.4,0.4,0.3c0.2,0,0.4-0.1,0.6-0.1c0.8-0.1,1.5,0.1,2.2-0.1c0.3,0.1,0.7-0.1,1-0.1s0.7-0.2,1-0.3c1.3-0.4,2.4-1,3.2-2.2
		c0.5-0.7,0.7-1.5,1-2.4c-0.1-1.2,0.1-2.3-0.1-3.5c-0.1-0.4-0.3-0.9-0.5-1.3c-0.4-0.8-1-1.4-1.7-1.8c-0.9-0.6-2-0.9-3.1-1
		c-1-0.1-1.9,0-2.9,0c-0.3,0-0.6,0.1-0.8,0.2c-0.3,0.2-0.4,0.5-0.4,0.9C352,222.8,352,224.7,352,226.6z"/>
	<path class="st0" d="M510.1,248.4c-2.2,0-4.5,0-6.7,0c-0.3,0-0.3,0-0.3-0.3c0-0.6,0-0.6,0.6-0.6c0.6,0,1.3-0.2,1.9-0.5
		c0.6-0.3,0.9-0.8,1-1.5c0.1-0.3,0.1-0.8,0.1-1.1c0-0.4,0-0.8,0-1.2c0-7,0-14.1,0-21.2c0-0.6-0.1-1.3-0.4-1.9
		c-0.3-0.5-0.4-0.6-0.9-0.8c-0.3-0.1-0.7-0.2-1.1-0.3c-0.3-0.1-0.7-0.1-1-0.1l-0.1-0.1c-0.1-0.8-0.1-0.8,0.8-0.8c4.2,0,8.3,0,12.5,0
		c0.3,0,0.6,0.1,0.9,0.1c0.3,0.1,0.6-0.1,1,0.1c0.3,0.1,0.6,0.1,0.9,0.1c0.4,0.1,0.8,0.2,1.3,0.3c1,0.3,2.1,0.6,3.1,1.1
		c0.8,0.4,1.5,0.8,2.2,1.4c0.8,0.6,1.4,1.2,1.9,1.9c0.8,0.8,1.3,1.8,1.7,2.8c0.3,0.8,0.6,1.5,0.8,2.3c0.1,0.2,0.1,0.5,0.1,0.7
		s0.1,0.4,0.1,0.6c0.4,1.8,0.3,3.6,0.3,5.4c0,0.5-0.1,1-0.2,1.5s-0.2,1-0.3,1.4c-0.1,0.3-0.1,0.8-0.3,1.1c-0.3,0.6-0.5,1.2-0.8,1.7
		c-0.3,0.7-0.7,1.4-1.3,1.9c-0.3,0.4-0.6,0.9-1,1.3c-1.2,1.2-2.5,2.1-4,2.9c-1,0.5-2,0.8-3.1,1.1c-0.7,0-1.3,0.3-2.1,0.3
		c-1.3,0.3-2.6,0.1-3.8,0.1C512.6,248.5,511.3,248.4,510.1,248.4z M511,233.1c0,4,0,8.1,0,12.1c0,0.8,0.6,1.3,1.3,1.4
		c0.3,0,0.8,0,1.1,0c0.9-0.1,1.8,0.1,2.7-0.1c0.5-0.1,1-0.2,1.5-0.3c0.7-0.1,1.4-0.3,2.1-0.6c1.1-0.5,2.2-1.2,3.1-2
		c0.2-0.2,0.4-0.5,0.6-0.8c0.3-0.4,0.6-0.8,0.9-1.3c0.3-0.5,0.5-0.9,0.7-1.4c0.2-0.5,0.4-1,0.6-1.5c0.1-0.6,0.3-1.1,0.4-1.7
		c0.1-0.6,0.1-1.2,0.1-1.7c0.1-0.5-0.1-1,0.1-1.5c0.1-0.1,0.1-0.3,0-0.4c-0.2-0.3-0.1-0.6-0.1-0.9c-0.1-0.5,0-1-0.1-1.5
		c-0.1-0.6-0.2-1.2-0.3-1.8c-0.1-0.4-0.2-0.8-0.3-1.3c-0.3-0.7-0.6-1.5-1-2.2c-0.3-0.6-0.6-1.1-1-1.6c-0.7-0.8-1.4-1.5-2.3-2.2
		c-0.8-0.6-1.6-1-2.5-1.3c-1.1-0.3-2.3-0.6-3.5-0.7c-1-0.1-1.9,0-2.9,0c-0.4,0-1,0.3-1.1,0.7c-0.1,0.2-0.1,0.4-0.1,0.6
		C511,225.1,511,229.1,511,233.1z"/>
	<path class="st0" d="M476.1,233.2c0,0.4,0,0.8,0,1.3c0,0.7,0,1.4-0.1,2.1c-0.3,1.4-0.6,2.8-1.2,4.2c-0.4,1-0.9,1.9-1.5,2.8
		c-0.1,0.3-0.3,0.6-0.6,0.8c-0.4,0.5-0.8,0.9-1.2,1.3c-1.1,1-2.4,1.9-3.8,2.6c-0.3,0.1-0.8,0.2-1.1,0.4c-0.3,0.1-0.7,0.2-1,0.3
		c-0.4,0.1-0.9,0.1-1.3,0.2c-0.7,0.2-1.4,0.1-2.2,0.1c-0.3,0-0.7,0.1-1.1-0.1c-0.3-0.1-0.7,0.1-1-0.1c-0.8,0-1.5-0.3-2.2-0.6
		c-1-0.4-1.9-0.8-2.9-1.5c-0.5-0.4-1-0.8-1.5-1.2c-1.2-1.2-2.1-2.5-2.8-4c-0.3-0.8-0.7-1.5-0.9-2.3c-0.1-0.5-0.3-1-0.4-1.5
		c-0.1-0.7-0.1-1.4-0.4-2v-0.1c0-0.4,0-0.8,0-1.2c0-0.3-0.1-0.8-0.1-1.1c-0.1-0.4,0.1-0.8,0.1-1.3c0-0.4-0.1-0.8,0-1.3
		c0.1-0.3,0-0.8,0.1-1c0.1-0.3,0.1-0.7,0.2-1c0.1-0.3,0.2-0.7,0.3-1c0.2-1.3,0.8-2.4,1.4-3.5c0.4-0.9,1-1.7,1.7-2.4
		c0.2-0.2,0.3-0.5,0.6-0.7c0.9-0.8,1.8-1.6,2.9-2.2c0.9-0.6,1.9-0.9,2.9-1.2c0.6-0.2,1.2-0.3,1.8-0.3c0.7-0.1,1.4-0.1,2.1-0.1
		c1.4,0.1,2.7,0.3,4,0.8c1.3,0.5,2.6,1.2,3.5,1.9c0.8,0.6,1.5,1.3,2.1,2c0.5,0.6,0.8,1.2,1.3,1.8c0.4,0.7,0.8,1.5,1,2.2
		s0.5,1.4,0.7,2.1c0.1,0.3,0.1,0.6,0.2,0.9c0.1,0.3-0.1,0.6,0.2,0.9v0.1c0.1,0.5,0.1,1,0.1,1.5C476.1,232.1,476.1,232.7,476.1,233.2
		z M462.7,219.1c-0.2,0-0.3,0-0.4,0c-0.7-0.1-1.4,0.1-2.1,0.3c-0.6,0.2-1.2,0.6-1.8,1c-0.4,0.3-0.8,0.6-1.2,1
		c-0.1,0.1-0.3,0.3-0.4,0.6c-0.4,0.4-0.7,0.9-1,1.4c-0.6,1.1-0.9,1.9-1.3,3.3c-0.1,0.5-0.3,1-0.4,1.5c-0.1,0.5-0.1,1-0.3,1.6
		c-0.1,0.5-0.1,1-0.1,1.5c-0.1,0.8-0.1,1.6,0,2.4c0,0.8-0.1,1.5,0.1,2.4c0.1,0.5,0.1,1,0.1,1.5c0.1,0.7,0.3,1.3,0.3,2
		c0.4,1.1,0.7,2.2,1.2,3.3c0.5,0.9,1,1.9,1.7,2.6c0.3,0.3,0.6,0.5,0.9,0.8c0.4,0.4,1,0.7,1.5,0.9s1.1,0.4,1.7,0.4
		c0.9,0.1,1.8,0.1,2.7-0.1c0.5-0.1,1-0.3,1.5-0.6c0.8-0.5,1.5-1,2.2-1.7c0.1-0.1,0.2-0.3,0.3-0.5c0.4-0.5,0.8-1,1-1.5
		c0.5-0.9,0.8-1.9,1.1-2.9c0.1-0.6,0.3-1.1,0.4-1.7c0.1-0.3,0.1-0.6,0.1-0.8c0-0.3,0.1-0.6,0.1-0.9c0.1-0.6,0.1-1.2,0.1-1.7
		c0-1.3,0.1-2.6-0.1-3.8c-0.1-0.5,0-1-0.1-1.5c-0.1-0.4-0.1-0.9-0.1-1.3c-0.1-0.3-0.1-0.6-0.2-0.9c-0.1-0.6-0.3-1.1-0.5-1.7
		c-0.2-0.6-0.4-1.1-0.7-1.7c-0.2-0.4-0.5-0.8-0.7-1.1c-0.5-0.8-1.3-1.4-1.9-2.1c-0.3-0.1-0.4-0.3-0.6-0.5
		C465.1,219.5,463.9,219,462.7,219.1z"/>
	<path class="st0" d="M320.2,233.4c0,2.7,0,5.4,0,8.1c0,1,0,1.9,0.1,2.9c0.1,0.7,0.3,1.4,0.7,2c0.1,0.3,0.3,0.4,0.6,0.6
		c0.6,0.3,1.3,0.5,1.9,0.6c0.5,0,0.5,0.1,0.5,0.6c0,0.1,0,0.2,0,0.3c0,0.1-0.1,0.2-0.2,0.2c-0.1,0-0.1,0-0.2,0c-3,0-6,0-9,0
		c-0.4,0-0.4,0-0.4-0.4c0-0.1,0-0.2,0-0.3c0-0.2,0-0.3,0.3-0.3c0.6,0.1,1.2-0.1,1.8-0.3c0.8-0.3,1.3-0.9,1.6-1.7
		c0.2-0.8,0.3-1.5,0.3-2.4c0-7,0-14,0-20.9c0-0.3,0.1-0.6,0-0.8c-0.1-0.3-0.3-0.5-0.6-0.8c-0.3-0.3-0.6-0.7-1-1
		c-0.4-0.3-0.9-0.6-1.5-0.6c-0.2,0-0.3,0-0.6,0s-0.3-0.1-0.3-0.3c0-0.7,0-0.7,0.7-0.7c2.1,0,4.2,0,6.3,0c0.2,0,0.3,0.1,0.4,0.3
		c0.6,0.9,1.3,1.8,1.9,2.7c0.6,0.8,1.2,1.7,1.8,2.6c0.6,0.8,1.2,1.5,1.7,2.3c0.4,0.6,0.8,1.3,1.3,1.9c0.5,0.7,1,1.4,1.5,2.1
		c0.8,1.1,1.5,2.2,2.3,3.3c0.6,1,1.5,1.9,2.2,2.9c0.6,0.8,1.2,1.7,1.8,2.6c0.3,0.4,0.6,0.8,1,1.3l0.1,0.1l0.1-0.1c0-0.1,0-0.2,0-0.3
		c0-5.4,0-10.8,0-16.2c0-0.9-0.1-1.9-0.6-2.8c-0.3-0.6-0.8-1-1.5-1.2c-0.6-0.1-1.1-0.3-1.7-0.3l-0.1-0.1c0-0.2,0-0.4,0-0.6
		c0-0.1,0.1-0.2,0.2-0.2c0.1,0,0.1,0,0.2,0c3.1,0,6.1,0,9.1,0c0.4,0,0.3,0,0.3,0.3c0,0.1,0,0.3,0,0.4s-0.1,0.2-0.2,0.2
		c-0.6-0.1-1.2,0.1-1.8,0.3c-0.6,0.1-1,0.6-1.3,1.1c-0.3,0.6-0.5,1.3-0.6,2c-0.3,2.2-0.1,4.3-0.1,6.5s0,4.3,0,6.5c0,2.2,0,4.4,0,6.5
		c0,2.2,0,4.3,0,6.5c0,0.6-0.1,0.7-0.6,0.6c-0.1,0-0.3-0.1-0.3-0.3c-0.4-0.7-1-1.4-1.5-2.1c-0.5-0.6-0.9-1.3-1.4-1.9
		c-0.4-0.5-0.8-1-1.1-1.6c-0.4-0.6-0.9-1.3-1.3-1.9c-0.5-0.8-1.1-1.5-1.6-2.2c-0.4-0.6-0.8-1.3-1.3-1.9c-0.4-0.6-0.8-1.2-1.3-1.7
		c-0.4-0.6-0.8-1.2-1.3-1.8c-0.6-0.8-1.1-1.5-1.7-2.3c-0.4-0.6-0.9-1.3-1.3-1.9c-0.6-0.8-1.1-1.5-1.7-2.3c-0.4-0.6-0.8-1.2-1.3-1.8
		c-0.3-0.5-0.7-1-1-1.4c-0.1-0.1-0.1-0.1-0.2-0.1c0,0.1-0.1,0.1-0.1,0.3C320.2,227.3,320.2,230.3,320.2,233.4z"/>
	<path class="st0" d="M300.2,248.4c-3.5,0-7,0-10.5,0c-0.2,0-0.3,0-0.6,0l-0.1-0.1c0-0.1,0-0.2,0-0.3c0-0.6,0-0.6,0.6-0.6
		c0.7,0,1.3-0.2,1.9-0.6c0.2-0.1,0.3-0.2,0.4-0.5c0.1-0.3,0.3-0.5,0.4-0.8c0.1-0.4,0.1-0.8,0.1-1.3c0-7.4,0-14.9,0-22.3
		c0-0.7-0.1-1.4-0.6-2c-0.1-0.2-0.2-0.3-0.5-0.5c-0.4-0.2-0.8-0.3-1.3-0.4c-0.3-0.1-0.7-0.1-1-0.1l-0.1-0.1c0-0.3,0-0.6,0-0.8
		c0.2,0,0.5-0.1,0.7-0.1c6.9,0,13.8,0,20.7,0c0.2,0,0.4,0,0.6,0.1c0.1,0.1,0.1,0.4,0.2,0.6v0.1c0,1.8,0,3.7,0,5.5
		c0,0.3-0.1,0.3-0.3,0.3c-0.1,0-0.2,0-0.3,0c-0.1,0-0.4,0.1-0.5-0.1c-0.1-0.1-0.2-0.3-0.2-0.6c0-0.7-0.2-1.3-0.4-1.9
		c-0.3-0.9-1-1.7-1.9-1.9c-0.5-0.1-0.9-0.2-1.4-0.3c-1.4-0.3-2.7-0.1-4.1-0.1c-1.4-0.1-2.7,0-4.1,0c-0.3,0-0.6,0.1-0.8,0.2
		c-0.1,0.2-0.2,0.5-0.3,0.7c0,0.1,0,0.1,0,0.2c0,3.3,0,6.7,0,10c0,0.3,0,0.3,0.3,0.3c1.5,0,3,0,4.5,0c1,0,1.9,0,2.9,0
		c0.4,0,1-0.2,1.5-0.4c0.8-0.4,1.1-1,1.3-1.8c0.1-0.6,0.3-1.2,0.3-1.8c0-0.2,0.1-0.3,0.3-0.3h0.1c0.6,0,0.6,0,0.6,0.6
		c0,3.2,0,6.3,0,9.5c0,0.1,0,0.3,0,0.5c0,0.1-0.1,0.2-0.1,0.2c-0.3,0-0.6,0-0.9-0.1c-0.1,0-0.1-0.2-0.2-0.4
		c-0.1-0.8-0.2-1.6-0.6-2.4c-0.3-0.6-0.8-1-1.5-1.3c-0.3-0.1-0.6-0.1-0.8-0.1c-1.3-0.3-2.4-0.1-3.7-0.1c-1.3,0-2.5,0-3.8,0
		c-0.1,0-0.2,0-0.3,0l-0.1,0.1c0,0.1,0,0.3,0,0.4c0,3.7,0,7.4,0,11.1c0,0.2,0,0.4,0.1,0.6c0.2,0.5,0.6,0.6,1,0.7
		c2.2,0.3,4.3,0.1,6.4,0.1c0.2,0,0.5-0.1,0.7-0.1c0.3,0,0.6,0.1,0.8-0.1c0.2-0.1,0.6,0.1,0.7-0.2c0.6,0,1.1-0.3,1.6-0.6
		c0.8-0.4,1.3-0.9,1.9-1.6c0.7-0.8,1-1.7,1.5-2.6c0.1-0.1,0.1-0.2,0.1-0.3c0.1-0.3,0.3-0.5,0.6-0.5c0.3,0,0.6-0.1,0.8,0.1
		c0.2,0.1-0.1,0.4-0.1,0.7c-0.1,0.7-0.2,1.3-0.4,2c-0.2,0.6-0.3,1.3-0.5,1.9c-0.1,0.7-0.3,1.3-0.5,2c-0.1,0.2-0.1,0.5-0.1,0.7
		c-0.1,0.4-0.1,0.5-0.6,0.5C307.5,248.4,303.9,248.4,300.2,248.4z"/>
	<path class="st0" d="M408.7,248.4c-4.1,0-8.2,0-12.2,0c-0.1,0-0.3,0-0.5,0s-0.2-0.1-0.2-0.2c0-0.1,0-0.2,0-0.3c0-0.6,0-0.6,0.6-0.7
		c0.7-0.1,1.5-0.1,2.1-0.6c0.7-0.4,1-1,1.2-1.7c0.1-0.6,0-1.3,0.1-1.9c0.1-0.7,0.1-1.3,0.1-2c0-0.7,0-1.4,0-2c0-6.5,0-13.1,0-19.7
		c0-0.4-0.1-0.8-0.1-1.1c0-0.4,0.1-0.8,0-1.2c-0.1-0.5-0.1-1-0.4-1.4c-0.3-0.7-1-1-1.7-1.2c-0.3-0.1-0.7-0.2-1-0.1
		c-0.1,0-0.2-0.1-0.3-0.1c-0.2,0-0.4-0.1-0.6-0.1c0-0.3,0-0.6,0-1l0.1-0.1c0.1,0,0.2,0,0.3,0c4.2,0,8.5,0,12.7,0c0.1,0,0.2,0,0.3,0
		c0.1,0,0.2,0,0.2,0.2c0,0.1,0,0.2,0,0.3c0,0.2,0.1,0.5-0.1,0.6s-0.4,0-0.6,0.1c-0.7,0.2-1.4,0.1-2,0.4c-0.8,0.3-1.3,0.8-1.5,1.7
		c-0.1,0.4-0.1,0.8-0.1,1.2c-0.1,0.7-0.1,1.4-0.1,2.1c0,0.7,0,1.4,0,2.1c0,7.4,0,14.9,0,22.3c0,0.4,0.1,0.8,0.1,1.1
		c0,0.3,0.2,0.6,0.4,0.6c0.3,0.1,0.6,0.3,1,0.3c0.9,0,1.7,0.2,2.6,0.1c0.8-0.1,1.7,0,2.6,0c0.4,0,0.9-0.1,1.3-0.1
		c0.4,0,0.9,0.1,1.3,0c0.9-0.2,1.8-0.2,2.6-0.6c0.9-0.3,1.7-0.8,2.5-1.5c1.1-1,1.8-2.3,2.5-3.5c0.2-0.3,0.3-0.7,0.4-1.1
		c0.1-0.3,0.1-0.3,0.5-0.4c0.2,0,0.3,0,0.6,0c0.3,0,0.4,0.1,0.3,0.4c-0.2,0.6-0.3,1.2-0.4,1.8c-0.1,0.6-0.2,1-0.3,1.6
		c-0.2,0.8-0.4,1.7-0.6,2.5c-0.1,0.6-0.3,1.3-0.6,1.9c0,0.1-0.1,0.3-0.1,0.3c-0.1,0.2,0.1,0.4-0.1,0.6c-0.2,0.2-0.5,0.1-0.8,0.1
		C416.8,248.4,412.7,248.4,408.7,248.4z"/>
	<path class="st0" d="M488.5,248.4c-2,0-4.1,0-6.1,0c-0.2,0-0.3,0-0.3-0.3c0-0.1,0-0.3,0-0.5c0-0.1,0.1-0.2,0.2-0.2
		c0.3,0,0.6,0,0.8,0c0.5-0.1,1-0.1,1.5-0.3c0.4-0.1,0.7-0.3,1-0.6c0.3-0.3,0.4-0.6,0.5-0.9c0.1-0.3,0.1-0.7,0.1-1
		c0.3-1.5,0.1-3,0.1-4.5c0.1-1.5,0-3,0-4.5c0-0.4-0.1-0.7-0.3-1c-0.5-0.7-0.9-1.5-1.3-2.2c-0.5-0.8-1-1.7-1.5-2.4
		c-0.4-0.7-0.8-1.4-1.3-2.1c-0.4-0.8-0.9-1.5-1.3-2.2c-0.5-0.9-1-1.7-1.6-2.6c-0.4-0.6-0.8-1.1-1.3-1.7c-0.3-0.5-0.8-0.8-1.2-1.3
		c-0.6-0.6-1.2-0.9-2-0.9c-0.2,0-0.2-0.1-0.2-0.3c0-0.8,0-0.8,0.7-0.8c3.5,0,7,0,10.6,0c0.4,0,0.4,0,0.4,0.4c0,0.1,0,0.2,0,0.3
		s0,0.3-0.2,0.3s-0.4,0-0.6,0c-0.4,0.1-0.8,0.1-1.3,0.1c-0.4,0.1-0.8,0.6-0.8,1c0,0.8,0.3,1.4,0.6,2.1c0.3,0.7,0.8,1.3,1.2,1.9
		c0.5,0.8,1,1.6,1.5,2.4c0.3,0.6,0.6,1,0.9,1.6c0.6,0.9,1.1,1.7,1.6,2.6c0.2,0.3,0.4,0.7,0.6,1.1c0.1,0.1,0.1,0.1,0.1,0.2
		c0.1,0.1,0.2,0.1,0.3-0.1c0.6-1,1.1-1.9,1.7-2.9c0.5-0.8,0.9-1.7,1.4-2.4c0.5-0.8,0.9-1.7,1.4-2.4c0.3-0.4,0.5-1,0.8-1.5
		c0.3-0.5,0.6-1,0.8-1.5c0.1-0.3,0.2-1.2,0.1-1.5c-0.1-0.4-0.5-0.6-0.9-0.7c-0.5-0.1-1-0.1-1.6-0.1c-0.3,0-0.3-0.1-0.3-0.3
		c0-0.1,0-0.3,0-0.5s0.1-0.2,0.2-0.2c1,0,2,0,3.1,0c1.9,0,3.8,0,5.6,0c0.2,0,0.3,0,0.3,0.3c0,0.1,0,0.2,0,0.3c0,0.4,0,0.3-0.4,0.5
		c-0.8,0.1-1.5,0.4-2,1c-0.3,0.3-0.8,0.7-1,1.1c-0.5,0.6-0.9,1.1-1.3,1.7c-0.6,1-1.2,1.9-1.7,2.9c-0.5,0.8-1,1.6-1.5,2.4
		c-0.4,0.6-0.8,1.3-1.2,1.9c-0.6,0.9-1,1.9-1.7,2.8c-0.2,0.3-0.3,0.6-0.5,0.8c-0.3,0.5-0.4,1-0.4,1.6c0,3.3,0,6.5,0,9.7
		c0,0.9,0.3,1.7,1.3,2.1c0.3,0.1,0.5,0.2,0.8,0.3c0.3,0,0.6,0.1,0.8,0.1s0.6,0,0.9,0s0.4,0.1,0.4,0.4v0.1c0,0.4,0,0.4-0.4,0.4
		C492.5,248.4,490.5,248.4,488.5,248.4z"/>
	<path class="st0" d="M435.3,248.4c-3.5,0-7.1,0-10.6,0c-0.6,0-0.6,0-0.6-0.6c0-0.4,0-0.4,0.4-0.4c0.6,0,1-0.1,1.6-0.3
		c0.8-0.2,1.2-0.8,1.4-1.6c0.1-0.6,0.1-1.2,0.1-1.7c0-7.2,0-14.5,0-21.8c0-0.5-0.1-1-0.3-1.5c-0.3-0.8-0.6-1.1-1.3-1.3
		c-0.6-0.1-1.1-0.3-1.7-0.3c-0.2,0-0.3,0-0.2-0.2c0-0.2,0-0.3,0-0.6c0-0.1,0.1-0.2,0.2-0.2c0.1,0,0.1,0,0.2,0c3.6,0,7.3,0,10.9,0
		c0.4,0,0.3,0,0.3,0.3c0,0.1,0,0.3,0,0.4c0,0.1-0.1,0.2-0.2,0.2c-0.6-0.1-1,0.1-1.5,0.1c-0.9,0.1-1.5,0.7-1.7,1.5
		c-0.1,0.3-0.1,0.5-0.2,0.8c-0.3,1.5-0.1,3-0.1,4.5c0,6.2,0,12.4,0,18.6c0,0.4,0.1,0.8,0.1,1.2c0.1,0.2,0.3,0.4,0.6,0.6
		c0.1,0.1,0.3,0.1,0.4,0.1c0.6-0.1,1,0.1,1.5,0.1c1.2,0,2.4,0,3.5,0c0.3,0,0.7-0.1,1-0.1c0.3,0,0.7,0.1,1,0c0.9-0.2,1.9-0.2,2.7-0.6
		c1-0.5,1.7-1.1,2.4-1.9c0.7-0.8,1-1.8,1.6-2.7c0.1-0.2,0.1-0.6,0.3-0.6c0.2-0.1,0.5-0.1,0.8-0.1c0.1,0,0.2,0,0.3,0
		c0.3,0,0.1,0.1,0.1,0.2c0,0.5-0.2,1-0.3,1.5c-0.1,0.5-0.1,1-0.4,1.4c-0.1,0.8-0.4,1.7-0.6,2.5c-0.1,0.8-0.4,1.6-0.6,2.4l-0.1,0.1
		c-0.1,0-0.3,0-0.5,0C442.3,248.4,438.8,248.4,435.3,248.4z"/>
	<path class="st0" d="M389.6,186.5c0-1,0-2.1,0-3.1c0-1.1,0.3-2.2,0.1-3.3c0.2-0.4,0.1-0.9,0.1-1.3c0.1-0.4,0.1-0.9,0.3-1.3
		c0.1-0.4,0.3-0.8,0.8-1c0.2-0.1,0.4-0.1,0.6-0.1c0.6,0.1,1.1,0.4,1.6,0.6c0.1,0.1,0.1,0.1,0.2,0.1c0.2,0.1,0.4,0.1,0.6,0.2
		c0.1,0.1,0,0.3,0,0.6c0,0.2,0.1,0.5,0.1,0.7s-0.1,0.5,0.1,0.7c0.1,0.1,0,0.2,0,0.3c-0.1,0.8,0.1,1.5,0.1,2.2c0.1,0.5,0.1,1,0.3,1.6
		c0.1,0.5,0.2,1,0.4,1.5c0.2,0.6,0.6,1.1,0.8,1.6c0.6,0.9,1.3,1.7,2,2.5c0.4,0.3,0.8,0.6,1.3,0.8c0.4,0.3,0.8,0.3,1.3,0.6
		c0.3,0.1,1.5,0,1.9-0.2c0.6-0.3,1.3-0.4,1.9-0.6c1-0.3,2-0.4,3.1-0.4c1.5-0.1,2.6,0.5,3.8,1.3c0.6,0.4,1.1,0.8,1.6,1.3
		c0.8,0.8,1.7,1.7,2.6,2.6c0.3,0.3,0.3,0.2-0.1,0.4c-0.2,0.1-0.4,0.1-0.6,0.1c-0.3,0-0.7,0.1-1,0.1c-0.3,0.1-0.7-0.1-1,0.1h-0.1
		c-0.6-0.1-1.3,0.2-1.9,0.1c-0.3,0-0.6,0.1-0.8,0.1c-0.3,0.1-0.5,0-0.8,0.1c-0.4,0.1-0.8,0-1.2-0.3c-0.6-0.5-1.2-0.9-1.9-1.1
		c-0.6-0.1-1.2-0.4-1.8-0.1c-0.8-0.1-1.3,0.4-1.9,0.6c-0.8,0.3-1.7,0.7-2.6,0.9c-0.6,0.1-1.2,0.3-1.8,0.3c-0.2,0-0.4,0.1-0.6,0.1
		c-1.3-0.1-2.6-0.3-3.8-0.9c-0.6-0.3-1.3-0.8-1.9-1.3c-0.6-0.6-1.2-1-1.5-1.7c-0.1-0.3-0.4-1.1-0.4-1.4
		C389.6,189.2,389.6,187.9,389.6,186.5z"/>
	<path class="st0" d="M388.2,81.9c-6.4,0-12.7,0-19.1,0c-0.1,0-0.3,0-0.5,0c-0.3,0-0.3,0-0.2-0.3c0-0.1,0.1-0.1,0.1-0.2
		c0.1-0.5,0.1-1,0.1-1.5c0.1-0.3,0.1-0.7,0.1-1c0.1-0.3,0.1-0.7,0.1-1c0-0.3,0.2-0.5,0.5-0.5c0.4,0,0.8,0,1.3,0
		c12.1,0,24.2,0,36.3,0c0.1,0,0.3,0,0.4,0c0.3-0.1,0.3,0.1,0.3,0.3s0.1,0.6,0.1,0.8c0,0.3-0.1,0.6,0,0.8c0.1,0.4,0.1,0.8,0.1,1.3
		c0,0.3,0.2,0.7,0.1,1c0,0.3-0.1,0.3-0.3,0.3c-0.1,0-0.3,0-0.4,0C401,81.9,394.6,81.9,388.2,81.9z"/>
	<path class="st0" d="M375.7,233.2c0-3.8,0-7.7,0-11.5c0-0.4-0.1-0.8-0.2-1.2c-0.2-0.6-0.6-1-1.2-1.2c-0.3-0.1-0.6-0.3-1-0.2
		c-0.3,0-0.5-0.2-0.8-0.1c-0.2,0-0.5,0-0.8-0.1c0-0.3,0-0.5,0-0.8c0-0.1,0.1-0.1,0.1-0.1c0.1,0,0.2,0,0.3,0c3.8,0,7.6,0,11.3,0
		c0.1,0,0.2,0,0.3,0s0.2,0.1,0.2,0.2s0,0.2,0,0.3c0,0.4,0,0.5-0.4,0.4c-0.6-0.1-1.1,0.1-1.7,0.2c-0.3,0-0.7,0.1-1,0.4
		c-0.3,0.3-0.6,0.7-0.8,1.1c-0.1,0.3-0.1,0.8-0.2,1.1c-0.3,1.8-0.1,3.6-0.1,5.4s0,3.7,0,5.5s0,3.6,0,5.4c0,1.8,0,3.7,0,5.5
		c0,0.7,0.1,1.4,0.3,2.1c0.1,0.8,1,1.5,1.8,1.6c0.3,0.1,0.6,0.1,0.8,0.1s0.6,0,0.9,0c0.2,0,0.3,0.1,0.3,0.3c0,0.1,0,0.2,0,0.3
		c0,0.3,0,0.3-0.3,0.3c-3.9,0-7.9,0-11.8,0c-0.2,0-0.3,0-0.3-0.3c0-0.1,0-0.3,0-0.5s0.1-0.2,0.2-0.2c0.3,0,0.5,0,0.8,0
		c0.6,0,1-0.1,1.6-0.3c0.6-0.2,1-0.6,1.2-1.2c0.1-0.4,0.2-0.8,0.2-1.2C375.7,240.9,375.7,237.1,375.7,233.2z"/>
	<path class="st0" d="M379.9,195.4c-1.5,0.1-2.9-0.5-4.3-1.2c-0.3-0.1-0.6-0.3-0.9-0.4c-0.3-0.1-0.6-0.3-1-0.3
		c-0.3-0.1-0.7-0.1-1-0.3c-0.8,0-1.5-0.1-2.2,0.1c-0.2,0.1-0.3,0.2-0.5,0.3c-0.1,0.1-0.2,0.2-0.3,0.1c-0.1-0.1-0.1-0.1-0.2-0.1
		c-0.5-0.1-1,0-1.4-0.1c-0.7-0.2-1.5-0.1-2.2-0.4c-0.4-0.1-0.9-0.1-1.3-0.1c-0.2,0-0.5-0.1-0.7-0.1c-0.2-0.1-0.5,0.1-0.7-0.1
		c-0.6-0.1-1.1-0.1-1.6-0.1l-0.1-0.1v-0.2c0.5-0.4,0.8-1,1.4-1.3c0.3-0.2,0.6-0.6,1-0.8c0.8-0.6,1.7-1.1,2.6-1.4
		c0.7-0.2,1.4-0.3,2.1-0.3c0.3,0.1,0.8,0.1,1.1,0.1c0.4,0.1,0.8,0.1,1.2,0.3c0.3,0.1,0.7,0.2,1,0.3c0.5,0.2,1,0.3,1.5,0.5
		c0.8,0.3,1.5,0.6,2.3,0.8c1,0.3,2,0.5,3.1,0.3c0.7-0.1,1.3-0.5,1.7-1c0.5-0.7,1-1.5,1.1-2.4c0.1-0.3,0.4-0.5,0.8-0.3
		c0.5,0.2,1,0.2,1.6,0.4c1,0.3,2,0.4,3,0.7c0.1,0.1,0.3,0.1,0.2,0.3c-0.1,0.6-0.1,1.3-0.4,1.8c-0.3,0.6-0.5,1.3-0.8,1.7
		c-0.6,0.8-1.3,1.5-2.1,2.2c-0.7,0.5-1.4,0.8-2.2,1.1l-0.1,0.1c-0.3,0.1-0.7,0.1-1,0.1C380.5,195.4,380.2,195.4,379.9,195.4z"/>
	<path class="st0" d="M386.9,180.4c-1-0.1-2.1-0.4-3-1c-0.3-0.3-0.8-0.5-0.9-1c-0.2-0.6-0.5-1.1-0.6-1.7c0-0.3-0.3-0.6,0-0.8
		c-0.1-0.3,0-0.5,0.3-0.6c0.2-0.1,0.4-0.2,0.7-0.2s0.6-0.1,0.8,0.1c0.4-0.1,0.8,0.1,1.1,0.1c0.8,0.2,1.5,0.3,2.2,0.7
		c0.2,0.1,0.4,0.3,0.4,0.6c0,0.2,0.2,0.3,0,0.6c-0.1,0.1-0.1,0.3-0.1,0.5c0,0.3,0,0.6,0,0.9c0,0.5-0.1,1-0.1,1.5
		c0,0.3-0.3,0.2-0.4,0.3C387.3,180.5,387.1,180.4,386.9,180.4z"/>
</g>
</svg>
