<?xml version="1.0" encoding="utf-8"?>
<!-- Generator: Adobe Illustrator 19.2.1, SVG Export Plug-In . SVG Version: 6.00 Build 0)  -->
<svg version="1.1" id="Layer_1" xmlns="http://www.w3.org/2000/svg" xmlns:xlink="http://www.w3.org/1999/xlink" x="0px" y="0px"
	 viewBox="0 0 210 51" style="enable-background:new 0 0 210 51;" xml:space="preserve">
<style type="text/css">
	.st0{fill:#FFFFFF;}
</style>
<path class="st0" d="M83.7,34.9c-2.4,0-3.7-1.7-3.7-5V11.7h7.2l0-1.7H80V0h-1c-1.6,5.8-5.3,8.9-10.8,10v1.7h3.5l-0.1,18.1
	c-0.1,6.3,3.5,9.3,8.5,9.3c6.1,0,8.4-4.6,9.1-10l-1,0C87.4,33.1,86.3,34.9,83.7,34.9z"/>
<path class="st0" d="M110.9,10c-4.1,0-7.1,2.3-8.5,4v-4H91.4v1.4c2.7,1.4,3.3,2.6,3.3,6.2v26.1c0,3.8-0.3,4.7-2.9,6.1V51h13.4v-1.1
	c-2.6-1.4-2.9-2.3-2.9-6.1V35c0.7,1.3,4.6,4.1,7.8,4.1c8.2,0,14.4-5.7,14.4-14.8C124.5,15,117.7,10,110.9,10z M116,27.9
	c-0.4,4.3-2.9,8.4-6.3,8.4c-3.8,0-7.3-2.9-7.3-7.1c0-3.8,0-8.2,0-10.6c0-2.8,4.1-6.1,7.6-6.1c3.8,0,5.5,3.6,6,7.8
	C116.2,22.6,116.2,25.5,116,27.9z"/>
<path class="st0" d="M63.1,31.3V10H51.6v1.1c2.7,1.4,3.3,2.6,3.3,6.2c0,0,0,9.6,0,12c0,4.6-3.7,6.4-6.4,6.4c-3.3,0-4.4-2.2-4.4-6.9
	V10H32.6v1.1c2.7,1.4,3.2,2.6,3.2,6.2v11.4c0,6,2.9,10.4,8.6,10.4c2.8,0,8.2-0.7,10.4-4.2v4.2h11.7V38C64,36.8,63.1,35,63.1,31.3z"
	/>
<path class="st0" d="M179.5,22.3c-2.2-0.8-4.2-1.6-6.3-2.6c-2.1-1-4.5-2-4.5-3.9c0-2,1.6-3.7,4.3-3.7c3.9,0,9.6,3,9.6,6.8h1v-8.9h-1
	c-0.3,0.5-1.4,0.7-1.9,0.7c-2,0-4.9-0.9-7.7-0.9c-5.3,0-9.4,3.2-9.4,8.5c0,3.6,2.5,6.4,6.3,8.2c2.2,1,4.1,1.7,6.3,2.5
	c2,0.7,4.4,1.7,4.4,3.8c0,2-2,4.1-4.5,4.1c-4.4,0-10.7-4.3-10.7-7.7h-1.1V39h1c0.4-0.5,1.9-0.8,2.6-0.8c1.8,0,4.4,0.9,7.5,0.9
	c6.1,0.1,10.6-3.3,10.6-8.8C186.1,26.2,183,23.6,179.5,22.3z"/>
<path class="st0" d="M209,29.1c-0.9,4-2.1,5.9-4.6,5.8c-2.4,0-3.7-1.7-3.7-5V11.7h7.2l0-1.7h-7.2V0h-1c-1.6,5.8-5.3,8.9-10.8,10v1.7
	h3.5l-0.1,18.1c-0.1,6.3,3.5,9.3,8.5,9.3c6.1,0,8.4-4.6,9.1-10L209,29.1z"/>
<path class="st0" d="M15.4,9.3C6.8,9.3,0,15.4,0,24.2c0,8.9,6.8,14.9,15.4,14.9c8.7,0,15.5-6.1,15.5-14.9
	C30.9,15.4,24.1,9.3,15.4,9.3z M15.4,36.9c-4.3,0-6.3-4.1-6.3-12.6s2.1-12.7,6.3-12.7c4.3,0,6.4,4.1,6.4,12.7S19.7,36.9,15.4,36.9z"
	/>
<path class="st0" d="M157.3,16.2c-0.8-1.1-1.6-2.1-2.6-3.1c-0.2-0.2-0.5-0.4-0.7-0.6l0,0c-1-0.7-2.4-1.5-2.4-1.5
	c-2.2-1.1-4.8-1.7-7.5-1.7c-8.6,0-15.4,6.1-15.4,14.9c0,4.2,1.5,7.8,4.1,10.4c0.1,0.1,0.2,0.3,0.4,0.4c0.3,0.3,0.6,0.6,1,0.8
	c1.3,1.1,2.7,1.8,4.2,2.4c1.8,0.6,3.7,1,5.8,1c8.7,0,15.5-6.1,15.5-14.9C159.6,21.2,158.8,18.4,157.3,16.2z M144.1,36.9
	c-1.3,0-2.4-0.4-3.3-1.2l0,0c-0.1-0.1-0.2-0.2-0.3-0.3c-0.3-0.3-0.6-0.7-0.8-1.1c-1-1.4-1.6-3.1-1.7-6.1c0-0.2,0-0.4,0-0.5
	c-0.1-1.1-0.1-2.2-0.1-3.4c0-8.6,2.1-12.7,6.3-12.7c0.7,0,1.4,0.1,2,0.4c0,0,0.1,0,0.1,0c0.1,0,0.2,0.1,0.3,0.1c0,0,0.1,0,0.1,0.1
	c0.7,0.4,1.3,0.9,1.8,1.6c0,0,0,0,0,0c0.1,0.1,0.2,0.2,0.2,0.3c1,1.5,1.4,3.4,1.6,5.3c0.1,0.9,0.2,1.8,0.2,2.8c0,0,0,0.3,0,0.3h0
	c0,0,0,1.2,0,1.9C150.5,32.9,148.5,36.9,144.1,36.9z"/>
</svg>
